/* XPM */
static char *result[] = {
/* columns rows colors chars-per-pixel */
"50 50 90 1 ",
"  c #B76A27",
". c #B86D27",
"X c #BA7229",
"o c #BA7535",
"O c #C0742A",
"+ c #C37A2C",
"@ c #CD852F",
"# c #D1862F",
"$ c #C58331",
"% c #C88730",
"& c #C58E36",
"* c #CC8C32",
"= c #C28539",
"- c #C58B3B",
"; c #D28730",
": c #D48B32",
"> c #D88E32",
", c #C89435",
"< c #CC9B36",
"1 c #CF913B",
"2 c #D39434",
"3 c #DC9434",
"4 c #D49A35",
"5 c #DD9A36",
"6 c #E19B36",
"7 c #E09F38",
"8 c #CFAC3B",
"9 c #DEA439",
"0 c #D2AE3C",
"q c #DDA93A",
"w c #D6B13D",
"e c #DBB53D",
"r c #E2A037",
"t c #E2A339",
"y c #E8A73A",
"u c #E3AB3B",
"i c #E9AB3C",
"p c #E5B33D",
"a c #EAB43E",
"s c #E3B93F",
"d c #EAB83F",
"f c #CB9B4E",
"g c #D3A548",
"h c #D4AC4B",
"j c #DDAB49",
"k c #DBB541",
"l c #D9B84F",
"z c #D5A954",
"x c #E4BC41",
"c c #EBBC40",
"v c #EDC343",
"b c #EECA45",
"n c #EEC649",
"m c #EDC94B",
"M c #F1C543",
"N c #F5CD46",
"B c #F5CD4A",
"V c #ECD549",
"C c #F4D247",
"Z c #F6D549",
"A c #F6DB4A",
"S c #F8DD4B",
"D c #E4CB57",
"F c #EDC954",
"G c #E3C95F",
"H c #F4D451",
"J c #F7E34C",
"K c #F9E54D",
"L c #F5EB4F",
"P c #FAEC4F",
"I c #F7E153",
"U c #F9E451",
"Y c #FAEC53",
"T c #FCF452",
"R c #FDFB54",
"E c #FCF759",
"W c #FDFB5A",
"Q c #DEC36A",
"! c #E4CE64",
"~ c #EBDB60",
"^ c #F1E766",
"/ c #FCFB62",
"( c #F7F26C",
") c #FAF66E",
"_ c #FBF96F",
"` c #F2E973",
"' c #FBF971",
"] c #F7F278",
"[ c #F9F67B",
"{ c None",
/* pixels */
"{{{{{{{{{{{{{{{{{{{{{{{{{{{{{{{{{{{{{{{{{{{{{{{{{{",
"{{{{{{{{{{{{{{{{{{{{{{{{{{{{{{{{{{{{{{{{{{{{{{{{{{",
"{{{{{{{{{{{{{{{{{{{{{{{{{{{{{{{{{{{{{{{{{{{{{{{{{{",
"{{{{{{{{{{{{{{{{{{{{{BHHIYYY{{{{{{{{{{{{{{{{{{{{{{",
"{{{{{{{{{{{{{{{{{BBNNZSJKKKKYYTT{{{{{{{{{{{{{{{{{{",
"{{{{{{{{{{{{{{{NNNNNSZCNvMvMBCALTTE{{{{{{{{{{{{{{{",
"{{{{{{{{{{{{{BNNNNNNMdaiaaaddccbZLTE{{{{{{{{{{{{{{",
"{{{{{{{{{{{{BBNNSNNaiiiiaiaddcccvvATR{{{{{{{{{{{{{",
"{{{{{{{{{{{BNNZSZMiiyiiiiaadcdccccvCLR{{{{{{{{{{{{",
"{{{{{{{{{{BNNNSSMaiiyiiiiiidicacccccbPR{{{{{{{{{{{",
"{{{{{{{{{BNNCJKMaiiiiyiiiipMaaacccvcvbLR{{{{{{{{{{",
"{{{{{{{{{BNNSPZdaaiiiyyiitVRcaaaddcccvCTR{{{{{{{{{",
"{{{{{{{{BNNZTKvddaiaiiiyysRRLcaddddcdvvARW{{{{{{{{",
"{{{{{{{{NNNPTNvddaaaaiiyqLRRRZiaddddddxvKR{{{{{{{{",
"{{{{{{{BNNSRKvddddaaiii9VRRRRRMddaddccccNTW{{{{{{{",
"{{{{{{{NNNPTCvvvcddaaatsRRRRRRYcaddddscxvJR{{{{{{{",
"{{{{{{NNNCPPMvvvcccddaqLRRRRRRRKdaaddddccVT{{{{{{{",
"{{{{{{NNNAPCvMvvMcdddMATRTRRTTTTKNdaddddcvLR{{{{{{",
"{{{{{{NNNAJvcMMvvvMNKPPPPPPPPPPPKPKCMdddcdAT{{{{{{",
"{{{{{HNNNAAcccvvbZAKKKKKLKKKKKKKKKKKJZNddpvT{{{{{{",
"{{{{{BNNNZNaddqCAASSSSSSSSSSJJAASSSSAAAp9upL{{{{{{",
"{{{{{BNNNNcaaa.qZZZZZZZSZZZZZZZZNZZZZZv29teJY{{{{{",
"{{{{{NNNNNdaaa4.vCNNNNNNNNNNNNNNNNNNNN4tttuAY{{{{{",
"{{{{{NNMNNayiaa+@NNNNNNNNNNNNNNNNNNNZp2rtquZY{{{{{",
"{{{{{NNNMNayiaay uCNNNNNNNNNNNNNNNNNN55ttttVY{{{{{",
"{{{{{NMMNNayyiaa2OMNNNNNNNNNNNNNNNNNp3tt9ttbU{{{{{",
"{{{{{nMMMNayyiiaaO>NNNNNNNNNNNNNNNNM366r7t9CK{{{{{",
"{{{{{nMMMNdyyyiiar.cNNNNNNZNNZNNNNNa366rr5tCU{{{{{",
"{{{{{nMvvNcyyyyyrrO4SAAAAAAASAAAAAAc66655tuCU{{{{{",
"{{{{{nvvcNMyyr66rr%4KKKKKKKKKKKKKKKc666676uZ{{{{{{",
"{{{{{{vccbMr66666r#<TTPTPTTTTTPTTTTv666556sA{{{{{{",
"{{{{{{vccMNy66666r#<RRRRRRRRRRRRRRWM666567cA{{{{{{",
"{{{{{{ncxcNd666666#,WWWWWWWWWWWWWWWmr6656tMA{{{{{{",
"{{{{{{{xsxMMt66666;*///////////////mt6565aB{{{{{{{",
"{{{{{{{xssxNa66666#f()_')^Dhl~(''''Ft9t7tvB{{{{{{{",
"{{{{{{{xsesvMr6666:+][`Gg125*$-h!`[Ftt75dN{{{{{{{{",
"{{{{{{{{epesNd6666>oQz1:5tupppq2$=fjyttuCH{{{{{{{{",
"{{{{{{{{{eeecNi6666O;366rttuupsppu44utubA{{{{{{{{{",
"{{{{{{{{{kw0wMMt666666666rtuyuppxpuuqubJ{{{{{{{{{{",
"{{{{{{{{{{e00eNMr66666666rrtuupppppupbJU{{{{{{{{{{",
"{{{{{{{{{{{w08eMMy566666667r9uupxppsZYY{{{{{{{{{{{",
"{{{{{{{{{{{{88webNdr66666667ttuuupvJTY{{{{{{{{{{{{",
"{{{{{{{{{{{{{088wvNMi66666666ttuxZTW{{{{{{{{{{{{{{",
"{{{{{{{{{{{{{{{88wsMNMdiy6rrtpcCJYT{{{{{{{{{{{{{{{",
"{{{{{{{{{{{{{{{{{w8wkvNNNMMMMBZSJ{{{{{{{{{{{{{{{{{",
"{{{{{{{{{{{{{{{{{{{{{kxnNBBNBC{{{{{{{{{{{{{{{{{{{{",
"{{{{{{{{{{{{{{{{{{{{{{{{{{{{{{{{{{{{{{{{{{{{{{{{{{",
"{{{{{{{{{{{{{{{{{{{{{{{{{{{{{{{{{{{{{{{{{{{{{{{{{{",
"{{{{{{{{{{{{{{{{{{{{{{{{{{{{{{{{{{{{{{{{{{{{{{{{{{",
"{{{{{{{{{{{{{{{{{{{{{{{{{{{{{{{{{{{{{{{{{{{{{{{{{{"
};
