/* XPM */
static char *result[] = {
/* columns rows colors chars-per-pixel */
"50 50 73 1 ",
"  c #C6822E",
". c #C48737",
"X c #CA8535",
"o c #CC8B33",
"O c #C58A38",
"+ c #D28F34",
"@ c #D18F38",
"# c #CE9133",
"$ c #CC953C",
"% c #D69435",
"& c #DD9434",
"* c #D59936",
"= c #DD9A36",
"- c #E19B36",
"; c #E19F38",
": c #CFAC3A",
"> c #DDA439",
", c #D2AD3B",
"< c #DDA93A",
"1 c #D6B13C",
"2 c #DBB43D",
"3 c #DEB93F",
"4 c #E2A439",
"5 c #E8A73A",
"6 c #E4AB3B",
"7 c #E9AC3C",
"8 c #E4B43D",
"9 c #EAB43E",
"0 c #E3B93F",
"q c #EAB93F",
"w c #CB9144",
"e c #D29C42",
"r c #DFB742",
"t c #D3AD54",
"y c #D9B652",
"u c #E5BC40",
"i c #EBBD41",
"p c #DFC156",
"a c #E7C443",
"s c #EDC342",
"d c #EECA45",
"f c #F1C644",
"g c #F5CD46",
"h c #F5CE4A",
"j c #EDD949",
"k c #F5D147",
"l c #F5D549",
"z c #F6DA4A",
"x c #F8DE4B",
"c c #F6D250",
"v c #F6E24C",
"b c #F8E34C",
"n c #FAEA4F",
"m c #F7EE50",
"M c #FAED52",
"N c #F5EE58",
"B c #F8ED58",
"V c #FBF252",
"C c #FDFA55",
"Z c #FBF358",
"A c #FCFB5C",
"S c #E3CB66",
"D c #E7CE6B",
"F c #EADB71",
"G c #F5EA61",
"H c #F1E76D",
"J c #F6EA6D",
"K c #F7F164",
"L c #FCFB67",
"P c #FCFB69",
"I c #F4ED70",
"U c #FBFA77",
"Y c None",
/* pixels */
"YYYYYYYYYYYYYYYYYYYYYYYYYYYYYYYYYYYYYYYYYYYYYYYYYY",
"YYYYYYYYYYYYYYYYYYYYYYYYYYYYYYYYYYYYYYYYYYYYYYYYYY",
"YYYYYYYYYYYYYYYYYYYYYYYYYYYYYYYYYYYYYYYYYYYYYYYYYY",
"YYYYYYYYYYYYYYYYYYYkghhhkkcxbMMVYYYYYYYYYYYYYYYYYY",
"YYYYYYYYYYYYYYYYYhggggggglzzxzxnCVYYYYYYYYYYYYYYYY",
"YYYYYYYYYYYYYYYYhhgkggggkgfi9iifzVZYYYYYYYYYYYYYYY",
"YYYYYYYYYYYYYYYgggggggggfq797qqqikVCYYYYYYYYYYYYYY",
"YYYYYYYYYYYYYYhggggggkxg977799qquigZCYYYYYYYYYYYYY",
"YYYYYYYYYYYYYhggggggglzq5777799qqqizVYYYYYYYYYYYYY",
"YYYYYYYYYYYYhgggggggkbf775777999qiisvAYYYYYYYYYYYY",
"YYYYYYYYYYYYkgggggggxxq977776gf9qqiidCYYYYYYYYYYYY",
"YYYYYYYYYYYhgggggggknk9977556nl9qqiqabCYYYYYYYYYYY",
"YYYYYYYYYYYggggggggxnsqq7774aCVqqqqiigZYYYYYYYYYYY",
"YYYYYYYYYYhggkgkgggnbiqq997<vCCk7qq0qanYYYYYYYYYYY",
"YYYYYYYYYYhggggggggnliqq9950CCCVqqqqiszCYYYYYYYYYY",
"YYYYYYYYYhgggggggglngssqq96jCCCCg9qqq0dZYYYYYYYYYY",
"YYYYYYYYYhgkgggggfzbsssqqqqVCCCCns9qqqsnYYYYYYYYYY",
"YYYYYYYYYkggkgggffzzsdsiignnVVVVnbfqqqqbYYYYYYYYYY",
"YYYYYYYYYggggggffszdidssznnnnnnnnnblsqqlZYYYYYYYYY",
"YYYYYYYYYgggggggsslsqakxbbbbbxxxbbbbxs6sZYYYYYYYYY",
"YYYYYYYYhghgggfssskqq*kxlxxxzzzzzzzzz640MYYYYYYYYY",
"YYYYYYYYhhggggssisf99o<kkggkkkkgkkgks*49nYYYYYYYYY",
"YYYYYYYYhggggsssiif974 ggggggggggggg9=48vYYYYYYYYY",
"YYYYYYYYcgggssssiaf77q 8gggggggggggf>>46zYYYYYYYYY",
"YYYYYYYYchggsss00uf759=#ggggggkggggs=;46zYYYYYYYYY",
"YYYYYYYYhgfsssiu0qf7596 fkkgggggggk7=;46zYYYYYYYYY",
"YYYYYYYYhdssii0000f7579#4gggggggggf;-=;6zYYYYYYYYY",
"YYYYYYYYhfssa00023f7557-#gkklkkllkg;--;6zYYYYYYYYY",
"YYYYYYYYYsss000322f954--#zxxxxxxxxz4=--ucYYYYYYYYY",
"YYYYYYYYYdsq002211s7----#bnnnnnnMMb4--&ixYYYYYYYYY",
"YYYYYYYYYau000212:s7---&#mCCCCCCCCM7-&=iYYYYYYYYYY",
"YYYYYYYYYs0003211:0q----#mCCCCCCCCMe--=fYYYYYYYYYY",
"YYYYYYYYYiu2221,::2s----+BZAAAAALAB6=-;fYYYYYYYYYY",
"YYYYYYYYYYu2<2,,::1s4---+BPPPKKPPLG6;-6gYYYYYYYYYY",
"YYYYYYYYYYur2,,,::,a9---@HUIp$OyHUJ6;;iYYYYYYYYYYY",
"YYYYYYYYYYYr1,,,:::3q4--oFSe%4<#XtDr>4hYYYYYYYYYYY",
"YYYYYYYYYYY1,,,::::1f5--Xw+-;5706oO44izYYYYYYYYYYY",
"YYYYYYYYYYYY,,::::::ii--&&--4468u8<66kYYYYYYYYYYYY",
"YYYYYYYYYYYY,:::::::1f6-----;4486866svYYYYYYYYYYYY",
"YYYYYYYYYYYYY::::::::uf;-----4476u<uxYYYYYYYYYYYYY",
"YYYYYYYYYYYYYY,::::::1di-----;4466uxBYYYYYYYYYYYYY",
"YYYYYYYYYYYYYYe:::::::2g9----;=4<uvCYYYYYYYYYYYYYY",
"YYYYYYYYYYYYYYYY:::::::rgi5----4ixCYYYYYYYYYYYYYYY",
"YYYYYYYYYYYYYYYYY:::::::8ggi97qdzMYYYYYYYYYYYYYYYY",
"YYYYYYYYYYYYYYYYYYY,::::,1sgkkklzYYYYYYYYYYYYYYYYY",
"YYYYYYYYYYYYYYYYYYYYYYYYYYYYYYYYYYYYYYYYYYYYYYYYYY",
"YYYYYYYYYYYYYYYYYYYYYYYYYYYYYYYYYYYYYYYYYYYYYYYYYY",
"YYYYYYYYYYYYYYYYYYYYYYYYYYYYYYYYYYYYYYYYYYYYYYYYYY",
"YYYYYYYYYYYYYYYYYYYYYYYYYYYYYYYYYYYYYYYYYYYYYYYYYY",
"YYYYYYYYYYYYYYYYYYYYYYYYYYYYYYYYYYYYYYYYYYYYYYYYYY"
};
