/* XPM */
static char *result[] = {
/* columns rows colors chars-per-pixel */
"50 50 82 1 ",
"  c #CFAC3A",
". c #CFAC3B",
"X c #CFAD3D",
"o c #D0AD3A",
"O c #D1AD3A",
"+ c #D4AE3B",
"@ c #D4AF3B",
"# c #D1AF3D",
"$ c #D0AE3E",
"% c #D4AF3C",
"& c #D2B03F",
"* c #D4B03D",
"= c #D7B13C",
"- c #D8B13C",
"; c #D8B13D",
": c #DBB43D",
"> c #DBB43E",
", c #DCB43F",
"< c #DFB63E",
"1 c #DEB73E",
"2 c #DFB73E",
"3 c #DFB73F",
"4 c #E0B73F",
"5 c #E2B93F",
"6 c #E2BA3F",
"7 c #E3BA3F",
"8 c #D0AF40",
"9 c #D0AF41",
"0 c #E4BA40",
"q c #E6BC40",
"w c #E7BC40",
"e c #E6BD40",
"r c #E8BE41",
"t c #E9BF41",
"y c #EABF41",
"u c #EAC041",
"i c #EBC142",
"p c #ECC242",
"a c #ECC342",
"s c #EDC443",
"d c #EFC543",
"f c #EEC74C",
"g c #EFC84C",
"h c #F0C744",
"j c #F2C944",
"k c #F2C945",
"l c #F4CB45",
"z c #F5CB46",
"x c #F5CC45",
"c c #F5CC46",
"v c #F5CC47",
"b c #F5CD47",
"n c #F6CD46",
"m c #F5CE47",
"M c #F6CE47",
"N c #F4CB48",
"B c #F4CB49",
"V c #F5CC48",
"C c #F5CD48",
"Z c #F4CD49",
"A c #F5CD49",
"S c #F6CD48",
"D c #F5CE49",
"F c #F4CC4A",
"G c #F4CD4A",
"H c #F6CD4A",
"J c #F5CE4B",
"K c #F6CE4A",
"L c #F3CC4D",
"P c #F4CD4E",
"I c #F4CE4E",
"U c #F4CF4E",
"Y c #F5CF4F",
"T c #F5D04E",
"R c #F5D14E",
"E c #F2CD51",
"W c #F5CF50",
"Q c #F4D050",
"! c #F4D150",
"~ c #F5D252",
"^ c #F6D452",
"/ c None",
/* pixels */
"//////////////////////////////////////////////////",
"//////////////////////////////////////////////////",
"//////////////////////////////////////////////////",
"//////////////////////////////////////////////////",
"///////////////////JCAADDDDAAG////////////////////",
"//////////////////Yncxccccxccc////////////////////",
"//////////////////TnccccccccccF///////////////////",
"//////////////////JnccccccccccV///////////////////",
"//////////////////JnccccccccccA///////////////////",
"//////////////////mnccccccccccC///////////////////",
"//////////////////bnccccccccccv///////////////////",
"//////////////////Snccccccccccb///////////////////",
"//////////////////Mnccccccccccb///////////////////",
"//////////////////nnccccccccccc///////////////////",
"//////////////////nnccccccccccc///////////////////",
"/////////////////Pnnccccccccccc///////////////////",
"/////////////////Wnnccccccccccc///////////////////",
"/////////////////WnncccccccccccI//////////////////",
"/////////////////~nncccccccccccU//////////////////",
"/////////////////RnncccccccccccU//////////////////",
"/////////////////Annccccccccccc!//////////////////",
"/////////////////NnncccccccccccU//////////////////",
"/////////////////BnncccccccccccB//////////////////",
"/////////////////HnncccccccccccN//////////////////",
"/////////////////KnncccccccccccZ//////////////////",
"/////////////////KnncccccccccccZ//////////////////",
"/////////////////KnncccccccccccN//////////////////",
"/////////////////BnncccccccccccB//////////////////",
"/////////////////BnncccccccccccI//////////////////",
"/////////////////AnncccccccccccQ//////////////////",
"/////////////////RncccccccccxczU//////////////////",
"/////////////////^ljjjjjjjjjjjkL//////////////////",
"/////////////////Ehddddddddddddg//////////////////",
"/////////////////fspppappppaapp///////////////////",
"//////////////////iyutuuuyuuuuu///////////////////",
"//////////////////rqqqqeeqqeeqw///////////////////",
"//////////////////0565666666757///////////////////",
"//////////////////4<21111212213///////////////////",
"//////////////////,:::::::::::>///////////////////",
"//////////////////;=----------;///////////////////",
"//////////////////%+@@@@@@@@@@*///////////////////",
"//////////////////&oOoOooooooo#///////////////////",
"//////////////////$           X///////////////////",
"//////////////////8           $///////////////////",
"//////////////////9           ////////////////////",
"///////////////////.         .////////////////////",
"//////////////////////////////////////////////////",
"//////////////////////////////////////////////////",
"//////////////////////////////////////////////////",
"//////////////////////////////////////////////////"
};
