/* XPM */
static char *result[] = {
/* columns rows colors chars-per-pixel */
"50 50 84 1 ",
"  c #BE762A",
". c #C07B2C",
"X c #CA842F",
"o c #C68534",
"O c #CB8735",
"+ c #CA8B32",
"@ c #C4883C",
"# c #CE9333",
"$ c #CF953B",
"% c #D49534",
"& c #DA9534",
"* c #D49C36",
"= c #DE9A36",
"- c #D19039",
"; c #E09735",
": c #E19B36",
"> c #E19F38",
", c #CFAC3A",
"< c #DDA439",
"1 c #D1AE3B",
"2 c #D6B13C",
"3 c #DCB43D",
"4 c #DDB83E",
"5 c #E1A037",
"6 c #E2A439",
"7 c #E8A73A",
"8 c #E3AB3B",
"9 c #E9AC3C",
"0 c #E4B33D",
"q c #EAB43E",
"w c #E3B93F",
"e c #E9B83F",
"r c #CB9A45",
"t c #D1AF42",
"y c #D1B042",
"u c #DBB641",
"i c #D1A656",
"p c #D7AC55",
"a c #DAB350",
"s c #DBBC50",
"d c #E0AB44",
"f c #E7B544",
"g c #E5BC41",
"h c #EABC40",
"j c #E7B649",
"k c #F0BE41",
"l c #E5C243",
"z c #EDC342",
"x c #EFCA45",
"c c #EDC549",
"v c #F1C644",
"b c #F5CD46",
"n c #F5CE4A",
"m c #F3D147",
"M c #F5D548",
"N c #F6DB4A",
"B c #F8DE4B",
"V c #E1C655",
"C c #F6DA51",
"Z c #F6E34C",
"A c #F9E54D",
"S c #F6EA4F",
"D c #FAEB4F",
"F c #FAED51",
"G c #F5EF5C",
"H c #F7F056",
"J c #FBF353",
"K c #FDFB54",
"L c #FBF659",
"P c #FDFA5A",
"I c #DCC267",
"U c #E1C860",
"Y c #EDDF6C",
"T c #EEE263",
"R c #F3EA67",
"E c #F4EC68",
"W c #FAF660",
"Q c #FCFC62",
"! c #FAF66E",
"~ c #FBF96F",
"^ c #F3EB75",
"/ c #FBFA70",
"( c #F9F47A",
") c None",
/* pixels */
"))))))))))))))))))))))))))))))))))))))))))))))))))",
"))))))))))))))))))))))))))))))))))))))))))))))))))",
"))))))))))))))))))))))))))))))))))))))))))))))))))",
"))))))))))))))))))))))))))))))))))))))))))))))))))",
"))))))))))))))JJFFAAANMmbbbnbbbn))))))))))))))))))",
")))))))))))))JFAMvxvvnNMbbbbbbnbbb))))))))))))))))",
")))))))))))PJFmlhe0qqqevbbbbbbbbbbbn))))))))))))))",
"))))))))))PJZzgeeeqqq999kNNbbbbbbbbbn)))))))))))))",
"))))))))))JBzwhehqqq99977kmNbbbbbbbbbn))))))))))))",
")))))))))PAzheeeqqq9999799vBNbbbbbbNbbn)))))))))))",
"))))))))PDzlheeeqhh8999999qmAMbbbbbbbbbn))))))))))",
"))))))))JmleheeqqbZ8999999qkAAbbbbbbbbbbn)))))))))",
")))))))PAlehweqqhDKl7979qqqebDNbbbbbbnbbn)))))))))",
")))))))JbhweeeqqMPKZ<999qqeevAAbbbbbbbbbbn))))))))",
"))))))PAhleeeeqkJKKKl79qqqevhBJmbbbbbbbbbn))))))))",
"))))))JmeheeeqqBKKKKS69qqeehzbJBbbbbbbbbbbC)))))))",
"))))))DxhgqqqqvKKKKKKl8qqhhzzvDZbbbbbbbbbbb)))))))",
")))))LZeeeqqebDKKKKJKDzeehkzvzMAxxbbbbbbbbb)))))))",
")))))Lmee0exBDDDJDDDDJDAxkzzzzxZxzxbbbbbbbbn))))))",
")))))FleexNAAAAAAAAAAAAAANxvzhhNbzzbbbbbbbnn))))))",
")))))Se<3NNNBBBBZNBBBBBBZBNx0eeMxzxvbvbbbbbn))))))",
")))))Z86&zMMMNbMMMMNMMMNMMN*+eqbxzhzzxbbbbbb))))))",
")))))B86=<bbbbbbbbbbbbbbbbv 7q9kvhhzzvbbbbbb))))))",
")))))m8<5&zbbbbbbbbbbbbbbb*Xqq9evlhzhxvvbbbb))))))",
"))))Fm<65&3bbbbbbbbbbbbbbv 8q99evewhzzzxvbbb))))))",
")))))n6<55&vbbbbbbbbbmbbM&Xe997kxwwwlzzzvvbb))))))",
")))))m6>5:&wbbbbMbbbbbbbv 89977kx0wwwhzzxvbn))))))",
")))))m6=:5;5bbMbbbbbbbbm<Xq9777kz33wewhzzzvv))))))",
")))))M6=:::8MNNMBNNMNNMM+&77779kl204wwellzzv))))))",
")))))Md=:&&8AAAAAAAAAAAZ#:::577be2334wwwzzzc))))))",
")))))M8>::&qDJJJDJJJDJJS+:::;:7v42224wwwelzc))))))",
")))))Nf:;;;qJKKKKKKKKKKS+:::::9v2122334wegh)))))))",
"))))))z:==:fLPPPPPPPPPPH+=::::qz,,213330wwg)))))))",
"))))))v6=>>fLQQQQPQQQQQGo=::::ve,,,113333wg)))))))",
"))))))nq=>>f!//!TsVR~//EO;:::7v2,,,,12333w))))))))",
")))))))v6><j(^Uro+%$aT(^O;:::ez1,,,,,12233))))))))",
")))))))Cq<5di@O*0086&-pIo:::6v4,,,,,,,12u)))))))))",
")))))))Cx86<-<ee0876>:&OX:;:ev1,,,,,,,11t)))))))))",
"))))))))Bz888800077>>::::::9b41,,,,,,,,1))))))))))",
")))))))))Zw83030765>::;:::5vz1,,,,,,,,,)))))))))))",
")))))))))FZh0038666::::::5zv2,,,,,,,,1y)))))))))))",
"))))))))))FFl08<66::::::6vv3,,,,,,,,,t))))))))))))",
")))))))))))LJx06<::::::7vv4,,,,,,,,,))))))))))))))",
"))))))))))))HDMg7>::69vbv4,,,,,,,,1)))))))))))))))",
"))))))))))))))ANbxhvvnvg11,,,,,,t)))))))))))))))))",
"))))))))))))))))nbnnnlut11,1t)))))))))))))))))))))",
"))))))))))))))))))))))))))))))))))))))))))))))))))",
"))))))))))))))))))))))))))))))))))))))))))))))))))",
"))))))))))))))))))))))))))))))))))))))))))))))))))",
"))))))))))))))))))))))))))))))))))))))))))))))))))"
};
