/* XPM */
static char *result[] = {
/* columns rows colors chars-per-pixel */
"50 50 85 1 ",
"  c #B66B27",
". c #BD7329",
"X c #C2762B",
"o c #C47A2C",
"O c #CB7F2D",
"+ c #C38334",
"@ c #CD8D32",
"# c #D18C35",
"$ c #D88F32",
"% c #CE9133",
"& c #CD923B",
"* c #D49334",
"= c #DB9534",
"- c #D79E36",
"; c #DE9A36",
": c #E19B36",
"> c #E09F38",
", c #CFAC3B",
"< c #DCA238",
"1 c #D2AE3C",
"2 c #DDAB3B",
"3 c #D6B13D",
"4 c #DBB53D",
"5 c #E2A037",
"6 c #E2A339",
"7 c #E8A73A",
"8 c #E3AB3B",
"9 c #E9AC3C",
"0 c #E5B33E",
"q c #EAB43E",
"w c #E3B93F",
"e c #EAB93F",
"r c #C08241",
"t c #C79140",
"y c #CA9942",
"u c #D09847",
"i c #D0AF40",
"p c #D5AA49",
"a c #DDB642",
"s c #D8AE50",
"d c #D6B157",
"f c #DCBE57",
"g c #D5B15A",
"h c #E6BC41",
"j c #EBBC40",
"k c #E4C343",
"l c #EDC343",
"z c #E7C944",
"x c #EECA44",
"c c #EDC548",
"v c #E4CB4C",
"b c #F1C544",
"n c #F5CC46",
"m c #F5CE4A",
"M c #E9D449",
"N c #EEDC4A",
"B c #F5D147",
"V c #F5D549",
"C c #F6DA4A",
"Z c #F8DE4B",
"A c #E0C650",
"S c #E4CD5D",
"D c #F6DD51",
"F c #F3DB58",
"G c #F6E24C",
"H c #F8E24C",
"J c #FAEA4E",
"K c #F9E350",
"L c #FAEB51",
"P c #FBF452",
"I c #FDFA55",
"U c #FCF659",
"Y c #FCFB5D",
"T c #ECD064",
"R c #E7D46D",
"E c #F2DA60",
"W c #EEE069",
"Q c #F5EE62",
"! c #F3EB6D",
"~ c #FCFB67",
"^ c #FCFB68",
"/ c #F4EF7D",
"( c #F8F473",
") c #FBF976",
"_ c None",
/* pixels */
"__________________________________________________",
"__________________________________________________",
"__________________________________________________",
"__________________________________________________",
"_____________________PLLJLKZCVmmm_________________",
"__________________UPLLHZZVZZZCVnnnmm______________",
"________________IPPGVbljjjeejbnVBnnnm_____________",
"_______________IUJBlhjjeq9q9q9qjnnBBnBm___________",
"______________IPGlljeeeqqq9q99979nVVnnnm__________",
"_____________IPVllejeeeqj9q999779qbZZBnnm_________",
"____________IPVhwejeeeqqq999999999qnHZnnm_________",
"___________IPVlleleeeqqbV899777999qjBJZnBm________",
"___________IGljjeeeeqqeJIz677>j79qqqlHJVnnn_______",
"__________ILxhhjleeeqqCIILa77jj7qqqeenPJBnB_______",
"__________PVlheeeeeqqbIIIIZ<777jqqejjbHPCnnm______",
"_________UJlehhjeqqqePIIIIYj:77jqejjjjmPJBnn______",
"_________PVhjjeeeqqqHIIIIIIP28qqeeejlbbJPBnBm_____",
"________IJlheeeeqqqVIIIIIIIIN8qeeejbbllVJGnnm_____",
"________PGheeeqqjBJPJPPJPPPJPJBleljjlblbHZnnm_____",
"________PxeeejxVHJHJJJJJJJJJJJJHVnbbblleCZBnBm____",
"________Jw80lCGHHHHHHZHHHZHZGHHHHHVnlleenCnnnn____",
"_______PG06-2CVCCCVCCCVZCCCZVCCCCCZV%<eejBnnnn____",
"_______JV866*jBnBBBBnBBBnBBBBBnBBBV2 8q9ennnnn____",
"_______Px8<6;5nnnnnnnnnnnnnnnnnnnnb.*eq9qnnnnn____",
"_______Lx<6<6=0nnnnBnnnnnnnnBnnnnB%Xeq99qbnnbn____",
"_______Kx66655-xnnnnnnnnnnnnnnnnB0 8q9999bnbbn____",
"_______Kx65-55=8BnnnnnnnnnnnnnBnbo#q99779bbbbm____",
"_______Kx<555;;=nnnnnnnnnnBnnnnB<.qq9977qnbxbb____",
"_______Kx655:::=bBBBBBBBBBBBBBBn.*999777qnbllm____",
"_______DB855:::5nZHHHHHHZZZHZHHb.:6::777qnllll____",
"________B8::=:55BPJJJJJJJJJJJJJxX::::::7jnljlc____",
"________Ce==::55CPPPIPIPPIPIPIIMX:::::::bbhll_____",
"________Vl:;;::>CYIIIYIYIIIIIIIMo::::::5nlhlk_____",
"_________m6;;:>6Z~YYYYYYYYYYYY~vX::::::qnewhh_____",
"_________bj;:>66F^^^~^~QQ~^^~~^fX:::::>bbwww______",
"_________mb6>>66E))(Wfy+&pS!)))fX:::::9newwh______",
"__________Vh><66TRdt+@-82<*&sR/go:::::bl4ww_______",
"__________DV0666&+#<4e00887>=#uoO::::qne44a_______",
"___________ZB86828000007665::::$::::9ne334________",
"____________HM0880e0088765>::::::::5bb413a________",
"_____________HC020000866::::::::::9bb3113_________",
"______________LGl0088866::::::::>9nb4,11__________",
"_______________UPMh8866>:::::::6jnz3,,1___________",
"________________PPZl886::::::6ennh3,,3____________",
"__________________LHVbjq99qjbnnk411,______________",
"____________________CVnnnnnnbl431_________________",
"__________________________________________________",
"__________________________________________________",
"__________________________________________________",
"__________________________________________________"
};
