/* XPM */
static char *result[] = {
/* columns rows colors chars-per-pixel */
"75 75 228 2 ",
"   c #19130F",
".  c #1A1512",
"X  c #1E1916",
"o  c #1D1A1A",
"O  c #171412",
"+  c #231613",
"@  c #231A15",
"#  c #2C1B15",
"$  c #231D1A",
"%  c #2C1E1A",
"&  c #2A1713",
"*  c #331D16",
"=  c #3A1E15",
"-  c #331F18",
";  c #3B1E18",
":  c #25211E",
">  c #2C221D",
",  c #33231C",
"<  c #3B231B",
"1  c #3B281D",
"2  c #382318",
"3  c #262322",
"4  c #2A2523",
"5  c #2C2926",
"6  c #2D2B2B",
"7  c #282728",
"8  c #332622",
"9  c #3A2621",
"0  c #342A24",
"q  c #3B2C23",
"w  c #342C2B",
"e  c #3A2D2A",
"r  c #3D3127",
"t  c #3D312C",
"y  c #35302E",
"u  c #312F31",
"i  c #353233",
"p  c #3B3433",
"a  c #3D3A3C",
"s  c #3A3738",
"d  c #401F16",
"f  c #45241B",
"g  c #4C261B",
"h  c #432B1D",
"j  c #4B2A1E",
"k  c #482117",
"l  c #55261A",
"z  c #5C271B",
"x  c #542B1D",
"c  c #5B2A1C",
"v  c #542417",
"b  c #4C321D",
"n  c #45311E",
"m  c #55341D",
"M  c #642B1B",
"N  c #692D1D",
"B  c #6C321E",
"V  c #78311E",
"C  c #422B24",
"Z  c #4B2B23",
"A  c #432E29",
"S  c #492B26",
"D  c #582E22",
"F  c #433225",
"G  c #4B3324",
"H  c #44332C",
"J  c #4C342B",
"K  c #45392E",
"L  c #4C3A2C",
"P  c #4F3A23",
"I  c #543324",
"U  c #553B21",
"Y  c #5C3229",
"T  c #563829",
"R  c #443533",
"E  c #443A33",
"W  c #4B3C33",
"Q  c #433C3C",
"!  c #4B3C3C",
"~  c #4A3533",
"^  c #533B33",
"/  c #5B3B34",
"(  c #533D3B",
")  c #593C39",
"_  c #633424",
"`  c #6B3525",
"'  c #66392A",
"]  c #753A28",
"[  c #643B34",
"{  c #743E32",
"}  c #642E23",
"|  c #4C423D",
" . c #4A423B",
".. c #5C4333",
"X. c #54433B",
"o. c #58463A",
"O. c #5B4128",
"+. c #664529",
"@. c #7A4B2A",
"#. c #754429",
"$. c #7A532A",
"%. c #65443B",
"&. c #694736",
"*. c #784837",
"=. c #69523A",
"-. c #7A5530",
";. c #3D3C40",
":. c #413E42",
">. c #4C4343",
",. c #4D494C",
"<. c #454447",
"1. c #554A45",
"2. c #534B4C",
"3. c #594C4C",
"4. c #574744",
"5. c #5D514B",
"6. c #544E51",
"7. c #594E54",
"8. c #565254",
"9. c #5B5253",
"0. c #5D5A5D",
"q. c #595459",
"w. c #4D4C51",
"e. c #674945",
"r. c #754B44",
"t. c #675548",
"y. c #785647",
"u. c #645453",
"i. c #645A5B",
"p. c #6C5D5C",
"a. c #695755",
"s. c #775B59",
"d. c #776459",
"f. c #736253",
"g. c #5C5A61",
"h. c #665E62",
"j. c #755E62",
"k. c #656164",
"l. c #6B6364",
"z. c #6B666B",
"x. c #6E696E",
"c. c #676568",
"v. c #746364",
"b. c #736A6B",
"n. c #7C6B6B",
"m. c #796766",
"M. c #736C72",
"N. c #7B6E72",
"B. c #757176",
"V. c #7C7375",
"C. c #75737B",
"Z. c #7C757C",
"A. c #7D7A7D",
"S. c #746E6F",
"D. c #813B28",
"F. c #89452A",
"G. c #894D39",
"H. c #974D37",
"J. c #865437",
"K. c #975739",
"L. c #A75C39",
"P. c #956437",
"I. c #996B31",
"U. c #A56936",
"Y. c #AB7637",
"T. c #AD7133",
"R. c #845546",
"E. c #845A54",
"W. c #8C5348",
"Q. c #9C7646",
"!. c #876459",
"~. c #956C51",
"^. c #B46E4F",
"/. c #856966",
"(. c #956962",
"). c #88746D",
"_. c #97766B",
"`. c #837B7D",
"'. c #857778",
"]. c #957977",
"[. c #816F70",
"{. c #A5796B",
"}. c #BB8637",
"|. c #C78E3C",
" X c #E3A23E",
".X c #B6844B",
"XX c #988A79",
"oX c #97886E",
"OX c #AC8266",
"+X c #A1877B",
"@X c #B39874",
"#X c #C79351",
"$X c #CDA64C",
"%X c #E6AB44",
"&X c #DEB97D",
"*X c #D1A771",
"=X c #CC8570",
"-X c #EEC953",
";X c #F2D56C",
":X c #7D7A83",
">X c #837C85",
",X c #8C7E82",
"<X c #907E82",
"1X c #88848B",
"2X c #998889",
"3X c #8C8A95",
"4X c #898A96",
"5X c #93929D",
"6X c #9C9697",
"7X c #A88685",
"8X c #B38D87",
"9X c #A89A97",
"0X c #BB9496",
"qX c #B0958D",
"wX c #BFA481",
"eX c #9B9CA9",
"rX c #9898A4",
"tX c #9FA0A7",
"yX c #ABADB6",
"uX c #B0A9AE",
"iX c #C8A48C",
"pX c #CAA3A4",
"aX c #DAB7B9",
"sX c #BEBFC5",
"dX c #C7C7CA",
"fX c #D7D8DC",
"gX c #CDCED4",
"hX c None",
/* pixels */
"hXhXhXhXhXhXhXhXhXhXhXhXhXhXhXhXhXhXhXhXhXhXhXhXhXhXhXhXhXhXhXhXhXhXhXhXhXhXhXhXhXhXhXhXhXhXhXhXhXhXhXhXhXhXhXhXhXhXhXhXhXhXhXhXhXhXhXhXhXhXhXhXhXhXhX",
"hXhXhXhXhXhXhXhXhXhXhXhXhXhXhXhXhXhXhXhXhXhXhXhXhX,.hXhXhXhXhXhXhXhXhXhXhXhXhXhXhXhXhXhXhXhXhXhXhXhXhXhXhXhXhXhXhXhXhXhXhXhXhXhXhXhXhXhXhXhXhXhXhXhXhX",
"hXhXhXhXhXhXhXhXhXhXhXhXhXhXhXhXhXhXhXhXhXhXhXhXhXw.hXhX;.hXhX7 hXu 7 hXhXhXhXhXhXhXhXhXhXhXhXhXhXhXhXhXhXhXhXhXhXhXhXhXhXhXhXhXhXhXhXhXhXhXhXhXhXhXhX",
"hXhXhXhXhXhXhXhXhXhXhXhXhXhXhXhXhXhXhXhXhXhXhXhX6 p 7 4 s <.7 7 i 6 3 u ;.<.<.<.<.q.hXhXhXhXhXhXhXhXhXhXhXhXhXhXhXhXhXhXhXhXhXhXhXhXhXhXhXhXhXhXhXhXhX",
"hXhXhXhXhXhXhXhXhXhXhXhXhXhXhXhXhXhXhXhXhXhXhXhX5 5 3 7 u u 3 o 7 7 3 s s s a ;.;.w.:X4XhXhXhXhXhXhXhXhXhXhXhXhXhXhXhXhXhXhXhXhXhXhXhXhXhXhXhXhXhXhXhX",
"hXhXhXhXhXhXhXhXhXhXhXhXhXhXhXhXhXhXhXhXhXhXhXhX5 5 4 4 4 5 : o 7 o o i 6 u u u i s g.4X4XZ.C.hXhXhXhXhXhXhXhXhXhXhXhXhXhXhXhXhXhXhXhXhXhXhXhXhXhXhXhX",
"hXhXhXhXhXhXhXhXhXhXhXhXhXhXhXhXhXhXhXhXhXhXhX5 5 4 3 4 3 3 o o 3 o o 6 6 5 7 7 6 u 0.5X5X1Xc.4X4XC.hXhXhXhXhXhXhXhXhXhXhXhXhXhXhXhXhXhXhXhXhXhXhXhXhX",
"hXhXhXhXhXhXhXhXhXhXhXhXhXhXhXhXhXhXhXhXhXhXhX: : : : : : : O o 7 O o 6 7 7 7 7 6 6 8.5X5X4XC.yXyXeX:Xg.hXhXhXhXhXhXhXhXhXhXhXhXhXhXhXhXhXhXhXhXhXhXhX",
"hXhXhXhXhXhXhXhXhXhXhXhXhXhXhXhXhXhXhXhXhXhXhX$ X X X X X $ + $ 3 X o 5 : : 4 : 4 5 a 4XtX5X1XyXgXfXeX:X:XhXhXhXhXhXhXhXhXhXhXhXhXhXhXhXhXhXhXhXhXhXhX",
"hXhXhXhXhXhXhXhXhXhXhXhXhXhXhXhXhXhXhXhXhXhXhXhXhXX $ $ X X X X o X X $ X X X X X : i x.4XrX5XeXfXgXgXeX4XhXhXhXhXhXhXhXhXhXhXhXhXhXhXhXhXhXhXhXhXhXhX",
"hXhXhXhXhXhXhXhXhXhXhXhXhXhXhXhXhXhXhXhXhXhXhXhXhXhXhXhXhXhX$ $ 5 + @ r 8 : $ X : 0 8.6Xg.0.x.1XfXsXfXeXeXhXhXhXhXhXhXhXhXhXhXhXhXhXhXhXhXhXhXhXhXhXhX",
"hXhXhXhXhXhXhXhXhXhXhXhXhXhXhXhXhXhXhXhXhXhXhXhXhXhXhXhXhXhXhXhXhXhXL L L 8 9 : > 0 l.uXyXw.a w.:X3XsXtXeXeXhXhXhXhXhXhXhXhXhXhXhXhXhXhXhXhXhXhXhXhXhX",
"hXhXhXhXhXhXhXhXhXhXhXhXhXhXhXhXhXhXhXhXhXhXhXhXhXhXhXhXhXhXhXhXhXo.J j I 8 f 8 5 5 x.gXhXp w s ;.w.k.B.1X3XhXhXhXhXhXhXhXhXhXhXhXhXhXhXhXhXhXhXhXhXhX",
"hXhXhXhXhXhXhXhXhXhXhXhXhXhXhXhXhXhXhXhXhXhXhXhXhXhXhXhXhXhXhXQ X...1 ] +.C g , 5 r q.XXhXhXy y i a ;.;.<.0.hXhXhXhXhXhXhXhXhXhXhXhXhXhXhXhXhXhXhXhXhX",
"hXhXhXhXhXhXhXhXhXhXhXhXhXhXhXhXhXhXhXhXhXhXhXhXhXhXhXH  ...o.d.8.F x ` ' S _ ; 0 | 3.l.b.hXhXhXhXhXhXhXhXhXhXhXhXhXhXhXhXhXhXhXhXhXhXhXhXhXhXhXhXhXhX",
"hXhXhXhXhXhXhXhXhXhXhXhXhXhXhXhXhXhXhXhXhXhXhXhXhXK H 0 +. .1.XX`.%.j x #.S [ ; t t.u.m.b.l.hXhXhXhXhXhXhXhXhXhXhXhXhXhXhXhXhXhXhXhXhXhXhXhXhXhXhXhXhX",
"hXhXhXhXhXhXhXhXhXhXhXhXhXhXhXhXhXhXhXhXhXhXhXhXf.=.$.n O.r =.XX3Xa.9 } Y S r.g e ( a.m.h.q.z.hXhXhXhXhXhXhXhXhXhXhXhXhXhXhXhXhXhXhXhXhXhXhXhXhXhXhXhX",
"hXhXhXhXhXhXhXhXhXhXhXhXhXhXhXhXhXhXhXhXhXhXhXqXoXt.O.r U K -.=.'.j./ / ~ S r.S e R j.j.7.g.>X>XhXhXhXhXhXhXhXhXhXhXhXhXhXhXhXhXhXhXhXhXhXhXhXhXhXhXhX",
"hXhXhXhXhXhXhXhXhXhXhXhXhXhXhXhXhXhXhXhXhXhXt.f.-.-.+.n U 0 +.K q.z.[ ~ :.) j.:.A t u.7.j.:X>X>Xk.hXhXhXhXhXhXhXhXhXhXhXhXhXhXhXhXhXhXhXhXhXhXhXhXhXhX",
"hXhXhXhXhXhXhXhXhXhXhXhXhXhXhXhXhXhXhXhXhXhXo.+.=.+.U P $.r -. .>.z.r.:.~ :.:.7.9 R j.].<X/.>X<XA.hXhXhXhXhXhXhXhXhXhXhXhXhXhXhXhXhXhXhXhXhXhXhXhXhXhX",
"hXhXhXhXhXhXhXhXhXhXhXhXhXhXhXhXhXhXhXhXhXhXr r 1 1 1 1 1 1 +.r :.V.~ Q ) :.e.i.R ~ j.<XiX{.>X<X,Xl.hXhXhXhXhXhXhXhXhXhXhXhXhXhXhXhXhXhXhXhXhXhXhXhXhX",
"hXhXhXhXhXhXhXhXhXhXhXhXhXhXhXhXhXhXhXhXhXhXr b $.U I.m I.O.O.r p 1X^ S :.:.j.a.! Y W.{.pXpX/.>XV.i.hXhXhXhXhXhXhXhXhXhXhXhXhXhXhXhXhXhXhXhXhXhXhXhXhX",
"hXhXhXhXhXhXhXhXhXhXhXhXhXhXhXhXhXhXhXhXhXhXr b U n m 2 b 2 +.b e p.Y Y } ) N.N.:.Y H.^.pXaX<X[.l.1.hXhXhXhXhXhXhXhXhXhXhXhXhXhXhXhXhXhXhXhXhXhXhXhXhX",
"hXhXhXhXhXhXhXhXhXhXhXhXhXhXhXhXhXhXhXhXhXhXr > 2 1 2 1 2 b 2 > : S Y S S :.j./.:.D e.(.0XpX0X/.p.u.hXhXhXhXhXhXhXhXhXhXhXhXhXhXhXhXhXhXhXhXhXhXhXhXhX",
"hXhXhXhXhXhXhXhXhXhXhXhXhXhXhXhXhXhXhXhXhXhX0 , b m m $.m $.x h 1 c c Z 8 t 7.M.R R e.(.<XpX<XE.p./.hXhXhXhXhXhXhXhXhXhXhXhXhXhXhXhXhXhXhXhXhXhXhXhXhX",
"hXhXhXhXhXhXhXhXhXhXhXhXhXhXhXhXhXhXhXhXhXhXe , > > , , # > , 2 f ; - , 8 w :.u.e A e.s.N.0X0X(./.].hXhXhXhXhXhXhXhXhXhXhXhXhXhXhXhXhXhXhXhXhXhXhXhXhX",
"hXhXhXhXhXhXhXhXhXhXhXhXhXhXhXhXhXhXhXhXhXhXq F 1 2 * , 8 8 - < v v v , , 9 ! ! 9 w ( E.[.<X<X{.7X<X3XhXhXhXhXhXhXhXhXhXhXhXhXhXhXhXhXhXhXhXhXhXhXhXhX",
"hXhXhXhXhXhXhXhXhXhXhXhXhXhXhXhXhXhXhXhXhXt J ..L h , > e 8 , - k v k * - ; e ~ R 9 A r.(.[./.E.].7XA.hXhXhXhXhXhXhXhXhXhXhXhXhXhXhXhXhXhXhXhXhXhXhXhX",
"hXhXhXhXhXhXhXhXhXhXhXhXhXhXhXhXhXhXhXhXK R ~ H r > # 0 s 8 % # # * & & % % 8 R p 2.R ~ R./.r.H.(.7Xe.C.hXhXhXhXhXhXhXhXhXhXhXhXhXhXhXhXhXhXhXhXhXhXhX",
"hXhXhXhXhXhXhXhXhXhXhXhXhXhXhXhXhXhXhXW / ( / 9 , & > y hXhXf 2 - * * * + % w e 6 7.v.4.( a.e.{ E._.[ 2.3XhXhXhXhXhXhXhXhXhXhXhXhXhXhXhXhXhXhXhXhXhXhX",
"hXhXhXhXhXhXhXhXhXhXhXhXhXhXhXhXhXhXhXK { e.G.* # > 0 Q hXhXZ C q # & # + % e 9 6 2.v.[.!.{.[ Y y./.W.R M.hXhXhXhXhXhXhXhXhXhXhXhXhXhXhXhXhXhXhXhXhXhX",
"hXhXhXhXhXhXhXhXhXhXhXhXhXhXhXhXhXhXhXr / t.R.= > , K hXhXhXj 9 , , 1 , % - e w e e.v.)._.{.( D *.r.] J i.hXhXhXhXhXhXhXhXhXhXhXhXhXhXhXhXhXhXhXhXhXhX",
"hXhXhXhXhXhXhXhXhXhXhXhXhXhXhXhXhXhXW J *.t.{ Z 9 ! | hXhXhXhXq q 1 I 8 > 5 W 0 Q 7.:X(._.m.9 C { { ] Y i.hXhXhXhXhXhXhXhXhXhXhXhXhXhXhXhXhXhXhXhXhXhX",
"hXhXhXhXhXhXhXhXhXhXhXhXhXhXhXhXhXhXJ ] *.r.Y e E i.hXhXhXhX> , 9 h #., # : p 8 s 2.)./.[.b.8 9 { R.D.D 9.hXhXhXhXhXhXhXhXhXhXhXhXhXhXhXhXhXhXhXhXhXhX",
"hXhXhXhXhXhXhXhXhXhXhXhXhXhXhXhXhX=.I ] r.) A 8 1.h.hXhXhXhX> t r r L q % , - 8 ! u.).s.b.>Xp ; Y ) D.9 6.1XhXhXhXhXhXhXhXhXhXhXhXhXhXhXhXhXhXhXhXhXhX",
"hXhXhXhXhXhXhXhXhXhXhXhXhXhXhXhXP.*.` { e.~ 0 e ,.3.hXhXhXhX> K q q r > % A ; 4 Q c.].s.M.4X:.& C A ` Z a oX@XhXhXhXhXhXhXhXhXhXhXhXhXhXhXhXhXhXhXhXhX",
"hXhXhXhXhXhXhXhXhXhXhXhX..=. .X.Q.G.*.4.e.t 0 p ! hXhXhXhXhX, q > , , % $ t , : y i./.3.b.A.,.: - S @.#.y a.@XV.3XhXhXhXhXhXhXhXhXhXhXhXhXhXhXhXhXhXhX",
"hXhXhXhXhXhXhXhXhXhXhX&.}.^. .t p X.3.i.u.E p E hXhXhXhXhXhX: 8 , e 5 $ % e % 3 y a.-.:.i.l.6.a - Z +.I.r E 1.M.9X*XhXhXhXhXhXhXhXhXhXhXhXhXhXhXhXhXhX",
"hXhXhXhXhXhXhXhXhXhXo.y.U.*.K K Q w.h.m.l.q.>.hXhXhXhXhXhX: $ q r 5 : $ $ 3 4 w s p Q 0.z.B.0. .J J.r n 1 q Q 0.`.iXhXhXhXhXhXhXhXhXhXhXhXhXhXhXhXhXhX",
"hXhXhXhXhXhXhXhXhX=.t.t.F r r F p 7.OX#X).z.hXhXhXhXhXhXhX: $ : , : . . $ $ $ 3 5 4 p 8.z.A.c.1.t.y. .F J.P.o.2.h.5X9XhXhXhXhXhXhXhXhXhXhXhXhXhXhXhXhX",
"hXhXhXhXhXhXhXhXhXo. .r t O.U.J.E >..X;X@XV.hXhXhXhXhXhXhX: $ $ : : X X X $ : 4 5 5 i 8.c.A.).=.t.X.r T |.-Xy.>.m.qX6XhXhXhXhXhXhXhXhXhXhXhXhXhXhXhXhX",
"hXhXhXhXhXhXhXhXhXL O.r L U.%X#X/  .y.*XwX>XhXhXhXhXhXhXhX: $ . : :   X X o $ : 5 : i 6.0.M.n... .r q H Y.}...X.{.&X2XhXhXhXhXhXhXhXhXhXhXhXhXhXhXhXhX",
"hXhXhXhXhXhXhXhXL P.U.H K U.%X$X%.| 3.).9X1XS.hXhXhXhXhXhX< * # : :   . . o o : : : y  .7.x.b.( $.+.q r H W E 1.#X;X+XhXhXhXhXhXhXhXhXhXhXhXhXhXhXhXhX",
"hXhXhXhXhXhXhXhXT $X|.G 8 T J.@.K  .1.b.oX'.oXhXhXhXhXhXhX< & &   .   X . o : 7 y 5 w y 2.C.>X4.$X}.C r 8 0 E 1._.OXXXhXhXhXhXhXhXhXhXhXhXhXhXhXhXhXhX",
"hXhXhXhXhXhXhXhX..U.I.F 1 q E E r t o.v.B.oX&XhXhXhXhXhX, * * +         X : : 3 5 u p 9 s z.:Xh.-.P.1 , O.+.P  .5.b.V.hXhXhXhXhXhXhXhXhXhXhXhXhXhXhXhX",
"hXhXhXhXhXhXhXhXhXL J , : > y 0 ,  ..X$X).oXhXhXhXhXhXhX8 ; d +         . X : 4 6 p T f u g.:X:Xo.r > n |.%X@.p E t.n.hXhXhXhXhXhXhXhXhXhXhXhXhXhXhXhX",
"hXhXhXhXhXhXhXhXhXr > 2 1 h r p y -. X-Xf.p.hXhXhXhXhXhX1 < d &       . . o : 3 6 p T d 4 7.Z.>Xp.r > r I.Y.+.t =.oXhXhXhXhXhXhXhXhXhXhXhXhXhXhXhXhXhX",
"hXhXhXhXhXhXhXhXhXr , b T.U.U y p /..XQ.t.1.hXhXhXhXhXhX, x l =         . o o : 4 5 q C 4 :.[.>Xd.r > , , r r W I.hXhXhXhXhXhXhXhXhXhXhXhXhXhXhXhXhXhX",
"hXhXhXhXhXhXhXhXhXhX0 n }. X$., K | 4.W X.hXhXhXhXhXhXhX% g ` N * + . . O o : 3 o X $ A H 4.b.b.8.hXhXT $.T E  .hXhXhXhXhXhXhXhXhXhXhXhXhXhXhXhXhXhXhX",
"hXhXhXhXhXhXhXhXhXhXhXF b +.h > q t E p W hXhXhXhXhXhXhX* f N N } D & . X X o $ $ . + 8 ^ 4.p.m.0.hXhXhXhXhXhXhXhXhXhXhXhXhXhXhXhXhXhXhXhXhXhXhXhXhXhX",
"hXhXhXhXhXhXhXhXhXhXhXhXU 2 > 2 @.Y.+.e hXhXhXhXhXhXhXhX- - M N } { D 4 7 O O $ $ + + $ ~ 4.a.p.9.hXhXhXhXhXhXhXhXhXhXhXhXhXhXhXhXhXhXhXhXhXhXhXhXhXhX",
"hXhXhXhXhXhXhXhXhXhXhXhXhXhX> F U.hXhXhXhXhXhXhXhXhXhXhX- * M z D ` _ R ,.hX. % : @ + - ~ %./.b.hXhXhXhXhXhXhXhXhXhXhXhXhXhXhXhXhXhXhXhXhXhXhXhXhXhXhX",
"hXhXhXhXhXhXhXhXhXhXhXhXhXhXhXhXhXhXhXhXhXhXhXhXhXhXhX1 j g z l ` } [ :.9.hXhXhX: $ + 9 ^ *.[.V.hXhXhXhXhXhXhXhXhXhXhXhXhXhXhXhXhXhXhXhXhXhXhXhXhXhXhX",
"hXhXhXhXhXhXhXhXhXhXhXhXhXhXhXhXhXhXhXhXhXhXhXhXhXhXhXq 1 v z B ' } / 5.hXhXhXhX> % % 9 / &.i.>XhXhXhXhXhXhXhXhXhXhXhXhXhXhXhXhXhXhXhXhXhXhXhXhXhXhXhX",
"hXhXhXhXhXhXhXhXhXhXhXhXhXhXhXhXhXhXhXhXhXhXhXhXhXhX_ 1 h M k k l f ~ 7.hXhXhXhX4 % ; I / J :.C.hXhXhXhXhXhXhXhXhXhXhXhXhXhXhXhXhXhXhXhXhXhXhXhXhXhXhX",
"hXhXhXhXhXhXhXhXhXhXhXhXhXhXhXhXhXhXhXhXhXhXhXhXhXhX_ 1 f N f M N ; e 2.hXhXhXhXhX- I I 9 9 Q x.hXhXhXhXhXhXhXhXhXhXhXhXhXhXhXhXhXhXhXhXhXhXhXhXhXhXhX",
"hXhXhXhXhXhXhXhXhXhXhXhXhXhXhXhXhXhXhXhXhXhXhXhXhXhXhX< hXB g M M k R hXhXhXhXhXhX, I < > , w 0.hXhXhXhXhXhXhXhXhXhXhXhXhXhXhXhXhXhXhXhXhXhXhXhXhXhXhX",
"hXhXhXhXhXhXhXhXhXhXhXhXhXhXhXhXhXhXhXhXhXhXhXhXhXhXhXj hXg d z V ] [ hXhXhXhXhXhXhXx * # , 0 8.hXhXhXhXhXhXhXhXhXhXhXhXhXhXhXhXhXhXhXhXhXhXhXhXhXhXhX",
"hXhXhXhXhXhXhXhXhXhXhXhXhXhXhXhXhXhXhXhXhXhXhXhXhXhXhXhX*.1 & } D.{ { hXhXhXhXhXhXhX, = * # 4 8.hXhXhXhXhXhXhXhXhXhXhXhXhXhXhXhXhXhXhXhXhXhXhXhXhXhXhX",
"hXhXhXhXhXhXhXhXhXhXhXhXhXhXhXhXhXhXhXhXhXhXhXhXhXhXhXhXJ.h & f } Y hXhXhXhXhXhXhXhX, 2 l ; , 3.'.hXhXhXhXhXhXhXhXhXhXhXhXhXhXhXhXhXhXhXhXhXhXhXhXhXhX",
"hXhXhXhXhXhXhXhXhXhXhXhXhXhXhXhXhXhXhXhXhXhXhXhXhXhXhXhXH.Z & 9 C %.hXhXhXhXhXhXhX% # * B f > u.'.hXhXhXhXhXhXhXhXhXhXhXhXhXhXhXhXhXhXhXhXhXhXhXhXhXhX",
"hXhXhXhXhXhXhXhXhXhXhXhXhXhXhXhXhXhXhXhXhXhXhXhXhXhXhXhXD.f ; / [ ^.hXhXhXhXhXhXhX: # f z c f u.).hXhXhXhXhXhXhXhXhXhXhXhXhXhXhXhXhXhXhXhXhXhXhXhXhXhX",
"hXhXhXhXhXhXhXhXhXhXhXhXhXhXhXhXhXhXhXhXhXhXhXhXhXhXhXhX` * Z { W.^.=XhXhXhXhXhXhX: & c B B S u.hXhXhXhXhXhXhXhXhXhXhXhXhXhXhXhXhXhXhXhXhXhXhXhXhXhXhX",
"hXhXhXhXhXhXhXhXhXhXhXhXhXhXhXhXhXhXhXhXhXhXhXhXhXhXhXhX] * } W.L.^.hXhXhXhXhXhX: # > l B f e e.hXhXhXhXhXhXhXhXhXhXhXhXhXhXhXhXhXhXhXhXhXhXhXhXhXhXhX",
"hXhXhXhXhXhXhXhXhXhXhXhXhXhXhXhXhXhXhXhXhXhXhXhXhXhXhXhXF.; Y H.H.W.hXhXhXhXhXhXhX% ; z ; - e e.hXhXhXhXhXhXhXhXhXhXhXhXhXhXhXhXhXhXhXhXhXhXhXhXhXhXhX",
"hXhXhXhXhXhXhXhXhXhXhXhXhXhXhXhXhXhXhXhXhXhXhXhXhXhXhXhX] d ` H.D.{ hXhXhXhXhXhXhXf N l & 8 R E.hXhXhXhXhXhXhXhXhXhXhXhXhXhXhXhXhXhXhXhXhXhXhXhXhXhXhX",
"hXhXhXhXhXhXhXhXhXhXhXhXhXhXhXhXhXhXhXhXhXhXhXhXhXhXhXhXH.F.*.~.y.hXhXhXhXhXhXhXhXZ ` < - A u.hXhXhXhXhXhXhXhXhXhXhXhXhXhXhXhXhXhXhXhXhXhXhXhXhXhXhXhX",
"hXhXhXhXhXhXhXhXhXhXhXhXhXhXhXhXhXhXhXhXhXhXhXhXhXhXhXL.L.K.s.].n.hXhXhXhXhXhXhXhXZ Z - A :.<XhXhXhXhXhXhXhXhXhXhXhXhXhXhXhXhXhXhXhXhXhXhXhXhXhXhXhXhX",
"hXhXhXhXhXhXhXhXhXhXhXhXhXhXhXhXhXhXhXhXhXhXhXhXhXhXK.K.K.u.N.V.v.hXhXhXhXhXhXhXhX9 ; : :.7.>X<XhXhXhXhXhXhXhXhXhXhXhXhXhXhXhXhXhXhXhXhXhXhXhXhXhXhXhX",
"hXhXhXhXhXhXhXhXhXhXhXhXhXhXhXhXhXhXhXhXhXhXhXhXhX*.G.K.s.v.b.h.i.hXhXhXhXhXhXhXhXhX> % :.h.>X<X3XhXhXhXhXhXhXhXhXhXhXhXhXhXhXhXhXhXhXhXhXhXhXhXhXhXhX",
"hXhXhXhXhXhXhXhXhXhXhXhXhXhXhXhXhXhXhXhXhXhXhXhX%.%.W.R.i.x.i.9.9.hXhXhXhXhXhXhXhXhX, 4 ! s.j.>X:XhXhXhXhXhXhXhXhXhXhXhXhXhXhXhXhXhXhXhXhXhXhXhXhXhXhX",
"hXhXhXhXhXhXhXhXhXhXhXhXhXhXhXhXhXhXhXhXhXhXhXL J J S ! | ,.8.3.hXhXhXhXhXhXhXhXhXhX4 % [ W.E.a.'.`.hXhXhXhXhXhXhXhXhXhXhXhXhXhXhXhXhXhXhXhXhXhXhXhXhX",
"hXhXhXhXhXhXhXhXhXhXhXhXhXhXhXhXhXhXhXhXhXhXhXhX4 8 > w hXhXhXhXhXhXhXhXhXhXhXhXhXhXhX> < Y s.) j.j./.hXhXhXhXhXhXhXhXhXhXhXhXhXhXhXhXhXhXhXhXhXhXhXhX",
"hXhXhXhXhXhXhXhXhXhXhXhXhXhXhXhXhXhXhXhXhXhXhXhXhXhXhXhXhXhXhXhXhXhXhXhXhXhXhXhXhXhXhXhX$ - ~ w p :.hXhXhXhXhXhXhXhXhXhXhXhXhXhXhXhXhXhXhXhXhXhXhXhXhX",
"hXhXhXhXhXhXhXhXhXhXhXhXhXhXhXhXhXhXhXhXhXhXhXhXhXhXhXhXhXhXhXhXhXhXhXhXhXhXhXhXhXhXhXhXhXhXhXhXhXhXhXhXhXhXhXhXhXhXhXhXhXhXhXhXhXhXhXhXhXhXhXhXhXhXhX"
};
