/* XPM */
static char *result[] = {
/* columns rows colors chars-per-pixel */
"50 50 162 2 ",
"   c #030201",
".  c #090303",
"X  c #0E0E0E",
"o  c #120303",
"O  c #1B0302",
"+  c #1C1814",
"@  c #220505",
"#  c #2D0606",
"$  c #340404",
"%  c #360404",
"&  c #3F0303",
"*  c #3E0909",
"=  c #391A15",
"-  c #28241C",
";  c #2B2C2B",
":  c #410505",
">  c #420505",
",  c #400A0A",
"<  c #480808",
"1  c #4B0908",
"2  c #490B0B",
"3  c #4E0808",
"4  c #4F0909",
"5  c #530505",
"6  c #580404",
"7  c #5C0707",
"8  c #560909",
"9  c #520D0D",
"0  c #5D0B0B",
"q  c #5C0D0D",
"w  c #561010",
"e  c #5E1313",
"r  c #5B1A19",
"t  c #670707",
"y  c #6D0606",
"u  c #600808",
"i  c #610E0E",
"p  c #6F0A0A",
"a  c #680F0F",
"s  c #6E0F0F",
"d  c #740606",
"f  c #730B0B",
"g  c #740E0F",
"h  c #7A0808",
"j  c #790C0C",
"k  c #7A0D0D",
"l  c #7E0C0C",
"z  c #651212",
"x  c #671212",
"c  c #621414",
"v  c #6D1111",
"b  c #691414",
"n  c #641817",
"m  c #651E1C",
"M  c #701212",
"N  c #761313",
"B  c #721515",
"V  c #761515",
"C  c #771515",
"Z  c #7B1212",
"A  c #7F1212",
"S  c #7A1515",
"D  c #7C1515",
"F  c #7D1717",
"G  c #761919",
"H  c #7B1818",
"J  c #7E1818",
"K  c #7D1B1B",
"L  c #73211F",
"P  c #7E201F",
"I  c #442520",
"U  c #512420",
"Y  c #473E2E",
"T  c #5F3127",
"R  c #583D2D",
"E  c #433F34",
"W  c #7A2F2A",
"Q  c #6D342D",
"!  c #703C33",
"~  c #584537",
"^  c #524A3A",
"/  c #554B39",
"(  c #7D4738",
")  c #7F4B3F",
"_  c #5A5244",
"`  c #595547",
"'  c #6B5042",
"]  c #665D4B",
"[  c #675D4C",
"{  c #735141",
"}  c #6B614F",
"|  c #76684C",
" . c #6C6250",
".. c #6E6350",
"X. c #6E6357",
"o. c #6D6554",
"O. c #746853",
"+. c #746954",
"@. c #796C51",
"#. c #756C59",
"$. c #820E0E",
"%. c #851010",
"&. c #811515",
"*. c #851414",
"=. c #891212",
"-. c #8D1616",
";. c #821919",
":. c #851919",
">. c #861A1A",
",. c #891A1A",
"<. c #8C1A1A",
"1. c #8D1D1D",
"2. c #901A1A",
"3. c #941818",
"4. c #901D1D",
"5. c #961C1C",
"6. c #991E1E",
"7. c #9E1F1F",
"8. c #822523",
"9. c #822E2A",
"0. c #8F2C29",
"q. c #942020",
"w. c #992323",
"e. c #9D2222",
"r. c #88302C",
"t. c #A12424",
"y. c #A62424",
"u. c #A92727",
"i. c #AB2828",
"p. c #AD2929",
"a. c #AF2A2A",
"s. c #B02A2A",
"d. c #86594E",
"f. c #877657",
"g. c #80745E",
"h. c #8E725D",
"j. c #837762",
"k. c #867C68",
"l. c #857C6B",
"z. c #8B7F6B",
"x. c #917F62",
"c. c #9B8866",
"v. c #90836B",
"b. c #91856C",
"n. c #99896A",
"m. c #8E8571",
"M. c #958774",
"N. c #9B8F7A",
"B. c #A08D70",
"V. c #AA9772",
"C. c #A4957E",
"Z. c #B2A07F",
"A. c #A09682",
"S. c #A99C85",
"D. c #AC9F88",
"F. c #ADA38D",
"G. c #B4A589",
"H. c #B1A18C",
"J. c #B8AB90",
"K. c #BFB195",
"L. c #C5B89F",
"P. c None",
/* pixels */
"P.P.P.P.P.P.P.P.P.P.P.P.P.P.P.P.P.P.P.P.P.P.P.P.P.P.P.P.P.P.P.P.P.P.P.P.P.P.P.P.P.P.P.P.P.P.P.P.P.P.",
"P.P.P.P.P.P.P.P.P.P.P.P.P.P.P.P.P.P.P.P.P.P.P.P.P.P.P.P.P.P.P.P.P.P.P.P.P.P.P.P.P.P.P.P.P.P.P.P.P.P.",
"P.P.P.P.P.P.P.P.P.P.P.P...v.P.P.P.P.P.P.P.P.P.P.P.P.P.P.P.P.P.P.P.P.P.P.v...P.P.P.P.P.P.P.P.P.P.P.P.",
"P.P.P.P.P.P.P.P.P.P.P.P...z.} P.P.P.P.P.P.P.P.P.P.P.P.P.P.P.P.P.P.P.P. .z...P.P.P.P.P.P.P.P.P.P.P.P.",
"P.P.P.P.P.P.P.P.P.P.P.P.P.b.N.] P.P.P.P.4 v C F :.:.F C v 4 P.P.P.P.[ N.b.P.P.P.P.P.P.P.P.P.P.P.P.P.",
"P.P.P.P.P.P.P.P.P.P.P.P.P.^ G.N.#.I 5 H J i.p.s.s.s.s.p.i.J H 5 I #.N.G.^ P.P.P.P.P.P.P.P.P.P.P.P.P.",
"P.P.P.P.P.P.P.P.P.P.P.P.P.P.g.J.N.) p 6.<.i.a.a.a.a.a.a.i.<.6.p ) N.J.g.P.P.P.P.P.P.P.P.P.P.P.P.P.P.",
"P.P.P.P.P.P.P.P.P.P.P.P.P.P.~ x.C.r.f 2.2.p.a.a.a.a.a.a.p.2.2.f r.C.x.~ P.P.P.P.P.P.P.P.P.P.P.P.P.P.",
"P.P.P.P.P.P.P.P.P.P.P.P.P.P.1 P 9.D f ;.w.s.a.a.a.a.a.a.s.w.;.f D 9.P 1 P.P.P.P.P.P.P.P.P.P.P.P.P.P.",
"P.P.P.P.P.P.P.P.P.P.P.P.P.% p g g h l B i.a.a.a.a.a.a.a.a.i.B l h g g p % P.P.P.P.P.P.P.P.P.P.P.P.P.",
"P.P.P.P.P.P.P.P.P.P.P.P.P.x h h h h -.>.a.a.a.a.a.a.a.a.a.a.>.-.h h h h x P.P.P.P.P.P.P.P.P.P.P.P.P.",
"P.P.P.P.P.P.P.P.P.P.P.P.2 q.$.h h 3.u.q.a.a.a.a.a.a.a.a.a.a.q.u.3.h h $.q.2 P.P.P.P.P.P.P.P.P.P.P.P.",
"P.P.P.P.P.P.P.P.P.P.P.P.0 e.s h $.u.i.4.p.a.a.a.a.a.a.a.a.p.q.i.u.$.h s e.0 P.P.P.P.P.P.P.P.P.P.P.P.",
"P.P.P.P.P.P.P.P.P.P.P., 8 5.c t l 7.i.4.p.a.a.a.a.a.a.a.a.p.4.p.7.l t c 5.8 , P.P.P.P.P.P.P.P.P.P.P.",
"P.P.P.P.P.P.P.P.P.P.P.z u f 1.G l =.y.2.i.a.a.a.a.a.a.a.a.i.2.y.=.l G 1.f u z P.P.P.P.P.P.P.P.P.P.P.",
"P.P.P.P.P.P.P.P.P.P.P.S Z 3 $.e.4.Z -.<.u.a.a.a.a.a.a.a.a.u.<.-.Z 4.e.$.3 Z S P.P.P.P.P.P.P.P.P.P.P.",
"P.P.P.P.P.P.P.P.P.P.P.a H c 3 p *.,.N s y.a.a.a.a.a.a.a.s.y.s Z ,.*.p 3 c H a P.P.P.P.P.P.P.P.P.P.P.",
"P.P.P.P.P.P.P.P.P.P.4 B s 6.1.K 4.N B w 6.s.a.a.a.a.a.a.s.5.w B N 4.K 1.6.s B 4 P.P.P.P.P.P.P.P.P.P.",
"P.P.P.P.P.P.P.P.P.P.: *.e f %.e.P q 8 2 i t.s.a.a.a.a.s.e.i 2 8 q P e.%.f e *.: P.P.P.P.P.P.P.P.P.P.",
"P.P.P.P.P.P.P.P.P.P.P.M b a d l b K 2.s G H i.a.a.a.a.u.H G s 2.K b l d a b M P.P.P.P.P.P.P.P.P.P.P.",
"P.P.P.P.P.P.P.P.P.P.P.> N A g 7 t >.t.q.M b <.a.s.s.a.<.b M q.t.;.t 7 g A N > P.P.P.P.P.P.P.P.P.P.P.",
"P.P.P.P.P.P.P.P.P.P.P.P.i ,.$.9 @ # w b 6.s i ;.t.t.;.c s 6.b w # @ 9 $.,.q P.P.P.P.P.P.P.P.P.P.P.P.",
"P.P.P.P.P.P.P.P.P.P.P.O V K g q     . # G 3.7 e K K e 7 3.G # .     q g K V O P.P.P.P.P.P.P.P.P.P.P.",
"P.P.P.P.P.P.P.P.P.P.P.z e K D 8 .   ; + # ;.y t q.q.t y ;.# . ; . . 8 D K e z P.P.P.P.P.P.P.P.P.P.P.",
"P.P.P.P.P.P.P.P.P.P.O D q.w i 8 @ . X . o c 3.h Z N h 3.c o   X . @ 8 i w q.N O P.P.P.P.P.P.P.P.P.P.",
"P.P.P.P.P.P.P.P.P.P.P.8 7.y.H J w o . @ 2 w K *.J J *.K w 2 @ . o w J J y.7.8 P.P.P.P.P.P.P.P.P.P.P.",
"P.P.P.P.P.P.P.P.P.P.P.< *.y.a.u.2.a w * i B M B w.w.B M B i * w a 2.u.a.y.*.< P.P.P.P.P.P.P.P.P.P.P.",
"P.P.P.P.P.P.P.P.P.P.P.P.i A 7.u.;.H H H y.*.i <.p.p.<.i *.y.H H H K u.7.A i P.P.P.P.P.P.P.P.P.P.P.P.",
"P.P.P.P.P.P.P.P.P.P.P.P.P.< i 3 * u 7 3 M w G e.p.p.e.G w M 3 7 u * 3 i < P.P.P.P.P.P.P.P.P.P.P.P.P.",
"P.P.P.P.P.P.P.P.P.P.P.P.P.P.2 7 &.7.&.8 G P w.y.p.p.y.w.P G 8 &.7.A 7 2 P.P.P.P.P.P.P.P.P.P.P.P.P.P.",
"P.P.P.P.P.P.P.P.P.P.P.P.P.P.2 J y.6.g q p.s.i.i.a.a.i.i.s.p.q g 6.y.J 2 P.P.P.P.P.P.P.P.P.P.P.P.P.P.",
"P.P.P.P.P.P.P.P.P.P.P.P.P.P.P.w Q q.1.2 ;.J 5.1.p.p.1.5.J ;.2 1.q.Q w P.P.P.P.P.P.P.P.P.P.P.P.P.P.P.",
"P.P.P.P.P.P.P.P.P.P.P.P.P.k.{ L N.d.,.i 2 o # i u.u.q # o 2 i ,.d.N.L { k.P.P.P.P.P.P.P.P.P.P.P.P.P.",
"P.P.P.P.P.P.P.P.P.P.P.P.P.m.B.! H.S.0.t.B w 9 2 K H 2 9 w B t.0.S.H.! B.m.P.P.P.P.P.P.P.P.P.P.P.P.P.",
"P.P.P.P.P.P.P.P.P.P.P.P.P.l.S.j.L.K.) w.;.1.,.,.b b ,.,.1.;.w.) K.L.j.S.l.P.P.P.P.P.P.P.P.P.P.P.P.P.",
"P.P.P.P.P.P.P.P.P.P.P.P.P._ z.S.L.J.c.' h.( 8.t.t.t.t.8.( h.' c.J.L.S.z._ P.P.P.P.P.P.P.P.P.P.P.P.P.",
"P.P.P.P.P.P.P.P.P.P.P._ A.D.J.L.J.V.| E G.@.z.! r.r.! z.@.G.E | V.K.L.J.D.A._ P.P.P.P.P.P.P.P.P.P.P.",
"P.P.P.P.P.P.P.P.P.P.P.P.m.D.G.Z.c.f.Y   o./ z.o.z.z.o.z./ o.  Y f.c.Z.G.D.m.P.P.P.P.P.P.P.P.P.P.P.P.",
"P.P.P.P.P.P.P.P.P.P.P.P.P.P._ +.b.n.x.Y + + - + E E + - + + Y x.n.b.O._ P.P.P.P.P.P.P.P.P.P.P.P.P.P.",
"P.P.P.P.P.P.P.P.P.P.P.P.P.P.P.X.F.L.Z.c.R = ` E + + E ` = R c.Z.L.F.X.P.P.P.P.P.P.P.P.P.P.P.P.P.P.P.",
"P.P.P.P.P.P.P.P.P.P.P.P.P.P.P.r d.M.J.B.T q Q T U U T Q q T B.J.M.d.r P.P.P.P.P.P.P.P.P.P.P.P.P.P.P.",
"P.P.P.P.P.P.P.P.P.P.P.P.P.P.P.P.n m Q W s p g 5.y.y.5.g p s W Q m n P.P.P.P.P.P.P.P.P.P.P.P.P.P.P.P.",
"P.P.P.P.P.P.P.P.P.P.P.P.P.P.P.P.P.;.1.4.&.>.>.,.1.1.,.>.>.&.4.1.>.P.P.P.P.P.P.P.P.P.P.P.P.P.P.P.P.P.",
"P.P.P.P.P.P.P.P.P.P.P.P.P.P.P.P.P.S e.;.i t y g >.>.g y t i ;.e.S P.P.P.P.P.P.P.P.P.P.P.P.P.P.P.P.P.",
"P.P.P.P.P.P.P.P.P.P.P.P.P.P.P.P.P.> 8 u -.-.l 6.s.s.6.l -.-.u 8 > P.P.P.P.P.P.P.P.P.P.P.P.P.P.P.P.P.",
"P.P.P.P.P.P.P.P.P.P.P.P.P.P.P.P.P.$ y d =.u.Z 1.s.s.1.A u.=.d y $ P.P.P.P.P.P.P.P.P.P.P.P.P.P.P.P.P.",
"P.P.P.P.P.P.P.P.P.P.P.P.P.P.P.P.P.P.6 d h 5.-.4.i.i.4.-.5.h d 6 P.P.P.P.P.P.P.P.P.P.P.P.P.P.P.P.P.P.",
"P.P.P.P.P.P.P.P.P.P.P.P.P.P.P.P.P.P.P.& 5 0 N 5.7.7.5.N 0 5 & P.P.P.P.P.P.P.P.P.P.P.P.P.P.P.P.P.P.P.",
"P.P.P.P.P.P.P.P.P.P.P.P.P.P.P.P.P.P.P.P.P.P.$ 0 k j 0 $ P.P.P.P.P.P.P.P.P.P.P.P.P.P.P.P.P.P.P.P.P.P.",
"P.P.P.P.P.P.P.P.P.P.P.P.P.P.P.P.P.P.P.P.P.P.P.P.P.P.P.P.P.P.P.P.P.P.P.P.P.P.P.P.P.P.P.P.P.P.P.P.P.P."
};
