/* XPM */
static char *result[] = {
/* columns rows colors chars-per-pixel */
"45 45 87 1 ",
"  c #B36625",
". c #B66926",
"X c #B96E2A",
"o c #BB742A",
"O c #BD782B",
"+ c #C37C2C",
"@ c #C97D2D",
"# c #C4842F",
"$ c #C48534",
"% c #CC8533",
"& c #CA8C32",
"* c #C68D3A",
"= c #D38D35",
"- c #CF9032",
"; c #CE9338",
": c #D59334",
"> c #DA9434",
", c #D59B36",
"< c #DE9936",
"1 c #D0943E",
"2 c #DD9F38",
"3 c #E09D37",
"4 c #E09F38",
"5 c #DEA037",
"6 c #DCA339",
"7 c #DEAA3B",
"8 c #DEB13D",
"9 c #DFB83F",
"0 c #E2A439",
"q c #E5AB3B",
"w c #E8AE3C",
"e c #E5B23D",
"r c #E8B43E",
"t c #E6B93F",
"y c #E8B93F",
"u c #C68D40",
"i c #D19D41",
"p c #D0A44A",
"a c #CFA253",
"s c #D5A851",
"d c #DAB451",
"f c #DAB35A",
"g c #EABC40",
"h c #D8B866",
"j c #DEC15B",
"k c #E6C343",
"l c #ECC342",
"z c #E5C844",
"x c #EECA44",
"c c #F1C543",
"v c #F3CC45",
"b c #F3CC49",
"n c #EFD147",
"m c #EDD949",
"M c #F2D247",
"N c #F5D649",
"B c #F6DA4A",
"V c #F8DF4B",
"C c #E6D159",
"Z c #ECDD5F",
"A c #F7DD51",
"S c #F6E24C",
"D c #F9E34D",
"F c #F7E94E",
"G c #FAE94E",
"H c #F4E654",
"J c #F9E552",
"K c #F5EB52",
"L c #FAED51",
"P c #FBF352",
"I c #FDFA55",
"U c #FCFA5E",
"Y c #E1C76B",
"T c #E7D263",
"R c #EDDF60",
"E c #E8D668",
"W c #EBDC6B",
"Q c #F3E462",
"! c #F4E46D",
"~ c #FDFC60",
"^ c #F7F169",
"/ c #F8F46A",
"( c #FBFA6D",
") c #F4EC75",
"_ c #F9F67C",
"` c #FBF97B",
"' c None",
/* pixels */
"'''''''''''''''''''''''''''''''''''''''''''''",
"'''''''''''''''''''''''''''''''''''''''''''''",
"'''''''''''''''''''''''''''''''''''''''''''''",
"''''''''''''''''AAVDDDGLLPP''''''''''''''''''",
"''''''''''''''NNNNvcccxMBSKPU''''''''''''''''",
"''''''''''''bbcgrwwwrtrrtlxMDPI''''''''''''''",
"''''''''''Nbvrw0w0wwrrrryygglMGPI''''''''''''",
"'''''''''VNcw000qwwwwwrrrytgggxBPI'''''''''''",
"''''''''DNlwqq0w0qqqwweerrryygllnPI''''''''''",
"'''''''JBlwwqq000q0q0lMeerrryyytlxGI'''''''''",
"''''''LDxrrwwwq0w0008PIverrryygykgxPI''''''''",
"'''''PLMtrrrwwwq0006FIIPlwrrrttggglMPI'''''''",
"'''''ISlgyrrrrqwww<MIIIIPgwrrrrtgyglSP'''''''",
"''''PPxlggtrrrrww3lIIPIIIDgwrrrrtgggxLI''''''",
"''''PSllgggtrrrw79PIIIIPIISgwrrrrygggNP''''''",
"'''JDxglllgggrrlxGPPPPPPPPPSxgrrrttyyxLI'''''",
"'''VByyclllylvNDGGGGGGGGGGGGGVBvyyyyyySP'''''",
"'''BvyyyllvNBVDDVVVVVVVVVVVVVVVVVNvyrexG'''''",
"'''Nyrrr&lBBNNBBMBBBVBNNMBNBBVBMNNv,07eFP''''",
"''vvrwwwO#vvMvvvMvMvvvvvvvvvvvvvvv,,70eSL''''",
"''bcw0wwq.,vvvvvvvvvvvvvcvvvvvvvvq:05qqBL''''",
"''bcwwwwr5.7vvvvvvvvcvvvvvvvvvvvy:05666MJ''''",
"''bc000wqr-.gvvvvvcvvvvcvvvvvvvc,<44006MJ''''",
"''bcw000qee+#cvvvvvvvvvvvvvvvvv0:<42050vD''''",
"''bcw000wwww.3vvvvvvvvvvvvvvvvc>>333330MJ''''",
"'''vr0003333@+NNBNNNBBNNBMBBBBv533>333qNA''''",
"'''vw303<<<3>+BDDDDDGDGSVGVGGGM53><<33wN'''''",
"'''bg3<3><<<>XJPPPPPPPPPPPPPPPV03>3<33gN'''''",
"'''bc033<<<<:oKIIIIIIUIIUIIIPIG043<<<0cA'''''",
"''''br<3>3<<:oHUII~~UUUUU~~UIIF0443<<rb''''''",
"''''bg333>>33XZ(((((/QCZ^(`(((Hq42434lb''''''",
"'''''bw3>>33>XE`_)Tdi;&$*pjW)_!00444gb'''''''",
"'''''bbw333<<+fhs==<34q77;&$*af7005gNN'''''''",
"''''''bc03>><@@=><3304qqege86,:760eMB''''''''",
"'''''''bgw33<<<<<<<34400q88ee8q77eMV'''''''''",
"''''''''bcw3<<<<<<<<340077e8e87elVJ''''''''''",
"'''''''''bbg4<<<<<<<33336qq8eegnKL'''''''''''",
"''''''''''bbgg3<<3><>333507qenGPP''''''''''''",
"''''''''''''bbggw3<>3>330qtxSPI''''''''''''''",
"''''''''''''''bbbggggggglMBDK''''''''''''''''",
"'''''''''''''''''bbbbbbbbA'''''''''''''''''''",
"'''''''''''''''''''''''''''''''''''''''''''''",
"'''''''''''''''''''''''''''''''''''''''''''''",
"'''''''''''''''''''''''''''''''''''''''''''''",
"'''''''''''''''''''''''''''''''''''''''''''''"
};
