/* XPM */
static char *zbex_removebg_preview__15___1_1671821933[] = {
/* columns rows colors chars-per-pixel */
"50 50 225 2 ",
"   c None",
".  c #2E070D",
"X  c #32070B",
"o  c #34090D",
"O  c #3B0A0D",
"+  c #2D0C14",
"@  c #320C12",
"#  c #3A0E11",
"$  c #3D0D19",
"%  c #3A1316",
"&  c #35161B",
"*  c #3B1619",
"=  c #33191E",
"-  c #3C191D",
";  c #331A22",
":  c #3A1A20",
">  c #410A0D",
",  c #500F0E",
"<  c #45100D",
"1  c #56130F",
"2  c #420E11",
"3  c #4A0F12",
"4  c #540F10",
"5  c #431517",
"6  c #4B1314",
"7  c #4E1A17",
"8  c #431619",
"9  c #4B161A",
"0  c #441A1B",
"q  c #4B191B",
"w  c #541414",
"e  c #5B1514",
"r  c #531A15",
"t  c #5C1915",
"y  c #541A1B",
"u  c #5B1B1B",
"i  c #711D0D",
"p  c #631312",
"a  c #6C1413",
"s  c #641B15",
"d  c #6B1B14",
"f  c #641C1B",
"g  c #6C1D1B",
"h  c #731B13",
"j  c #721F1C",
"k  c #751713",
"l  c #5C2415",
"z  c #5C221B",
"x  c #532217",
"c  c #7C280E",
"v  c #6B2614",
"b  c #672914",
"n  c #66221A",
"m  c #6D231A",
"M  c #682A16",
"N  c #722213",
"B  c #7C2314",
"V  c #742C14",
"C  c #7D2816",
"Z  c #74221C",
"A  c #7B241C",
"S  c #7A2B1B",
"D  c #6B3112",
"F  c #733313",
"G  c #793115",
"H  c #7D3914",
"J  c #7C371A",
"K  c #6A220C",
"L  c #431A21",
"P  c #4B1923",
"I  c #581A21",
"U  c #691E23",
"Y  c #721F24",
"T  c #742223",
"R  c #7C2422",
"E  c #7E2A21",
"W  c #762726",
"Q  c #7F2630",
"!  c #811F1A",
"~  c #852B0E",
"^  c #88250F",
"/  c #86350E",
"(  c #842414",
")  c #8A2513",
"_  c #8D2916",
"`  c #85241D",
"'  c #8C251B",
"]  c #842A1B",
"[  c #8C2A1B",
"{  c #852817",
"}  c #932B15",
"|  c #9B2C15",
" . c #932C1B",
".. c #9B2D1A",
"X. c #942618",
"o. c #823416",
"O. c #833C11",
"+. c #8C3B12",
"@. c #8A3719",
"#. c #943411",
"$. c #95331A",
"%. c #9D311C",
"&. c #973918",
"*. c #91360C",
"=. c #A22E15",
"-. c #A72D18",
";. c #A13417",
":. c #A53B14",
">. c #A3321C",
",. c #A9341D",
"<. c #AA381D",
"1. c #A6381B",
"2. c #B1381C",
"3. c #BB3D1D",
"4. c #A9350E",
"5. c #812723",
"6. c #832A23",
"7. c #8C2C24",
"8. c #862829",
"9. c #8B2C2C",
"0. c #892725",
"q. c #942D24",
"w. c #9D2E20",
"e. c #8D3223",
"r. c #933423",
"t. c #9C3224",
"y. c #9A312C",
"u. c #993928",
"i. c #8A2B32",
"p. c #A43422",
"a. c #AC3522",
"s. c #A53925",
"d. c #AC3924",
"f. c #A43B2C",
"g. c #AD3D2D",
"h. c #A43329",
"j. c #B03722",
"k. c #B43A24",
"l. c #BB3C25",
"z. c #B43D2B",
"x. c #BA3E2A",
"c. c #A93B31",
"v. c #C13E29",
"b. c #8C480E",
"n. c #8C4A13",
"m. c #8B4214",
"M. c #944311",
"N. c #9D4413",
"B. c #944A19",
"V. c #984817",
"C. c #9D5117",
"Z. c #9E5F16",
"A. c #975317",
"S. c #9C550B",
"D. c #A84A0B",
"F. c #A3570D",
"G. c #A84717",
"H. c #B34C1A",
"J. c #B24617",
"K. c #A45314",
"L. c #AC5314",
"P. c #B85515",
"I. c #B7570E",
"U. c #BB610B",
"Y. c #B3670F",
"T. c #BC760D",
"R. c #AE6C14",
"E. c #B46310",
"W. c #BB6314",
"Q. c #BA651A",
"!. c #BE7C13",
"~. c #BB7A16",
"^. c #9B4524",
"/. c #A44525",
"(. c #BC4125",
"). c #B6412D",
"_. c #BB412A",
"`. c #BC4C25",
"'. c #AE522C",
"]. c #B95925",
"[. c #AE4431",
"{. c #B65232",
"}. c #C74E1E",
"|. c #C3521C",
" X c #C25D1B",
".X c #D15D19",
"XX c #C86617",
"oX c #C47111",
"OX c #C87B12",
"+X c #D26516",
"@X c #C3412A",
"#X c #CB452B",
"$X c #CC4C2D",
"%X c #C74327",
"&X c #D1462F",
"*X c #D34B2B",
"=X c #D54F27",
"-X c #CB5825",
";X c #D35629",
":X c #C64631",
">X c #E04F32",
",X c #E15131",
"<X c #E2562E",
"1X c #C2702C",
"2X c #BF8A0F",
"3X c #B98010",
"4X c #C88A0D",
"5X c #D58A0B",
"6X c #C9920E",
"7X c #D3990C",
"8X c #CD831C",
"9X c #C78B12",
"0X c #D28E13",
"qX c #CF9411",
"wX c #E29613",
"eX c #DDAC0D",
"rX c #E4A20A",
"tX c #E4B80B",
"yX c #E5A911",
"uX c #E3B314",
"iX c #E19E24",
"pX c #EFD111",
"aX c #F0CC0E",
"sX c #FAE20C",
"dX c #FFF928",
/* pixels */
"                                                                                                    ",
"                                                                                                    ",
"                                                  U Y 5.5.U                                         ",
"                                      U T R 8.8.7.{ ` 7.` d e 6 2 P                                 ",
"                                  i.8.Y U R R 5.5.N.W.R.[ { o.O.O.b.G J                             ",
"                                i.y.c./.e.E R T Y B.6X6XB.m.R.qXaXOXV.&.r.9.                        ",
"                            i.9.y.f.[.{.'.[.^.^.[ o.F D t n O.R.7X4X].).z.x.g.y.                    ",
"                          Q 8.9.y.[.].1X~.3X~.C.J s e s N ( } 4.J.XXwX;X&X@Xj.p.h.c.                ",
"                        W R R e.H.OXyXpXsXpX3Xm.S A ]  .1.3.l.2.>.H.iX|.k.d.p.w.a.x.).f.            ",
"                        ] #.N.M.A.R.tXsXdXpXR.^.u.s.(.*X*X#Xk.a.,.P.8X(.,.,.>.>.>.p.l.p.u.          ",
"                      Z / / N s n J Z.2XtXaXOX^._.;X<X>X&X@Xl.j.d.H.B.S :.@.N  .>.a.a...%.7.        ",
"                    9 w 6 w f f m S @.@.B.~.5X X=X,X>X&Xv.@Xx.        0 v V l y Z ..,. . .$.        ",
"                  9 3 w w f 6.Z Z R S 6.e.1.|.+X=X*X&Xv.x.[.          - * q b b r f  .>.| ..S       ",
"                9 6 w w e T R j R 6.7.r.d.%X%X|..X#X@Xz.              : 0 0 8 z F D v _ &.L.~.      ",
"                I 4 w e u s w u Z 6.y.d.$X#X@Xl.|.`.                    - 0 0 q 7 O.F.*.E.uXtX      ",
"            I g j u u f f w e f ` 7.).$X*X#X@Xx.                        0 0 0 5 5 r +.W.wXwXXX1.    ",
"            w d &.V.J n e r t s A $.$X$Xx.k.x.f.                        - - * * 5 7 s ] `.J. .%.    ",
"            3 s C.7X2XF t e u g A <.@Xd.d.d.g.                        = & * * 5 5 r s B 1.%.[ ..    ",
"          P I n C.tXtXb.t r f N ..l.k.d.l.z.                          = & % - * 6 r s B >.| } ..    ",
"        8 6 e s E C.OXA.t t s ] j.l.a.k.g.                            = % - % 5 6 r s B | >...>.    ",
"        5 3 r f m R K.V.f m A %.(.l.k.z.                              ; % % * 5 7 t d ) =.>.>...    ",
"        O 6 w s g R L.m.g T $.(.k.k.k.                                ; - * 5 6 7 t h ^ =.>...r.    ",
"      $ 3 1 w e S D.5XA.m R %.,.%.d.s.                              : n 7 * 5 9 r s B } =._ _       ",
"      o O 3 w +.U.U.T.4Xn.] %.>...f.                              L q B V 7 9 w t d ^ | =.( )       ",
"      X X O c D.~ k B 4X7XC.>.p.t./.                              q y n +.y u f h ( | 2.} ) [       ",
"      . o K *.d a a k +.5XoX/.p.t.                              P y y n *.r u d j _ -.2.} }         ",
"      $ a ~ d p a a k k :.XX-X-X].                              I y u m +.t e d ! X.-.;.} [         ",
"      P e 1 1 e p a a a h p._.$X                              I u U g S N.d s h ! =.-.) ( 6.        ",
"      3 1 4 e p p p a a g q.j.:X                            y I n T R 9.P.F.+.#.| 4.| ^ (           ",
"      3 p d p e p p p R q.h.g._.                            z M W 5.8.r.XXrXeX6XI.4.^ ^ {           ",
"      3 , , , 4 e p p R f.d.).).                          L.oX9X8XQ.G.L.oX0XuXyX5X XD.:.            ",
"      > > > 3 3 w n n 6.).g.).                        : L D n.A.Z.L.V.r.r./.P. XD.D. X              ",
"      o O > > 6 w w m u.d.d.k.                      : 0 8 9 q q y f R 9.q.p.p. .} _  .              ",
"      @ o o > 5 5 9 w r. .p.k.                    - 0 q 9 9 y u u U R t.h.g.' ! ( _                 ",
"        o % 5 5 5 5 9 N )  .<.                  r 9 q q y y u f f j A s.x.x.%.{ (  .                ",
"        + % o o 5 # O e { _ ..            ; ; x F G v r y u U g j ! q.p.2.<. . .[                   ",
"          & & $ % o o 1 _ } ..e.      : = & & % 0 l H M.v f j j 0.X...,.>.| X. .                    ",
"            & @ X X X 1 } } | [ q 0 D z * * * * 5 * 7 S.N.j ! ! 0...>. .) }  .                      ",
"              + . X o e _ } } } v - - D l 7 % % 5 5 6 b.U.( j ! X.=.X.) _  .                        ",
"                  @ o O d ^ ^ _ C 7 % 0 l F b 7 7 t f @.E.&.X.X.X.| X.X. .                          ",
"                    + @ < N i ^ { A u 8 * x H O.A A j j  .D.| _ } } } [                             ",
"                        + 1 i N { >.%.S t 9 r b.N.[ X. .=.J.*.( ) [                                 ",
"                            s c } | >.a.%.{ Z C N.P.,.,.,.:.~ B                                     ",
"                              ( ( ( } |  ._ %.>.1.D.} _ | $.]                                       ",
"                                A ) ) { B ( } ..:.N.B B                                             ",
"                                    S N B ) [ [ @.                                                  ",
"                                                                                                    ",
"                                                                                                    ",
"                                                                                                    ",
"                                                                                                    "
};
