/* XPM */
static char *result[] = {
/* columns rows colors chars-per-pixel */
"60 60 158 2 ",
"   c #14120F",
".  c #171512",
"X  c #191514",
"o  c #1A1916",
"O  c #1D1C1A",
"+  c #161F16",
"@  c #2D1E0F",
"#  c #221315",
"$  c #211917",
"%  c #211E1C",
"&  c #2B121C",
"*  c #3C1C1A",
"=  c #22211E",
"-  c #28241F",
";  c #251F20",
":  c #3C1227",
">  c #381C28",
",  c #252422",
"<  c #292623",
"1  c #2A2927",
"2  c #2D2C2A",
"3  c #302F2D",
"4  c #38232A",
"5  c #2F302C",
"6  c #383027",
"7  c #32312E",
"8  c #343432",
"9  c #3A3633",
"0  c #3A3936",
"q  c #3C3B39",
"w  c #461F19",
"e  c #4B261B",
"r  c #6F2F1C",
"t  c #43122B",
"y  c #49142E",
"u  c #481927",
"i  c #5B1836",
"p  c #4B222C",
"a  c #532221",
"s  c #43382E",
"d  c #432030",
"f  c #51253B",
"g  c #453B34",
"h  c #413F3C",
"j  c #4C3F32",
"k  c #602827",
"l  c #7C2A39",
"z  c #43413E",
"x  c #54463A",
"c  c #59493A",
"v  c #671442",
"b  c #791C4F",
"n  c #583343",
"m  c #6F2D45",
"M  c #633B4C",
"N  c #753552",
"B  c #703850",
"V  c #793453",
"C  c #464543",
"Z  c #484643",
"A  c #4A4946",
"S  c #4E4C4A",
"D  c #514F4C",
"F  c #574B44",
"G  c #52514E",
"H  c #4F5154",
"J  c #565452",
"K  c #595755",
"L  c #5B5856",
"P  c #5D5C59",
"I  c #745F4B",
"U  c #6C4053",
"Y  c #77435B",
"T  c #615E5C",
"R  c #7B634E",
"E  c #63615E",
"W  c #7F6650",
"Q  c #5F6267",
"!  c #666462",
"~  c #696664",
"^  c #6A6966",
"/  c #6E6C6A",
"(  c #716D6B",
")  c #72716E",
"_  c #767472",
"`  c #797774",
"'  c #7B7976",
"]  c #7E7C79",
"[  c #8D4D17",
"{  c #B1541C",
"}  c #B2641D",
"|  c #8A442B",
" . c #9A5232",
".. c #A1502E",
"X. c #916139",
"o. c #D0681A",
"O. c #E3712C",
"+. c #873159",
"@. c #803858",
"#. c #8A3964",
"$. c #A22F6E",
"%. c #976651",
"&. c #997A5E",
"*. c #A97E58",
"=. c #804561",
"-. c #807F7B",
";. c #A67F6C",
":. c #B38054",
">. c #83827E",
",. c #EC9D65",
"<. c #F5A363",
"1. c #F3AA7B",
"2. c #858381",
"3. c #8A8785",
"4. c #8C8B86",
"5. c #8E8B89",
"6. c #908E8B",
"7. c #94928F",
"8. c #969391",
"9. c #999694",
"0. c #9B9996",
"q. c #9F9C9A",
"w. c #A19E9C",
"e. c #A3A19E",
"r. c #A6A3A1",
"t. c #A9A6A4",
"y. c #ACAAA6",
"u. c #AEACA9",
"i. c #B2AEAB",
"p. c #B3B1AD",
"a. c #B7B4B2",
"s. c #B9B6B4",
"d. c #BAB9B4",
"f. c #BEBBB9",
"g. c #C1BEBC",
"h. c #C4C2BD",
"j. c #C7C4C1",
"k. c #C8C5C3",
"l. c #CCCAC5",
"z. c #CECCC9",
"x. c #D2CFCC",
"c. c #D3D1CD",
"v. c #D6D3D0",
"b. c #D9D6D3",
"n. c #DCDAD5",
"m. c #DEDBD9",
"M. c #E1DEDB",
"N. c #E4E1DE",
"B. c #E6E3E0",
"V. c #E9E6E3",
"C. c #ECE9E6",
"Z. c #EDEBE8",
"A. c #F1EFEC",
"S. c #F4F1EE",
"D. c #FBF9F6",
"F. c #FFFFFC",
"G. c #F7F5F2",
"H. c None",
/* pixels */
"H.H.H.H.H.H.H.H.H.H.H.H.H.H.H.H.H.H.H.H.H.H.H.H.H.H.H.H.H.H.H.H.H.H.H.H.H.H.H.H.H.H.H.H.H.H.H.H.H.H.H.H.H.H.H.H.H.H.H.H.",
"H.H.H.H.H.H.H.H.H.H.H.H.H.H.H.H.H.H.H.H.H.H.H.H.H.H.H.H.H.H.H.H.H.H.H.H.H.H.H.H.H.H.H.H.H.H.H.H.H.H.H.H.H.H.H.H.H.H.H.H.",
"H.H.H.H.H.H.H.H.H.H.H.H.H.H.H.H.H.H.H.H.H.H.H.H.H.H.H.H.H.H.H.H.H.H.H.H.H.H.H.H.H.H.H.H.H.H.H.H.H.H.H.H.H.H.H.H.H.H.H.H.",
"H.H.H.H.H.H.H.H.H.H.H.H.H.H.H.H.H.H.H.H.H.H.H.H.H.H.H.H.H.H.H.H.H.H.H.H.H.H.H.H.H.H.H.H.H.H.H.H.H.H.H.H.H.H.H.H.H.H.H.H.",
"H.H.H.H.H.H.H.H.H.H.H.H.H.H.H.H.H.H.H.H.H.H.H.H.H.% O O O H.H.H.H.H.H.H.H.H.H.H.H.H.H.H.H.H.H.H.H.H.H.H.H.H.H.H.H.H.H.H.",
"H.H.H.H.H.H.H.H.H.H.H.H.H.H.H.H.H.H.H.H.H.% O O % < 2 2 1 % o O H.H.H.H.H.H.H.H.H.H.H.H.H.H.H.H.H.H.H.H.H.H.H.H.H.H.H.H.",
"H.H.H.H.H.H.H.H.H.H.H.H.H.H.H.H.H.H.H.O O , q ! -.] a.j.h.t.' q O O H.H.H.H.H.H.H.H.H.H.H.H.H.H.H.H.H.H.H.H.H.H.H.H.H.H.",
"H.H.H.H.H.H.H.H.H.H.H.H.H.H.H.H.H.H.O , S 2.r.t.j.0.k.V.V.V.V.v.` 2 O H.H.H.H.H.H.H.H.H.H.H.H.H.H.H.H.H.H.H.H.H.H.H.H.H.",
"H.H.H.H.H.H.H.H.H.H.H.H.H.O H.H.H.O 2 _ r.t.t.j.B.8.9.V.B.B.B.z.f.k.S o H.H.H.O o H.H.H.H.H.H.H.H.H.H.H.H.H.H.H.H.H.H.H.",
"H.H.H.H.H.H.H.H.H.H.H.H.% o O H.O 2 2.t.r.r.j.B.m.2.( M.B.B.V.u.u.D.M.P O H.H.O O H.H.H.H.H.H.H.H.H.H.H.H.H.H.H.H.H.H.H.",
"H.H.H.H.H.H.H.H.H.H.H.H.= q O H.= _ t.t.r.a.M.V.j.5.T b.B.B.V.w.s.V.G.N.C X H.O , O H.H.H.H.H.H.H.H.H.H.H.H.H.H.H.H.H.H.",
"H.H.H.H.H.H.H.H.H.H.H.H.< ! , O q 9.r.t.t.v.B.V.l.S -.B.B.B.V.p.a.V.S.F.p., O O H.O H.H.H.H.H.H.H.H.H.H.H.H.H.H.H.H.H.H.",
"H.H.H.H.H.H.H.H.H.H.H.H., >.J o O 3 ! r.s.B.B.V.u.T ' v.B.B.B.z.f.V.S.F.S.K X H.H.% H.H.H.H.H.H.H.H.H.H.H.H.H.H.H.H.H.H.",
"H.H.H.H.H.H.H.H.H.H.H.H.% ] w.6./ C 1 3.g.v.B.V.9.a.5.' M.B.B.B.m.B.Z.D.F.q.O H.H.O H.H.H.H.H.H.H.H.H.H.H.H.H.H.H.H.H.H.",
"H.H.H.H.H.H.H.H.H.H.H.H.O E t.a.v.v.C ( x.v.B.B.u.x.v.P r.V.B.B.B.B.V.V.S.v.8 H.= O H.H.H.H.H.H.H.H.H.H.H.H.H.H.H.H.H.H.",
"H.H.H.H.H.H.H.H.H.H.H.H.H.8 9.t.y.f.K ~ m.j.M.B.c.M.V.u.8.V.B.B.B.N.v.N.V.A.G O O H.H.H.H.H.H.H.H.H.H.H.H.H.H.H.H.H.H.H.",
"H.H.H.H.H.H.H.H.H.H.H.H.H.O C 8.y.r.C / N.b.N.B.B.B.B.k.s.V.B.B.B.M.g.m.B.S._ . O H.H.H.H.H.H.H.H.H.H.H.H.H.H.H.H.H.H.H.",
"H.H.H.H.H.H.H.H.H.H.H.H.H.H.X 3 _ 5.3 2.B.B.B.B.B.B.B.N.M.B.B.B.B.M.c.B.B.A.3.X H.H.H.H.H.H.H.H.H.H.H.H.H.H.H.H.H.H.H.H.",
"H.H.H.H.H.H.H.H.H.H.H.H.H.H.8 8 O 1 7 r.N.B.B.B.B.B.N.B.B.B.B.B.B.n.a.M.B.Z.8.O H.H.H.H.H.H.H.H.H.H.H.H.H.H.H.H.H.H.H.H.",
"H.H.H.H.H.H.H.H.H.H.H.H.H.O J 8.P 0 _ i.M.B.B.B.B.B.B.B.B.B.B.B.x.b.x.M.B.C.6.O H.H.H.H.H.H.H.H.H.H.H.H.H.H.H.H.H.H.H.H.",
"H.H.H.H.H.H.H.H.H.H.H.H.H.o P 9.w.w.r.y.b.B.B.B.V.B.B.B.B.B.B.B.e.k.V.B.V.V.2.O H.H.H.H.H.H.H.H.H.H.H.H.H.H.H.H.H.H.H.H.",
"H.H.H.H.H.H.H.H.H.H.H.H.H.O K 9.r.t.t.t.x.V.N.j.f.x.B.B.B.B.B.B.5.a.V.m.g.x._ O H.H.H.H.H.H.H.H.H.H.H.H.H.H.H.H.H.H.H.H.",
"H.H.H.H.H.H.H.H.H.H.H.H.H.O G 6.r.t.r.r.j.B.w.C 1 q 8.N.N.b.B.B.' f.z.P 2 P S H.H.H.H.H.H.H.H.H.H.H.H.H.H.H.H.H.H.H.H.H.",
"H.H.H.H.H.H.H.H.H.H.H.H.H.O D r.t.t.t.r.a.m.t.9.2.S , 2.x.s.N.m./ g.P 2 ] 8.q H.H.H.H.H.H.H.H.H.H.H.H.H.H.H.H.H.H.H.H.H.",
"H.H.H.H.H.H.H.H.H.H.H.H.H.H.C r.t.t.t.r.i.x.y.w.~ S 1 = 5.x.B.u.` 5.O 8 ! 5.8 H.H.H.H.H.H.H.H.H.H.H.H.H.H.H.H.H.H.H.H.H.",
"H.H.H.H.H.H.H.H.H.H.H.H.H.H.8 q.0.5.r.t.t.j.y.Q o o o o 1 w.m.0.q.0 O O O q 1 H.H.H.H.H.H.H.H.H.H.H.H.H.H.H.H.H.H.H.H.H.",
"H.H.H.H.H.H.H.H.H.H.H.H.H.H.1 8.8.0 ^ t.t.g.r.0 ; 2 1 = o 0 0.v.E X , 1 < o O H.H.H.H.H.H.H.H.H.H.H.H.H.H.H.H.H.H.H.H.H.",
"H.H.H.H.H.H.H.H.H.H.H.H.H.H.= ] y.) 2 6.t.g.w.2 1 3 3 2 O / v.N.9., 2 5 1 O O H.H.H.H.H.H.H.H.H.H.H.H.H.H.H.H.H.H.H.H.H.",
"H.H.H.H.H.H.H.H.H.H.H.H.H.H.O P t.w.n Q w.y.e.1 1 5 3 2 O ! B.V.i., 1 8 1 X o H.H.H.H.H.H.H.H.H.H.H.H.H.H.H.H.H.H.H.H.H.",
"H.H.H.H.H.H.H.H.H.H.H.H.H.H.H.8 q.t./ D 5.2.a.7 , 7 7 2 O ] V.V.z.q O 2 < , - H.H.H.H.H.H.H.H.H.H.H.H.H.H.H.H.H.H.H.H.H.",
"H.H.H.H.H.H.H.H.H.H.H.H.H.H.H.O / y.7.P / ] c.H O 1 1 O 5 a.j.7.z.3., o O K 2 H.H.H.H.H.H.H.H.H.H.H.H.H.H.H.H.H.H.H.H.H.",
"H.H.H.H.H.H.H.H.H.H.H.H.H.H.H.O 5 5.t.8.L 2.B.0.1 o o 7 8.j.C X ! g.' q S q.3 H.H.H.H.H.H.H.H.H.H.H.H.H.H.H.H.H.H.H.H.H.",
"H.H.H.H.H.H.H.H.H.H.H.H.H.H.H.H.O 0 5.y.J 2.V.m.0.! ' a.m.) O , ; w.k.t.f.i.< H.H.H.H.H.H.H.H.H.H.H.H.H.H.H.H.H.H.H.H.H.",
"H.H.H.H.H.H.H.H.H.H.H.H.H.H.H.H.H.O 7 ] P ! V.V.B.n.n.V.k.8 , 3 = ! N.M.N.2.O H.H.H.H.H.H.H.H.H.H.H.H.H.H.H.H.H.H.H.H.H.",
"H.H.H.H.H.H.H.H.H.H.H.H.H.H.H.H.H.H.O , 8 1 8.b.B.b.f.B.s., , , O H M.V.c.C H.H.H.H.H.X # & & X H.H.H.H.H.H.H.H.H.H.H.H.",
"H.H.H.H.H.H.H.H.H.H.H.H.H.H.H.H.H.H.H.O O X O / v.b.k.B.k.0 o O X ' B.B.2.o H.H.H.H.X : i v b > H.H.H.H.H.H.H.H.H.H.H.H.",
"H.H.H.H.H.H.H.H.H.H.H.H.H.H.H.H.H.H.H.H.H.O + J s.B.B.B.B.i.3.q.8.x.V.m.J H.H.H.H.. t y e i $.4 H.H.H.H.H.H.H.H.H.H.H.H.",
"H.H.H.H.H.H.H.H.H.H.H.H.H.H.H.H.H.H.H.H.H.< 7 0 y.m.b.B.B.m.B.N.B.N.z.n.S H.H.H.X : u [ o.l #.% H.H.H.H.H.H.H.H.H.H.H.H.",
"H.H.H.H.H.H.H.H.H.H.H.H.H.H.H.H.H.H.H.H.H.= - < 9.x.3.b.b.8.N.q.j.v.2.k.8 H.H.# t u &.<...+.n H.H.H.H.H.H.H.H.H.H.H.H.H.",
"H.H.H.H.H.H.H.H.H.H.H.H.H.H.H.H.H.H.H.H.H.- s - G r.^ x.v.( m.>.a.f.K P O H.X y u X.1.;.N =.% H.H.H.H.H.H.H.H.H.H.H.H.H.",
"H.H.H.H.H.H.H.H.H.H.H.H.H.H.H.H.H.H.H.H.% s R z + + 1 G E A ` x C 0 O o X # y p :.,. .m =.< H.H.H.H.H.H.H.H.H.H.H.H.H.H.",
"H.H.H.H.H.H.H.H.H.H.H.H.H.H.H.H.H.H.H.H.= x R c 9 A z 5 - - + - O o 0 H ; t a *.1.%.N Y ; H.H.H.H.H.H.H.H.H.H.H.H.H.H.H.",
"H.H.H.H.H.H.H.H.H.H.H.H.H.H.H.H.H.H.H.H.= c W c 5 z A G G G G ) J o C Q % * } O.| N Y % H.H.H.H.H.H.H.H.H.H.H.H.H.H.H.H.",
"H.H.H.H.H.H.H.H.H.H.H.H.H.H.H.H.H.H.H.H.= - s 6 ) p.7.' ) -.e.c.] C ; C O @ { r N U = H.H.H.H.H.H.H.H.H.H.H.H.H.H.H.H.H.",
"H.H.H.H.H.H.H.H.H.H.H.H.H.H.H.H.H.H.H.= c E G 5 J p.c.n.n.n.h.d.' n + O a $ e @.B % H.H.H.H.H.H.H.H.H.H.H.H.H.H.H.H.H.H.",
"H.H.H.H.H.H.H.H.H.H.H.H.H.H.H.H.H.H.H.= 5 / p.) 5 0 j E >.^ E >.5.O % + k # f M o H.H.H.H.H.H.H.H.H.H.H.H.H.H.H.H.H.H.H.",
"H.H.H.H.H.H.H.H.H.H.H.H.H.H.H.H.H.H.H.+ = + 5 1 9 h + 8 P 7.h.d.9.1 2 + X   X . H.H.H.H.H.H.H.H.H.H.H.H.H.H.H.H.H.H.H.H.",
"H.H.H.H.H.H.H.H.H.H.H.H.H.H.H.H.H.H.H.- 5 8 5 + z >.e.d.h.h.h.p.0.= O .   H.H.H.H.H.H.H.H.H.H.H.H.H.H.H.H.H.H.H.H.H.H.H.",
"H.H.H.H.H.H.H.H.H.H.H.H.H.H.H.H.H.H.H.= 2 8 q 2 2 Z A A A G P >.4., = O   H.H.H.H.H.H.H.H.H.H.H.H.H.H.H.H.H.H.H.H.H.H.H.",
"H.H.H.H.H.H.H.H.H.H.H.H.H.H.H.H.H.H.H.O , 2 q 5 P u.9.e.u.d.h.p.Q + % X X H.. H.H.H.H.H.H.H.H.H.H.H.H.H.H.H.H.H.H.H.H.H.",
"H.H.H.H.H.H.H.H.H.H.H.H.H.H.H.H.H.H.H.H.O , 8 , 0 ) ` 4.>./ D 1 o O H.H.  . H.H.H.H.H.H.H.H.H.H.H.H.H.H.H.H.H.H.H.H.H.H.",
"H.H.H.H.H.H.H.H.H.H.H.H.H.H.H.H.H.H.H.H.H.O O o O X X O 1 x = + + H.H.H.H.H.H.H.H.H.H.H.H.H.H.H.H.H.H.H.H.H.H.H.H.H.H.H.",
"H.H.H.H.H.H.H.H.H.H.H.H.H.H.H.H.H.H.H.H.H.H.O O % % O H.A u.h g 1 H.H.H.H.H.H.H.H.H.H.H.H.H.H.H.H.H.H.H.H.H.H.H.H.H.H.H.",
"H.H.H.H.H.H.H.H.H.H.H.H.H.H.H.H.H.H.H.H.H.H.- 9 F F 3 H.= 3 - 9 < H.H.H.H.H.H.H.H.H.H.H.H.H.H.H.H.H.H.H.H.H.H.H.H.H.H.H.",
"H.H.H.H.H.H.H.H.H.H.H.H.H.H.H.H.H.H.H.H.H.H.o = < < % H.H.O o O o H.H.H.H.H.H.H.H.H.H.H.H.H.H.H.H.H.H.H.H.H.H.H.H.H.H.H.",
"H.H.H.H.H.H.H.H.H.H.H.H.H.H.H.H.H.H.H.H.H.H.H.H.H.H.H.H.H.H.H.H.H.H.H.H.H.H.H.H.H.H.H.H.H.H.H.H.H.H.H.H.H.H.H.H.H.H.H.H.",
"H.H.H.H.H.H.H.H.H.H.H.H.H.H.H.H.H.H.H.H.H.H.H.H.H.H.H.H.H.H.H.H.H.H.H.H.H.H.H.H.H.H.H.H.H.H.H.H.H.H.H.H.H.H.H.H.H.H.H.H.",
"H.H.H.H.H.H.H.H.H.H.H.H.H.H.H.H.H.H.H.H.H.H.H.H.H.H.H.H.H.H.H.H.H.H.H.H.H.H.H.H.H.H.H.H.H.H.H.H.H.H.H.H.H.H.H.H.H.H.H.H.",
"H.H.H.H.H.H.H.H.H.H.H.H.H.H.H.H.H.H.H.H.H.H.H.H.H.H.H.H.H.H.H.H.H.H.H.H.H.H.H.H.H.H.H.H.H.H.H.H.H.H.H.H.H.H.H.H.H.H.H.H.",
"H.H.H.H.H.H.H.H.H.H.H.H.H.H.H.H.H.H.H.H.H.H.H.H.H.H.H.H.H.H.H.H.H.H.H.H.H.H.H.H.H.H.H.H.H.H.H.H.H.H.H.H.H.H.H.H.H.H.H.H."
};
