/* XPM */
static char *result[] = {
/* columns rows colors chars-per-pixel */
"50 50 186 2 ",
"   c #030404",
".  c #0C0D0E",
"X  c #141313",
"o  c #181819",
"O  c #191A1C",
"+  c #1A1B1D",
"@  c #30261C",
"#  c #1F1F20",
"$  c #1E1F21",
"%  c #1F2023",
"&  c #202124",
"*  c #222325",
"=  c #232326",
"-  c #232427",
";  c #252629",
":  c #262629",
">  c #262729",
",  c #27282B",
"<  c #28282B",
"1  c #2E2C29",
"2  c #292A2D",
"3  c #2B2C2F",
"4  c #382D20",
"5  c #31302F",
"6  c #2C2D31",
"7  c #2D2F31",
"8  c #2E2F33",
"9  c #2F3033",
"0  c #333132",
"q  c #303134",
"w  c #313235",
"e  c #313236",
"r  c #323336",
"t  c #393735",
"y  c #333438",
"u  c #343539",
"i  c #36373B",
"p  c #36383C",
"a  c #38393D",
"s  c #393A3E",
"d  c #393B3F",
"f  c #4D3618",
"g  c #483824",
"h  c #4D3A24",
"j  c #543E22",
"k  c #5C3A23",
"l  c #453F38",
"z  c #35433C",
"x  c #62441E",
"c  c #5E4628",
"v  c #58452F",
"b  c #6C4B20",
"n  c #6C4E27",
"m  c #714F24",
"M  c #6D512E",
"N  c #795526",
"B  c #765328",
"V  c #7C5529",
"C  c #634E34",
"Z  c #3A3C40",
"A  c #3B3D41",
"S  c #3D3E41",
"D  c #3C3E42",
"F  c #3E3F44",
"G  c #3C4C44",
"H  c #404145",
"J  c #414246",
"K  c #404247",
"L  c #414247",
"P  c #4C4844",
"I  c #424449",
"U  c #43454A",
"Y  c #44464B",
"T  c #45464B",
"R  c #46484D",
"E  c #47494F",
"W  c #4D4B48",
"Q  c #484A4F",
"!  c #554D43",
"~  c #415248",
"^  c #56544E",
"/  c #484B50",
"(  c #4A4B51",
")  c #4A4C51",
"_  c #4C4E53",
"`  c #4C4E54",
"'  c #4D4F55",
"]  c #4E5055",
"[  c #4F5156",
"{  c #4F5157",
"}  c #505258",
"|  c #52545A",
" . c #52545B",
".. c #54565C",
"X. c #55575D",
"o. c #57595F",
"O. c #5C5B58",
"+. c #655948",
"@. c #615F5A",
"#. c #53675A",
"$. c #6C6256",
"%. c #575960",
"&. c #595B62",
"*. c #676561",
"=. c #6D6B67",
"-. c #61646B",
";. c #77746C",
":. c #7C7A75",
">. c #7B7A7B",
",. c #883A2F",
"<. c #803434",
"1. c #8B3131",
"2. c #913333",
"3. c #A13737",
"4. c #AC3A3A",
"5. c #AB3C3C",
"6. c #B73F3F",
"7. c #B93E3E",
"8. c #9D403D",
"9. c #834545",
"0. c #825D5D",
"q. c #B04040",
"w. c #B34545",
"e. c #BA4545",
"r. c #AE5757",
"t. c #A65A5A",
"y. c #B75353",
"u. c #876749",
"i. c #81725D",
"p. c #B96060",
"a. c #B36C6C",
"s. c #A47070",
"d. c #B57474",
"f. c #C44343",
"g. c #C14D4D",
"h. c #638074",
"j. c #698374",
"k. c #838079",
"l. c #85837E",
"z. c #78AFA1",
"x. c #848081",
"c. c #8A8780",
"v. c #918D84",
"b. c #978989",
"n. c #949189",
"m. c #93928E",
"M. c #9F9C94",
"N. c #A18C8C",
"B. c #B68888",
"V. c #B08F8F",
"C. c #A49797",
"Z. c #80A390",
"A. c #92B49D",
"S. c #A4A097",
"D. c #AAA79F",
"F. c #80B3A6",
"G. c #84B9A8",
"H. c #85BCAA",
"J. c #85BCAE",
"K. c #89BCAD",
"L. c #95BDA8",
"P. c #A5A6A6",
"I. c #ADAFAF",
"U. c #BFA4A4",
"Y. c #B6ADAD",
"T. c #BCB7AE",
"R. c #C9B2B2",
"E. c #82C0B5",
"W. c #83C0B5",
"Q. c #92C8B7",
"!. c #97CBB7",
"~. c #97CFBE",
"^. c #9ECFBB",
"/. c #A0CFB7",
"(. c #A7D1B4",
"). c #AAD9BE",
"_. c #B0DABD",
"`. c #CBC7BE",
"'. c #A4DAC6",
"]. c #B8E4C6",
"[. c #C7C1C1",
"{. c #DAD6CD",
"}. c #C5E9C7",
"|. c #E4E0D6",
" X c #F5F0E4",
".X c None",
/* pixels */
".X.X.X.X.X.X.X.X.X.X.X.X.X.X.X.X.X.X.X.X.X.X.X.X.X.X.X.X.X.X.X.X.X.X.X.X.X.X.X.X.X.X.X.X.X.X.X.X.X.X",
".X.X.X.X.X.X.X.X.X.X.X.X.X.X.X.X.X.X.X.X.X.X.X.X.X.X.X.X.X.X.X.X.X.X.X.X.X.X.X.X.X.X.X.X.X.X.X.X.X.X",
".X.X.X.X.X.X.X.X.X.X.X.X.X.X.X.X.X.X.X.X.X1.3.5.q.6.7.7.7.6.4.3.2..X.X.X.X.X.X.X.X.X.X.X.X.X.X.X.X.X",
".X.X.X.X.X.X.X.X.X.X.X.X.X.X.X.X.X1.3.6.f.f.f.g.y.p.a.d.d.d.a.a.p.y.q.2..X.X.X.X.X.X.X.X.X.X.X.X.X.X",
".X.X.X.X.X.X.X.X.X.X.X.X.X.X.X3.6.f.f.e.p.d.B.V.C.x.>..X.X.X.X.Xb.N.V.d.r.2..X.X.X.X.X.X.X.X.X.X.X.X",
".X.X.X.X.X.X.X.X.X.X.X.X.X5.f.f.e.r.B.U.Y.P..X.XD / &.o. .` .X.X.X.X.X.Xb.s.t.<..X.X.X.X.X.X.X.X.X.X",
".X.X.X.X.X.X.X.X.X.Xx ,.f.f.w.a.U.[.I..X.X.X.Xo...| X.%.%._ p , q .X.X.X.X.X.Xs.9..X.X.X.X.X.X.X.X.X",
".X.X.X.X.X.X.X.X.X.Xm V 8.a.R.[.P..X.X.X.Xr ] } Z | ....L @.S.;.9 .X.X.X.X.X.X.X0.9..X.X.X.X.X.X.X.X",
".X.X.X.X.X.X.X.X.X.X.Xb u.[.I..X.X.X.X.X.X.X.Xy Q ....X.=.T. X{.@.O .X.X.X.X.X.X.X.Xk .X.X.X.X.X.X.X",
".X.X.X.X.X.X.X.X.X.X.X.XV M .X.X.X.X.X.X.X.X.X, Y ..| t P `.{.`.*.$ .X.X.X.X.X.X.X.X.X.X.X.X.X.X.X.X",
".X.X.X.X.X.X.X.X.X.X.X.Xf V .X.X.X.X.X.X.X.X.X8 ) | ^ o   O.`.*.@.S .X.X.X.X.X.X.X.X.X.X.X.X.X.X.X.X",
".X.X.X.X.X.X.X.XG..X.X.X.Xx N .X.X.X.X.X.X.X.XD ] L v.^ l n.M.o 5 < .X.X.X.X.X.X.X.X.X.X.X.X.X.X.X.X",
".X.X.X.X.X.X.X}.(..X.X.X.X.Xb m .X.X.X` E K .X/ L P ;.M.|.c.^ k.W .X.X.X.X.X.X.X.X.X.X.X.X.X.X.X.X.X",
".X.X.X.X.X/._.}./.J.H..X.X.X.XN M l.o.%._ R A 8 D ! t *.|.T.T.D.:..X.X.X.X.X.X.X.X.X.X.X.X.X.X.X.X.X",
".X.X.X.XJ.].Z.#._.]..X.X.X.X.Xh i.;.@.| ) D ] D u 5 l @.M.D.M.2 .X.X.X.X.X.X.X.X.X.X.X.X.X.X.X.X.X.X",
".X.X.X.X~.L.z ~ j.)..X.X.X.XE O.c.k.O.Q I u D | Y w c.`.D.S.*.d  ..X.X.X.X.X.X.X.X.X.X.X.X.X.X.X.X.X",
".X.X.X.X.XQ.h.7 Z.!..X.X.X/ F w ;.c.$.H s ; s ..D D _ D.{. Xv.L ) [ .X.X.X.X.X.X.X.X.X.X.X.X.X.X.X.X",
".X.X.X.X.XW.^.F.~..X.X.X> L _ *.*.^ n C * o L R L s s 3 P m.=.w D Q o..X.X.X.X.X.X.X.X.X.X.X.X.X.X.X",
".X.X.X.X.X.X.X.X.X.X.Xr Z F _ T.@.2 4 B 4 p ] ) R Y R R L ) | I u R %.K .X.X.X.X.X.X.X.X.X.X.X.X.X.X",
".X.X.X.X.X.X.X.X.X.Xe Z u p M.k.2 D - k B l R I Y R R L u } X.U 3 r ..&..X.X.X.X.X.X.X.X.X.X.X.X.X.X",
".X.X.X.X.X.X.X.X.Xq p Z r @.v.# # = .X.Xc B 1 7 Z F Z ] ] | } .XO 3 D X.' .X.X.X.X.X.X.X.X.X.X.X.X.X",
".X.X.X.X.X.X.X.X.XJ ] ) s l #   # - .XK Y n c # # 2 3 * I s 8 .X% p w } -..X.X.X.X.X.X.X.X.X.X.X.X.X",
".X.X.X.X.X.X.X.X.X0 { s D o     * % .Xq I P B C _ I Q w o I ; .XE F L Q _ T .X.X.X.X.X.X.X.X.X.X.X.X",
".X.X.X.X.X.X.X.X.X& Y r ) 3     $ .X.Xi u { l B ! } Q ] u s e .Xy F L L I ) q .X.X.X.X.X.X.X.X.X.X.X",
".X.X.X.X.X.X.X.X.X.XI I ] Y . . 2 .X.X_ I R _ v V P } } ..D .X.XS Z u s R ] D .X.X.X.X.X.X.X.X.X.X.X",
".X.X.X.X.X.X.X.X.X.X] } I H   # 2 .X- R R p L H c n t F H F < J Q 9 w p I { Q A .X.X.X.X.X.X.X.X.X.X",
".X.X.X.X.X.X.X.X.XK ..} L 7   * ; .Xi p R p u Z l n c s u w ) S.;.%...} 9 2 p = .X.X.X.X.X.X.X.X.X.X",
".X.X.X.X.X.X.X.X.XA } } _ ; o = X y Z 9 s R Y Q p 4 B $.=.=.`.S.1 H _ L Q 2 2 a .X.X.X.X.X.X.X.X.X.X",
".X.X.X.X.X.X.X.X.X+ { ..| r o - .Xe o 9 r D r 3 2 * ^ ;.k.c.=.3 .   p Z L D r q .X.X.X.X.X.X.X.X.X.X",
".X.X.X.X.X.X.X.X.X.X] X.} p * 2 a Z R r s s R p # r ^ =.k.@.$ 2 *     L | Q 7 .X.X.X.X.X.X.X.X.X.X.X",
".X.X.X.X.X.X.X.X.X.XT ] Q u 3 > # 9 } Z Z Z 7 Z p r 7 D +.c X - 9 * . u | } ; .X.X.X.X.X.X.X.X.X.X.X",
".X.X.X.X.X.X.X.X.X.Xd D _ s 2 . o Z _ w p | ) 7 u H Z 3 # n j + 2 w 2 2 I } < .X.X.X.X.Xz..X.X.X.X.X",
".X.X.X.X.X.X.X.X.X.X.X< L u o o Q L ] r p ] X.} D Y 9 p u l V f % 9 ; , r ] D .X.X.X.X.X.X.X.X.X.X.X",
".X.X.X.X.X.X.X.X.X.X.X; w 2 2 s ) | ..R Y | | X.} ] 7 * Y L v N .X.X.X.X9 Q .X.X.X.X.X.X.X.X.X.X.X.X",
".X.X.X.X.X.X.X.X.X.Xy Q s p 7 # ) X...U 0 ) F | ..X.) * I r 5 c m .X.X.X2 2 .X.X.Xz..XG.)..X.X.X.X.X",
".X.X.X.X.X.X.X.X.X.Xi Y R 3 # I ....[ .X.X_ 9 Z } ..| u Y R u t n M .X.XO & .X.X.X_.).}._..X.X.X.X.X",
".X.X.X.X.X.X.X.X.Xd i : 6 & & Q s } D .Xr ) L s ) ....D ] ] ( L @ B g .X.X.X.X.XG.^.j.A.H..X.X.X.X.X",
".X.X.X.X.X.X.X.X.X.X.X.X.X.Xw i D } 2 - D { Y R | ..| F ) Y r ) , h B 0 .X.X.X.XQ.#.~ #.!.!.H..X.X.X",
".X.X.X.X.X.X.X.X.X.X.X.X.X.X.XA { _ r * w F ; } ....} s H Y w H S .Xx N .X.X.XE.'.j.z G '.!..X.X.X.X",
".X.X.X.X.X.X.X.X.X.X.X.X.X.XA ) Y s 9 9 Q 9 I X...| ] Y D } U ) I r .Xb k .X.XJ.'.'.Z.K.W..X.X.X.X.X",
".X.X.X.X.X.X.X.X.X.X.X.X.X, 9 ; ; , 2 L } ) | ..X.{ Z J K ....Q e , O .X.X.X.X.X.XW.E..X.X.X.X.X.X.X",
".X.X.X.X.X.X.X.X.X.X.X.X2 ; O O + : p _ X.X.X.} ] Y = .X.X_ X.I % .X.X.X.X.X.X.X.X.X.X.X.X.X.X.X.X.X",
".X.X.X.X.X.X.X.X.X.X.X.X.X.X.X.X: 3 Z _ ] X.Q r H e .X.X.X0 | } D .X.X.X.X.X.X.X.X.X.X.X.X.X.X.X.X.X",
".X.X.X.X.X.X.X.X.X.X.X.X.X.X.X- = - w % S ] ; 3 a .X.X.X.X.Xa J K .X.X.X.X.X.X.X.X.X.X.X.X.X.X.X.X.X",
".X.X.X.X.X.X.X.X.X.X.X.X.X.X.X.X.X.X.Xw ] F ; .X.X.X.X.X.X.X.X.Xr .X.X.X.X.X.X.X.X.X.X.X.X.X.X.X.X.X",
".X.X.X.X.X.X.X.X.X.X.X.X.X.X.X.X.X.Xw T K w .X.X.X.X.X.X.X.X.X.X.X.X.X.X.X.X.X.X.X.X.X.X.X.X.X.X.X.X",
".X.X.X.X.X.X.X.X.X.X.X.X.X.X.X.X.X.X.X.X.X.X.X.X.X.X.X.X.X.X.X.X.X.X.X.X.X.X.X.X.X.X.X.X.X.X.X.X.X.X",
".X.X.X.X.X.X.X.X.X.X.X.X.X.X.X.X.X.X.X.X.X.X.X.X.X.X.X.X.X.X.X.X.X.X.X.X.X.X.X.X.X.X.X.X.X.X.X.X.X.X",
".X.X.X.X.X.X.X.X.X.X.X.X.X.X.X.X.X.X.X.X.X.X.X.X.X.X.X.X.X.X.X.X.X.X.X.X.X.X.X.X.X.X.X.X.X.X.X.X.X.X",
".X.X.X.X.X.X.X.X.X.X.X.X.X.X.X.X.X.X.X.X.X.X.X.X.X.X.X.X.X.X.X.X.X.X.X.X.X.X.X.X.X.X.X.X.X.X.X.X.X.X"
};
