/* XPM */
static char *result[] = {
/* columns rows colors chars-per-pixel */
"80 80 188 2 ",
"   c #44393E",
".  c #673E33",
"X  c #5D4237",
"o  c #6B4233",
"O  c #6D493C",
"+  c #794B37",
"@  c #7D5039",
"#  c #493F43",
"$  c #5D4B4C",
"%  c #56474B",
"&  c #5E5157",
"*  c #5E5158",
"=  c #5E5A5F",
"-  c #494449",
";  c #654D47",
":  c #714F44",
">  c #64524E",
",  c #7D5847",
"<  c #695656",
"1  c #62555B",
"2  c #66595F",
"3  c #6B5C64",
"4  c #6D6A6E",
"5  c #686368",
"6  c #74636B",
"7  c #78676F",
"8  c #79686F",
"9  c #73686D",
"0  c #786770",
"q  c #7D6B74",
"w  c #8D4E2D",
"e  c #904F2C",
"r  c #8E502E",
"t  c #91512F",
"y  c #8B4F30",
"u  c #844B32",
"i  c #8D5132",
"p  c #83523C",
"a  c #8C573A",
"s  c #935332",
"d  c #995633",
"f  c #965935",
"g  c #9D5A36",
"h  c #925A3D",
"j  c #9E5B39",
"k  c #915739",
"l  c #A15B37",
"z  c #A25D39",
"x  c #A5623C",
"c  c #A9653D",
"v  c #AD693F",
"b  c #835B46",
"n  c #925C41",
"m  c #86664B",
"M  c #946146",
"N  c #97654C",
"B  c #9E6849",
"V  c #8B6955",
"C  c #9B6C56",
"Z  c #937054",
"A  c #99765A",
"S  c #A36541",
"D  c #A76A46",
"F  c #AE6B41",
"G  c #A76A48",
"H  c #B16D43",
"J  c #B37145",
"K  c #B67549",
"L  c #BC7B4C",
"P  c #B77848",
"I  c #A1755D",
"U  c #B87B55",
"Y  c #9F7461",
"T  c #806E75",
"R  c #83737A",
"E  c #847A79",
"W  c #937F78",
"Q  c #8B756A",
"!  c #A57D64",
"~  c #A17663",
"^  c #C17E51",
"/  c #BE804D",
"(  c #BD8354",
")  c #8A817D",
"_  c #A98675",
"`  c #B08D79",
"'  c #C38556",
"]  c #CE8957",
"[  c #C48A59",
"{  c #C88E5C",
"}  c #CD8657",
"|  c #D28D5B",
" . c #CB915D",
".. c #D6925D",
"X. c #DB955E",
"o. c #DE9D5F",
"O. c #CE9360",
"+. c #D29461",
"@. c #D89964",
"#. c #D6AA7D",
"$. c #E4A564",
"%. c #E5AD6E",
"&. c #EAAE6B",
"*. c #E5A866",
"=. c #E6B16F",
"-. c #E9B36B",
";. c #E2AD71",
":. c #E6B171",
">. c #E8B371",
",. c #EDBF7A",
"<. c #EDC17B",
"1. c #8A7B82",
"2. c #858688",
"3. c #8B8589",
"4. c #878A8B",
"5. c #8D8E8F",
"6. c #93868C",
"7. c #968B8B",
"8. c #95908F",
"9. c #8D8E90",
"0. c #9A8D93",
"q. c #968B91",
"w. c #8F9293",
"e. c #949393",
"r. c #969B9B",
"t. c #999D9D",
"y. c #9A9398",
"u. c #AF8F80",
"i. c #A3969B",
"p. c #A59B9C",
"a. c #A09596",
"s. c #B79B90",
"d. c #B29488",
"f. c #BCA59B",
"g. c #B7A29E",
"h. c #AA9DA1",
"j. c #A79BA1",
"k. c #9BA1A2",
"l. c #ACA3A4",
"z. c #ABABAE",
"x. c #A7A6A6",
"c. c #B0A7A7",
"v. c #BEA9A4",
"b. c #B1A6AA",
"n. c #B3AAAB",
"m. c #B8AFAF",
"M. c #B7ACB1",
"N. c #B8AEB1",
"B. c #BCB3B5",
"V. c #BEB6B9",
"C. c #BFB8B9",
"Z. c #C3AB9D",
"A. c #C0A9A0",
"S. c #C3B1AB",
"D. c #C0B7B9",
"F. c #C3BBBC",
"G. c #CCBFBD",
"H. c #CCB8B3",
"J. c #DFC4A9",
"K. c #C6C0BF",
"L. c #D5C4BE",
"P. c #C5BDC0",
"I. c #C8BFC1",
"U. c #C7C2C2",
"Y. c #CAC3C4",
"T. c #CDC7C8",
"R. c #CEC9CA",
"E. c #CDC8C7",
"W. c #D2CDCD",
"Q. c #DBCAC4",
"!. c #DAD1CC",
"~. c #D5CFD0",
"^. c #D6D1D1",
"/. c #DAD6D6",
"(. c #DCD9D7",
"). c #DCD7D8",
"_. c #DED9D9",
"`. c #E0CEC6",
"'. c #E3D2CA",
"]. c #E2DDDD",
"[. c #E6D8D0",
"{. c #E4E0DF",
"}. c #E4DFE0",
"|. c #E5E1E1",
" X c #E9E5E4",
".X c #ECE9E8",
"XX c #F4ECE4",
"oX c None",
/* pixels */
"oXoXoXoXoXoXoXoXoXoXoXoXoXoXoXoXoXoXoXoXoXoXoXoXoXoXoXoXoXoXoXoXoXoXoXoXoXoXoXoXoXoXoXoXoXoXoXoXoXoXoXoXoXoXoXoXoXoXoXoXoXoXoXoXoXoXoXoXoXoXoXoXoXoXoXoXoXoXoXoX",
"oXoXoXoXoXoXoXoXoXoXoXoXoXoXoXoXoXoXoXoXoXoXoXoXoXoXoXoXoXoXoXoXoXoXoXoXoXoXoXoXoXoXoXoXoXoXoXoXoXoXoXoXoXoXoXoXoXoXoXoXoXoXoXoXoXoXoXoXoXoXoXoXoXoXoXoXoXoXoXoX",
"oXoXoXoXoXoXoXoXoXoXoXoXoXoXoXoXoXoXoXoXoXoXoXoXoXoXoXoXoXoXoXoXoXoXoXoXoXoXoXoXoXoXoXoXoXoXoXoXoXoXoXoXoXoXoXoXoXoXoXoXoXoXoXoXoXoXoXoXoXoXoXoXoXoXoXoXoXoXoXoX",
"oXoXoXoXoXoXoXoXoXoXoXoXoXoXoXoXoXoXoXoXoXoXoXoXoXoXoXoXoXoXoXoXoXoXoXoXoXoXoXoXoXoXoXoXoXoXoXoXoXoXoXoXoXoXoXoXoXoXoXoXoXoXoXoXoXoXoXoXoXoXoXoXoXoXoXoXoXoXoXoX",
"oXoXoXoXoXoXoXoXoXoXoXoXoXoXoXoXoXoXoXoXoXoXoXoXoXoXoXoXoXoXoXoXoXoXoXoXoXoXoXoXoXoXoXoXoXoXoXoXoXoXoXoXoXoXoXoXoXoXoXoXoXoXoXoXoXoXoXoXoXoXoXoXoXoXoXoXoXoXoXoX",
"oXoXoXoXoXoXoXoXoXoXoXoXoXoXoXoXoXoXoXoXoXoXoXoXoXoXoXoXoXoXoXoXoXoXoXoXoXoXoXoXoXoXoXoXoXoXoXoXoXoXoXoXoXoXoXoXoXoXoXoXoXoXoXoXoXoXoXoXoXoXoXoXoXoXoXoXoXoXoXoX",
"oXoXoXoXoXoXoXoXoXoXoXoXoXoXoXoXoXoXoXoXoXoXoXoXoXoXoXoXoXoXoXoXoXoXoXoXoXoXoXoXoXoXoXoXoXoXoXoXoXoXoXoXoXoXoXoXoXoXoXoXoXoXoXoXoXoXoXoXoXoXoXoXoXoXoXoXoXoXoXoX",
"oXoXoXoXoXoXoXoXoXoXoXoXoXoXoXoXoXoXoXoXoXoXoXoXoXoXoXoXoXoXoXoXoXoXoXoXoXoXoXoXoXoXoXoXoXoXoXoXoXoXoXoXoXoXoXoXoXoXoXoXoXoXoXoXoXoXoXoXoXoXoXoXoXoXoXoXoXoXoXoX",
"oXoXoXoXoXoXoXoXoXoXoXoXoXoXoXoXoXoXoXoXoXoXoXoXoXoXY.R.R.E.B.oXoXoXoXoXoXoXoXoXoXoXoXoXoXoXoXoXW.E.K.m.n.c.n.oXoXoXoXoXoXoXoXoXoXoXoXoXoXoXoXoXoXoXoXoXoXoXoXoX",
"oXoXoXoXoXoXoXoXoXoXoXoXoXoXoXoXoXoXoXoXoXoXoXoXB.^.{.|. X_.m.p.oXoXoXoXoXoXoXoXoXoXR.W.W./.].].].{.].].T.n.c.c.oXoXoXoXoXoXoXoXoXoXoXoXoXoXoXoXoXoXoXoXoXoXoXoX",
"oXoXoXoXoXoXoXoXoXoXoXoXoXoXoXoXoXoXoXoXoXoXoXoXF.].|._.^.V.l.8.oXF.U.B.Y.).]._.].].].{.{.|.|.|.{.{.{.|.(.B.c.c.c.oXoXoXoXoXoXoXoXoXoXoXoXoXoXoXoXoXoXoXoXoXoXoX",
"oXoXoXoXoXoXoXoXoXoXoXoXoXoXoXoXoXoXoXoXoXoXoXoXn.C.C.m.c.p.8.e.oXT._.G.Y.!./.].].].{.|.|.|.|.]. X{.].].K.m.c.c.oXoXoXoXoXoXoXoXoXoXoXoXoXoXoXoXoXoXoXoXoXoXoXoX",
"oXoXoXoXoXoXoXoXoXoXoXoXoXoXoXoXoXoXoXoXoXW.E.oXF.B.c.l.p.i.oXoXoXV.V.n.c.n.n.n.B.F.I.T.W.^./././.!.Y.B.n.n.n.oXoXoXoXoXoXoXoXoXoXoXoXoXoXoXoXoXoXoXoXoXoXoXoXoX",
"oXoXoXoXoXoXoXoXoXoXoXoXoXoXoXoXoXoXoXW.].|._.(.).).^.W.W.W.W.W.R.T.Y.C.B.n.0.p.p.p.p.p.h.b.c.n.n.n.n.n.n.m.F.Y.U.E.R.W.R.Y.oXoXoXoXoXoXoXoXoXoXoXoXoXoXoXoXoXoX",
"oXoXoXoXoXoXoXoXoXoXoXoXoXoXoXoXoXoXoX^.].|._.)././././././././.(././.).)./.B.R./.!.W.T.I.D.V.B.D.F.T.Y.R.^./.^.^.^.^./.)._.W.oXoXoXoXoXoXoXoXoXoXoXoXoXoXoXoXoX",
"oXoXoXoXoXoXoXoXoXoXoXoXoXoXoXoXoXoXoX^./.].|.].).(.)./././././././././.(.).W.^./.)././.).).).).(.).).).(./.^././.(././.).].].W.oXoXoXoXoXoXoXoXoXoXoXoXoXoXoXoX",
"oXoXoXoXoXoXoXoXoXoXoXoXoXoXoXoXoXoXoX^././.]. X X}. X}.}.}.].].].]._._.].].].).)././././././././.(./._._.).)._.)././.).]._._.).oXoXoXoXoXoXoXoXoXoXoXoXoXoXoXoX",
"oXoXoXoXoXoXoXoXoXoXoXoXoXoXoXoXoXoXoXW./.^./.]. X/.b.l.D.I.W.^.).].}.}.|.|.|.|.}.}.].}.].].].].].].{. X|. X X X X|.}. X|././.).T.oXoXoXoXoXoXoXoXoXoXoXoXoXoXoX",
"oXoXoXoXoXoXoXoXoXoX*...x w u y a oXoXG.~./.).].].q.6 3 2 3 6 0 R 1.6.0.i.j.l.b.M.N.N.D.D.F.F.I.P.P.F.F.C.V.B.N.M.Y.). X_./././.W.oXoXoXoXoXoXoXoXoXoXoXoXoXoXoX",
"oXoXoXoXoXoXoXoXoXoX*.| z i r s w w i M I ` f.Q.G.q 3 * * * & * * * 1 < 3 3 5 6 6 6 7 0 0 0 8 q 0 q 0 0 0 0 7 0 q q M. X_././.^.W.oXoXoXoXoXoXoXoXoXoXoXoXoXoXoX",
"oXoXoXoXoXoXoXoXoXoX$.| g t g j s f g d t t r h M b : oXoXoXoXoXoXoXoXoXoXoX& 1 1 1 * 1 2 1 1 2 2 1 1 1 1 1 * 1 6 q 6._.|.)././.^.oXoXoXoXoXoXoXoXoXoXoXoXoXoXoX",
"oXoXoXoXoXoXoXoXoXoX*.| g s l g d z z z l g t s s e y oXoXoXoXoXoXoXoXoXoXoXoXoXoXoXoXoXoXoXoXoXoXoXoXoXoXoXoX& 1 0 1./._.)././.^.oXoXoXoXoXoXoXoXoXoXoXoXoXoXoX",
"oXoXoXoXoXoXoXoXoXoX$.] f d l g d l z l l z d g l l s oXoXoXoXoXoXoXoXoXoXoXoXoXoXoXoXoXoXoXoXoXoXoXoXoXoXoXoXoX1 0 1.~._././././.U.oXoXoXoXoXoXoXoXoXoXoXoXoXoX",
"oXoXoXoXoXoXoXoXoXoX$.] d s l g f l z z l j t x l z i oXoXoXoXoXoXoXoXoXoXoXoXoXoXoXoXoXoXoXoXoXoXoXoXoXoXoXoXoX1 0 R R.{././././.E.oXoXoXoXoXoXoXoXoXoXoXoXoXoX",
"oXoXoXoXoXoXoXoXoXoX*.| s d g g g l l z g z d z z z y oXoXoXoXoXoXoXoXoXoXoXoXoXoXoXoXoXoXoXoXoXoXoXoXoXoXoXoXoX* 7 R Y.]./././.).R.oXoXoXoXoXoXoXoXoXoXoXoXoXoX",
"oXoXoXoXoXoXoXoXoXoX=.O.t d v x d l l z z g f z z z y oXoXoXoXoXoXoXoXoXoXoXoXoXoXoXoXoXoXoXoXoXoXoXoXoXoXoXoXoX* 7 T P.]./././._.^.oXoXoXoXoXoXoXoXoXoXoXoXoXoX",
"oXoXoXoXoXoXoXoXoXoX>. .t g H c l l l z j g f h b a y oXoXoXoXoXoXoXoXoXoXoXoXoXoXoXoXoXoXoXoXoXoXoXoXoXoXoXoXoX* 6 q D.]./././._.^.oXoXoXoXoXoXoXoXoXoXoXoXoXoX",
"oXoXoXoXoXoXoXoXoXoX:.{ r g H v l F c z g g d O 3 < ; oXoXoXoXoXoXoXoXoXoXoXoXoXoXoXoXoXoXoXoXoXoXoXoXoXoXoXoXoX* 6 q N.]./././.].^.oXoXoXoXoXoXoXoXoXoXoXoXoXoX",
"oXoXoXoXoXoXoXoXoX<.:.[ t g H v c H H H z l g o % $ > oXoXoXoXoXoXoXoXoXoXoXoXoXoXoXoXoXoXoXoXoXoXoXoXoXoXoXoXoX& 6 T b. X]._.].).oXoXoXoXoXoXoXoXoXoXoXoXoXoXoX",
"oXoXoXoXoXoXoXoXoX<.:.[ r l H v F K H H F x g i o + oXoXoXoXoXoXoXoXoXoXoXoXoXoXoXoXoXoXoXoXoXoXoXoXoXoXoXoXoXoX* 6 q q./..X].(.^.R.oXoXoXoXoXoXoXoXoXoXoXoXoXoX",
"oXoXoXoXoXoXoXoXoX<.:.[ r g J v F H H H F x g z z f oXoXoXoXoXoXoXoXoXoXoXoXoXoXoXoXoXoXoXoXoXoXoXoXoXoXoXoXoXoX& 3 q y.{.].(./././.Y.oXoXoXoXoXoXoXoXoXoXoXoXoX",
"oXoXoXoXoXoXoXoXoX<.;.' r x H v F v H H H x l z z s oXoXoXoXoXoXoXoXoXoXoXoXoXoXoXoXoXoXoXoXoXoXoXoXoXoXoXoXoXoX* 3 q a.|._././././.T.oXoXoXoXoXoXoXoXoXoXoXoXoX",
"oXoXoXoXoXoXoXoXoX<.%.' r z J v v v F B S x z z j s oXoXoXoXoXoXoXoXoXoXoXoXoXoXoXoXoXoXoXoXoXoXoXoXoXoXoXoXoXoX* 3 q q.}._./.)././.R.oXoXoXoXoXoXoXoXoXoXoXoXoX",
"oXoXoXoXoXoXoXoXoX<.=.( w x H H v S V 2.> k z z z s oXoXoXoXoXoXoXoXoXoXoXoXoXoXoXoXoXoXoXoXoXoXoXoXoXoXoXoXoXoX* 3 q 6.]._././././.W.oXoXoXoXoXoXoXoXoXoXoXoXoX",
"oXoXoXoXoXoXoXoXoX<.=.( r x H H v C e.z.5 o g z z s oXoXoXoXoXoXoXoXoXoXoXoXoXoXoXoXoXoXoXoXoXoXoXoXoXoXoXoXoXoX* 3 q 6.]._./././.(.~.oXoXoXoXoXoXoXoXoXoXoXoXoX",
"oXoXoXoXoXoXoXoXoX<.%./ e x H H S W z.z.2.* p z g s oXoXoXoXoXoXoXoXoXoXoXoXoXoXoXoXoXoXoXoXoXoXoXoXoXoXoXoXoXoX* 3 q 1.)._././././.^.oXoXoXoXoXoXoXoXoXoXoXoXoX",
"oXoXoXoXoXoXoXoXoX<.%.( w x H H N R x.x.e.3.: z g y oXoXoXoXoXoXoXoXoXoXoXoXoXoXoXoXoXoXoXoXoXoXoXoXoXoXoXoXoXoX* 3 q 1.).].)./././.^.oXoXoXoXoXoXoXoXoXoXoXoXoX",
"oXoXoXoXoXoXoXoXoX,.%.( w c H H V 3.r.k.9.k.% f g s oXoXoXoXoXoXoXoXoXoXoXoXoXoXoXoXoXoXoXoXoXoXoXoXoXoXoXoXoXoX* 3 q R ^.]./././././.oXoXoXoXoXoXoXoXoXoXoXoXoX",
"oXoXoXoXoXoXoXoXoX,.%.( w x J D Q 9.r.k.4.r.# a g s oXoXoXoXoXoXoXoXoXoXoXoXoXoXoXoXoXoXoXoXoXoXoXoXoXoXoXoXoXoX* 3 q R W.]./././.(./.oXoXoXoXoXoXoXoXoXoXoXoXoX",
"oXoXoXoXoXoXoXoXoX,.%.( w c H G ) w.r.k.4.e.  b z s oXoXoXoXoXoXoXoXoXoXoXoXoXoXoXoXoXoXoXoXoXoXoXoXoXoXoXoXoXoX& 3 q T W.|.)././.).^.oXoXoXoXoXoXoXoXoXoXoXoXoX",
"oXoXoXoXoXoXoXoXoX,.;.( r x H G 8.w.r.t.4.r.X O z i oXoXoXoXoXoXoXoXoXoXoXoXoXoXoXoXoXoXoXoXoXoXoXoXoXoXoXoXoXoX& 3 q q R.|.).).)._.W.oXoXoXoXoXoXoXoXoXoXoXoXoX",
"oXoXoXoXoXoXoXoXoX<.%.( r x J B e.w.r.r.4.r.- ; z i oXoXoXoXoXoXoXoXoXoXoXoXoXoXoXoXoXoXoXoXoXoXoXoXoXoXoXoXoXoX& 3 q q Y. X_._._.(.R.oXoXoXoXoXoXoXoXoXoXoXoXoX",
"oXoXoXoXoXoXoXoXoX<.>.( r x J G E 4 4 4 = 5   , z y oXoXoXoXoXoXoXoXoXoXoXoXoXoXoXoXoXoXoXoXoXoXoXoXoXoXoXoXoXoX& 3 0 q P. X X|.{._.oXoXoXoXoXoXoXoXoXoXoXoXoXoX",
"oXoXoXoXoXoXoXoXoX<.:.[ w x H F I A A Z m m Z G g i oXoXoXoXoXoXoXoXoXoXoXoXoXoXoXoXoXoXoXoXoXoXoXoXoXoXoXoXoXoX& 3 q q p.m.C.).{.|.).oXoXoXoXoXoXoXoXoXoXoXoXoX",
"oXoXoXoXoXoXoXoXoX<.>.( r x J J F / / / P P / c g i oXoXoXoXoXoXoXoXoXoXoXoXoXoXoXoXoXoXoXoXoXoXoXoXoXoXoXoXoXoX* 3 R q j.T.~.)._._.].R.oXoXoXoXoXoXoXoXoXoXoXoX",
"oXoXoXoXoXoXoXoXoX<.>.[ r S J v v v H H F H v v z s oXoXoXoXoXoXoXoXoXoXoXoXoXoXoXoXoXoXoXoXoXoXoXoXoXoXoXoXoXoX* 3 q q B. X_./././._.^.oXoXoXoXoXoXoXoXoXoXoXoX",
"oXoXoXoXoXoXoXoXoXoX-.{ r x H H v x J J H H H v x s oXoXoXoXoXoXoXoXoXoXoXoXoXoXoXoXoXoXoXoXoXoXoXoXoXoXoXoXoXoX& 3 q q M. X_./././._.^.oXoXoXoXoXoXoXoXoXoXoXoX",
"oXoXoXoXoXoXoXoXoXoX=.{ r S H v v S D J H J v v z s oXoXoXoXoXoXoXoXoXoXoXoXoXoXoXoXoXoXoXoXoXoXoXoXoXoXoXoXoXoX* 6 q q N. X_./././._./.oXoXoXoXoXoXoXoXoXoXoXoX",
"oXoXoXoXoXoXoXoXoXoX>.O.i x F F F z D J F H F F x i oXoXoXoXoXoXoXoXoXoXoXoXoXoXoXoXoXoXoXoXoXoXoXoXoXoXoXoXoXoX2 6 R q N. X_./././.).(.oXoXoXoXoXoXoXoXoXoXoXoX",
"oXoXoXoXoXoXoXoXoXoX>.O.s z F F H z S H H H c F x s oXoXoXoXoXoXoXoXoXoXoXoXoXoXoXoXoXoXoXoXoXoXoXoXoXoXoXoXoXoX1 6 T q m. X_././.).).(.oXoXoXoXoXoXoXoXoXoXoXoX",
"oXoXoXoXoXoXoXoXoXoX>.O.f g v v H x c H H H F F x s oXoXoXoXoXoXoXoXoXoXoXoXoXoXoXoXoXoXoXoXoXoXoXoXoXoXoXoXoXoX* 3 q q n. X_.)././././.oXoXoXoXoXoXoXoXoXoXoXoX",
"oXoXoXoXoXoXoXoXoXoX>.@.f g v v H c z H H H x F x d oXoXoXoXoXoXoXoXoXoXoXoXoXoXoXoXoXoXoXoXoXoXoXoXoXoXoXoXoXoX* 6 R 0 n. X_././././.^.oXoXoXoXoXoXoXoXoXoXoXoX",
"oXoXoXoXoXoXoXoXoXoX%.@.f f v v H c l H H H z F c g oXoXoXoXoXoXoXoXoXoXoXoXoXoXoXoXoXoXoXoXoXoXoXoXoXoXoXoXoXoX* 6 q q n. X)././././.^.oXoXoXoXoXoXoXoXoXoXoXoX",
"oXoXoXoXoXoXoXoXoXoX$...f d v v v c l H H H c c x f y oXoXoXoXoXoXoXoXoXoXoXoXoXoXoXoXoXoXoXoXoXoXoXoXoXoXoXoXoX* 6 T q n. X)././././.^.oXoXoXoXoXoXoXoXoXoXoXoX",
"oXoXoXoXoXoXoXoXoXoX$.| g s v v v v l H H v z S x g i oXoXoXoXoXoXoXoXoXoXoXoXoXoXoXoXoXoXoXoXoXoXoXoXoXoXoXoXoX& 6 T q n. X)././././.^.oXoXoXoXoXoXoXoXoXoXoXoX",
"oXoXoXoXoXoXoXoXoXoX*.| x t v H v v d F H c z l z g y oXoXoXoXoXoXoXoXoXoXoXoXoXoXoXoXoXoXoXoXoXoXoXoXoXoXoXoXoX* 6 T q n. X]././././.R.oXoXoXoXoXoXoXoXoXoXoXoX",
"oXoXoXoXoXoXoXoXoXoX*...x r x v F F g F c z z l l g i oXoXoXoXoXoXoXoXoXoXoXoXoXoXoXoXoXoXoXoXoXoXoXoXoXoXoXoX& * 0 T T M..X}.}._.).^.oXoXoXoXoXoXoXoXoXoXoXoXoX",
"oXoXoXoXoXoXoXoXoXoX&.X.D r l v H F d S z l z l l l i oXoXoXoXoXoXoXoXoXoXoXoXoXoXoXoXoXoXoXoXoXoXoXoXoXoXoXoX& * 0 T 0 M. X].]./././.^.oXoXoXoXoXoXoXoXoXoXoXoX",
"oXoXoXoXoXoXoXoXoXoX&.X.F e g x J F d z z l z l x l d oXoXoXoXoXoXoXoXoXoXoXoXoXoXoXoXoXoXoXoXoXoXoXoXoXoXoXoX* 1 0 T T D.|./.).)././.^.oXoXoXoXoXoXoXoXoXoXoXoX",
"oXoXoXoXoXoXoXoXoXoX&.X.J w d l z z d g z z z l k , @ oXoXoXoXoXoXoXoXoXoXoXoXoXoXoXoXoXoXoXoXoXoXoXoXoXoXoXoX* 1 0 T T D.}././././././.E.oXoXoXoXoXoXoXoXoXoXoX",
"oXoXoXoXoXoXoXoXoXoX&.o.K e f l l z s l z g z f O 3 1 > oXoXoXoXoXoXoXoXoXoXoXoXoXoXoXoXoXoXoXoXoXoXoXoXoXoXoX* 1 0 q q I.}.).)././.(./.R.oXoXoXoXoXoXoXoXoXoXoX",
"oXoXoXoXoXoXoXoXoXoX-.o.L w d l l z d d z l x g . % $ $ oXoXoXoXoXoXoXoXoXoXoXoXoXoXoXoXoXoXoXoXoXoXoXoXoXoXoX* 3 q T T I.}./.)././././.R.oXoXoXoXoXoXoXoXoXoXoX",
"oXoXoXoXoXoXoXoXoXoX&.o.^ e s l l z d d z g z l r o u w oXoXoXoXoXoXoXoXoXoXoXoXoXoXoXoXoXoXoXoXoXoXoXoXoXoXoX* 1 q q R W.]./././././.).W.oXoXoXoXoXoXoXoXoXoXoX",
"oXoXoXoXoXoXoXoXoXoXoX$.^ s t l l z d s z g z l f l g r oXoXoXoXoXoXoXoXoXoXoXoXoXoXoXoXoXoXoXoXoXoXoXoXoXoXoX* 3 q T R /.]./././.(./._.W.oXoXoXoXoXoXoXoXoXoXoX",
"oXoXoXoXoXoXoXoXoXoXoX$.} d s l l l d s l l l l d z l w oXoXoXoXoXoXoXoXoXoXoXoXoXoXoXoXoXoXoXoXoXoXoXoXoXoXoX1 3 q q 1._.]./././././._.^.oXoXoXoXoXoXoXoXoXoXoX",
"oXoXoXoXoXoXoXoXoXoXoX$.| d s l l l d t l l z z s z l t oXoXoXoXoXoXoXoXoXoXoXoXoXoXoXoXoXoXoXoXoXoXoXoXoXoXoX* 3 q q 7.]._././././.)._.^.oXoXoXoXoXoXoXoXoXoXoX",
"oXoXoXoXoXoXoXoXoXoXoX$.| j s l l z d e z l z l t g d e y oXoXoXoXoXoXoXoXoXoXoXoXoXoXoXoXoXoXoXoXoXoXoXoXoXoX* 8 i.h.c.)._././.(././.].^.oXoXoXoXoXoXoXoXoXoXoX",
"oXoXoXoXoXoXoX[.[.!.J.$...x w g l l d w g g d r y w i k n oXoXoXoXoXoXoXoXoXoXoXoXoXoXoXoXoXoXoXoXoXoXoXoXoXoX6 V./.).~.D.R././././.)._.^.oXoXoXoXoXoXoXoXoXoXoX",
"XXXXXXoXoX'.'.Q.H.S.Z.;.X.F w d s d s w w r a n N ~ _ d.oXoXoXoXoXoXoXoXoXoXoXoXoXoXoXoXoXoXoXoXoXoXoXoXoXoXoXM.K.Y.K.Y.F.V./././.(._.{.W.oXoXoXoXoXoXoXoXoXoXoX",
"XXXXXXoXoX`.'.L.v.v.f.;.X.F w e e s n N ~ ! d.s.A.oXoXoXoXoXoXoXoXoXoXoXoXoXoXoXoXoXoXoXoXoXoXoXoXoXoXoXoXoXoXb.c.n.m.K.W.B./.].].].{.(.U.oXoXoXoXoXoXoXoXoXoXoX",
"oXoXoXoXoXoXoXoXoXA.Z.Z.@.U M C ~ ` s.A.oXoXoXoXoXoXoXoXoXoXoXoXoXoXoXoXoXoXoXoXoXoXoXoXoXoXoXoXoXoXoXoXoXoXoXp.c.c.c.n.n.c.F.Y.Y.F.V.n.oXoXoXoXoXoXoXoXoXoXoXoX",
"oXoXoXoXoXoXoXoXoXoXoXoXoXoXoXoXoXoXoXoXoXoXoXoXoXoXoXoXoXoXoXoXoXoXoXoXoXoXoXoXoXoXoXoXoXoXoXoXoXoXoXoXoXoXoX7.a.l.l.l.l.oXoXoXoXoXoXoXoXoXoXoXoXoXoXoXoXoXoXoX",
"oXoXoXoXoXoXoXoXoXoXoXoXoXoXoXoXoXoXoXoXoXoXoXoXoXoXoXoXoXoXoXoXoXoXoXoXoXoXoXoXoXoXoXoXoXoXoXoXoXoXoXoXoXoXoXoXoXoXoXoXoXoXoXoXoXoXoXoXoXoXoXoXoXoXoXoXoXoXoXoX",
"oXoXoXoXoXoXoXoXoXoXoXoXoXoXoXoXoXoXoXoXoXoXoXoXoXoXoXoXoXoXoXoXoXoXoXoXoXoXoXoXoXoXoXoXoXoXoXoXoXoXoXoXoXoXoXoXoXoXoXoXoXoXoXoXoXoXoXoXoXoXoXoXoXoXoXoXoXoXoXoX",
"oXoXoXoXoXoXoXoXoXoXoXoXoXoXoXoXoXoXoXoXoXoXoXoXoXoXoXoXoXoXoXoXoXoXoXoXoXoXoXoXoXoXoXoXoXoXoXoXoXoXoXoXoXoXoXoXoXoXoXoXoXoXoXoXoXoXoXoXoXoXoXoXoXoXoXoXoXoXoXoX",
"oXoXoXoXoXoXoXoXoXoXoXoXoXoXoXoXoXoXoXoXoXoXoXoXoXoXoXoXoXoXoXoXoXoXoXoXoXoXoXoXoXoXoXoXoXoXoXoXoXoXoXoXoXoXoXoXoXoXoXoXoXoXoXoXoXoXoXoXoXoXoXoXoXoXoXoXoXoXoXoX",
"oXoXoXoXoXoXoXoXoXoXoXoXoXoXoXoXoXoXoXoXoXoXoXoXoXoXoXoXoXoXoXoXoXoXoXoXoXoXoXoXoXoXoXoXoXoXoXoXoXoXoXoXoXoXoXoXoXoXoXoXoXoXoXoXoXoXoXoXoXoXoXoXoXoXoXoXoXoXoXoX",
"oXoXoXoXoXoXoXoXoXoXoXoXoXoXoXoXoXoXoXoXoXoXoXoXoXoXoXoXoXoXoXoXoXoXoXoXoXoXoXoXoXoXoXoXoXoXoXoXoXoXoXoXoXoXoXoXoXoXoXoXoXoXoXoXoXoXoXoXoXoXoXoXoXoXoXoXoXoXoXoX",
"oXoXoXoXoXoXoXoXoXoXoXoXoXoXoXoXoXoXoXoXoXoXoXoXoXoXoXoXoXoXoXoXoXoXoXoXoXoXoXoXoXoXoXoXoXoXoXoXoXoXoXoXoXoXoXoXoXoXoXoXoXoXoXoXoXoXoXoXoXoXoXoXoXoXoXoXoXoXoXoX",
"oXoXoXoXoXoXoXoXoXoXoXoXoXoXoXoXoXoXoXoXoXoXoXoXoXoXoXoXoXoXoXoXoXoXoXoXoXoXoXoXoXoXoXoXoXoXoXoXoXoXoXoXoXoXoXoXoXoXoXoXoXoXoXoXoXoXoXoXoXoXoXoXoXoXoXoXoXoXoXoX"
};
