/* XPM */
static char *_000_F_488701940_qUSyx5oNVBjnqTvh0JWjFedSOz4ocqL7_removebg_preview__1_1671822812[] = {
/* columns rows colors chars-per-pixel */
"80 80 250 2 ",
"   c None",
".  c #000000",
"X  c #0B0006",
"o  c #0C020C",
"O  c #15020C",
"+  c #1E041D",
"@  c #150114",
"#  c #0F061F",
"$  c #2C020D",
"%  c #240014",
"&  c #2A0116",
"*  c #25031D",
"=  c #2D011B",
"-  c #3C0214",
";  c #36051B",
":  c #0E0724",
">  c #120723",
",  c #1F0522",
"<  c #14092D",
"1  c #190928",
"2  c #1B0E3A",
"3  c #1A0B32",
"4  c #1F123B",
"5  c #220525",
"6  c #2B0B2B",
"7  c #270828",
"8  c #350124",
"9  c #3A0125",
"0  c #32002C",
"q  c #350D2A",
"w  c #380C27",
"e  c #2D102E",
"r  c #3C122C",
"t  c #37112A",
"y  c #240D3A",
"u  c #270C36",
"i  c #350C32",
"p  c #3A0D35",
"a  c #3A0C3A",
"s  c #350836",
"d  c #291339",
"f  c #3C1133",
"g  c #3D1239",
"h  c #351538",
"j  c #37203B",
"k  c #440416",
"l  c #570817",
"z  c #4C121B",
"x  c #58141C",
"c  c #69151D",
"v  c #6D0F1C",
"b  c #732519",
"n  c #430324",
"m  c #430B26",
"M  c #4A0926",
"N  c #550C27",
"B  c #44142D",
"V  c #4A172B",
"C  c #591329",
"Z  c #45013D",
"A  c #450937",
"S  c #530B34",
"D  c #5A0B37",
"F  c #431434",
"G  c #42133B",
"H  c #491839",
"J  c #531335",
"K  c #571737",
"L  c #660B29",
"P  c #790C2A",
"I  c #681529",
"U  c #7C142B",
"Y  c #761827",
"T  c #650E37",
"R  c #681738",
"E  c #771835",
"W  c #770A31",
"Q  c #57273A",
"!  c #542D35",
"~  c #7C212C",
"^  c #692435",
"/  c #752536",
"(  c #6C3339",
")  c #7A4639",
"_  c #73483A",
"`  c #390D44",
"'  c #371545",
"]  c #3A1758",
"[  c #2C1646",
"{  c #470B43",
"}  c #4C1443",
"|  c #4D134B",
" . c #451343",
".. c #521542",
"X. c #51144C",
"o. c #5A1648",
"O. c #4A1557",
"+. c #521353",
"@. c #55125B",
"#. c #581958",
"$. c #490F50",
"%. c #6B1A47",
"&. c #631C59",
"*. c #751C4E",
"=. c #562C46",
"-. c #6C2559",
";. c #71334E",
":. c #571C64",
">. c #4B1C62",
",. c #752262",
"<. c #712F64",
"1. c #794946",
"2. c #8C141D",
"3. c #922B1A",
"4. c #A5251C",
"5. c #AE2E1B",
"6. c #8B0C2D",
"7. c #840C2E",
"8. c #920D2D",
"9. c #8B132D",
"0. c #841A29",
"q. c #8C1A2C",
"w. c #831728",
"e. c #94142C",
"r. c #9C1B2C",
"t. c #96182B",
"y. c #8A1C35",
"u. c #9B1736",
"i. c #900B30",
"p. c #A31B2C",
"a. c #AB1D2B",
"s. c #A81A36",
"d. c #8A2427",
"f. c #9A242B",
"g. c #982426",
"h. c #882636",
"j. c #952637",
"k. c #96322B",
"l. c #A3252B",
"z. c #AB2B2C",
"x. c #A82727",
"c. c #B4252A",
"v. c #B82A29",
"b. c #A83428",
"n. c #B83528",
"m. c #A82835",
"M. c #B62636",
"N. c #A83639",
"B. c #B83636",
"V. c #C73514",
"C. c #C02D2A",
"Z. c #CC3A28",
"A. c #C63829",
"S. c #D43E27",
"D. c #C8383A",
"F. c #954736",
"G. c #95573B",
"H. c #85573D",
"J. c #BB4837",
"K. c #AA4C3C",
"L. c #96683A",
"P. c #AE783B",
"I. c #AB4C13",
"U. c #D54E14",
"Y. c #E85710",
"T. c #EB6911",
"R. c #CA4428",
"E. c #DB4226",
"W. c #D94427",
"Q. c #CE5034",
"!. c #E34925",
"~. c #E64927",
"^. c #EA572B",
"/. c #D26E36",
"(. c #E47B37",
"). c #F4702D",
"_. c #DC6814",
"`. c #872859",
"'. c #9B335B",
"]. c #8F2E4A",
"[. c #B23942",
"{. c #B83B5A",
"}. c #A93855",
"|. c #862962",
" X c #973664",
".X c #8A3965",
"XX c #A63863",
"oX c #B43A66",
"OX c #831E40",
"+X c #C52B43",
"@X c #C93647",
"#X c #D93548",
"$X c #D43A54",
"%X c #CD3252",
"&X c #E53952",
"*X c #E2394C",
"=X c #864B45",
"-X c #934D50",
";X c #B95A41",
":X c #B04C50",
">X c #AF6A53",
",X c #995069",
"<X c #A34A68",
"1X c #B24D65",
"2X c #B46467",
"3X c #916141",
"4X c #C35B44",
"5X c #D64654",
"6X c #D34B4B",
"7X c #EA4653",
"8X c #EA5C57",
"9X c #EE544D",
"0X c #CD7054",
"qX c #E66D43",
"wX c #F27853",
"eX c #C55766",
"rX c #C56567",
"tX c #E86F66",
"yX c #BF883D",
"uX c #D8873A",
"iX c #DB9439",
"pX c #D49831",
"aX c #E99B34",
"sX c #EE922F",
"dX c #DAA939",
"fX c #DCB63F",
"gX c #EDA62D",
"hX c #F5B42B",
"jX c #E8A734",
"kX c #E9B638",
"lX c #F5B638",
"zX c #F1A72A",
"xX c #F6C737",
"cX c #F8CB2E",
"vX c #EAE03D",
"bX c #BB934E",
"nX c #D48E44",
"mX c #ED8B59",
"MX c #EF8C52",
"NX c #DDA843",
"BX c #EA9869",
"VX c #ED916D",
"CX c #F0AF68",
"ZX c #EBB24E",
"AX c #F2CC4A",
"SX c #FAF04A",
"DX c #FACA6C",
"FX c #FBCF70",
"GX c #FDFB67",
"HX c #FAE461",
/* pixels */
"                                                                                          # # 5                                                                 ",
"                                                                                          > # m                                                                 ",
"                                                                                        > # > M                                                                 ",
"                                                                                      > 5 5 > N                                                                 ",
"                                                                                    > > N w : L t.                                                              ",
"                                                                                    : w 7.7 1 Y t.                                                              ",
"                                                                                  > 1 U I m , U r.                                                              ",
"                                                                                1 1 N e.N N 1 w.y.                                                              ",
"                                                                                1 6 e.w.C C 1 q.%.                                                              ",
"                                                                              y 1 L p.C w.B 7 f.*.                                                              ",
"                                                                              y w p.e.C r.6 6 l.y.@.                                                            ",
"                                                                            ` u U s.I Y t., q z.p.#.                                                            ",
"                                                                            ` m p.p.C r.0.< t v.f.+.+.                                                          ",
"                                                                            { U a.w.I c.I q C v.f.K @.                                                          ",
"                                                                          $.K r.p.I q.c.V r f.C.f.J +. .1                                                       ",
"                                                                          $.E a.t.C l.z.q < B C.z.F o.$.u 6                                                     ",
"                                                                          | q.a.I C v.l.7 < V C.n.~ %.+.s < t                                                   ",
"                                                                        @.J r.p.F E C.d.3 1 V A.n.V E +.$.u 3 C                                                 ",
"                                                                        $.D p.0.7 d.C.I < h h.Z.n.u K o.+.d < u ^                                               ",
"                                                                      +.X.I c.I u l.v.V < Q :XZ.n.e F %.+. .3 < e d.                                            ",
"                                                                      +.{ U c.J G D.v.6 3 H k.W.n.e e / +.+.' 2 3 r                                             ",
"                                                                      X.G e.M.#.-.9X6X' 3 2 ^ W.R.t 7 / X.+.+.O.y 3 C                                           ",
"                                                                    +.X.A m.@X>.`.9X:XO.' 2 K W.R.J h / o.| +.@.O.y 3 ~                                         ",
"                                                                    X.} M D.{.O.}.9X}.O.O.] / W.W.3X1.R R | X.+.:.O.2 B v.                                      ",
"                                                                    X.} C #X}.+.%X8X}.&.:.:.'.^.Q.DXbXQ h.X.X.X.@.@.` d l.                                      ",
"                                                                  X.o.A E &X'.#.5X8X'.,.-.-.:XMX(.>X-Xf h.X.X.} @.@.+.` g.                                      ",
"                                                                  X.o.r j.&X`.,.5X8X'.|.|.,.0X(.^./ H e h.H ` a { @.@.$.h.                                      ",
"                                                                  X...F [.&X`.|.8X7XXX'. X-.;X).^.^ d d k.H a a { @.@.@.%.                                      ",
"                                                                X.| K F +X&X`. X8X8XoXoX;.! /.).^./ ^ N.Q.H a a K OX@.+.+.                                      ",
"                                                                X.o.K N #X%X|.XXtX8XeX;.! G.kXzX).=X( 0XqXH a s g j.*.+.+.+.                                    ",
"                                                                 .o.J R #X%X|.1XtX8X-X_ P.0XHXHXsXG.( nX(.K p p s H m.&.+.+.X.                                  ",
"                                                              a p K H E #X{. X1XwX8X=XnXtXVXGXxX).G.( F.4XK g g p d h.OX+.+.+.                                  ",
"                                                               .G R F y.#X1X XeXwX0X0XCXtXCXSXcXsX/._ ( ;XQ g g g -.H b.%.+.+.|                                 ",
"                                                              ..} / F t.#XXX XeXMX0XnXVXVXDXSXcXzXaX_ ( ;XQ  .g g -.+.E m.+.+.+.|                               ",
"                                                              ..../ H r.@XXX<XeXwX0XnXBXVXDXSXcXzXuX_ _ Q.=.H H G &.-.g l.OXX.X.|                               ",
"                                                            } } ../ C p.@X X<XeXmXuXnXBXCXFXGXSXlXiXL._ >X! H g r %.|.` R z.o.| } }                             ",
"                                                            ..} K ^ T a.[..X<XrXMXuXiXdXCXDXGXHXAXnXL.3X4XQ g g q h. XO.e B.*.a a a                             ",
"                                                            H ..R / I M.j.,X<XrXMXiXaXdXZXDXGXSXhXaXL.3X4XQ H f i h.1X#.  R.].a a a a                           ",
"                                                            G H %.^ 7.M.j.<.,XrXmXiXgXdXlXAXHXxXhXgXL.3X4XQ H t q h.6X,.  N.:XA a s p                           ",
"                                                            i F K / 9.:Xh.;.,X2XmXaXgXkXkXxXAXxXhXzXP.;XQ.Q f h i / 8X'.  f.6XJ a a p                           ",
"                                                            i i K ~ 9.@X;.;.,X2XmXnXgXjXkXkXxXxXhXgXuXP.;X! B i i ..5X5X  h.6XR a a p                           ",
"                                                            i i V q.8.@X-X1.>X2XmXnXgXgXkXkXkXhXlXhX>XK.J.V r i q  .1X9X  Y [.h.a a p                           ",
"                                                            q q r e.8.+X>XnXnX2XtXnXsXgXdXdXfXhXlXaXP.:XN.B r r q  . X7Xm.C ^ [.a a p p                         ",
"                                                            i i r 6.i.[.2XfXAX>X0X0XsXgXdXpXkXxXaXsX/.K.N.B r i i g -.$XM.T G [.A a p i                         ",
"                                                            i q q U 8.u.eXZXfX_ 0X0XsXsXaXNXvXlXsX(./.K.N.r t q w G :.{.C.E d N.K a a i                         ",
"                                                            r q i I 8.i.-XVXbX_ ;X2XqX(.pXfXSXlX(./.Q.N.k.B r q w p :.`.M.U [ j.E ` a i                         ",
"                                                            t t q N 8.6.o.2X>X_ F.H.qX/.(.yXvXgX(./.Q.b.U r w q q p >.,.c.9.u T E a s 7 1                       ",
"                                                              t q B 9.7.g  .,X,XK.) Q./.Q.G.dXjX/.Q.Q.B.I t q q q r >.&.p.t.u T T a 7 5 5                       ",
"                                                              e q 6 P 6.h d j =.-X=XJ.Q.Q.=X>XMX9X9XQ.M.I w w q q w >.#.r.e.a D T 0 , 5 ,                       ",
"                                                              + * 6 L 6.g 4 j j d.! b.J.J.) ) R.n.A.D.m.C t w w q t ] +.e.e.f D T , 5 5 ,                       ",
"                                                              + + + m 7.g 4 d h E H j.B.B.( =.B.D.7X9Xs.N w q w q q ]  .e.e.F D L , 7 , , ,                     ",
"                                                              + + + * P g 2 y d I j j.B.D..X<.5X7X7X&Xs.N q q q q q ] h e.e.A S T 7 5 , , ,                     ",
"                                                              + + + * N p 2 2 d ^ j '.#X&XXX<.%X7X&X&Xs.N 0 q w q q [ a 8.8.S S L 7 7 5 , 5                     ",
"                                                              + + + + w p 2 2 y K [ E m.m.`.:.%X&X&X#Xs.N 0 w w q q [ d 8.8.S S W 7 s 5 , ,                     ",
"                                                              + + + + * A 2 2 2 J [ T u.e.T [ u.+X#X#Xi.N 6 w w q w u i 7.i.S S L s p 6 , + ,                   ",
"                                                              + + + + * w y 2 y J [ R u.8.T 2 P s.s.s.i.S q 6 w 6 q 3 s 7.i.S S W p p 6 , , *                   ",
"                                                              @ + + + + 8 S J R y.^ j.m.c.z.f.c.c.c.x.p.Y C z m m m B H e.e.W T 7.F F m 7 8 *                   ",
"                                                              z x x x z V Y t.b.n.R.W.W.~.~.~.!.~.S.Z.C.n.c.t.I v I v w.g.g.x.x.z.p.a.z.x.g.r.z.v.c.t.x         ",
"                                            b k.k.b.n.R.R.W.W.W.W.!.!.U.W.W.R.R.n.z.x.4.x.4.x.v.S.~.!.!.!.S.A.x.v v v c v v c c Y U 0.q.0.U Y Y Y x ; *         ",
"                                        I.b b b c c x c C x I L I I ~ ~ j.].j.h.j.h.q.9.9.P v v 7.l.J.4.3.Y l N M 9 9 9 9 9 9 9 8 ; 8 8 9 9 9 9 8 = =           ",
"                              b.R.U._._.T.T.T.Y.Y.Y.U.U.V.V.V.5.4.4.g.2.d.h.].y.y.q.y.q.6.v v P 7.W L k - - ; n n 9 9 9 9 9 8 8 9 9 8 8 8 8 8 8 = & &           ",
"D E E y.t.l.m.z.z.n.C.C.A.Z.Z.Z.S.S.W.W.E.E.S.R.R.V.S.S.S.S.W.S.S.E.S.W.Z.n.b.k.2.b c l l l 2.8.9.6.P k k k k N n k n 9 9 9 9 9 9 9 9 9 9 8 8 8 = &             ",
"Z Z { Z Z Z Z Z A { S D D T T E E E y.0.b l z - M M c 3.I T T T T R R x z r ; ; $ - k k l 4.v.V.C.v.v.4.3.4.4.4.l.g.3.Y Y I C N M m 9 9 8 9 9 8 =               ",
"{ Z Z Z A A A Z Z { Z { Z Z Z Z Z Z a 8 % $ % % 8 9 8 ; 9 Z Z Z Z Z H t & w m ; - k k l 4.!.E.E.E.E.E.E.W.W.Z.A.n.d.Y N m m 9 = = % 8 8 8 8 9                   ",
"  Z Z s A Z Z Z { Z Z Z Z Z Z { Z Z Z 9 & & & = 9 9 8 = 9 Z Z Z Z { { 0 w ; - - - k l w.q.r.l.g.0.w.Y I C N N m 9 8 8 8 5 @ O . .                               ",
"  Z A Z Z Z Z Z Z Z Z Z { Z Z Z Z Z Z = & & % = = 8 8 = = s Z Z Z A { m w ; z $ $ $ $ k L P L M M k n n 9 9 8 8 8 0 0 + X . . . .                               ",
"    Z Z Z Z Z Z Z Z Z Z Z Z Z { { Z Z = % % O X . X X X X o O @ @ @ , e O X X X . . . . . O $ ; k k M n n n 9 9 9 * O . . . . .                                 ",
"              0 0 0 0 0 0 0 0 0 0 s 8 @ X . . . . . . . . . . . . . . > . . . . . . . . . . . . X X O % = 9 k = @ . . . . .                                     ",
"                    . . . . . . X X . . . . . . . . . . . . . . . . . o . . . . . . . . . . . . . . . . . . X . . . .                                           ",
"                      . . . . . . . . . . . . . . . . . . . . . . . . . . . . . . . . . . . . . . . . . . . . . .                                               ",
"                        . . . . . . . . . . . .         . . . . . . . . . . . . . . . . . . . . . . . . . . .                                                   ",
"                                                                                        . . . . . . . . .                                                       ",
"                                                                                                                                                                ",
"                                                                                                                                                                ",
"                                                                                                                                                                ",
"                                                                                                                                                                ",
"                                                                                                                                                                ",
"                                                                                                                                                                ",
"                                                                                                                                                                ",
"                                                                                                                                                                "
};
