/* XPM */
static char *_03f9b87d8f342f3bde0d27032c76290Gtb8kvml0Hy1yw6f[] = {
/* columns rows colors chars-per-pixel */
"47 50 137 2 ",
"   c None",
".  c #1E170C",
"X  c #1F180D",
"o  c #251B0E",
"O  c #291E0F",
"+  c #231D12",
"@  c #2A1F10",
"#  c #2B200F",
"$  c #262117",
"%  c #2E2311",
"&  c #26231A",
"*  c #2A251B",
"=  c #2B281F",
"-  c #322613",
";  c #362914",
":  c #3B2D16",
">  c #322A1D",
",  c #3F3017",
"<  c #3F3018",
"1  c #2C2B22",
"2  c #322E24",
"3  c #393124",
"4  c #35332B",
"5  c #39362C",
"6  c #3C382E",
"7  c #3D3B32",
"8  c #403017",
"9  c #443319",
"0  c #49371C",
"q  c #4B391D",
"w  c #413726",
"e  c #433A2A",
"r  c #413E35",
"t  c #444036",
"y  c #4B4437",
"u  c #454238",
"i  c #4A463C",
"p  c #4D493E",
"a  c #534B3B",
"s  c #4F4B40",
"d  c #524D42",
"f  c #555146",
"g  c #5A5446",
"h  c #5A564A",
"j  c #5E594C",
"k  c #615B4D",
"l  c #685F4D",
"z  c #645E51",
"x  c #6A604C",
"c  c #666153",
"v  c #6A6455",
"b  c #6D6759",
"n  c #6E685A",
"m  c #726C5D",
"M  c #736C5D",
"N  c #736C5E",
"B  c #736D5E",
"V  c #746D5E",
"C  c #746D5F",
"Z  c #746E5F",
"A  c #726B5C",
"S  c #756F60",
"D  c #766F60",
"F  c #766F60",
"G  c #777061",
"H  c #777061",
"J  c #787161",
"K  c #787162",
"L  c #797262",
"P  c #7A7363",
"I  c #7A7364",
"U  c #7B7364",
"Y  c #7B7464",
"T  c #7D7666",
"R  c #7E7666",
"E  c #7E7667",
"W  c #7E7767",
"Q  c #7B7464",
"!  c #7F7868",
"~  c #807767",
"^  c #807868",
"/  c #807969",
"(  c #817969",
")  c #807A68",
"_  c #817A69",
"`  c #827A6A",
"'  c #847C6B",
"]  c #847C6C",
"[  c #857D6C",
"{  c #857D6D",
"}  c #857E6D",
"|  c #867E6D",
" . c #867E6E",
".. c #877F6E",
"X. c #857D6D",
"o. c #87806E",
"O. c #87806E",
"+. c #88806E",
"@. c #88806F",
"#. c #89806F",
"$. c #89816F",
"%. c #88806F",
"&. c #898170",
"*. c #8C8472",
"=. c #8C8473",
"-. c #8D8573",
";. c #8E8674",
":. c #8F8674",
">. c #8F8775",
",. c #8C8372",
"<. c #908775",
"1. c #908775",
"2. c #908876",
"3. c #918876",
"4. c #918977",
"5. c #918977",
"6. c #938A78",
"7. c #938B78",
"8. c #948B79",
"9. c #958C7A",
"0. c #958D7A",
"q. c #968D7A",
"w. c #978F7C",
"e. c #948B79",
"r. c #988F7C",
"t. c #99907D",
"y. c #99907E",
"u. c #9A907E",
"i. c #9A917E",
"p. c #9B917E",
"a. c #9B927F",
"s. c #9B937F",
"d. c #9C927F",
"f. c #9C937F",
"g. c #9A917E",
"h. c #9A9280",
"j. c #9B9280",
/* pixels */
"                                  j.t.    f.d.t.t.t.+.                                        ",
"                            t.7.9.9.t.c t.8.+. .5.t.! D     d.                                ",
"                          &. . .o.o.G c +. .+. .+.o./ A k ;. .+.&.j.j.                        ",
"                    j.t.;.G G U U L s f R  . . . .G G h n  .+. .&.@.] !                       ",
"                  r.t.t.2. .j z n j 7 2 s f h v F D j i V L !  . . .n z                       ",
"                   .&. . .! j 1 6 $ X . . X X . X + * 4 7 j m L G G c c s.                    ",
"                   .] D G D 7 . . o . . + . o o + o . o X $ 5 h S j i ;.t.t.t.                ",
"          +.<.+.{ u z v j u + . o o o o o o o o + o o o + . . $ 4 5 h ! &.+. .                ",
"        @.@. .! G 5 $ + o . . o O - o o o o % % - @ O o o . . . . & r m ! o.o.o.              ",
"        w.=.K m f 1 . . o o . o - - O - o o - - ; ; - o O o o O . . + 7 j G o.o./             ",
"      /  .@.S s 1 X o o o o o o - : O - - o - : : - ; O O o . % # o o . 1 h G v               ",
"      p z S j 5 X o o % % % o O : ; % - - o ; : : 8 : O - O . ; : % o X X = 7 Y Y G           ",
"        7 1 1 X o o % - ; - O @ : : - ; - o : 9 9 9 8 O - % o : : - ; O o . d  . .G j         ",
"    t.R G f 5 X o ; - : : % % @ : : ; : - % 8 9 9 q : - - % . : 9 - : % o o . v t.o./ k       ",
"  j.5.9.5.D f o o , ; : : - % % : 9 : : ; O : 9 9 q 8 : - - o : q : : : O o o 2 ! ;./ z       ",
"    .... ./ h X # 9 : 9 : ; % % 8 0 : : : - : 9 8 q : : - % o : q , : : % % o + G 9.L k r     ",
"     . .m j i . O 9 0 9 : : - O : q : 9 : % : 9 : q : : : - o : 0 9 8 : - - o X L +.L j r     ",
"    ] ] ^ D h o O 9 q 9 : : % O 8 q : 9 : % : 9 9 q 9 : ; - o 8 9 9 9 : - # o X Y / G f r     ",
"    h b D S r . @ 0 0 9 8 ; O O 8 q : 0 : - : 9 q q 8 : ; : o 8 9 : 8 : - # # X G G k r       ",
"  t.S f s 5 1 . O q 0 0 : ; % O 8 9 ; 0 : % : 9 q q : : ; : o 8 9 - 0 8 ; - # o f V h i       ",
"  &.r.j.D k 7 o - q 9 9 8 : O O 9 9 9 9 : % : 9 q 8 ; : - : o 8 9 9 0 8 : % % +  .9.;.D h     ",
"  .. . .F j r + - q 0 : 8 : - O 8 9 q 9 - O : 9 q : ; : ; : + 8 0 0 0 8 : ; % % +.o.R G h     ",
"   .+. .F F 4 . ; 0 q 9 9 ; % O 9 9 9 : - o : 9 q 9 q ; ; : o 8 q 0 0 < : : - 2 +.t.&.! h     ",
"   .,.7.1.F 1 o : 0 q 9 9 : O - 9 9 9 : ; o : 0 q 8 8 ; ; : o 9 w 9 9 < : : % 3 &.;. .D z     ",
"    f k / t 1 o ; 0 q 0 9 ; @ ; 9 0 9 8 ; @ 8 0 w 9 9 8 : : O 8 q 9 9 : : : % 3  .&.U D k     ",
"  b z t 4 1 X X ; 9 0 9 9 - @ : 0 9 - 8 8 o ; 9 q 8 9 0 8 : O 8 q 0 8 : : : - >  . .D v t     ",
"    v d u t 1 + ; 0 0 8 8 ; o : 0 0 9 8 ; O 8 9 q 8 0 0 : : O 0 q 0 9 q 8 : - + /  .m f r     ",
"     .m m n u * : 9 0 8 8 : o : 0 9 9 9 ; o ; 0 q 8 0 9 : 8 o 8 q 0 9 q , : ; o G G d t i     ",
"    +./ L j p * 8 9 8 9 8 - o 8 0 0 9 8 - o 8 0 9 8 0 9 ; ; o 8 q q 9 q 8 : : o t j j j h     ",
"  +.+.+./ h i % 9 0 ; 8 - o o ; 0 0 9 9 ; o 8 0 8 8 9 ; ; ; O 8 q q 9 q 9 ; : o 5 o. .L k r   ",
"  +.o. .L h i * 9 0 8 8 - % O 8 0 w 9 9 ; o 8 0 9 9 8 - : ; o 9 9 0 9 q 9 : - + 4  . . .R t   ",
"  t. . . .c u % 9 9 8 8 ; - O 8 9 q 9 9 ; o 8 0 0 8 ; - : ; o 9 9 9 : q 0 : ; % 1 +. .o.` d   ",
"   ./  .! j 7 - q 9 : < ; % + 8 9 : 9 9 ; o 9 0 q : 9 : : # o 9 9 9 : 9 0 : : O 1 '  . .G j   ",
"  +. . .K v 4 - 0 q < < : % O 9 0 9 q 9 - o 9 9 0 ; q : : # o 9 q : - : 9 8 : o = R 7.0.Y f   ",
"    8.^ G z 1 ; 0 9 9 < : O O 9 0 9 q 8 O o 9 9 9 - q : : % o 9 q 9 9 : 9 8 : o X k n c s r   ",
"    V n v d + < 0 9 q 0 : - % 9 0 9 q 8 # o 9 : 9 - q : ; - o 8 9 9 9 : 9 8 : o & Y w.7. .^   ",
"  8.L V V n 1 9 0 9 0 8 : O ; 9 0 9 : : O o 8 : : : 9 : : - o 9 9 9 9 : 9 9 : o $ / j.&.D h 5 ",
"  +. ...R A 1 9 0 9 9 : - o ; 9 0 9 0 8 % O , : 8 9 : : : ; o 8 9 , 9 : 9 9 ; o $ !  .U m f   ",
"  &.^ m v b * < 0 9 0 8 : O ; 8 0 9 q 9 - O : ; 9 9 q : : ; o 8 8 : 0 : : 9 ; o * ! ;.&.G h   ",
"  t.,. .L k + : 0 9 0 9 : % ; 9 9 9 q 9 ; O ; ; 8 9 0 : : : o 8 9 : 0 : 9 : ; o $ D &.7. .z   ",
"  n z p 6 2 o : 0 0 0 : ; % : 9 9 8 q 8 ; % - ; 8 : 0 9 : : O : : 8 0 8 9 : ; o & n T @.@.f   ",
"  ] L z d 1 . ; 0 9 q : % @ : 9 9 : q 9 - o - : : : 0 9 : ; o ; : : 0 : : ; ; - & v j u r s 5 ",
"j.5.&.D m r + : 0 9 9 : - - : 0 : , 9 ; : O % ; : ; 9 9 ; - o % : 8 9 ; ; : % ; + b ] h. .S 5 ",
";. . .^ R p @ 8 0 0 : - - O : 0 : : 0 - : O % ; : # 9 8 ; - O O ; 8 : : O ; - - + z  .=.@.S u ",
"&.+.;.9.D p % : q q 9 - % O : q : ; 9 # ; o # - - O 8 : - o o o # : ; ; o - % O X d ] ! K S i ",
"&. .<.~ v u @ : 9 % % @ % o : 9 : ; , ; % % - # - o : : - o o # O - ; ; O % o * + t F @. .v r ",
"o. ./ L h r o v A a y y d g k l a e w e t l J J V k a y y p g b y 5 3 4 2 6 r b D 5 v v z s   ",
"f h j k r 1 f k k v v z l k k k k k k k k h k l x v A A A A n n n v v v l k k k k p 1 u u     ",
"                                          l k g g g k k g g k   l l                           ",
"                                                                                              "
};
