/* XPM */
static char *result[] = {
/* columns rows colors chars-per-pixel */
"80 80 207 2 ",
"   c #2D2429",
".  c #2C2327",
"X  c #34292F",
"o  c #31272E",
"O  c #352A31",
"+  c #3A2E34",
"@  c #3D3239",
"#  c #4F2A1A",
"$  c #5C2A16",
"%  c #532B1B",
"&  c #5C2D1C",
"*  c #572716",
"=  c #59301F",
"-  c #632C15",
";  c #642E19",
":  c #6A2E17",
">  c #67321C",
",  c #6B311B",
"<  c #6D3016",
"1  c #74331B",
"2  c #79361D",
"3  c #7D391F",
"4  c #522E23",
"5  c #533124",
"6  c #54342A",
"7  c #593428",
"8  c #42363C",
"9  c #4A383A",
"0  c #553A33",
"q  c #553C39",
"w  c #543937",
"e  c #4E2F29",
"r  c #643828",
"t  c #7D3B22",
"y  c #653728",
"u  c #56413E",
"i  c #5A403B",
"p  c #684537",
"a  c #774935",
"s  c #74432D",
"d  c #4B3E44",
"f  c #463A41",
"g  c #4D4147",
"h  c #564343",
"j  c #594443",
"k  c #52444A",
"l  c #5B4A4C",
"z  c #594848",
"x  c #574B52",
"c  c #5D4E53",
"v  c #5E5055",
"b  c #5E5159",
"n  c #684C42",
"m  c #69554B",
"M  c #785949",
"N  c #625256",
"B  c #63555C",
"V  c #66585E",
"C  c #6B5957",
"Z  c #775F58",
"A  c #7A644F",
"S  c #7B6352",
"D  c #76645E",
"F  c #665961",
"G  c #6B5C64",
"H  c #6F5F68",
"J  c #715F68",
"K  c #6D6168",
"L  c #73636B",
"P  c #77686C",
"I  c #7D6B73",
"U  c #796770",
"Y  c #7D7177",
"T  c #843D23",
"R  c #893F25",
"E  c #8A4326",
"W  c #8D4428",
"Q  c #8B4628",
"!  c #92462B",
"~  c #934B2C",
"^  c #994C2E",
"/  c #96512D",
"(  c #99542D",
")  c #854A33",
"_  c #954E32",
"`  c #9B4D31",
"'  c #975231",
"]  c #9B5433",
"[  c #9D5A35",
"{  c #9C593A",
"}  c #93593C",
"|  c #8C5739",
" . c #A25B36",
".. c #A35C3A",
"X. c #A95D3B",
"o. c #A55336",
"O. c #A5613A",
"+. c #AB643D",
"@. c #AE6B3D",
"#. c #A46136",
"$. c #B1663F",
"%. c #B26A3F",
"&. c #B4733F",
"*. c #815F4F",
"=. c #87644E",
"-. c #856B57",
";. c #8A725D",
":. c #967658",
">. c #AE6B42",
",. c #AA6643",
"<. c #B36B42",
"1. c #B96E45",
"2. c #B26740",
"3. c #B57245",
"4. c #B97346",
"5. c #B47549",
"6. c #BA7648",
"7. c #B6794A",
"8. c #BD7C4B",
"9. c #B87847",
"0. c #BE7E50",
"q. c #AE704C",
"w. c #806F77",
"e. c #836F79",
"r. c #83727A",
"t. c #827279",
"y. c #8D7663",
"u. c #C07E4D",
"i. c #BF814D",
"p. c #BD8453",
"a. c #B98955",
"s. c #A48664",
"d. c #B48E65",
"f. c #BC9768",
"g. c #C2824F",
"h. c #C48551",
"j. c #C68A54",
"k. c #C98E56",
"l. c #CA8F59",
"z. c #C48B58",
"x. c #C79156",
"c. c #CA9156",
"v. c #CC935A",
"b. c #CE995D",
"n. c #D1965A",
"m. c #D19B5D",
"M. c #CD9C62",
"N. c #C69D6A",
"B. c #D29D61",
"V. c #CFA064",
"C. c #D4A263",
"Z. c #D6A969",
"A. c #8B7B82",
"S. c #887980",
"D. c #8F8388",
"F. c #92848A",
"G. c #96898D",
"H. c #998685",
"J. c #998D92",
"K. c #9D9296",
"L. c #9B9295",
"P. c #A18F8D",
"I. c #A1959A",
"U. c #A59A9E",
"Y. c #A79899",
"T. c #A79CA1",
"R. c #AA9EA3",
"E. c #ACA3A5",
"W. c #AFA5A9",
"Q. c #AFA8A9",
"!. c #B1A5A6",
"~. c #B2A7AA",
"^. c #B3AAAB",
"/. c #B4AAA9",
"(. c #B9AFB2",
"). c #B6ACB1",
"_. c #BBB2B4",
"`. c #BEB6B9",
"'. c #BDB7B7",
"]. c #B9B0AF",
"[. c #C2BBBC",
"{. c #C3B8BB",
"}. c #C6C0BF",
"|. c #C5BDC1",
" X c #C8BFC4",
".X c #C6C1C2",
"XX c #CAC4C5",
"oX c #CDC6C9",
"OX c #CECACA",
"+X c #CDC9C7",
"@X c #D2CCCD",
"#X c #D0C4C5",
"$X c #D5CFD0",
"%X c #D6D1D1",
"&X c #DAD6D6",
"*X c #DCD8D7",
"=X c #DDD7D8",
"-X c #DED9D9",
";X c #D4D0CF",
":X c #E2DDDD",
">X c #E4E0DF",
",X c #E4DFE2",
"<X c #E6E2E1",
"1X c #E8E4E4",
"2X c #ECEAEA",
"3X c #F1EEEF",
"4X c None",
/* pixels */
"4X4X4X4X4X4X4X4X4X4X4X4X4X4X4X4X4X4X4X4X4X4X4X4X4X4X4X4X4X4X4X4X4X4X4X4X4X4X4X4X4X4X4X4X4X4X4X4X4X4X4X4X4X4X4X4X4X4X4X4X4X4X4X4X4X4X4X4X4X4X4X4X4X4X4X4X4X4X4X4X",
"4X4X4X4X4X4X4X4X4X4X4X4X4X4X4X4X4X4X4X4X4X4X4X4X4X4X4X4X4X4X4X4X4X4X4X4X4X4X4X4X4X4X4X4X4X4X4X4X4X4X4X4X4X4X4X4X4X4X4X4X4X4X4X4X4X4X4X4X4X4X4X4X4X4X4X4X4X4X4X4X",
"4X4X4X4X4X4X4X4X4X4X4X4X4X4X4X4X4X4X4X4X4X4X4X4X4X4X4X4X4X4X4X4X4X4X4X4X4X4X4X4X4X4X4X4X4X4X4X4X4X4X4X4X4X4X4X4X4X4X4X4X4X4X4X4X4X4X4X4X4X4X4X4X4X4X4X4X4X4X4X4X",
"4X4X4X4X4X4X4X4X4X4X4X4X4X4X4X4X4X4X4X4X4X4X4X4X4X4X4X4X4X4X4X4X4X4X4X4X4X4X4X4X4X4X4X4X4X4X4X4X4X4X4X4X4X4X4X4X4X4X4X4X4X4X4X4X4X4X4X4X4X4X4X4X4X4X4X4X4X4X4X4X",
"4X4X4X4X4X4X4X4X4X4X4X4X4X4X4X4X4X4X4X4X4X4X4X4X4X4X4X4X4X4X4X4X4X4X4X4X4X4X4X4X4X4X4X4X4X4X4X4X4X4X4X4X4X4X4X4X4X4X4X4X4X4X4X4X4X4X4X4X4X4X4X4X4X4X4X4X4X4X4X4X",
"4X4X4X4X4X4X4X4X4X4X4X4X4X4X4X4X4X4X4X4X{.+X%X&X&X@X].4X4X4X4X4X4X4X4X4X4X4X4X4X4X4X4X4X@X$X=X%X@X[.]./.Q.^.4X4X4X4X4X4X4X4X4X4X4X4X4X4X4X4X4X4X4X4X4X4X4X4X4X4X",
"4X4X4X4X4X4X4X4X4X4X4X4X4X4X4X4X4X4X4X_.&X<X<X1X:X.XW.L.4X4X4X4X4X4X4X4X@X@X%X%X&X=X:X:X:X>X1X>X<X>X@X]./.Q./.4X4X4X4X4X4X4X4X4X4X4X4X4X4X4X4X4X4X4X4X4X4X4X4X4X",
"4X4X4X4X4X4X4X4X4X4X4X4X4X4X4X4X4X4X4X_.=X:X*XOX{.Q.K.L.4X4X4X_.[.:X:X:X>X<X>X<X<X>X:X<X>X<X>X>X<X<X&X_./.Q.Q.4X4X4X4X4X4X4X4X4X4X4X4X4X4X4X4X4X4X4X4X4X4X4X4X4X",
"4X4X4X4X4X4X4X4X4X4X4X4X4X4X4X4X4X4X4X^.(.(.^.Q.T.L.G.4X4X4X4X'.{.XX@X@X=X*X:X:X:X>X<X<X1X<X<X>X:X;X'.].^.^.^.4X4X4X4X4X4X4X4X4X4X4X4X4X4X4X4X4X4X4X4X4X4X4X4X4X",
"4X4X4X4X4X4X4X4X4X4X4X4X4X4X4X%X%XOX+XXX[.(.Q.E.U.E.4X4X4X'._.^.E.W.W.!././._.{..X#X@X@X@X@X@XXX{._.^./.Q.^.4X4X4X4X4X4X4X4X4X4X4X4X4X4X4X4X4X4X4X4X4X4X4X4X4X4X",
"4X4X4X4X4X4X4X4X4X4X4X4X4X4X&X<X<X-X&X&X*X&X&X%X%X%X@X@X@X@XXX[.'.'.E.J.E.U.U.U.Y.R.E.!.Q.^.~./././.^._.[.XX+XOX@X@X@X@X.X4X4X4X4X4X4X4X4X4X4X4X4X4X4X4X4X4X4X4X",
"4X4X4X4X4X4X4X4X4X4X4X4X4X4X=X:X<X-X&X&X&X&X&X&X&X&X&X&X&X&X&X&X*X&X@X_.&X&X=X@X@XXX[.{.{.{.[..X@XXX@X%X%X&X*X&X=X=X*X*X-X@X{.4X4X4X4X4X4X4X4X4X4X4X4X4X4X4X4X4X",
"4X4X4X4X4X4X4X4X4X4X4X4X4X4X=X=X>X>X:X-X&X&X&X&X&X&X%X&X&X&X%X&X*X&X-XXX&X&X&X&X*X*X&X&X*X&X&X*X&X*X*X&X&X&X&X&X&X*X&X*X<X>X@X4X4X4X4X4X4X4X4X4X4X4X4X4X4X4X4X4X",
"4X4X4X4X4X4X4X4X4X4X4X4X4X.X&X&X*X<X<X1X<X<X<X<X>X:X*X:X-X-X-X*X*X-X:X%X-X&X&X&X*X&X&X&X&X&X&X&X*X:X-X*X-X-X*X&X&X*X*X<X:X-X&X}.4X4X4X4X4X4X4X4X4X4X4X4X4X4X4X4X",
"4X4X4X4X4X4X4X4X4X4X4X4X4X.X&X&X&X-X>X2X1X|.).`.+X%X*X:X<X<X<X<X<X<X1X1X<X<X:X:X-X-X-X:X:X:X:X:X:X>X1X>X<X1X1X<X-X<X1X<X&X*X*XoX4X4X4X4X4X4X4X4X4X4X4X4X4X4X4X4X",
"4X4X4X4X4X4X4X4X4X4X4X4X4X.X&X&X&X*X-X<XE.Y L K K P Y r.D.L.K.R.!.^._.'.[..X.XXXXX@X@X@X@X@X@X@X@X@X@X@XXX.X[.OX*X1X1X-X&X&X&X@X4X4X4X4X4X4X4X4X4X4X4X4X4X4X4X4X",
"4X4X4X4X4X4X4X4X4X4X4X4X4XXX&X&X&X&X:X=XA.G N c x z l l v N V G K L L P U I I I I e.t.r.r.e.r.r.r.e.e.w.w.I I r.G.=X<X-X&X&X&X;X4X4X4X4X4X4X4X4X4X4X4X4X4X4X4X4X",
"4X4X4X4X4X4X4X4X4X4X4X4X4X.X&X&X&X*X<X@Xw.B c 6 % # % # % 5 6 q h z l l N N B B V V V V F F V V V C B N B F L I I {.1X-X&X&X&X&X4X4X4X4X4X4X4X4X4X4X4X4X4X4X4X4X",
"4X4X4X4X4X4X4X4X4X4X4X4X4XXX&X&X&X*X<X.XU N 0 - 1 1 1 < , - - $ $ * # * * % 4 4 4 4 5 5 5 4 5 4 4 4 % % 6 z N P I E.1X*X&X&X&X%X.X4X4X4X4X4X4X4X4X4X4X4X4X4X4X4X",
"4X4X4X4X4X4X4X4X4X4X4X4X4X+X&X&X&X&X1X_.P N 7 1 ! o.] ( ' T E ~ Q E E T 3 1 1 1 1 1 1 1 1 1 1 2 2 2 t t , 6 c H I U.1X*X&X&X&X&XXX4X4X4X4X4X4X4X4X4X4X4X4X4X4X4X",
"4X4X4X4X4X4X4X4X4X4X4X4X4X%X&X&X&X*X<X~.L c 7 t <.u.h.u.@.Q ..,.O.@.+.X...] W X...[ .... .E ] O.X...X.' T % l H I P.>X*X&X&X&X&X+X4X4X4X4X4X4X4X4X4X4X4X4X4X4X4X",
"4X4X4X4X4X4X4X4X4X4X4X4X4X-X&X&X&X=X<XT.L c = Q c.m.B.n.>.E ..2.+.>.6.7.<...~ @.<.9.7.8.%.W @.g.8.<.<. .E = c G I J.:X&X;X&X&X&X@X4X4X4X4X4X4X4X4X4X4X4X4X4X4X4X",
"4X4X4X4X4X4X4X4X4X4X4X4X4X<X:X*X&X-X>XJ.G l & ' n.n.m.c.<.E 2.u.g.k.m.n.6. .( g.n.v.c.n.9.W 8.m.m.g.#. .E = l G I F.:X%X&X&X&X*X%X4X4X4X4X4X4X4X4X4X4X4X4X4X4X4X",
"4X4X4X4X4X4X4X4X4X4X4X4X4X<X:X@X+X'._.A.G z & [ n.n.m.x.<.Q h.B.n.n.m.v.7. .[ m.n.n.m.C.9.W 8.b.b.k.@.@.W ; l G I A.&X=X&X&X&X:X%X4X4X4X4X4X4X4X4X4X4X4X4X4X4X4X",
"4X4X4X4X4X4X4X4X4X4X4X4X%X:X-X&X*X*X@XA.G z ; ..n.n.n.l.3.~ v.m.c.x.m.n.8. . .m.j.b.C.Z.j.Q 9.b.v.v.<.<._ - l F I A.&X*X&X&X&X-X%X4X4X4X4X4X4X4X4X4X4X4X4X4X4X4X",
"4X4X4X4X4X4X4X4X4X4X4X4X&X-X&X&X*X<X&Xr.F j : +.n.v.n.k.3./ v.m.n.k.n.n.u. . .v.j.m.C.Z.x.Q 9.c.v.x.<.q._ ; z V I r.%X:X&X&X*X>X&X4X4X4X4X4X4X4X4X4X4X4X4X4X4X4X",
"4X4X4X4X4X4X4X4X4X4X4X4X-X&X&X&X&X:X@Xt.F q , <.n.n.n.k.3./ v.m.c.k.n.v.g. .[ c.c.Z.C.Z.v.Q i.c.c.k.6.2.] ; j V I r.+X<X<X:X-X&X4X4X4X4X4X4X4X4X4X4X4X4X4X4X4X4X",
"4X4X4X4X4X4X4X4X4X4X4X4X&X&X&X&X&X:XXXI V w , 3.k.n.c.h.3.^ k.x.n.k.n.n.g. .[ x.m.Z.C.C.b./ 9.c.x.k.8.2.{ - j V I I R.<X1X:X-X%X%X.X4X4X4X4X4X4X4X4X4X4X4X4X4X4X",
"4X4X4X4X4X4X4X4X4X4X4X4X=X&X*X&X&X:X|.U B w , 4.k.n.k.j.9./ j.k.C.B.Z.B.h. .[ k.b.Z.C.C.m./ 7.k.x.v.h.>.{ - j V U Y [.<X-X&X&X&X&X@X4X4X4X4X4X4X4X4X4X4X4X4X4X4X",
"4X4X4X4X4X4X4X4X4X4X4X4X&X&X&X&X&X>X`.U b w 1 5.h.h.i.k.6.( j.x.C.m.Z.B.k.+.[ x.b.B.C.C.B.] 7.x.m.m.z.>. .; d V I Y `.1X-X&X&X&X*X@X4X4X4X4X4X4X4X4X4X4X4X4X4X4X",
"4X4X4X4X4X4X4X4X4X4X4X4X%X*X*X&X&X>X_.U N w 7 M Z D K =.5./ v.v.B.B.Z.Z.d.=.p ;.f.C.C.C.B.[ 5.v.C.B.0.,.{ ; d B U I (.1X-X&X&X&X=X@X4X4X4X4X4X4X4X4X4X4X4X4X4X4X",
"4X4X4X4X4X4X4X4X4X4X4X4X%X*X&X&X&X:X~.P b 9 k b F F V d s / v.b.b.B.Z.:.z d . 8 u s.C.B.m. .5.M.C.V.7.O.] , j B I I Q.<X-X&X&X&X&X%X4X4X4X4X4X4X4X4X4X4X4X4X4X4X",
"4X4X4X4X4X4X4X4X4X4X4X4X;X&X&X&X=X,X!.L b e 7 p n z i M q.( v.B.b.V.s.@ 8 k   g O u d.V.V.#.9.b.C.C.h.>.{ ; u B U I E.1X*X&X&X&X&X%X.X4X4X4X4X4X4X4X4X4X4X4X4X4X",
"4X4X4X4X4X4X4X4X4X4X4X4X@X&X&X&X%X,XR.L v e E &.a.a.a.m.i.( l.C.b.f.C X 8 k . f o O m N.V.#.7.b.B.m.k.<.[ ; q B U I T.1X*X&X&X&X*X&XoX4X4X4X4X4X4X4X4X4X4X4X4X4X",
"4X4X4X4X4X4X4X4X4X4X4X4X@X&X&X&X&X,XU.L v 5 T 4.C.C.b.B.j.( j.m.V.;.x O @ k   g O O @ s.M.#.7.B.B.b.v.>.o.- d B U I K.<X-X&X&X&X&X&X+X4X4X4X4X4X4X4X4X4X4X4X4X4X",
"4X4X4X4X4X4X4X4X4X4X4X4X@X&X%X&X&X>XU.K v e s 9.C.m.b.b.v.[ a.v.f.c x O 8 g . g o @ f m V.#.8.M.B.b.M.3.] : j B U I J.<X-X&X&X&X&X*X@X4X4X4X4X4X4X4X4X4X4X4X4X4X",
"4X4X4X4X4X4X4X4X4X4X4X4XOX*X&X&X%X:XI.L v e 3 9.C.b.b.b.b.[ z.b.s.u x + 8 k   g O + u u d.@.8.b.M.b.M.3.' - d C U Y G.:X-X&X&X&X&X&XOX4X4X4X4X4X4X4X4X4X4X4X4X4X",
"4X4X4X4X4X4X4X4X4X4X4X4XoX&X&X&X*X:XJ.L v 4 3 7.m.b.b.b.x.[ z.M.D O x O 8 k . g O + @ + :.>.8.b.b.b.b.>.' - j B U U F.:X-X&X&X&X&X&X+X4X4X4X4X4X4X4X4X4X4X4X4X4X",
"4X4X4X4X4X4X4X4X4X4X4X4XXX&X*X*X=X,XK.J v 5 3 9.C.b.m.b.x.#.x.V.C O x O 8 k . g X O g X A q.i.b.b.b.x.3._ - j N U I D.:X:X&X&X&X=X&XoX4X4X4X4X4X4X4X4X4X4X4X4X4X",
"4X4X4X4X4X4X4X4X4X4X4X4X4XOX&X*X:X1XK.J x 4 3 i.m.b.b.v.x.+.z.f.C O l O @ g . @ X + @   m 5.i.b.C.b.v.8.~ $ h B U w.A.-X<X-X&X&X:X%X4X4X4X4X4X4X4X4X4X4X4X4X4X4X",
"4X4X4X4X4X4X4X4X4X4X4X4X4X&X*X-X,X&XJ.J c 4 3 7.B.b.b.x.b.@.h.f.P 9 k + 8 d o @ o O 8 + A 7.h.b.b.v.b.0._ $ h B U I A.=X<X<X:X:X-X4X4X4X4X4X4X4X4X4X4X4X4X4X4X4X",
"4X4X4X4X4X4X4X4X4X4X4X4XOX&X-X-X:XXXD.L c 5 1 9.B.b.x.x.b.&.j.b.f.;.;.;.-.-.p Z S S A -.f.8.h.b.b.v.b.u.! $ j b U w.r.@X&X%X<X<X<X4X4X4X4X4X4X4X4X4X4X4X4X4X4X4X",
"4X4X4X4X4X4X4X4X4X4X4X4X@X&X&X*X:X1XK.L N 5 2 5.b.b.c.c.b.@.x.b.x.M.b.V.b.h.` z.M.M.C.b.v.9.k.m.v.x.m.8.W * z B U I e.K.E.{.:X:X,X-X@X4X4X4X4X4X4X4X4X4X4X4X4X4X",
"4X4X4X4X4X4X4X4X4X4X4X4XOX&X&X*X-X1XI.L N 5 < 3.b.c.x.v.j.@.j.b.x.x.x.x.v.u.o.h.v.v.v.v.v.9.k.m.x.v.b.8.W $ z B I I t.oX:X:X-X=X*X-X&X4X4X4X4X4X4X4X4X4X4X4X4X4X",
"4X4X4X4X4X4X4X4X4X4X4X4XOX&X&X&X:X1XT.L N 6 < >.b.x.k.j.j.3.h.l.v.z.x.x.v.g.X.k.v.x.k.v.l.8.v.v.x.v.v.i.Q * z N I I e.@X<X-X&X&X&X*X*XoX4X4X4X4X4X4X4X4X4X4X4X4X",
"4X4X4X4X4X4X4X4X4X4X4X4X$X&X&X*X:X,XT.L N 6 1 +.v.k.k.j.v.3.h.l.x.z.x.c.x.g.@.k.v.k.k.v.k.8.x.b.x.x.j.p.Q * z V I I t.@X<X=X&X&X&X*X-XoX4X4X4X4X4X4X4X4X4X4X4X4X",
"4X4X4X4X4X4X4X4X4X4X4X4XOX*X*X*X-X1XE.U N 6 , #.v.k.x.c.x.3.h.M.h.j.c.c.c.g.3.k.k.k.v.k.j.i.x.v.j.k.v.8.T * l B I I t.OX<X-X&X&X&X*X-XOX4X4X4X4X4X4X4X4X4X4X4X4X",
"4X4X4X4X4X4X4X4X4X4X4X4X$X&X%X*X:X1XW.U B 0 : [ k.j.x.x.x.9.p.M.j.j.x.j.k.g.3.c.k.x.v.k.j.i.v.x.j.v.k.8.T % x B I I t.+X1X*X&X&X*X*X-X$X4X4X4X4X4X4X4X4X4X4X4X4X",
"4X4X4X4X4X4X4X4X4X4X4X4X$X*X*X&X:X1X).U V w - ] h.h.k.x.x.9.p.M.h.k.j.x.x.g.6.k.k.c.v.k.k.g.c.k.j.x.c.u.T * l V U I e.oX<X-X&X&X&X*X-X$X4X4X4X4X4X4X4X4X4X4X4X4X",
"4X4X4X4X4X4X4X4X4X4X4X4X$X*X*X%X-X1X_.U V q - W g.j.j.k.v.6.7.b.h.k.h.j.k.g.9.c.h.k.k.k.h.g.c.k.j.x.c.7.3 * x V I I t.+X1X-X&X&X&X&X*XOX4X4X4X4X4X4X4X4X4X4X4X4X",
"4X4X4X4X4X4X4X4X4X4X4X4XOX&X*X&X-X<X{.I F q $ Q 8.h.k.l.k.3.q.M.j.j.h.j.k.g.u.h.j.k.h.x.h.g.k.h.k.k.n.6.2 4 c F I I t.oX1X*X&X*X&X&X*XOX4X4X4X4X4X4X4X4X4X4X4X4X",
"4X4X4X4X4X4X4X4X4X4X4X4XOX&X&X&X-X<XXXw.G z * R 1.j.j.k.x.<.2.v.j.h.g.j.k.g.u.j.j.g.g.k.k.g.h.j.k.k.x.<.1 4 c F I w.w.XX1X*X&X&X&X&X&XOX4X4X4X4X4X4X4X4X4X4X4X4X",
"4X4X4X4X4X4X4X4X4X4X4X4XoX*X&X&X=X>X{.t.J k * T >.h.j.k.j.3.O.v.j.h.i.j.h.g.g.h.h.h.j.j.j.g.h.h.h.k.k.>.1 4 c F I Y I oX1X*X*X&X&X&X%XOX4X4X4X4X4X4X4X4X4X4X4X4X",
"4X4X4X4X4X4X4X4X4X4X4X4X4X@X%X&X=X@XW.t.J x # 2 ..h.h.h.k.&. .k.h.h.h.h.h.u.g.h.h.h.j.h.j.g.h.j.h.k.k.O.< 5 c G Y I Y oX1X*X&X&X&X%X&X+X4X4X4X4X4X4X4X4X4X4X4X4X",
"4X4X4X4X4X4X4X4X4X4X4X4X4X$X%X*X:X:X=XA.J c 4 7 a =.S P :.5. .k.h.h.h.j.h.u.g.h.h.h.h.h.j.g.h.h.k.h.k. .< 6 b F I w.t.oX1X*X&X&X&X&X%X.X4X4X4X4X4X4X4X4X4X4X4X4X",
"4X4X4X4X4X4X4X4X4X4X4X4X$X&X&X&X:X,X,XG.J b 9 h b F F K z y } g.i.g.h.h.h.&.u.h.h.h.h.h.h.g.g.h.g.k.u.^ : 6 b G I I Y OX1X1X>X-X-X&XOX4X4X4X4X4X4X4X4X4X4X4X4X4X",
"4X4X4X4X4X4X4X4X4X4X4X4X$X*X*X&X=X,X<XJ.U B 9 0 u j z h i | ( p.i.g.g.h.j.&.u.u.g.g.g.g.g.g.h.h.h.h.6.! - w N G w.I w.@X1X,X=X=X&X&X&X4X4X4X4X4X4X4X4X4X4X4X4X4X",
"4X4X4X4X4X4X4X4X4X4X4X4X$X*X&X&X=X:X<XR.U B w * T } } } q.6.] p.i.g.g.g.h.&.u.h.g.g.g.g.g.g.u.h.h.h.3.E - w N G w.w.S.$X,X=X&X&X&X*X&XOX4X4X4X4X4X4X4X4X4X4X4X4X",
"4X4X4X4X4X4X4X4X4X4X4X4XOX-X&X&X%X:X1X(.I F h $ T X.4.u.8.3.] 0.8.g.g.g.h.$.$.u.g.u.6.u.g.&.u.h.u.u.%.E - q b L w.e.A.%X,X&X&X&X&X&X=X@X4X4X4X4X4X4X4X4X4X4X4X4X",
"4X4X4X4X4X4X4X4X4X4X4X4XOX-X*X%X&X:X1X{.w.G z % 3  .1.3.4.4.] 8.9.u.u.g.g.$.%.u.g.u.8.u.g.+.%.%.4.1.$.T $ j b L A.S.G.&X-X%X&X&X&X&X&X;X4X4X4X4X4X4X4X4X4X4X4X4X",
"4X4X4X4X4X4X4X4X4X4X4X4XXX*X&X%X&X:X<XoXt.L l # 1 ` 1.<.1.%.^ 7.1.u.u.u.u.X.+.u.u.u.6.u.8. .2.<.%.1.$.T * z B Y A.A.F.=X,X&X&X*X&X*X&X%X4X4X4X4X4X4X4X4X4X4X4X4X",
"4X4X4X4X4X4X4X4X4X4X4X4X X*X%X*X&X:X<X@Xr.U v 4 < ! $.1.1.$.~ 6.4.u.u.u.u.X. .u.u.u.u.u.6.] <.<.1.1.+.T & z V r.S.S.F.:X-X*X&X&X&X&X*X%X4X4X4X4X4X4X4X4X4X4X4X4X",
"4X4X4X4X4X4X4X4X4X4X4X4X[.%X*X*X&X-X1X%XS.I V w : R X.2.<.+.~ 5.1.6.u.u.6.]  .u.u.u.u.u.1.( <.<.2.1.X.T p G L A.A.I G.,X-X*X&X&X&X&X*X&X.X4X4X4X4X4X4X4X4X4X4X4X",
"4X4X4X4X4X4X4X4X4X4X4X4X4X&X*X*X*X-X,X=XA.I F q - T ^ X.2.X.! ,.<.1.4.4.<.]  .u.4.4.u.4.<.^ <.<.$.<. .t p L G e.e.I L.1X-X&X&X&X&X&X=X*XXX4X4X4X4X4X4X4X4X4X4X4X",
"4X4X4X4X4X4X4X4X4X4X4X4X4X%X-X&X&X-X<X:XG.w.G n & t ` ` ` ` R o.,.2.2.%.2.^ { u.2.<.<.<.2.! 2.1.2.>._ R d J J I w.I U.1X:X%X&X&X&X&X-X=XXX4X4X4X4X4X4X4X4X4X4X4X",
"4X4X4X4X4X4X4X4X4X4X4X4X4X$X:X&X&X-X<X<XT.I L c 5 1 R ` R ` ! _ ` ] o.X.X.! ! 0.2.2.$.2.X.R ] X.,.q.,.a n F B I w.w.^.<X=X=X&X&X&X&X-X-X+X4X4X4X4X4X4X4X4X4X4X4X",
"4X4X4X4X4X4X4X4X4X4X4X4X4X+X:X-X-X:X<X1X{.Y U B 6 - T R R R R R ! W W ! ! E t ..^ ^ ` ] ` 1 T ! *.R _ t n c J I.].^.{.&X=X=X&X&X&X&X-X-X+X4X4X4X4X4X4X4X4X4X4X4X",
"4X4X4X4X4X4X4X4X4X4X4X4X4X.X:X<X<X<X<X<X:XA.U F C M y y y y y 7 > ; , : , ; * > > > , , , 4 7 a *.*.*.Z P P /.=X&X&XXX{.@X%X&X&X&X&X-X:X@X4X4X4X4X4X4X4X4X4X4X4X",
"4X4X4X4X4X4X4X4X4X4X4X4X4X4X$X1X<X<X1X1X2X[.D.J.#X:X$X#X X{./.!.Y.Y.P.P.P.H.r.H.H.H.H.P.P.P.T.E.^.(.).).^.~.[..X[.}..X[.`.*X*X*X&X*X:X<X1X4X4X4X4X4X4X4X4X4X4X4X",
"4X4X4X4X4X4X4X4X4X4X4X4X4X4X4X4X*X*X-X1X3X3X-X,X,X:X,X,X,X,X,X:X:X:X:X&X$X&X%X@XXX.X X|.|.|.|.|.{.`.(.`.E.R.Q././.'.@X#X(.=X,X1X<X1X1X2X4X4X4X4X4X4X4X4X4X4X4X4X",
"4X4X4X4X4X4X4X4X4X4X4X4X4X4X4X4X4X4X4X4X4X4X4X4X4X4X4X4X4X4X4X4X4X4X:X:X:X:X:X,X:X:X:X:X=X,X-X-X&X&X%X%X/.I.!.!.Q.Q.^.^.).%X-X-X&XOX.XOX4X4X4X4X4X4X4X4X4X4X4X4X",
"4X4X4X4X4X4X4X4X4X4X4X4X4X4X4X4X4X4X4X4X4X4X4X4X4X4X4X4X4X4X4X4X4X4X4X4X4X4X4X4X4X4X4X4X4X4X4X4X4X4X4X4X4XG.P.U.E.E.E.E.4X4X4X4X4X4X4X4X4X4X4X4X4X4X4X4X4X4X4X4X",
"4X4X4X4X4X4X4X4X4X4X4X4X4X4X4X4X4X4X4X4X4X4X4X4X4X4X4X4X4X4X4X4X4X4X4X4X4X4X4X4X4X4X4X4X4X4X4X4X4X4X4X4X4X4X4X4X4X4X4X4X4X4X4X4X4X4X4X4X4X4X4X4X4X4X4X4X4X4X4X4X",
"4X4X4X4X4X4X4X4X4X4X4X4X4X4X4X4X4X4X4X4X4X4X4X4X4X4X4X4X4X4X4X4X4X4X4X4X4X4X4X4X4X4X4X4X4X4X4X4X4X4X4X4X4X4X4X4X4X4X4X4X4X4X4X4X4X4X4X4X4X4X4X4X4X4X4X4X4X4X4X4X",
"4X4X4X4X4X4X4X4X4X4X4X4X4X4X4X4X4X4X4X4X4X4X4X4X4X4X4X4X4X4X4X4X4X4X4X4X4X4X4X4X4X4X4X4X4X4X4X4X4X4X4X4X4X4X4X4X4X4X4X4X4X4X4X4X4X4X4X4X4X4X4X4X4X4X4X4X4X4X4X4X",
"4X4X4X4X4X4X4X4X4X4X4X4X4X4X4X4X4X4X4X4X4X4X4X4X4X4X4X4X4X4X4X4X4X4X4X4X4X4X4X4X4X4X4X4X4X4X4X4X4X4X4X4X4X4X4X4X4X4X4X4X4X4X4X4X4X4X4X4X4X4X4X4X4X4X4X4X4X4X4X4X",
"4X4X4X4X4X4X4X4X4X4X4X4X4X4X4X4X4X4X4X4X4X4X4X4X4X4X4X4X4X4X4X4X4X4X4X4X4X4X4X4X4X4X4X4X4X4X4X4X4X4X4X4X4X4X4X4X4X4X4X4X4X4X4X4X4X4X4X4X4X4X4X4X4X4X4X4X4X4X4X4X",
"4X4X4X4X4X4X4X4X4X4X4X4X4X4X4X4X4X4X4X4X4X4X4X4X4X4X4X4X4X4X4X4X4X4X4X4X4X4X4X4X4X4X4X4X4X4X4X4X4X4X4X4X4X4X4X4X4X4X4X4X4X4X4X4X4X4X4X4X4X4X4X4X4X4X4X4X4X4X4X4X",
"4X4X4X4X4X4X4X4X4X4X4X4X4X4X4X4X4X4X4X4X4X4X4X4X4X4X4X4X4X4X4X4X4X4X4X4X4X4X4X4X4X4X4X4X4X4X4X4X4X4X4X4X4X4X4X4X4X4X4X4X4X4X4X4X4X4X4X4X4X4X4X4X4X4X4X4X4X4X4X4X",
"4X4X4X4X4X4X4X4X4X4X4X4X4X4X4X4X4X4X4X4X4X4X4X4X4X4X4X4X4X4X4X4X4X4X4X4X4X4X4X4X4X4X4X4X4X4X4X4X4X4X4X4X4X4X4X4X4X4X4X4X4X4X4X4X4X4X4X4X4X4X4X4X4X4X4X4X4X4X4X4X"
};
