/* XPM */
static char *result[] = {
/* columns rows colors chars-per-pixel */
"50 50 229 2 ",
"   c #1B100D",
".  c #1D1614",
"X  c #2F180F",
"o  c #221B1B",
"O  c #381910",
"+  c #372014",
"@  c #3C2115",
"#  c #3F2314",
"$  c #30241F",
"%  c #292526",
"&  c #332B2B",
"*  c #3E3331",
"=  c #401A0F",
"-  c #491C10",
";  c #4F1E11",
":  c #4D1F12",
">  c #442416",
",  c #462617",
"<  c #4E2013",
"1  c #4A2516",
"2  c #412817",
"3  c #452B19",
"4  c #502113",
"5  c #552314",
"6  c #562515",
"7  c #582415",
"8  c #5B2515",
"9  c #5F2716",
"0  c #502B19",
"q  c #522C1A",
"w  c #592B1B",
"e  c #5C2818",
"r  c #5C2A19",
"t  c #5E2C1B",
"y  c #4A301B",
"u  c #51321D",
"i  c #56351F",
"p  c #5E371D",
"a  c #632918",
"s  c #632C1B",
"d  c #612D1C",
"f  c #662F1D",
"g  c #682B19",
"h  c #65311E",
"j  c #6B331E",
"k  c #6C311D",
"l  c #6E321E",
"z  c #76351F",
"x  c #5C3923",
"c  c #5D3B24",
"v  c #5B3C24",
"b  c #463E3C",
"n  c #693623",
"m  c #633A27",
"M  c #6A3C27",
"N  c #6C3D27",
"B  c #6E3F28",
"V  c #713520",
"C  c #713723",
"Z  c #763721",
"A  c #723823",
"S  c #763A24",
"D  c #7B3A22",
"F  c #793A25",
"G  c #7A3D27",
"H  c #713B28",
"J  c #763E2A",
"K  c #7D3F29",
"L  c #67421F",
"P  c #57413B",
"I  c #614026",
"U  c #6F4924",
"Y  c #764028",
"T  c #76402D",
"R  c #7E422B",
"E  c #7E422D",
"W  c #7A442D",
"Q  c #744D28",
"!  c #6F4130",
"~  c #6A4335",
"^  c #7B4633",
"/  c #7C4C3C",
"(  c #4E4C4E",
")  c #5A585A",
"_  c #634A44",
"`  c #626264",
"'  c #706868",
"]  c #726E6E",
"[  c #7E6E6A",
"{  c #6C6F77",
"}  c #757577",
"|  c #77787A",
" . c #76787C",
".. c #787A7F",
"X. c #803D25",
"o. c #814028",
"O. c #80412B",
"+. c #844129",
"@. c #80422C",
"#. c #82462F",
"$. c #86442C",
"%. c #87452D",
"&. c #8B472D",
"*. c #88472E",
"=. c #8B482E",
"-. c #8E482D",
";. c #8F492F",
":. c #8C532C",
">. c #834831",
",. c #864831",
"<. c #844833",
"1. c #8B4B32",
"2. c #8C4A30",
"3. c #8D4D33",
"4. c #884B34",
"5. c #8A4D37",
"6. c #894E38",
"7. c #8B4F38",
"8. c #8D4F38",
"9. c #934C30",
"0. c #904D32",
"q. c #8E513A",
"w. c #935036",
"e. c #925136",
"r. c #955035",
"t. c #965236",
"y. c #995336",
"u. c #91533A",
"i. c #90533B",
"p. c #94553B",
"a. c #96553A",
"s. c #96563C",
"d. c #9A563A",
"f. c #9E5739",
"g. c #9B583C",
"h. c #995A3D",
"j. c #9F5A3D",
"k. c #9C5A3F",
"l. c #9E5A3E",
"z. c #9E5A3F",
"x. c #A1593A",
"c. c #A25C3E",
"v. c #815E4F",
"b. c #9E5D40",
"n. c #9C5F43",
"m. c #A55F41",
"M. c #A65F40",
"N. c #8C604E",
"B. c #94634C",
"V. c #866356",
"C. c #8E6655",
"Z. c #83655A",
"A. c #9D6951",
"S. c #A66041",
"D. c #A76243",
"F. c #AB6444",
"G. c #AD6846",
"H. c #AF6947",
"J. c #927164",
"K. c #A07C6D",
"L. c #9B8178",
"P. c #7D8288",
"I. c #808185",
"U. c #85878A",
"Y. c #868A8D",
"T. c #888B8F",
"R. c #8A8E92",
"E. c #8E9195",
"W. c #8E9397",
"Q. c #8E9398",
"!. c #919091",
"~. c #939599",
"^. c #91979B",
"/. c #92969A",
"(. c #93989C",
"). c #94989D",
"_. c #95999E",
"`. c #969A9E",
"'. c #9B9A9B",
"]. c #A38D85",
"[. c #A19E9D",
"{. c #959CA2",
"}. c #989FA4",
"|. c #9BA0A3",
" X c #9CA1A5",
".X c #9EA4A9",
"XX c #9FA6AB",
"oX c #9FA6AC",
"OX c #A1A4A7",
"+X c #A1A5A8",
"@X c #A0A6AA",
"#X c #A0A6AB",
"$X c #A0A7AC",
"%X c #A3AAAE",
"&X c #A7AAAC",
"*X c #A4AAAF",
"=X c #A5ABAF",
"-X c #A4ABB1",
";X c #A6ADB1",
":X c #A6ADB2",
">X c #A6ADB3",
",X c #A8AFB3",
"<X c #ADAFB0",
"1X c #AFB2B3",
"2X c #ABB1B5",
"3X c #ABB2B7",
"4X c #ACB2B7",
"5X c #ADB3B8",
"6X c #AFB5B9",
"7X c #B1B4B5",
"8X c #B0B7BB",
"9X c #B5B7B9",
"0X c #B1B7BC",
"qX c #B1B7BD",
"wX c #B7BABB",
"eX c #B2B8BD",
"rX c #B2B9BD",
"tX c #B2BABF",
"yX c #B3BABF",
"uX c #B7BCBE",
"iX c #B9BCBE",
"pX c #B4BBC0",
"aX c #B6BDC2",
"sX c #B7BEC3",
"dX c #B9BEC1",
"fX c #BCBFC1",
"gX c #BBC0C4",
"hX c #BEC2C5",
"jX c None",
/* pixels */
"jXjXjXjXjXjXjXjXjXjXjXjXjXjXjXjXjXjXjXjXjXjXjXjXjXjXjXjXjXjXjXjXjXjXjXjXjXjXjXjXjXjXjXjXjXjXjXjXjXjX",
"jXjXjXjXjXjXjXjXjXjXjXjXjXjXjXjXjXjXjXjXjXjXjXjXjXgXpXeXuXdXgXjXjXjXjXjXjXjXjXjXjXjXjXjXjXjXjXjXjXjX",
"jXjXjXjXjXjXjXjXjXjXjXjXjXjXjXjXjXjXjXjXjXqXaXsXsXsXsXsXsXsXqX>XrXtXyXjXjXjXjXjXjXjXjXjXjXjXjXjXjXjX",
"jXjXjXjXjXjXjXjXjXjXjXjXjXjXjXjXjX8X3X:X>X5X6X6X6X0XrXyXsXsX,X4XrXrXyXyXdXjXjXjXjXjXjXjXjXjXjXjXjXjX",
"jXjXjXjXjXjXjXjXjXjXjXjXjXjXjX8X3X5X5X=X:X6X5X5X5X4X4X4XyX6X.X2X5X6X6X0XyXaXjXjXjXjXjXjXjXjXjXjXjXjX",
"jXjXjXjXjXjXjXjXjXjXjXjXjXjX3X,X2X5X4X%X=X6X5X4X5X6X6X2X%XR.(.=X2X4X5X4X4X0XaXjXjXjXjXjXjXjXjXjXjXjX",
"jXjXjXjXjXjXjXjXjXjXjXjX~.;X,X=X=X=X.XQ.) | OX2X%X!.] ( * * ) | U.(.,X4X2X2X.X).jXjXjXjXjXjXjXjXjXjX",
"jXjXjXjXjXjXjXjXjXjXuXdX*X^.=X;X$X X(.| & $ b ) b $ o .     % ( ` | W.2X2X{.(.7XdXjXjXjXjXjXjXjXjXjX",
"jXjXjXjXjXjXjXjXjXwXwX9XwXOXQ..XR.] ( % o o o o X o o . . . . o % b ` (.W.I.1XiXiXfXhXjXjXjXjXjXjXjX",
"jXjXjXjXjXjXjXjXuXwX9XwXwXwX`.` b & & $ + @ = = # O O O + X X     . % ( | OX<X7XiXfXfXjXjXjXjXjXjXjX",
"jXjXjXjXjXjXjXjX9XwXwXwXwX<X` & $ $ 3 0 > , 1 > # @ # > # # - = X . . . & U.1X<X9XfXfXyXjXjXjXjXjXjX",
"jXjXjXjXjXjXjXjX&XwXwXwX9X] $ + # 1 q w 3 , 0 1 > @ > > # > 1 1 # X X X   & '.1X1XwX6X*XjXjXjXjXjXjX",
"jXjXjXjXjXjX@X|.XX+X<XiXU.& > w 0 t V l 0 e 7 5 0 , : 4 1 1 5 8 4 = = = X   ( =X[.(.=XtXjXjXjXjXjXjX",
"jXjXjXjXjXjXXX$X$X.XW.(.b 0 d d w f F z h s t 9 0 < : 5 : 6 8 9 t : = - = X . ` | (.5XrXpXjXjXjXjXjX",
"jXjXjXjXjXjX#X$X%X=X{.) u C h h d j F z l k a 9 5 < : 5 7 6 8 9 e < = - < : X o U.;X;X0XtXjXjXjXjXjX",
"jXjXjXjXjX@X$X%X%X%X{._ S S n n h j O.D z k f d 5 < : 5 7 6 9 9 s < = - ; : - X | ;X=X4X0X8XjXjXjXjX",
"jXjXjXjXjXoX%X%X%X=XQ.! K G N C n A O.X.D Z j h w 6 7 8 7 e 9 g s < - 4 ; 5 4 = ) =X=X;X5XeXjXjXjXjX",
"jXjXjXjXjXjX_. X.X.XI.J +.K F H n A %.+.X.Z A l d 6 7 9 a s g g k 6 4 5 ; 7 5 - * R.$X$X%X,XjXjXjXjX",
"jXjXjXjXjX@X_..X=X%X'./ +.$.O.Y H J 3.$.+.Z A C h e t d f s l l Z t 4 5 r 9 8 5 ] ^..X$X}.{.>XjXjXjX",
"jXjXjXjX/.OX2X6X0XrX[.^ $.*.O.K H J 3.&.+.o.A C h s t h f k l z Z t 5 8 r a 9 5 L.2X;X2X6X6X3XjXjXjX",
"jXjXjXjX/. X,X6X0XrX].#.&.*.O.E T R r.;.&.o.K S n s f h j k z z Z f 8 9 r a 9 5 Z.,X;X2X6X0X-XjXjXjX",
"jXjXjXjXjX X=X6X0XrXL.#.;.-.%.#.T >.r.9.;.o.@.G C k f l A Z D D o.j w d r f g 8 / =X;X2X0X0X*XjXjXjX",
"jXjXjXjXjX+X=X6XrX0XJ.H Y Y N M M B R Y Y N M n p r t h f j l l k t 0 w 6 d 9 5 M  X,X2X0XrXoXjXjXjX",
"jXjXjXjXjX .U.}. X{.V.y y U u y y y y y y p L 3 3 2 , 3 L y # # # + + + 0 3 X X 0 | R. X.X}.jXjXjXjX",
"jXjXjXjXjX`.W.(. X{.V.M M Y N m m M N M M N M p i r q 0 p q 0 0 q 1 > > q 0 > # w | ^.}..X;XjXjXjXjX",
"jXjXjXjXjX}..X;X;X}.V.8.y.g.a.8.4.u.M.c.f.r.2.,.E W J K @.o.&.&.=.J n C V D z l ^ !..X.X2X5XpXjXjXjX",
"jXjXjXjX/.(.{.$X;X}.V.i.f.g.a.i.6.u.M.c.f.r.e.4.#.O.R #.*.=.;.9.r.R C S F X.D l ^ !..X}.%X,XeXjXjXjX",
"jXjXjXjXE.W.(..X$XQ.V.p.f.g.a.i.6.u.M.c.f.r.e.4.,.O.>.#.*.=.9.9.r.R H S F X.D C H I.}. X$X%X3XjXjXjX",
"jXjXjXjXjX..U. XW.P.N.p.j.j.a.i.6.s.M.c.f.r.e.8.,.O.>.,.2.=.9.9.r.R H G F X.X.C H ' T.}.{.{.XXjXjXjX",
"jXjXjXjXjX1X7X9XiXqXJ.p.j.j.a.i.6.u.d.:.h.3.e.8.4.<.>.,.2.=.9.&.:.Y H G O.+.X.C H ..7XwXiXwXjXjXjXjX",
"jXjXjXjXjX7X7X9XiXiXK.p.j.j.a.p.6.u.W n S N e.8.4.<.>.,.2.0.;.n j q n K O.+.X.C H !.wXiXfXfXgXjXjXjX",
"jXjXjXjXjX7X7X9XiXfXL.p.c.j.a.p.8.0.W Y D M 8.8.4.<.>.4.1.0.$.d Z q w K O.$.+.C T '.wXiXfXfXgXjXjXjX",
"jXjXjXjXjX7X7X9XiXwXK.p.c.j.a.p.8.u.=.M M ! e.8.4.<.>.4.1.0.;.h s q h K O.$.+.S T [.iXiXfXfXgXjXjXjX",
"jXjXjXjXjX1X7XwXiX2XJ.p.c.c.a.p.8.s.M.9.&.3.p.i.6.<.>.4.1.0.9.$.Z j H E O.$.+.S T '.iXiXfXfXhXjXjXjX",
"jXjXjXjXjX~.T.W.^.T.V.h.c.c.k.p.i.b.G.S.c.d.g.i.6.<.1.4.1.t.y.y.r.R T E %.$.+.S T ..R. X:XeXjXjXjXjX",
"jXjXjXjXjXjX).{.$X_.N.i.h.g.r.i.6.s.D.c.j.t.e.8.4.<.>.4.2.0.y.y.t.>.T E O.$.+.S T ..}.{.-XjXjXjXjXjX",
"jXjXjXjXjXjX=X5X4X#Xv.c Q Q I I I I I I I Q Q I c x I I Q L c c c i i i p L u 0 m W.,X;X2X>XjXjXjXjX",
"jXjXjXjXjXjX}.2X4X=XZ.c U U v c c v v c c U Q i i x q u U p y y y 3 3 3 u p # + c (.;X;X6XyXjXjXjXjX",
"jXjXjXjXjX/.W.$X,X.XC.i.h.g.3.8.4.u.b.h.y.3.4.#.^ <.J Y J R +.#.=.J n C V S S h T !..X%X5XeXjXjXjXjX",
"jXjXjXjXjXE.U. X;X{.C.h.S.m.k.h.i.b.H.F.S.l.g.i.8.7.5.8.w.t.f.f.x.1.E $.%.-.&.G ^ R..X.X2XeXjXjXjXjX",
"jXjXjXjXjXY.U. X=X^.C.h.S.m.k.h.i.b.H.F.S.l.g.i.8.7.5.8.w.t.y.f.x.1.E $.%.-.&.G ^ R..X.X,XeXjXjXjXjX",
"jXjXjXjXjXY.U.(.(.T.B.h.S.m.k.h.i.b.H.F.S.l.g.i.8.7.5.8.w.t.f.f.x.1.E $.%.-.&.G ^ ..U.(.$X-XjXjXjXjX",
"jXjXjXjXjX|.;X,X5X).B.h.S.m.k.h.i.b.H.F.S.l.g.p.8.7.5.8.w.t.f.f.x.1.E $.%.-.&.G ^ I. X=X4X0XjXjXjXjX",
"jXjXjXjXjX|.4X6XrX).B.h.S.m.k.h.i.b.H.F.S.l.g.p.8.7.5.8.w.t.f.f.x.1.E $.%.-.&.G ^ ..OX5X0XyXjXjXjXjX",
"jXjXjXjXjX).,X5X0X_.B.n.S.m.k.h.i.b.H.F.S.l.g.p.i.q.5.8.w.t.f.f.x.1.E $.%.-.&.K ^ ..^.,XrXrXjXjXjXjX",
"jXjXjXjXjX_.=X2X6X_.B.n.S.m.k.h.i.b.H.F.S.l.g.p.i.q.5.8.w.t.f.f.x.1.E $.%.-.&.K ^  .U.=XrX0XjXjXjXjX",
"jXjXjXjXjX_.%X,X6X~.A.n.S.m.k.h.i.b.H.F.S.l.j.p.i.q.5.i.w.t.f.f.x.1.E $.%.-.&.K ^ } I.$XrXqXjXjXjXjX",
"jXjXjXjXjXY.'.%X4XE.A.n.S.D.z.s.u.z.G.D.D.z.b.s.u.q.u.i.t.d.f.j.x.5.@.*.%.9.;.E / { .. X0X3XjXjXjXjX",
"jXjXjXjXjXjX} T.#X/.[ ' ' [ jXjXjXjXjXjXjXjXjXjXjXjXjXjXjXjXjXjXjXjXjXjXjXjX~ P P {  .`.-XoXjXjXjXjX",
"jXjXjXjXjXjXjXjXjXjXjXjXjXjXjXjXjXjXjXjXjXjXjXjXjXjXjXjXjXjXjXjXjXjXjXjXjXjXjXjXjXjXjXjXjXjXjXjXjXjX"
};
