/* XPM */
static char *result[] = {
/* columns rows colors chars-per-pixel */
"80 80 28 1 ",
"  c #251F1C",
". c #27211E",
"X c #28231E",
"o c #2B2521",
"O c #2E2924",
"+ c #322C26",
"@ c #342E29",
"# c #36312B",
"$ c #3A352E",
"% c #3D382F",
"& c #3C3730",
"* c #3E3931",
"= c #423D35",
"- c #443F38",
"; c #464036",
": c #484237",
"> c #464139",
", c #4B453B",
"< c #4E483E",
"1 c #504A3F",
"2 c #4F4940",
"3 c #534D42",
"4 c #575046",
"5 c #585246",
"6 c #575148",
"7 c #5A5349",
"8 c #5E584C",
"9 c #60594E",
/* pixels */
"333<=3334>&333333<4<<2<42<<2,*&>3<,111<,<<1111==::=:111111=;::=<1131143435131474",
"<33<*3633>@-3333244<<3<<;***#*,21<111,11<1,<11=:::=;::111::,::=;1<1<;=1433551344",
"3>=$*333>>2-*><224261,*;2222*>,<<,11,11,<1<<1:%,:,,;:1:::1,,,;:*;,:;*===%-:34473",
"=*=&>22,2,22>&*><242,%*262243**>;,,<111,1111,=:1<<1111111,:,<,,:*,<<,;=;;-%-,>><",
">3<=22<2222<<,=&&&-&*233622362#=,,:::,1,::<<$=:,1,1111111<:<<,,,;%,==:,<<<,>$#==",
"23>=322222,<<<2,-+@266666434632*=:,,:::=;=%%+:111:,1:11111,<<<<<,$#=,,,<,,<,>>33",
"33*,3222<2<<2222-$$2666632446222,===:,::::::;#:11,11111111,;,<11,%=111,<,<<,<*<3",
",=$333232<<2322,&-*266366466422431=::::,:::::#=11,,11:1:=;,:%=::=%:1111113<<<-&3",
"**<333333222<<3>*2>*2>23447742325<=$*<,,:::;,$:,,,,:=#==%%%%%#@#;==11111111<<1$$",
"2334332233332<3,&2>$*22>46672233333>$;,:<:,::=$=#$=====:<<:=%%##=:=1111,<,<1<1,+",
"234333233342<33,#*>23232,37424333373&%;,,:,,::$%=:=:==::==:<<:%<=%:,<<111<113<1-",
"-64433333333,,=*#>,233232,22<4243341*&%;1,:,:,==:::::::::=%:<<;<,%:11:,111111<33",
"+>36333333<2=$=>;222222242,><3343<=*>>>&;::::1:=,,::::,:,>,=;:;<,:$:,<<,,,14113<",
"@&*=><2,>;=*&><>=4433222342>223,=-,,<>,,=$%$;1<;,::,,:,,,,,>$%%<,,==,<111<,<<<;*",
";;=*$=*#***;,,,>*244422,22,*>>*;>><<,>*>;:<=$%==:1::,1,,,,>*,3;;,,,==1<3,;===*;,",
"=-->>;-$;,>><3,<&2444442,2>,,2<<3<<,22>=,,1<<;=$::,1:,1,,:23343$=,,,=;<,><<<<,>>",
">;;;::,%=,,,,,,,:1443343=>75<,331<3311->,,,<22,>=:::=$$=$-336443-&;,>=>>2342<,>;",
"::;::,,::::,:,,1,1345353&*34<,<<<<1331=,,<222>,,1,1,,<-=>33343467,+&=:,263221,,,",
">>>;;:::::;::,,:%,33433;=*;33,<3<=*>1,-,,<<3,,,,,1112>-23333346783#2233>344<<,<<",
"::,;:::;%#@=::,=%:;>,>=,33;;,<,>**;,<-,1<,,>*,,<,,112123333444576*-2377,>3331,,<",
";::::::$=:,,-$*%>,,,>>2<471=#*=;,,<,,:11<<<#-1,,1111<332333344456**23457>*<<<<,,",
"$$#$%=+%56785$@=><2<,:<,<31:*&=,<<<<--11,1=@,<<3111<13333375445542&231453==><<,,",
";$$#+++$>76,==,:,2<,<<<<333,;,=-,<<:&=-<31#=<<3311,<3111311331,-,*;33314443,;;<:",
";;=%=%$$+$*=,311<,<<3<<<334,:3<2;*=*==$$-$O;<333,-,1=$$===$==#==*#:3437142,22=$$",
";;%%%%##+%:1511122<233115111=,,,*>3647732&O=-22-&=-&*<2<,,1,-,364;<144441;111:$:",
";%:%%%%%+%51111122<11111151:>,=*2337789983&=-##+$&*,3333243233331:3444471#:11=%:",
":::%%%;%%+1111113<<<1111111:,=-24646776783*22-o#->2333332332233311551444:o+$;+#:",
"::%;%:%%#;1511514311331<141=*,234347777766>,-=-*,232633132332363115847,%%=%$$=+:",
":::::::;+%117151133<,<2<11&=336341447647671-*22,-332343131111333119111+%;==::%%%",
"::::::::+O11771141,>>=->>;,3323344476347775>2233,23,,3334333133351::;$%:;;%;:%++",
":::::::=$#=17111;$*,633333353333<144575764,-2233333>13434541134311111:%::%%:%$#+",
"$:11::%+:;O=:::$$,34776655333633<44457542-->2336362*13445333111411111::%::%::;:=",
"X=11<:+$-*-**-=o-622322233222222:2226632=-23323535<->-23533311415514<%;;;;==;=;;",
"+%,1,%O=-&*>=*+&&&*--&#*-2*2*&###;,,,2,>*363333355<33,=255554455441<<#:,:::;::;;",
"$X@%=@O=&+oO=-$**266763362-&-222226,>-*>-,23366463,>33,=1453171,,::,%=1,::::::::",
"@.+#X O#+$#@-*>26676766677622363776682>2222>>2<><<>,2,3<=;<31::<11%$%<1<1:::::1:",
"@%;;=$=-,<<=+=68676666678772,26666262622336342=-,3><<><2<,=$;<<<:==;,11<1:;%%==:",
"$,::::::><,,O-6666966636962263,222622622333334,<3>>3<<1<<3,=<1<:=:::,1<<::%::=+%",
":1:,::,,,111$=34767766666226686-266636>>3333341=-=<1<33<<4;<=<:%:,,,,:%====:%$==",
"1,,,11,11111&235666766632666364,6226363><333343==3<2<1<141;==,,=11:,:=;;:::#%;:+",
"11,1::,,<<1<*3666236662-367777326623366232333343=<311111::*;,<:;1<:=%=;;:,,%=:,=",
"11;:;;:,<3<<&36663222--68767793>6663333>6333<33,*=,<1,:==,;;,,:%<;1;=,;::,1==,,:",
":=::,11123,>$,2222&*>22763<3<<-<3333662*233,,-=,<,;;===::<:,,<*:,$==$;:,,,1==,11",
"=:::;:,,=*--#2222>*222223,-355<3662233>*322323211<,<1:,,,1,,,,=,;;,1,=,<111=$:1:",
"$*;*===;>:,*,442,>2322333-<666-3663636,-331333<<1<234,,1,1::,:;;>111:%;111,=-=-$",
"*>::;;:,,>*,2333>*<32232><<343-22223432#$&--1>==;,,<311,11=,,<;,131<::=:19:=:===",
":<,,,,<;*,232222-*=22>2332<13,@&$#@$>,2O$>>>--1478641,1,,1=:1,*,<>:,<<,=:,===#$=",
",<,<<<<*,333<33*>22<2=243<<3>=,2222,&#+o-4443334787771-:,,===*-<23,;111%$=$=-1-$",
"<,,,,<>=3322332-<<33>&-3311>&,32223462>#*>*>2,2474<446,2362<2246775-441=-,,1,13=",
"<,2,,==3332,,*>,3<333,&341==-6332236332>2>2**,277333<44,444444767752353-11,,111=",
"4><2>$222-=,2,,,<11333=-<@-33333333333,*2,72,>,25274244244424474573-13-,,112114-",
"2=<4*-<>,,,22222313333=+=&=<3333323333>&>,,2,222;:4,47424444444479--333,3132353-",
"<;***2>2,<,<<2231<1113==22-==,334<>,6,*222>,*=>;>*&>>2:>2,2<274474==--=-1334552-",
"#@o,4223<<33,,33113333*,2212===23,>***2223*+>2<23<:<,>*>,<22<2445--6----==-131==",
"*$&*<*33<21<<,<311113-$,3<,,<,-=*>,&*22,>>**>3334>2332>224344,222=24433421,==@-,",
":<2<&&33333<3<111,,,1=-12<,-22<,**>>,,,,>*>2*:42,>443<2324333<342=2434333354112-",
"1333-o-63<32<13,=-,<>=<3312,<1,,>->,2,2>;,:2,*>;**32,>23434413<<==333644515151,-",
"1132&&==<333<==-17763,-3313<1,,,>->,2,,=%<<,<>$*,,::<<,244442,>;#,6333441115,,11",
"112&&33-$*==*,23777761-<<<<1<<,1>>>,<,,2*;<1,>><2:,,22,244432,<2==633333511--111",
"<1-*3666,>,,,772497763>=,,,11111,,>,,<<2%=<<<*,22,<23<=,<<<222,,2=-336431-=-1111",
"==$36336322337721776333>*3<<1111,:,<<<<<**<<<:<<,<<<<,:,,222,2,2-2=3354,====-11-",
"@X-6663333346672<7776453=<31111,::,,,<<<*#;<<<<<<22:>,232>,22,2>2,=231-,,=======",
"$ -666666356664,57657653,>31111,,,<,<,<<:*%<:<<<<<2<><333,,,,2>>,2===-2333,12-==",
"o $673676356662>77754543<*,3111,,<,<,<1<<%.@:<122<::;<332,22,,,2,2,,=3343333442-",
"-,&376663367664<677741411=$:111,,,,111:1:o+O==:-====::111:1:::,21,,,-,343333553-",
"22=277363577554<7547745551==-:-,,,:11::1==:====OO=-,111111111,1122,,2-,4333341--",
"22,264663477777:14744575441---=:1,,,,::==-:::=====,11:11=1111,113223,2-23434-,23",
"22,=33665356577-=:444475413543:==,,111=#=,::,:::+=11111:==111,,121,2,42,3332-233",
"223-,7646667777><--145545744511-$*<,1,@=:,,,,::,==:::1::1=--13111113213-15322212",
"2332-22,,378773-<1>-35435531,,>,,$$=-=$111111:,1=#=:111:-==113311133423,-45,3212",
"233223322>>>1<,-2333><334,----,31<=@X+-311111,111==:11:1--=-1311313323,-=-212231",
"33232-2233<-232134334,==-,,11111<11;XX*3111111111==:11::==@+===-11333,=-13233333",
"33333-,,222-1,-3333535,&,4321233<33=#-#$,11>;>11:=o=11=+==1O$=====---==233121133",
"33633-,44453--24355433>--,132331,3,$-,,$+##$$@#$+@OO@===-1:=-1-,--,,,--223111135",
"33233-2434452,57545354==->,,<<1=;3-*,,,;;=-,,>$X@,-=+=-1:,1==,111111,1,112133135",
"1223--3444432=27574<,>=-:,,<,,--=*#;:>,:>,,<,<,$=1,-111,111:=,11,11,2,1,11131513",
"3251#,44-,,,,,--,,>--,-->,<,>,,23$$,,;;,,,,,,1,:+=1:1111111:=1113111,,11,1113515",
"315- =2,,2243222,;<12,>21<,,<1331%;,,,;<<,,,1,11==:,1,:-1111=1113341,,1322313353",
"547:O##$-,222222<,3<<,-<23111134:*;:<,:<,,<,,,<<===111,1111:=1:11131112132331135",
"314-=22===233333<33<<<>131111,1,;,,;,,;,<,,,><3>===11111111===111111223113333333"
};
