/* XPM */
static char *_f92a65ebfa640f18fa3d1ff88ccabd8VblkzlQ3NKuin2a0[] = {
/* columns rows colors chars-per-pixel */
"50 50 12 1 ",
"  c #736C61",
". c #6C6155",
"X c #6E645A",
"o c #70685E",
"O c #766F65",
"+ c #695E50",
"@ c #8A837D",
"# c #928C87",
"$ c #9A948F",
"% c #837B74",
"& c #7D756C",
"* c #A29D99",
/* pixels */
".++++++.%$&ooXXX.XX....@*%+++..+........XXX.%# .++",
"+++++++.@$&ooXX...+..+.%*%+.+..++.........XX%@O+++",
"+++++++.#$&XXXX..++.++.@*%+++..++.++.+.....X%@O+++",
"++++++.&$$&XXX.....++X&$*#O..+....++.+++...X%@ +++",
"++++oO@$**@OXX....++o%$***$&.+++++.+++.++++.@@o+++",
"oO&%@#$$***#& ..++XO@**$$**$&X++++++++...+..@@o+++",
"@@###@%%#*$$#% .. %#*#%O%$**$%o++++++++++++X@# .oO",
"#@%&OOOO@$&&@$@O&@$$@O   &#$*$%O.+++++++++.&@#&&@@",
"OOO  O  %$&. %$#$*@&O O O  &%$$@&o++++++.O%@#$@##@",
"OO    O O$%..o@*$&  OO O oo oO@$#%o++.oO%@#**#@%O ",
" O OOOO O#@..X#*&    o    O  o &$$%O&%@#$**$@%O   ",
"  O  OOOO@@X+o$#O     o o  o ooo&#*$$$#@&%$@& o  o",
" O   O  O%#o+&$%   o  oo   oooooXO$*$& ooO#% o  oo",
"O o     O&# .@$O        ooooooooo&@$$%  o&$%    o ",
"         &#&o## oo ooooooooooXXXo&O%*#Ooo%#%  o   ",
"     O   O#%&$%  o ooooXXooooXoooOXo@$&oo&#% o  oo",
" o      OO@@@$&o oooooXoXXoXoooXOoXXO$@O &#%oo  oo",
"   o     &@$$#OoooooooXooooooXoooXoXX@$& %#&Xooooo",
"   oo    O@**@ oooooooXoXoXXXXXooXXXXO$@O@#OXooooo",
"   o o  o&@**@%OoooooXXXXXXoXXooXXX.XX%$&#@ oooXX ",
"  o     O%$**$@%&ooooXXXXXXXXX ..XX..X&$@#@ oo ooo",
"o o    &@$*@%#$@@& oooXXXXXXX o.X..X..@#$*@& ooooo",
"o oo O%#$#% X %#@@%OXXX.X...o .....X.O##$**#%%&O o",
"OOO &@$$%& XXXX @#@%&  X..Xo  X..X.XO@@#$#$*$##@%&",
"@@%%@$*@OoXX.X..X&#$@%%&&&%O OoXX.XO@@##%&%#%O%#*$",
"****#%$%oXXX......O@$$$#@@@@%%%&&%%@@$% ..X&@O%***",
"&%@#$%#&XX....+....&**$$**$#$$#$####*@X.++.X%#$*#&",
"o oO#$$&XXX..++++..&*$%%%&&&&%%@@##$*@X+++++ $*@ o",
" oo O#*# XX.+++....%*#OO OO O O OO&%$*&+++++X#$&Xo",
"ooooo&#*@ X.+.++..X%*@O  OOOO    OOO&$$O++++.#$Ooo",
"o  ooo&$$&X.+...+.o@*%  OOOOO  O  OOO@*#o+++.@# oX",
"oo oooo%##&X.....+ #$% OOO O    OOOOO&@$@X++X@# oo",
"oooooooX&$#O......O#$&     OO O   OOOO%@$%X+X@# XX",
"ooXXooooo%$@OX....&$#& O O O OO OOO OO&&@#&oo#$OXX",
"XXXXXXXoo&%$@&O  O%*#&O OOOO  O OOOOOOOOO%#&&#$&XX",
"XXXXXXXXoOX@*#@%%@#**%O O   OO  OOOOOO&OO&@#&#$&.X",
"XXXXXXXXOX.&**$#@@@**#O        OO     OOOO&##$$O..",
".X.XXXXooX.%*#&oo.X@*$@       O  OO  OOOOOO&$*#O..",
"X..XXXXoXXX@*%X...+&$##&  O      O OOOOOOOOO&$$%XX",
".......o..X#$O....+X##@#O       O o OOOOOOOOO@$#&.",
"......XX.. $@O....+.@#&@@O   o  OO  OOOOOOOOO&#*@&",
"%OoX.Xo...&*@o...++.%$& @% o o   O   OO  OOOO&@$*#",
"###@%%&++.@$%X.+++++&$@.O#%       O   OO OOO%%@***",
"$$###$#O.X$#%..++..o&#$ .%#&O   O OOO  OOOO%%@$#%%",
"O%@#####@@$@%  O&%@#$**@.o##&&OOOOOOOO&&&&%%@$@OoX",
"XXXo&@####*@@#######@@@@ +&$@&&&&&&&&%%&%%%###&XXX",
"XX...o&@#**#@@%%&Ooooo&#%&%$*##@@@@@#$$$$$*$%@&XX.",
"XX.....X%*#O oooooXXXXo#$#$$$@%&&OOOO&&%@@@#$#OXX.",
"X......+O$@ ooooXXXXXXo#*$@&Oo.X..X....XXoO&#$ X..",
".+......&$%ooooXXXX..Xo#*%o.......X....X..Xo@$ ..."
};
