/* XPM */
static char *result[] = {
/* columns rows colors chars-per-pixel */
"80 80 28 1 ",
"  c #040506",
". c #060708",
"X c #07080A",
"o c #0A0B0D",
"O c #0D0E11",
"+ c #0F1013",
"@ c #111316",
"# c #141619",
"$ c #17191C",
"% c #191A1E",
"& c #1B1D22",
"* c #1E2125",
"= c #202227",
"- c #23252A",
"; c #26292E",
": c #282A2F",
"> c #272A30",
", c #2A2D33",
"< c #2D3136",
"1 c #2F3238",
"2 c #31353B",
"3 c #35383F",
"4 c #363A41",
"5 c #393D44",
"6 c #3C4047",
"7 c #3E4249",
"8 c #40454C",
"9 c #454A52",
/* pixels */
"oo    XXOoXoXO+O...X. .X+oo+##OOXoXXoXoOO+#$@+++XX@O+XoXo+#+o.oXooooooXoOX      ",
"oo  . XOoOoOOo+ooXXoX. o+oo#$$+oooooOOO++#%$+##OoXO++o.X@#@#OoOOoOoooooOO.      ",
" ooo..OOOOOO+O++XXoXoXXo++#$#@+O+OOo++@#@#%#+##+++O#+Oo@$@@#@++oOOOOoO@+o       ",
"Xo.o.XOOOOO+++@+OoooXXoo@%%$#$++#OOO@+#$$#@@@##O@#++@@#%%@#%$##@+OOo++Oo. . ... ",
"Xooo.OO@+O@+@+#+++O+oooo$%$##%@@$@#+@#%%$%#@#@@#$%$O+#&%O+#%%%$#+OOoOoooooooXo. ",
"Xo  .O+@@O&##O@@O@@Oo++++%+#*%+#%#$@+$**##OO#%%%$%%@@$%%@@##%%%#@OOoooXoOooX.oo ",
"oOooO@$$@&&####@+#++@+O+@#O#$#@##+#+o+#+O+#$%**%%%%##=%@%###%%##@@+OoXoOoooooo..",
"O+OOO@%$#&&#@OO#@#@o+@@++#++#$+++oooo###$#%%%&&%%=&%$=&#%%$%&%%#@OOOXOoOoooOooo.",
"OO@@@#$$&*#+#+o+@++OoO@+O++$@$@####o@%%%&%%&%**%&=&%$&=%%&##%*%#+ooooOOOoOO+ooXX",
"Oo+@#$#%&&+O$&+Xoo$$@@@#%@O+OoO#$%&$%=#%%%%#%%%*&-%$#==&%%@@@%@@+ooO%@++O+++OOoX",
"Oo+##$$%#&&#**&XX+$$*%*%%%@@OOO+%$#&%&$##&&$$%%%%-&@O$*&%%@oo+@o#&@#$@O+O@O+OOXX",
"@O@+@#%%&*&&&*&Oo$%$$**%**%%@**$%#@*&#$#%*&=*&=%=;&@OO##&#o.@#+o&%##$#@+@#@@OOoo",
"ooooO$&&==****&+@*%*@%****%%*%**&$&&$+##@@%=*=-%%=%*#XO@$$O.@#O*-$$%%#@@#@@@@ooo",
"o@@o@&&&*****&&#$**********$%**%=-:=&&$##%+@##%+#*&$%$=*%@oOo+%=&$&&&%##@@+#+ooo",
"O@#o&&$#%%**--*&**>;*****%@;>;**-;::,::=&&%#$#=:--%#=*&&==@Oo@%=&&&&&%%##@@@Oooo",
"oO#&=%###%**--**>*>**;*;>$*62<**:1,,;;;=&%%&*=:,;=$%&&&%=-$@+$%%&$*&%%#$@@@%@ooo",
"Xo@&&&#&%%=*&=**>4-**-=->%>64<>><;;;-,,=%%&=&=<,=&$=***#***##%$$$%&*-%$$###$#OOo",
"XO&&&##&&#**&>->->=*-->->*-4,4,<,*;>>,4=%&%=&-,--%$=,**&&**$#$#$$$&&-&$%#$%$@OOo",
"o#&##&&&*#&*&-=->-**>---**-,;11<,;<;>-2-&%%=--,-:%%-*,;*$&**+#+$%&***&%%$$&$@OOo",
"#&#+&&#&*#=*&*---4==->*-*%44,41,<><,;-<--%$--:,;:%::;,,*&**>++#$&&***&&***##@+OO",
"#&###&&&&&-*-*;;><>*>>>--*4144,,1112,;,,,;$--;>;**,:;,;***<;%$##&*&&**&&**##@#@O",
"#####&-***,=;->4>>,>>4<>-&4<<4,-<1<43,,-2<:;=;,-$-<:;>>**-<;**%#&*&**&&-&&##@@OO",
"+@##&&**&*,-,>->>&>1>44>&-4,44>-,1252,,;:<2-%->=#:<:;,*>;<;**-*#$&*&&&&>&$###+OO",
"+@+#&-&&&*,-,4;->*>>*,4-,64,444-><243:,;232:&=;&$<1:;,>*-;***;-##>*&&->>$$##@@OO",
"+##&*-*$&=4>4>=-&&**-,44597414--<,><1,<,443<;&-%*11,,<,**-***>-%O*-*->>*&%####+o",
"##&&&==&*&>4-;-=&*>44>--57444<1><1141<1<542;>%%%,,11,,,-;-*****&+%--,,-*&%##@O+O",
"####&*-***-4-*&*-->1>>*,75444,,4,14644142<>>;,$*1,14<>,>--******+@>,,>--*%##@@OO",
"@+#&%*;-==-,-#&->-<>4>,577444<>>,1<4141<>;><,2#&,<,>>,>>-**=*;;-#O&1>***&&%##@O+",
"###+&&-&=-**--->>=>14>445574>>>4<,1541,,,,,<2,$=,,*><,<>**-*-*>*&+%1>**&&&%##@+O",
"####&&&&-=&&->->--->4444444>>>>4541751<>,,<22;O%,,-,<,<>*->>->***%#---&&*&%$#@Oo",
"#$##$&&&*->>->->>>=-><55,>,--><441,541<><<,<2&+@-,;<<<,>*>->>>**&%#*--**$$$$#++#",
"###$&&&$->>4=>>>-->>>4444>,,>4444<,71<,>,<<4,=>*&;<<,<,-*->>>-*>*##&--*&&$$##+@#",
"$$$$%*-***::-;<---;,<,<32-,:<242<,<22<;>::,<:&,2$;2<<<<,;;>,>-**-*###*&######O##",
"+$@@&:-**&**-,<;;-;23,,<2-;;,22<<4224>;,,,<2<-23;=:<2;;;;<;;;-**--#&&&&&&##+####",
"O@#%==*-*&*;;;<<,-<22<2,<-;;:24215544<;,<<23,,332=%<<:<,<;--;-**--###&&####+#&#+",
"@$@$=&%&&&&;,,,:;;,<<262<-;::622477222;><23<,3223:%;<1<<<;*;>>-;--&#&#&#&&##&#+O",
"@%%$&&&&***::;:,<<<<13421-=:,2,25542,<,<<:;=33311;*#;<,<2>;;,;-;-,;&&&&*&#####+O",
"$&=&%&--**-,;--;,2<,,<2,,;-=2242244,<<<2,;%;312<:==-*-:,2,;><,*--,,*&&&;&#%&#&#O",
"%&=&$$&**&-;=--;,<<<-,<,:::=,<34,34<<<24,;=,233<,::<:-=:2,,<<>*=;->>#&&-$&-*%&#+",
"%=&$%$$$*;;*-=*=<,,<<,,:,:-:,<<2<<4,,<<<2;:223243,,23<,=&;,<;--;;;>>&&->&**&&#$+",
"=*$$=**&&--**&*,<-:,<,,;,;;:<<322,2,<:121;,<<,;3<;,223<<&#&=$#@->>-*&#&**-*&$##O",
"*&@@%%*&-&&***;,---,;<<<,*::<:<<,;,;::21::221<,<;;,222;%&,,>;-&#*,&*&&&&>-*&##++",
"#@@$&&==***$&&***;;<;<<<:&*:<:=2>,,;,<22&,321124,,;3;-=#<53;,,;-%&*&O+***&&$##+O",
"+@@%&%&--**&&$$=**-,<,<,;*-2,-=,>2,,<<<:&<421:,<<;-=-2<*<2,,,,,,>&&&#.&-&$&%#+OO",
"O@%%&$$%&&&**#$*-*;;><,;,;-2=&@-,<,<:,:;-<5<:;=%%&;2383;<,>><,,<,*&=-#o%%##%+o+O",
"O+$@$%%$$%-*$#&*&*---;;;,:,:-:$%>2<:,;;*%;,=%;:;-;<3232<<=;2><,,4-%*>&++&&%##OOO",
"+@#+@$@$@%**$$*--&&&--*-:;,=::=**,:,,=*%O=:;;,1:>,24333,,=;,;,,>>-&*&&*##&*##oXO",
"@@@@+$@#$%**$&*---*%&-,,:;;;,:==;=;-&%;:&<,,,,,,>,<443<%;;-;>,,->>*=***#+++O#+X+",
"+@@$#%%%&*&**&**==&%=&,;:;-,<:=**%&&*:<:;-;,1<<<,>2565,#;**;>*>->-->-**&+#+Oooo+",
"+@@@$&&&&*%%&&*%&==&=;%$%*;,;*=<1<::;123;-<12;;:;<,574<****;<;,>>;-;-**%+%&#+oXo",
"@#$#$&**:=&%%$*%%==&&;=*%&=,--<<<:::*211-:<<<:;:<2253<<-****,;,>>--;**-#+##&##oo",
"@@@$%%*;,*%&&&&&&*&&=-==-==*-,-;::,,:<:,**-<;-;<143211>-*;->;;;,<,,>**;#+&####+o",
"+@@$$&*-:*&&&&**=&***--%;;--:::-:;,12<:,;;*;:;:<<2643<;**;->;**>3<-**>;+#&#&+#@O",
"@++$%$&*****&&-*&%&=;-;&:;*<,;,--*:<1<<;;<;*<<::,254<,;%;,;;-;;,4>*&*-*%+&&###+O",
"+++#$*&&%&&&&&=-&&=-;=&&-;=,,;;-::1<::<*:<;*-:,:2382,<<&;>**;;>>>>&&&*-%@#&#++O+",
"++@$&*&%%%&%&*=&=&=;=*$*,:=-<,,;:<<,:,;*<<;-%;,<<3634<,->>**-;1>>>*&%&-&O+#&&@Oo",
"+++$&$$#$%%%&&-&&***&%*:;::=::;-,<:,-:-*31<;%-<2<11<<>,-<>*;;><;;:=%%*-&+o#%&#Oo",
"++$%&##$$$%&%&*%*:-&%$:-*-:=;;=&::;:*;==<<,;==32,1;<,,;*1;*-->-;*-%%*-*#@o@%%@@o",
"++%%$@@###%&%**%-:*%$*:-*-;-;;;&;;-:-:&-<<:;-;-;<1,,<>;*>;;<<;*;=-%**;*##@#%#@@o",
"@@$#@#$###%&&***:-%@$*:***=:;=;--=-=-=&-:::::<-=,2;;;--**>,><;**=-%%**%@@$#@@@oo",
"@$$O#@##$%%$%%%=;&$+**;****:-;*&=-=-&&*--;;;-;;-,,-==*-*-=<,--**&%#%%$$##%@o@@oo",
"#$@++##$%%#%$#%=&%O$*;***&*;*:-%%=&-&&*==;;;;;,*,;-**=&**=,,==*%*%#&&$%$#@@o@+oo",
"@@@+@#%&#%###%**%$#%%****%*;=:&$&*&*&=;-;-;,-;,=<>-*=*%#%,,**-*%&&$$%%%*&#o.oOo.",
"++@+@@#%%###%=&%$@%&&&&&%&**-:*%&*&-*-:-;;::=;:;<<**-*%@%-,*&&&*$*$$%$*=%@@.oo..",
"++OO@@##$%##$%$$@+**%*%%%%===;**&=%==&:--<<-==:,:-&-=-=#%=;-%=*=&*%@##**#@+o..oo",
"+OO+@###$#O#%#@+o+%*&&&&%**&*===&=%%&%-:--==&&=::*&*&*&$$==&%%==&%%$#&&#$@@Oo.oo",
"+OO+++@O++O$%#@ooo+@%&$&%==&*=**&&%%%@&===%&&==%&&$%%&$@$$*%@#%&&%&%&&$@@@++o..o",
"ooOoooo+++@$%$#oo@$$##o@==-*%=&%&&%%@@%%=&%%%*=&&%#@$&$O#$%$#@%&%*&&=&#O+@O+o..o",
"oOOoOOO@+@$%&%%@+$&=&$@#&*-*%%$&&%%&@@%%%%%&$%=&%%&$$&%@###@@%%%#***&##+O@O@o...",
"OO+OooO@@+###$%+@$%&*%$*&&;%$#$$$%%$+@&%#%&&$@%%%%&%$$#@#$$+#%=%+%#####@@@oOo ..",
"OoOooo+#+++$$#$O@$$$%%&**%$#%$#$@$%@@@%$%%&&#@&%%$%*&%#@@$##+#%%$%#@@@@@@+oo. .o",
"ooooooO++O+@##@O$$$$%*&*#%%##%$$%$@$@@###%%&%@%#%$@$%#+o+$#@+@%$#%%#+@+@@@oo. .@",
"oXoOoX++Oo@@+#+O$$#$$=*#@%%$##@#$$o@##%@#$###@###$%%$@o+@$++@@$#+##+@@+oOOoX..oo",
" XXXoX@#OOOO++o@@@@#$%@+@$##$%%@@@@####@#$@@@@##@%%$++o+@@@++@@@+#++++OXoOOX.oo@",
" XXOXO@+oooOOOO@@$@$+@OOO@%+#$$#@o@$#@@+##@#@o###%%@@@oo++@++@+@++++OOoOOXO .o@o",
" XXoo+OXXoOoOX@+@+@%$+O++#$@@+#@+oo@@O++#oo#@o@@@#@@ooooo+@o+@$#++oOOXOoXXOXoOO.",
"  X+OOXX.XXX.XO+@@$&$OOOO##@OO@@@+@o.o++@oo@o+o##@@+ooooXo+oO+$@+oXXXOoXXoo.oO. ",
"  XOOXXoooXo.XXO++#@O+@++@@OO@@+@++ooooo+oooo+#%#+@oooooXoOXO#@o XXXoOOoOX.oo.  ",
"  Xoo XXXooo.X.oO+@oXOOO@$@Oo@O$@ooooooo+ooooo$#+oo+oooo. XO@+oX.XXoXoXXXX.oo   ",
"  OX  XXXXXX....+$@ooXO@@+oOOOoO+Xooooooooooo+@@oooooo..   o@+X. XXoXXXX Xoo.   "
};
