/* XPM */
static char *result[] = {
/* columns rows colors chars-per-pixel */
"60 60 239 2 ",
"   c #78172F",
".  c #7B1B30",
"X  c #7F1F31",
"o  c #9E211D",
"O  c #9E221D",
"+  c #9E231D",
"@  c #9F231D",
"#  c #9C221F",
"$  c #9D231F",
"%  c #9E221E",
"&  c #9E231E",
"*  c #9F231E",
"=  c #9D241F",
"-  c #9F241E",
";  c #9F251E",
":  c #9F241F",
">  c #9F251F",
",  c #A0251E",
"<  c #A0261E",
"1  c #A0261F",
"2  c #A0271F",
"3  c #A1271F",
"4  c #A2291F",
"5  c #81192B",
"6  c #8D282D",
"7  c #952021",
"8  c #992120",
"9  c #982724",
"0  c #9D2922",
"q  c #9B2925",
"w  c #97302C",
"e  c #A02620",
"r  c #A22A20",
"t  c #A02923",
"y  c #A42B20",
"u  c #A32C20",
"i  c #A32C23",
"p  c #A52C20",
"a  c #A42F20",
"s  c #A42F23",
"d  c #A53023",
"f  c #A63322",
"g  c #A73223",
"h  c #A63423",
"j  c #A33627",
"k  c #A63424",
"l  c #A93121",
"z  c #A93321",
"x  c #A83322",
"c  c #A83723",
"v  c #AC3622",
"b  c #A93324",
"n  c #A93923",
"m  c #AF3A23",
"M  c #AD3C23",
"N  c #AA3925",
"B  c #A93A25",
"V  c #AB3C24",
"C  c #AB3D24",
"Z  c #AB3C29",
"A  c #9A4039",
"S  c #AD4226",
"D  c #AE4526",
"F  c #AE442A",
"G  c #AC402C",
"H  c #AF462F",
"J  c #B24826",
"K  c #B14C27",
"L  c #B54F27",
"P  c #B94A26",
"I  c #B94D27",
"U  c #BD4E27",
"Y  c #B14E29",
"T  c #B44D29",
"R  c #B24E2E",
"E  c #BF5128",
"W  c #B95B2B",
"Q  c #BF5A2A",
"!  c #A64C32",
"~  c #B04930",
"^  c #B14930",
"/  c #B14A30",
"(  c #B24C31",
")  c #B34E32",
"_  c #B44F32",
"`  c #AE5031",
"'  c #B45137",
"]  c #BB5F30",
"[  c #BC5A37",
"{  c #B15E3A",
"}  c #BA5A3D",
"|  c #B7653F",
" . c #BC613B",
".. c #C1562C",
"X. c #C2582B",
"o. c #C45829",
"O. c #C5612D",
"+. c #C9632B",
"@. c #CB622A",
"#. c #C8632C",
"$. c #CB662C",
"%. c #CC662D",
"&. c #C16A2D",
"*. c #C3692E",
"=. c #C56D2F",
"-. c #CD692F",
";. c #C76031",
":. c #C96933",
">. c #CA6C31",
",. c #C47131",
"<. c #C97230",
"1. c #CF7230",
"2. c #C87831",
"3. c #CF7A31",
"4. c #C1733D",
"5. c #CF7B3A",
"6. c #D27535",
"7. c #D07A31",
"8. c #D07C32",
"9. c #A96048",
"0. c #BF6740",
"q. c #B26B47",
"w. c #AE6B54",
"e. c #B97D5F",
"r. c #C06643",
"t. c #C06C41",
"y. c #C37042",
"u. c #C47141",
"i. c #CA7446",
"p. c #CC7C42",
"a. c #C7724D",
"s. c #C4734E",
"d. c #CE8634",
"f. c #CD8835",
"g. c #CF8C36",
"h. c #CB813A",
"j. c #D18934",
"k. c #D28B36",
"l. c #D18C36",
"z. c #D4803B",
"x. c #D38838",
"c. c #D19037",
"v. c #D29037",
"b. c #D39137",
"n. c #D29337",
"m. c #D39338",
"M. c #D39438",
"N. c #D39538",
"B. c #D39638",
"V. c #D49639",
"C. c #D5973B",
"Z. c #BE8055",
"A. c #CE8542",
"S. c #C7854E",
"D. c #CB804A",
"F. c #CD844B",
"G. c #D18144",
"H. c #D28349",
"J. c #CF954F",
"K. c #D79040",
"L. c #D79C43",
"P. c #D89A41",
"I. c #D29249",
"U. c #D5934A",
"Y. c #DE9E4D",
"T. c #CF8552",
"R. c #CF8852",
"E. c #D08F5A",
"W. c #CA9058",
"Q. c #D79955",
"!. c #DE9F53",
"~. c #DEA44F",
"^. c #DFAC4F",
"/. c #D9A051",
"(. c #DFAD58",
"). c #DFAC5E",
"_. c #E0AC50",
"`. c #E0AD50",
"'. c #E3B355",
"]. c #E6B95C",
"[. c #CB8360",
"{. c #D59463",
"}. c #D49869",
"|. c #DDAE62",
" X c #DBB37D",
".X c #E1AF60",
"XX c #E6AF61",
"oX c #E3B161",
"OX c #E2B162",
"+X c #E2B262",
"@X c #E7BC61",
"#X c #E9B960",
"$X c #EBBF74",
"%X c #ECC165",
"&X c #ECC267",
"*X c #EDC86B",
"=X c #EECA6B",
"-X c #EFCB6D",
";X c #EFCC6D",
":X c #EFCC6E",
">X c #F0CE6E",
",X c #F0CE6F",
"<X c #F1CF6F",
"1X c #EFCD73",
"2X c #EFCE74",
"3X c #EFCF79",
"4X c #EECE7C",
"5X c #F0CE71",
"6X c #F0CE73",
"7X c #F0CD78",
"8X c #F1D17F",
"9X c #F1D27F",
"0X c #DFAF83",
"qX c #EBCA8C",
"wX c #F2D580",
"eX c #F3D683",
"rX c #F2D68F",
"tX c #F5DC8A",
"yX c #F5DD8E",
"uX c #E8C591",
"iX c #F1D794",
"pX c #F7E096",
"aX c #F5E09D",
"sX c #F6E09E",
"dX c #F3DFA0",
"fX c #F3DDA3",
"gX c #F8E7AB",
"hX c #FAEAA8",
"jX c #FAEDAF",
"kX c #FAEDB0",
"lX c #FBEEB1",
"zX c #FCF2B9",
"xX c #FCF3BB",
"cX c #FEF7C0",
"vX c #FEF7C2",
"bX c #FEF8C5",
"nX c #FFFAC8",
"mX c #FFFBC9",
"MX c None",
/* pixels */
"MXMXMXMXMXMXMXMXMXMXMXMXMXMXMXMXMXMXMXMXMXMXMXMXMXMXMXMXMXMXMXMXMXMXMXMXMXMXMXMXMXMXMXMXMXMXMXMXMXMXMXMXMXMXMXMXMXMXMXMX",
"MXMXMXMXMXMXMXMXMXMXMXMXMXMXMXMXMXMXMXMXMXMXMXMXMXMXMXMXMXMXMXMXMXMXMXMXMXMXMXMXMXMXMXMXMXMXMXMXMXMXMXMXMXMXMXMXMXMXMXMX",
"MXMXMXMXMXMXMXMXMXMXMXMXMXMXMXMXMXMXMXMXMXMXMXMXMXMXMXMXMXMXMXMXMXMXMXMXMXMXMXMXMXMXMXMXMXMXMXMXMXMXMXMXMXMXMXMXMXMXMXMX",
"MXMXMXMXMXMXMXMXMXMXMXMXMXMXMXMXMXMXMXMXMXMXMXMXMXMXMXMXMXMXMXMXMXMXMXMXMXMXMXMXMXMXMXMXMXMXMXMXMXMXMXMXMXMXMXMXMXMXMXMX",
"MXMXMXMXMXMXMXMXMXMXMXMXMXMXMXMXMXMXMXMXMXMXMXMXMXMXMXMXMXMXMXMXMXMXMXMXMXMXMXMXMXMXMXMXMXMXMXMXMXMXMXMXMXMXMXMXMXMXMXMX",
"MXMXMXMXMXMXMXMXMXMXMXMXMXMXMXMXMXMXMXMXMXMXMXMXMXMXMXMXMXMXMXMXMXMXMXMXMXMXMXMXMXMXMXMXMXMXMXMXMXMXMXMXMXMXMXMXMXMXMXMX",
"MXMXMXMXMXMXMXMXMXMXMXMXMXMXMXMXMXMXMXMXMXMXMXMXMXMXMXMXMXMXMXMXMXMXMXMXMXMXMXMXMXMXMXMXMXMXMXMXMXMXMXMXMXMXMXMXMXMXMXMX",
"MXMXMXMXMXMXMXMXMXMXMXMXMXMXMXMXMXMXMXMXMXMXMXMXMXMXMXMXMXMXMXMXMXMXMXMXMXMXMXMXMXMXMXMXMXMXMXMXMXMXMXMXMXMXMXMXMXMXMXMX",
"MXMXMXMXMXMXMXMXMXMXMXMXMXMXMXMXMXMXMXMXMXMXMXMXMXMXMXMXMXMXMXMXMXMXMXMXMXMXMXMXMXMXMXMXMXMXMXMXMXMXMXMXMXMXMXMXMXMXMXMX",
"MXMXMXMXMXMXMXMXMXMXMXMXMXMXMXMXMXMXMXMXMXMXMXMXMXMXMXMXMXMXMXMXMXMXMXMXMXMXMXMXMXMXMXMXMXMXMXMXMXMXMXMXMXMXMXMXMXMXMXMX",
"MXMXMXMXMXMXMXMXMXMXMXMXMXMXMXMXMXMXMXMXMXMXMXMXMXMXMXMXMXMXMXMXMXMXMXMXMXMXMXMXMXMXMXMXMXMXMXMXMXMXMXMXMXMXMXMXMXMXMXMX",
"MXMXMXMXMXMXMXMXMXMXMXMXMXMXMXMXMXMXMXMXMXMXMXMXMXMXMXMXMXMXMXMXMXMXMXMXMXMXMXMXMXMXMXMXMXMXMXMXMXMXMXMXMXMXMXMXMXMXMXMX",
"MXMXMXMXMXMXMXMXMXMXMXMXMXMXMXMXMXMXMXMXMXMXMXMXMXMXMXMXMXMXMXMXMXMX> MXMXMXMXMXMXMXMXMXMXMXMXMXMXMXMXMXMXMXMXMXMXMXMXMX",
"MXMXMXMXMXMXMXMXMXMXMXMXMXMXMXMXMXMXMXMXMXMXMXMXMXMXMXMXMXMXMX> MXMX- > MXMXMXMXMXMXMXMXMXMXMXMXMXMXMXMXMXMXMXMXMXMXMXMX",
"MXMXMXMXMXMXMXMXMXMXMXMXMXMXMXMXMXMXMXMXMXMXMXMXMXMXMXMXMX- - - - > - - MXMXMXMXMXMXMXMXMXMXMXMXMXMXMXMXMXMXMXMXMXMXMXMX",
"MXMXMXMXMXMXMXMXMXMXMXMXMXMXMXMXMXMXMXMXMXMXMXMXMXMXMX> - - - - - - - - MXMXMXMXMXMXMXMXMXMXMXMXMXMXMXMXMXMXMXMXMXMXMXMX",
"MXMXMXMXMXMXMXMXMXMXMXMXMXMXMXMXMXMXMXMXMXMXMXMXMXMXMX- - - - - - - - - > MXMXMXMXMXMXMXMXMXMXMXMXMXMXMXMXMXMXMXMXMXMXMX",
"MXMXMXMXMXMXMXMXMXMXMXMXMXMXMXMXMXMXMXMXMXMXMXMXMXMXMX- - - - - - - - - > MXMXMXMXMXMXMXMXMXMXMXMXMXMXMXMXMXMXMXMXMXMXMX",
"MXMXMXMXMXMXMXMXMXMXMXMXMXMXMXMXMXMXMXMXMXMXMXMXMXMX> * O O O + - - - - > MXMXMXMXMXMXMXMXMXMXMXMXMXMXMXMXMXMXMXMXMXMXMX",
"MXMXMXMXMXMXMXMXMXMXMXMXMXMXMXMXMXMXMXMXMXMXMXMXMX- O s  .F.D.^ + - - - MXMXMXMXMXMXMXMXMXMXMXMXMXMXMXMXMXMXMXMXMXMXMXMX",
"MXMXMXMXMXMXMXMXMXMXMXMXMXMXMXMXMXMXMXMXMXMXMX> - < ) Q.*X>X<XoX( + - - MXMXMXMXMXMXMXMXMXMXMXMXMXMXMXMXMXMXMXMXMXMXMXMX",
"MXMXMXMXMXMXMXMXMXMXMXMXMXMXMXMXMXMXMXMXMXMXe - < s.iXyX:X-X:X,X.XZ + - MXMXMXMXMXMXMXMXMXMXMXMXMXMXMXMXMXMXMXMXMXMXMXMX",
"MXMXMXMXMXMXMXMXMXMXMXMXMXMXMXMXMXMXMXMXMXMX- + 0.rXhXzXwX=X].^.'.u.+ - MXMXMXMXMXMXMXMXMXMXMXMXMXMXMXMXMXMXMXMXMXMXMXMX",
"MXMXMXMXMXMXMXMXMXMXMXMXMXMXMXMXMXMXMXMXMXMXO G qXcXkXkX9X`.C.n.V.h.r - > MXMXMXMXMXMXMXMXMXMXMXMXMXMXMXMXMXMXMXMXMXMXMX",
"MXMXMXMXMXMXMXMXMXMXMXMXMXMXMXMXMXMXMXMXMXMX@ [.cXbXjX4X~.m.v.b.N.g.C & - MXMXMXMXMXMXMXMXMXMXMXMXMXMXMXMXMXMXMXMXMXMXMX",
"MXMXMXMXMXMXMXMXMXMXMXMXMXMXMXMXMXMXMXMXMX: d uXmXlXeX6XY.8.7.k.M.M.K % - MXMXMXMXMXMXMXMXMXMXMXMXMXMXMXMXMXMXMXMXMXMXMX",
"MXMXMXMXMXMXMXMXMXMXMXMXMXMXMXMXMXMXMXMXe O H fXnXxXaX3X!.%.1.K.C.c.D % - MXMXMXMXMXMXMXMXMXMXMXMXMXMXMXMXMXMXMXMXMXMXMX",
"MXMXMXMXMXMXMXMXMXMXMXMXMXMXMXMXMXMXMXMX- o ' gXvXdXw.9.+X:.6.P.B.f.f * - MXMXMXMXMXMXMXMXMXMXMXMXMXMXMXMXMXMXMXMXMXMXMX",
"MXMXMXMXMXMXMXMXMXMXMXMXMXMXMXMXMXMXMX- - o _ 8XtXW.X . Z.i.-.x.l.W 1 - MXMXMXMXMXMXMXMXMXMXMXMXMXMXMXMXMXMXMXMXMXMXMXMX",
"MXMXMXMXMXMXMXMXMXMXMXMXMXMXMXMXMXMXMX- - O ~ |.;Xt.5   e.0X..@.>.V % - e > MXMXMXMXMXMXMXMXMXMXMXMXMXMXMXMXMXMXMXMXMXMX",
"MXMXMXMXMXMXMXMXMXMXMXMXMXMXMXMXMXMXMXMXe - q A OXG.9 6  XsX{.H.A.c & - - - MXMXMXMXMXMXMXMXMXMXMXMXMXMXMXMXMXMXMXMXMXMX",
"MXMXMXMXMXMXMXMXMXMXMXMXMXMXMXMXMXMXMXMXMX- $ 7 R.XX;.T.1X5X2X@X] - - - - - MXMXMXMXMXMXMXMXMXMXMXMXMXMXMXMXMXMXMXMXMXMX",
"MXMXMXMXMXMXMXMXMXMXMXMXMXMXMXMXMXMXMXMXMX> - = }.pX$X7X#X_.L.,.u * - - - MXMXMXMXMXMXMXMXMXMXMXMXMXMXMXMXMXMXMXMXMXMXMX",
"MXMXMXMXMXMXMXMXMXMXMXMXMXMXMXMXMXMXMXMXMXMX- t E.).:X&Xz.&.L Q p - - - - MXMXMXMXMXMXMXMXMXMXMXMXMXMXMXMXMXMXMXMXMXMXMX",
"MXMXMXMXMXMXMXMXMXMXMXMXMXMXMXMXMXMXMXMXMXMX- ; T Y (.%X5.a J j.M & - - - MXMXMXMXMXMXMXMXMXMXMXMXMXMXMXMXMXMXMXMXMXMXMX",
"MXMXMXMXMXMXMXMXMXMXMXMXMXMXMXMXMXMXMXMXMXMX> & S ! J./.4.h n d.I - - - > MXMXMXMXMXMXMXMXMXMXMXMXMXMXMXMXMXMXMXMXMXMXMX",
"MXMXMXMXMXMXMXMXMXMXMXMXMXMXMXMXMXMXMXMXMXMXMX& B I.U.S.q.0 4 2.#.y - - MXMXMXMXMXMXMXMXMXMXMXMXMXMXMXMXMXMXMXMXMXMXMXMX",
"MXMXMXMXMXMXMXMXMXMXMXMXMXMXMXMXMXMXMXMXMXMXMXMX2 ` { | w # N <.$.l & - MXMXMXMXMXMXMXMXMXMXMXMXMXMXMXMXMXMXMXMXMXMXMXMX",
"MXMXMXMXMXMXMXMXMXMXMXMXMXMXMXMXMXMXMXMXMXMXMXMXMXF R j k b y.O.E 3 - MXMXMXMXMXMXMXMXMXMXMXMXMXMXMXMXMXMXMXMXMXMXMXMXMX",
"MXMXMXMXMXMXMXMXMXMXMXMXMXMXMXMXMXMXMXMXMXMXMXMXMX& O 8 g r.[ o.m & > MXMXMXMXMXMXMXMXMXMXMXMXMXMXMXMXMXMXMXMXMXMXMXMXMX",
"MXMXMXMXMXMXMXMXMXMXMXMXMXMXMXMXMXMXMXMXMXMXMXMXMX- - i } a.X.U < - MXMXMXMXMXMXMXMXMXMXMXMXMXMXMXMXMXMXMXMXMXMXMXMXMXMX",
"MXMXMXMXMXMXMXMXMXMXMXMXMXMXMXMXMXMXMXMXMXMXMXMX> - O / p.*.+.v & - MXMXMXMXMXMXMXMXMXMXMXMXMXMXMXMXMXMXMXMXMXMXMXMXMXMX",
"MXMXMXMXMXMXMXMXMXMXMXMXMXMXMXMXMXMXMXMXMXMXMXMXMX- & x =.3.P , - - > > MXMXMXMXMXMXMXMXMXMXMXMXMXMXMXMXMXMXMXMXMXMXMXMX",
"MXMXMXMXMXMXMXMXMXMXMXMXMXMXMXMXMXMXMXMXMXMXMXMXMXe - 3 z z 4 - - - - MXMXMXMXMXMXMXMXMXMXMXMXMXMXMXMXMXMXMXMXMXMXMXMXMX",
"MXMXMXMXMXMXMXMXMXMXMXMXMXMXMXMXMXMXMXMXMXMXMXMXMXMXMXMX: & - - > > MXMXMXMXMXMXMXMXMXMXMXMXMXMXMXMXMXMXMXMXMXMXMXMXMXMX",
"MXMXMXMXMXMXMXMXMXMXMXMXMXMXMXMXMXMXMXMXMXMXMXMXMXMXMXMXMXMXMXMXMXMXMXMXMXMXMXMXMXMXMXMXMXMXMXMXMXMXMXMXMXMXMXMXMXMXMXMX",
"MXMXMXMXMXMXMXMXMXMXMXMXMXMXMXMXMXMXMXMXMXMXMXMXMXMXMXMXMXMXMXMXMXMXMXMXMXMXMXMXMXMXMXMXMXMXMXMXMXMXMXMXMXMXMXMXMXMXMXMX",
"MXMXMXMXMXMXMXMXMXMXMXMXMXMXMXMXMXMXMXMXMXMXMXMXMXMXMXMXMXMXMXMXMXMXMXMXMXMXMXMXMXMXMXMXMXMXMXMXMXMXMXMXMXMXMXMXMXMXMXMX",
"MXMXMXMXMXMXMXMXMXMXMXMXMXMXMXMXMXMXMXMXMXMXMXMXMXMXMXMXMXMXMXMXMXMXMXMXMXMXMXMXMXMXMXMXMXMXMXMXMXMXMXMXMXMXMXMXMXMXMXMX",
"MXMXMXMXMXMXMXMXMXMXMXMXMXMXMXMXMXMXMXMXMXMXMXMXMXMXMXMXMXMXMXMXMXMXMXMXMXMXMXMXMXMXMXMXMXMXMXMXMXMXMXMXMXMXMXMXMXMXMXMX",
"MXMXMXMXMXMXMXMXMXMXMXMXMXMXMXMXMXMXMXMXMXMXMXMXMXMXMXMXMXMXMXMXMXMXMXMXMXMXMXMXMXMXMXMXMXMXMXMXMXMXMXMXMXMXMXMXMXMXMXMX",
"MXMXMXMXMXMXMXMXMXMXMXMXMXMXMXMXMXMXMXMXMXMXMXMXMXMXMXMXMXMXMXMXMXMXMXMXMXMXMXMXMXMXMXMXMXMXMXMXMXMXMXMXMXMXMXMXMXMXMXMX",
"MXMXMXMXMXMXMXMXMXMXMXMXMXMXMXMXMXMXMXMXMXMXMXMXMXMXMXMXMXMXMXMXMXMXMXMXMXMXMXMXMXMXMXMXMXMXMXMXMXMXMXMXMXMXMXMXMXMXMXMX",
"MXMXMXMXMXMXMXMXMXMXMXMXMXMXMXMXMXMXMXMXMXMXMXMXMXMXMXMXMXMXMXMXMXMXMXMXMXMXMXMXMXMXMXMXMXMXMXMXMXMXMXMXMXMXMXMXMXMXMXMX",
"MXMXMXMXMXMXMXMXMXMXMXMXMXMXMXMXMXMXMXMXMXMXMXMXMXMXMXMXMXMXMXMXMXMXMXMXMXMXMXMXMXMXMXMXMXMXMXMXMXMXMXMXMXMXMXMXMXMXMXMX",
"MXMXMXMXMXMXMXMXMXMXMXMXMXMXMXMXMXMXMXMXMXMXMXMXMXMXMXMXMXMXMXMXMXMXMXMXMXMXMXMXMXMXMXMXMXMXMXMXMXMXMXMXMXMXMXMXMXMXMXMX",
"MXMXMXMXMXMXMXMXMXMXMXMXMXMXMXMXMXMXMXMXMXMXMXMXMXMXMXMXMXMXMXMXMXMXMXMXMXMXMXMXMXMXMXMXMXMXMXMXMXMXMXMXMXMXMXMXMXMXMXMX",
"MXMXMXMXMXMXMXMXMXMXMXMXMXMXMXMXMXMXMXMXMXMXMXMXMXMXMXMXMXMXMXMXMXMXMXMXMXMXMXMXMXMXMXMXMXMXMXMXMXMXMXMXMXMXMXMXMXMXMXMX",
"MXMXMXMXMXMXMXMXMXMXMXMXMXMXMXMXMXMXMXMXMXMXMXMXMXMXMXMXMXMXMXMXMXMXMXMXMXMXMXMXMXMXMXMXMXMXMXMXMXMXMXMXMXMXMXMXMXMXMXMX",
"MXMXMXMXMXMXMXMXMXMXMXMXMXMXMXMXMXMXMXMXMXMXMXMXMXMXMXMXMXMXMXMXMXMXMXMXMXMXMXMXMXMXMXMXMXMXMXMXMXMXMXMXMXMXMXMXMXMXMXMX"
};
