/* XPM */
static char *result[] = {
/* columns rows colors chars-per-pixel */
"60 60 254 2 ",
"   c #7C1E1A",
".  c #7A182F",
"X  c #781630",
"o  c #791730",
"O  c #7A1A30",
"+  c #7C1B30",
"@  c #90211C",
"#  c #9B221F",
"$  c #9D201D",
"%  c #9E231D",
"&  c #9E221E",
"*  c #9E231E",
"=  c #9F231E",
"-  c #9F241E",
";  c #9F251E",
":  c #9F241F",
">  c #9F251F",
",  c #A0241E",
"<  c #A0251E",
"1  c #A0251F",
"2  c #A0261E",
"3  c #A0261F",
"4  c #A1271F",
"5  c #A2271F",
"6  c #A1281F",
"7  c #8D1E27",
"8  c #841C2B",
"9  c #871E2A",
"0  c #901E24",
"q  c #8C2229",
"w  c #962122",
"e  c #94312C",
"r  c #93362F",
"t  c #9E382B",
"y  c #892E31",
"u  c #8A2F31",
"i  c #913832",
"p  c #A02620",
"a  c #A12620",
"s  c #A22B20",
"d  c #A32D20",
"f  c #A42F20",
"g  c #A62E20",
"h  c #A72E20",
"j  c #A72F20",
"k  c #A63322",
"l  c #A73422",
"z  c #A73522",
"x  c #A53624",
"c  c #A83021",
"v  c #AC3622",
"b  c #A83823",
"n  c #A93B23",
"m  c #AD3822",
"M  c #AA3C23",
"N  c #AB3E23",
"B  c #AF3C23",
"V  c #AB3E24",
"C  c #A83E28",
"Z  c #B13F24",
"A  c #AF4726",
"S  c #AF4727",
"D  c #A4452C",
"F  c #A6472C",
"G  c #AF4928",
"H  c #B34125",
"J  c #B04225",
"K  c #B74726",
"L  c #B04826",
"P  c #B14A27",
"I  c #B64A26",
"U  c #B84927",
"Y  c #BB4C27",
"T  c #B34E28",
"R  c #B24D2A",
"E  c #B44C28",
"W  c #B35028",
"Q  c #B0522B",
"!  c #B55329",
"~  c #B55429",
"^  c #BA5429",
"/  c #BC5729",
"(  c #BF5729",
")  c #B7592C",
"_  c #B95B2B",
"`  c #BC582B",
"'  c #BC5B2B",
"]  c #BA5C2B",
"[  c #A24E37",
"{  c #A15034",
"}  c #A65537",
"|  c #AE5E33",
" . c #A95A34",
".. c #AB5C34",
"X. c #B45030",
"o. c #B55431",
"O. c #B05A30",
"+. c #BB612C",
"@. c #BD642C",
"#. c #BD652D",
"$. c #BE662D",
"%. c #B16032",
"&. c #BA6335",
"*. c #BB6F34",
"=. c #BD6338",
"-. c #B97036",
";. c #BB7436",
":. c #BF7938",
">. c #C05A2A",
",. c #C35D2A",
"<. c #C2602C",
"1. c #C2642C",
"2. c #C4672D",
"3. c #C7662D",
"4. c #CB642C",
"5. c #CA672D",
"6. c #CD642C",
"7. c #CD652C",
"8. c #CE672C",
"9. c #C06B2E",
"0. c #C4682D",
"q. c #CB6F2F",
"w. c #C2702F",
"e. c #CC722F",
"r. c #CF732F",
"t. c #C16D35",
"y. c #C46F3C",
"u. c #C37130",
"i. c #C37330",
"p. c #C47330",
"a. c #C47531",
"s. c #CC7230",
"d. c #CD7330",
"f. c #CF7531",
"g. c #C07836",
"h. c #C87B32",
"j. c #CF7931",
"k. c #C87D32",
"l. c #CA7C32",
"z. c #CE7C32",
"x. c #C87C38",
"c. c #D07A31",
"v. c #D07B31",
"b. c #D07C32",
"n. c #D07D32",
"m. c #D07E32",
"M. c #D07F33",
"N. c #CA8134",
"B. c #CD8735",
"V. c #CE8735",
"C. c #CA8837",
"Z. c #CF8935",
"A. c #CC8A37",
"S. c #CF8B36",
"D. c #CE8A37",
"F. c #CA8139",
"G. c #CB833A",
"H. c #CB8938",
"J. c #D08133",
"K. c #D08233",
"L. c #D28334",
"P. c #D18434",
"I. c #D38735",
"U. c #D18835",
"Y. c #D28835",
"T. c #D28B36",
"R. c #D08E37",
"E. c #D08F37",
"W. c #D28E36",
"Q. c #D38F38",
"!. c #D08D3D",
"~. c #D18E3D",
"^. c #D29137",
"/. c #D39137",
"(. c #D29237",
"). c #D39237",
"_. c #D29337",
"`. c #D39337",
"'. c #D29238",
"]. c #D39238",
"[. c #D39338",
"{. c #D49038",
"}. c #D49238",
"|. c #D39438",
" X c #D39538",
".X c #D39539",
"XX c #D49538",
"oX c #D49539",
"OX c #D49638",
"+X c #D49639",
"@X c #D4963A",
"#X c #D6933D",
"$X c #D69A3E",
"%X c #D79B3E",
"&X c #D69B3F",
"*X c #D79C3F",
"=X c #CE8646",
"-X c #D29746",
";X c #D59544",
":X c #D69A40",
">X c #D79C40",
",X c #D79C45",
"<X c #D89A41",
"1X c #D89D41",
"2X c #D89E41",
"3X c #D99F42",
"4X c #D99F43",
"5X c #DC9E46",
"6X c #D9A042",
"7X c #D9A144",
"8X c #DAA144",
"9X c #DAA345",
"0X c #DBA346",
"qX c #DCA348",
"wX c #DCA648",
"eX c #DCA649",
"rX c #DEA74C",
"tX c #DEAA4B",
"yX c #DEAA4C",
"uX c #DEAA4D",
"iX c #DDA84E",
"pX c #DFAC4F",
"aX c #DFAB52",
"sX c #E0AD4F",
"dX c #E1B052",
"fX c #E1B053",
"gX c #E2B154",
"hX c #E3B356",
"jX c #E0B05B",
"kX c #E4B558",
"lX c #E5B859",
"zX c #E6B85B",
"xX c #E8BD5E",
"cX c #E8BD5F",
"vX c #E9BF61",
"bX c #E9C062",
"nX c #EAC063",
"mX c #EAC263",
"MX c #EBC265",
"NX c #EBC365",
"BX c #EBC465",
"VX c #EBC466",
"CX c #ECC466",
"ZX c #ECC567",
"AX c #ECC667",
"SX c #ECC568",
"DX c #EEC86A",
"FX c #EEC96B",
"GX c #EECA6C",
"HX c #EFCA6C",
"JX c #EFCB6D",
"KX c #EFCC6D",
"LX c #EFCC6E",
"PX c None",
/* pixels */
"PXPXPXPXPXPXPXPXPXPXPXPXPXPXPXPXPXPXPXPXPXPXPXPXPXPXPXPXPXPXPXPXPXPXPXPXPXPXPXPXPXPXPXPXPXPXPXPXPXPXPXPXPXPXPXPXPXPXPXPX",
"PXPXPXPXPXPXPXPXPXPXPXPXPXPXPXPXPXPXPXPXPXPXPXPXPXPXPXPXPXPXPXPXPXPXPXPXPXPXPXPXPXPXPXPXPXPXPXPXPXPXPXPXPXPXPXPXPXPXPXPX",
"PXPXPXPXPXPXPXPXPXPXPXPXPXPXPXPXPXPXPXPXPXPXPXPXPXPXPXPXPXPXPXPXPXPXPXPXPXPXPXPXPXPXPXPXPXPXPXPXPXPXPXPXPXPXPXPXPXPXPXPX",
"PXPXPXPXPXPXPXPXPXPXPXPXPXPXPXPXPXPXPXPXPXPXPXPXPXPXPXPXPXPXPXPXPXPXPXPXPXPXPXPXPXPXPXPXPXPXPXPXPXPXPXPXPXPXPXPXPXPXPXPX",
"PXPXPXPXPXPXPXPXPXPXPXPXPXPXPXPXPXPXPXPXPXPXPXPXPXPXPXPXPXPXPXPXPXPXPXPXPXPXPXPXPXPXPXPXPXPXPXPXPXPXPXPXPXPXPXPXPXPXPXPX",
"PXPXPXPXPXPXPXPXPXPXPXPXPXPXPXPXPXPXPXPXPXPXPXPXPXPXPXPXPXPXPXPXPXPXPXPXPXPXPXPXPXPXPXPXPXPXPXPXPXPXPXPXPXPXPXPXPXPXPXPX",
"PXPXPXPXPXPXPXPXPXPXPXPXPXPXPXPXPXPXPXPXPXPXPXPXPXPXPXPXPXPXPX> > PXPXPXPXPXPXPXPXPXPXPXPXPXPXPXPXPXPXPXPXPXPXPXPXPXPXPX",
"PXPXPXPXPXPXPXPXPXPXPXPXPXPXPXPXPXPXPXPXPXPXPXPXPXPXPXPXPXPXPXPX- > PXPXPXPXPXPXPXPXPXPXPXPXPXPXPXPXPXPXPXPXPXPXPXPXPXPX",
"PXPXPXPXPXPXPXPXPXPXPXPXPXPXPXPXPXPXPXPXPXPXPXPXPXPXPXPXPXPXPXPXPX> PXPXPXPXPXPXPXPXPXPXPXPXPXPXPXPXPXPXPXPXPXPXPXPXPXPX",
"PXPXPXPXPXPXPXPXPXPXPXPXPXPXPXPXPXPXPXPXPXPXPXPXPXPXPXPXPXPXPXPXPXPXPXPXPXPXPXPXPXPXPXPXPXPXPXPXPXPXPXPXPXPXPXPXPXPXPXPX",
"PXPXPXPXPXPXPXPXPXPXPXPXPXPXPXPXPXPXPXPXPXPXPXPXPXPXPXPXPXPXPXPXPXPXPXPXPXPXPXPXPXPXPXPXPXPXPXPXPXPXPXPXPXPXPXPXPXPXPXPX",
"PXPXPXPXPXPXPXPXPXPXPXPXPXPXPXPXPXPXPXPXPXPXPXPXPXPXPXPXPXPXPXPXPXPXPXPXPXPXPXPXPXPXPXPXPXPXPXPXPXPXPXPXPXPXPXPXPXPXPXPX",
"PXPXPXPXPXPXPXPXPXPXPXPXPXPXPXPXPXPXPXPXPXPXPXPXPXPX> - > PXPXPXPXPXPXPXPXPXPXPXPXPXPXPXPXPXPXPXPXPXPXPXPXPXPXPXPXPXPXPX",
"PXPXPXPXPXPXPXPXPXPXPXPXPXPXPXPXPXPXPXPXPXPXPXPX> - - - - - > PXPX: - - - - PXPXPXPXPXPXPXPXPXPXPXPXPXPXPXPXPXPXPXPXPXPX",
"PXPXPXPXPXPXPXPXPXPXPXPXPXPXPXPXPXPXPXPXPXPXPXPX- - - - - - - - - - - - - - PXPXPXPXPXPXPXPXPXPXPXPXPXPXPXPXPXPXPXPXPXPX",
"PXPXPXPXPXPXPXPXPXPXPXPXPXPXPXPXPXPXPXPXPX> - - - - - = * = = = = * = - - - PXPXPXPXPXPXPXPXPXPXPXPXPXPXPXPXPXPXPXPXPXPX",
"PXPXPXPXPXPXPXPXPXPXPXPXPXPXPXPXPXPXPXPX> - - - - = % d L @.#.#.$.! s = - - PXPXPXPXPXPXPXPXPXPXPXPXPXPXPXPXPXPXPXPXPXPX",
"PXPXPXPXPXPXPXPXPXPXPXPXPXPXPXPXPXPXPXPX- - - - - n t.G.:X9XsXlX6X(.a.b = - - > - > PXPXPXPXPXPXPXPXPXPXPXPXPXPXPXPXPXPX",
"PXPXPXPXPXPXPXPXPXPXPXPXPXPXPXPXPXPXPX> - - - * M !.mXBXVXFXJXSX4X|.+Xu.4 - - - - - PXPXPXPXPXPXPXPXPXPXPXPXPXPXPXPXPXPX",
"PXPXPXPXPXPXPXPXPXPXPXPXPXPXPXPXPXPXPX- - - = f F.bXJXKXJXJXLXhX|.|.|.R.A * - - - > PXPXPXPXPXPXPXPXPXPXPXPXPXPXPXPXPXPX",
"PXPXPXPXPXPXPXPXPXPXPXPXPXPXPXPXPXPXPX- - - & W gXJXJXJXJXJXHXeX`.|.|.OXi.6 - - - - PXPXPXPXPXPXPXPXPXPXPXPXPXPXPXPXPXPX",
"PXPXPXPXPXPXPXPXPXPXPXPXPXPXPXPXp PXPX- - - 6 x.AXKXJXJXJXLXNX&X|.|.|. XB.k = - - - PXPXPXPXPXPXPXPXPXPXPXPXPXPXPXPXPXPX",
"PXPXPXPXPXPXPXPXPXPXPXPXPXPXPXPXPXPXPX- - * N ,XHXJXJXJXJXHXpX].[.|.|.|.'.P & - - > PXPXPXPXPXPXPXPXPXPXPXPXPXPXPXPXPXPX",
"PXPXPXPXPXPXPXPXPXPXPXPXPXPXPXPXPX1 a > - * ~ 0XGXJXJXJXLXFX8XK.W.|.|.|.|.T & - - PXPXPXPXPXPXPXPXPXPXPXPXPXPXPXPXPXPXPX",
"PXPXPXPXPXPXPXPXPXPXPXPXPXPXPXPXPXPX@ , - 2 w.%XfXMXLXJXCXZX<Xv.[.|.|.|. X' = - > PXPXPX> > PXPXPXPXPXPXPXPXPXPXPXPXPXPX",
"PXPXPXPXPXPXPXPXPXPXPXPXPXPXPXPXPXPX  , - 2 p.XX&XNXDXhX1X7XQ.b.[.|.|.[.XX1., - PXPXPX> > PXPXPXPXPXPXPXPXPXPXPXPXPXPXPX",
"PXPXPXPXPXPXPXPXPXPXPXPXPXPXPXPXPXPXPX> - 2 p.XX2XnXuXoX_.E.].P.[./.c.r.L.>.< - PXPXPXPXPXPXPXPXPXPXPXPXPXPXPXPXPXPXPXPX",
"PXPXPXPXPXPXPXPXPXPXPXPXPXPXPXPXPXPXPXPXPX3 p.OX@X*X|.C. .i -.Y.T.P.7.6.4.B - - PXPXPXPXPXPXPXPXPXPXPXPXPXPXPXPXPXPXPXPX",
"PXPXPXPXPXPXPXPXPXPXPXPXPXPXPXPXPXPXPXPXPX- +.XXXXE...u + X { {.M.n.7.8.Y ; - - PXPXPXPXPXPXPXPXPXPXPXPXPXPXPXPXPXPXPXPX",
"PXPXPXPXPXPXPXPXPXPXPXPXPXPXPXPXPXPXPXPXPX= f O.H.A.y o O . } rXf.j.m.5.v * - - PXPXPXPXPXPXPXPXPXPXPXPXPXPXPXPXPXPXPXPX",
"PXPXPXPXPXPXPXPXPXPXPXPXPXPXPXPXPXPXPXPXPX- = q ;.OX%.9 8 0 &.zX#X).S.J < - - - PXPXPXPXPXPXPXPXPXPXPXPXPXPXPXPXPXPXPXPX",
"PXPXPXPXPXPXPXPXPXPXPXPXPXPXPXPXPXPXPXPXPX- - 7 D ^.Z.^ U / ~.vX2X*.G 2 - - - - PXPXPXPXPXPXPXPXPXPXPXPXPXPXPXPXPXPXPXPX",
"PXPXPXPXPXPXPXPXPXPXPXPXPXPXPXPXPXPXPXPX> - - # x | -X5XI.}.yXuXg.t H < - - - - PXPXPXPXPXPXPXPXPXPXPXPXPXPXPXPXPXPXPXPX",
"PXPXPXPXPXPXPXPXPXPXPXPXPXPXPXPXPXPXPXPX- - - = V r [ jXcXkXwX:.e ` ,.5 - - - - PXPXPXPXPXPXPXPXPXPXPXPXPXPXPXPXPXPXPXPX",
"PXPXPXPXPXPXPXPXPXPXPXPXPXPXPXPXPXPXPXPX> - - - 6 F C ;XxXeX|.Q w 0.e.h * - - 1 PXPXPXPXPXPXPXPXPXPXPXPXPXPXPXPXPXPXPXPX",
"PXPXPXPXPXPXPXPXPXPXPXPXPXPXPXPXPXPXPXPXPX> - - - ] z.qX>X.X$XR $ _ s.j * - > PXPXPXPXPXPXPXPXPXPXPXPXPXPXPXPXPXPXPXPXPX",
"PXPXPXPXPXPXPXPXPXPXPXPXPXPXPXPXPXPXPXPXPX1 - - = l D.dX$X3XaXX.z h.q.g = - PXPXPXPXPXPXPXPXPXPXPXPXPXPXPXPXPXPXPXPXPXPX",
"PXPXPXPXPXPXPXPXPXPXPXPXPXPXPXPXPXPXPXPXPX- - - = d N.tXiX=X=.) l.d.K < : PXPXPXPXPXPXPXPXPXPXPXPXPXPXPXPXPXPXPXPXPXPXPX",
"PXPXPXPXPXPXPXPXPXPXPXPXPXPXPXPXPXPXPXPXPX> - - - - E y.o.S k.U.3.m 2 - > PXPXPXPXPXPXPXPXPXPXPXPXPXPXPXPXPXPXPXPXPXPXPX",
"PXPXPXPXPXPXPXPXPXPXPXPXPXPXPXPXPXPXPXPXPXPX- - - * j / 9.V.J.( c * - - PXPXPXPXPXPXPXPXPXPXPXPXPXPXPXPXPXPXPXPXPXPXPXPX",
"PXPXPXPXPXPXPXPXPXPXPXPXPXPXPXPXPXPXPXPXPXPXPX- - - < I 2.<.Z 4 = - - - PXPXPXPXPXPXPXPXPXPXPXPXPXPXPXPXPXPXPXPXPXPXPXPX",
"PXPXPXPXPXPXPXPXPXPXPXPXPXPXPXPXPXPXPXPXPXPXPXp - - - - < < - - - - - > PXPXPXPXPXPXPXPXPXPXPXPXPXPXPXPXPXPXPXPXPXPXPXPX",
"PXPXPXPXPXPXPXPXPXPXPXPXPXPXPXPXPXPXPXPXPXPXPXPXPX> > - - - - - - PXPXPXPXPXPXPXPXPXPXPXPXPXPXPXPXPXPXPXPXPXPXPXPXPXPXPX",
"PXPXPXPXPXPXPXPXPXPXPXPXPXPXPXPXPXPXPXPXPXPXPXPXPXPXPX> - - - - PXPXPXPXPXPXPXPXPXPXPXPXPXPXPXPXPXPXPXPXPXPXPXPXPXPXPXPX",
"PXPXPXPXPXPXPXPXPXPXPXPXPXPXPXPXPXPXPXPXPXPXPXPXPXPXPXPXp > - - PXPXPXPXPXPXPXPXPXPXPXPXPXPXPXPXPXPXPXPXPXPXPXPXPXPXPXPX",
"PXPXPXPXPXPXPXPXPXPXPXPXPXPXPXPXPXPXPXPXPXPXPXPXPXPXPXPXPXPXPX> PXPXPXPXPXPXPXPXPXPXPXPXPXPXPXPXPXPXPXPXPXPXPXPXPXPXPXPX",
"PXPXPXPXPXPXPXPXPXPXPXPXPXPXPXPXPXPXPXPXPXPXPXPXPXPXPXPXPXPXPXPXPXPXPXPXPXPXPXPXPXPXPXPXPXPXPXPXPXPXPXPXPXPXPXPXPXPXPXPX",
"PXPXPXPXPXPXPXPXPXPXPXPXPXPXPXPXPXPXPXPXPXPXPXPXPXPXPXPXPXPXPXPXPXPXPXPXPXPXPXPXPXPXPXPXPXPXPXPXPXPXPXPXPXPXPXPXPXPXPXPX",
"PXPXPXPXPXPXPXPXPXPXPXPXPXPXPXPXPXPXPXPXPXPXPXPXPXPXPXPXPXPXPXPXPXPXPXPXPXPXPXPXPXPXPXPXPXPXPXPXPXPXPXPXPXPXPXPXPXPXPXPX",
"PXPXPXPXPXPXPXPXPXPXPXPXPXPXPXPXPXPXPXPXPXPXPXPXPXPXPXPXPXPXPXPXPXPXPXPXPXPXPXPXPXPXPXPXPXPXPXPXPXPXPXPXPXPXPXPXPXPXPXPX",
"PXPXPXPXPXPXPXPXPXPXPXPXPXPXPXPXPXPXPXPXPXPXPXPXPXPXPXPXPXPXPXPXPXPXPXPXPXPXPXPXPXPXPXPXPXPXPXPXPXPXPXPXPXPXPXPXPXPXPXPX",
"PXPXPXPXPXPXPXPXPXPXPXPXPXPXPXPXPXPXPXPXPXPXPXPXPXPXPXPXPXPXPXPXPXPXPXPXPXPXPXPXPXPXPXPXPXPXPXPXPXPXPXPXPXPXPXPXPXPXPXPX",
"PXPXPXPXPXPXPXPXPXPXPXPXPXPXPXPXPXPXPXPXPXPXPXPXPXPXPXPXPXPXPXPXPXPXPXPXPXPXPXPXPXPXPXPXPXPXPXPXPXPXPXPXPXPXPXPXPXPXPXPX",
"PXPXPXPXPXPXPXPXPXPXPXPXPXPXPXPXPXPXPXPXPXPXPXPXPXPXPXPXPXPXPXPXPXPXPXPXPXPXPXPXPXPXPXPXPXPXPXPXPXPXPXPXPXPXPXPXPXPXPXPX",
"PXPXPXPXPXPXPXPXPXPXPXPXPXPXPXPXPXPXPXPXPXPXPXPXPXPXPXPXPXPXPXPXPXPXPXPXPXPXPXPXPXPXPXPXPXPXPXPXPXPXPXPXPXPXPXPXPXPXPXPX",
"PXPXPXPXPXPXPXPXPXPXPXPXPXPXPXPXPXPXPXPXPXPXPXPXPXPXPXPXPXPXPXPXPXPXPXPXPXPXPXPXPXPXPXPXPXPXPXPXPXPXPXPXPXPXPXPXPXPXPXPX",
"PXPXPXPXPXPXPXPXPXPXPXPXPXPXPXPXPXPXPXPXPXPXPXPXPXPXPXPXPXPXPXPXPXPXPXPXPXPXPXPXPXPXPXPXPXPXPXPXPXPXPXPXPXPXPXPXPXPXPXPX",
"PXPXPXPXPXPXPXPXPXPXPXPXPXPXPXPXPXPXPXPXPXPXPXPXPXPXPXPXPXPXPXPXPXPXPXPXPXPXPXPXPXPXPXPXPXPXPXPXPXPXPXPXPXPXPXPXPXPXPXPX",
"PXPXPXPXPXPXPXPXPXPXPXPXPXPXPXPXPXPXPXPXPXPXPXPXPXPXPXPXPXPXPXPXPXPXPXPXPXPXPXPXPXPXPXPXPXPXPXPXPXPXPXPXPXPXPXPXPXPXPXPX",
"PXPXPXPXPXPXPXPXPXPXPXPXPXPXPXPXPXPXPXPXPXPXPXPXPXPXPXPXPXPXPXPXPXPXPXPXPXPXPXPXPXPXPXPXPXPXPXPXPXPXPXPXPXPXPXPXPXPXPXPX"
};
