/* XPM */
static char *result[] = {
/* columns rows colors chars-per-pixel */
"60 60 185 2 ",
"   c #791830",
".  c #7A1930",
"X  c #9D1E18",
"o  c #9D1F19",
"O  c #9C1E1A",
"+  c #9D201A",
"@  c #9D201B",
"#  c #9E211B",
"$  c #9E221B",
"%  c #9E221C",
"&  c #9E231C",
"*  c #9E221D",
"=  c #9E231D",
"-  c #9F231D",
";  c #9E231E",
":  c #9F231E",
">  c #9F241D",
",  c #9F241E",
"<  c #9F251E",
"1  c #A0251E",
"2  c #A0261E",
"3  c #A1261E",
"4  c #A1271F",
"5  c #A2281F",
"6  c #A2291F",
"7  c #A3291F",
"8  c #A32A1F",
"9  c #A42B1F",
"0  c #88242F",
"q  c #8A272F",
"w  c #8E2B2F",
"e  c #982222",
"r  c #94312F",
"t  c #98342E",
"y  c #99352F",
"u  c #9A362E",
"i  c #9A362F",
"p  c #9E3A2E",
"a  c #A32A20",
"s  c #A42B20",
"d  c #A32D21",
"f  c #A42C20",
"g  c #A52C20",
"h  c #A52F20",
"j  c #A62E20",
"k  c #A62F20",
"l  c #A72F20",
"z  c #A73021",
"x  c #A63321",
"c  c #A73522",
"v  c #A93220",
"b  c #A93221",
"n  c #AA3321",
"m  c #AB3522",
"M  c #AB3622",
"N  c #AB3722",
"B  c #AC3722",
"V  c #AD3722",
"C  c #AD3822",
"Z  c #AE3923",
"A  c #AD3B23",
"S  c #AF3B23",
"D  c #AD3A24",
"F  c #AE3E24",
"G  c #A63828",
"H  c #A53E2C",
"J  c #B03C23",
"K  c #B23E24",
"L  c #B33F24",
"P  c #AD4125",
"I  c #A3422F",
"U  c #A5402D",
"Y  c #AB432A",
"T  c #A8422D",
"R  c #A8432E",
"E  c #AD462C",
"W  c #AF4A2D",
"Q  c #AE4A2E",
"!  c #B44124",
"~  c #B44224",
"^  c #B64525",
"/  c #B74625",
"(  c #B44E27",
")  c #B94826",
"_  c #B94926",
"`  c #BA4F27",
"'  c #BC4D27",
"]  c #BD4E27",
"[  c #BD4F27",
"{  c #BE4F27",
"}  c #B44828",
"|  c #B74D2A",
" . c #B24B2D",
".. c #B04E2D",
"X. c #B54D2C",
"o. c #B84A28",
"O. c #B94C28",
"+. c #BA5228",
"@. c #BE5028",
"#. c #BF5128",
"$. c #B9522D",
"%. c #B8532D",
"&. c #BF5F2B",
"*. c #BF582C",
"=. c #C05328",
"-. c #C15428",
";. c #C35629",
":. c #C35929",
">. c #C45829",
",. c #C45929",
"<. c #C45C2B",
"1. c #C75C2A",
"2. c #C75D2A",
"3. c #C65E2B",
"4. c #C35C2C",
"5. c #C85F2B",
"6. c #C2612B",
"7. c #C7622D",
"8. c #C2662E",
"9. c #C7652D",
"0. c #CA602B",
"q. c #C8602C",
"w. c #C9612C",
"e. c #CA622C",
"r. c #CB632C",
"t. c #CC632C",
"y. c #CB642C",
"u. c #CB652D",
"i. c #CA672D",
"p. c #CA672E",
"a. c #CC642C",
"s. c #CD642C",
"d. c #CC652C",
"f. c #CD652C",
"g. c #CE652C",
"h. c #CD662C",
"j. c #CD672C",
"k. c #CD672D",
"l. c #CE662C",
"z. c #CE672C",
"x. c #C8682F",
"c. c #CE682D",
"v. c #CE692D",
"b. c #CA6E2F",
"n. c #CD6C2E",
"m. c #CE6C2E",
"M. c #CC6F2F",
"N. c #CD6F2F",
"B. c #CE6E2E",
"V. c #CF6E2E",
"C. c #CE6F2F",
"Z. c #C8702F",
"A. c #CE702F",
"S. c #CF712F",
"D. c #CF722F",
"F. c #CF7430",
"G. c #CF7530",
"H. c #CF7731",
"J. c #CF7831",
"K. c #D07831",
"L. c #D07931",
"P. c #D07B32",
"I. c #D07C32",
"U. c #D17C32",
"Y. c #D17D32",
"T. c #D08033",
"R. c #D18133",
"E. c #D18233",
"W. c #D18635",
"Q. c #D18735",
"!. c #D18835",
"~. c #D28835",
"^. c #D28935",
"/. c #D28A36",
"(. c #D38C36",
"). c #D28D36",
"_. c #D28E37",
"`. c #D29037",
"'. c #D39137",
"]. c #D39237",
"[. c #D39238",
"{. c #D39338",
"}. c #D39438",
"|. c #D39538",
" X c None",
/* pixels */
" X X X X X X X X X X X X X X X X X X X X X X X X X X X X X X X X X X X X X X X X X X X X X X X X X X X X X X X X X X X X",
" X X X X X X X X X X X X X X X X X X X X X X X X X X X X X X X X X X X X X X X X X X X X X X X X X X X X X X X X X X X X",
" X X X X X X X X X X X X X X X X X X X X X X X X X X X X X X X X X X X X X X X X X X X X X X X X X X X X X X X X X X X X",
" X X X X X X X X X X X X X X X X X X X X X X X X X X X X X X X X X X X X X X X X X X X X X X X X X X X X X X X X X X X X",
" X X X X X X X X X X X X X X X X X X X X X X X X X X X X X X X X X X X X X X X X X X X X X X X X X X X X X X X X X X X X",
" X X X X X X X X X X X X X X X X X X X X X X X X X X X X X X X X X X X X X X X X X X X X X X X X X X X X X X X X X X X X",
" X X X X X X X X X X X X X X X X X X X X X X X X X X X X X X X X X X X X X X X X X X X X X X X X X X X X X X X X X X X X",
" X X X X X X X X X X X X X X X X X X X X X X X X X X X X X X X X X X X X X X X X X X X X X X X X X X X X X X X X X X X X",
" X X X X X X X X X X X X X X X X X X X X X X X X X X X X X X X X X X X X X X X X X X X X X X X X X X X X X X X X X X X X",
" X X X X X X X X X X X X X X X X X X X X X X X X X X X X X X X X X X X X X X X X X X X X X X X X X X X X X X X X X X X X",
" X X X X X X X X X X X X X X X X X X X X X X X X X X X X X X X X X X X X X X X X X X X X X X X X X X X X X X X X X X X X",
" X X X X X X X X X X X X X X X X X X X X X X X X X X X X X X XX  X X X X X X X X X X X X X X X X X X X X X X X X X X X X",
" X X X X X X X X X X X X X X X X X X X X X X X X X X X X X X# +  X X X X X X X X X X X X X X X X X X X X X X X X X X X X",
" X X X X X X X X X X X X X X X X X X X X X X X X X X X% % - -  X X X X X X X X X X X X X X X X X X X X X X X X X X X X X",
" X X X X X X X X X X X X X X X X X X X X X X X X X X% , , , , #  X X X X X X X X X X X X X X X X X X X X X X X X X X X X",
" X X X X X X X X X X X X X X X X X X X X X X X X X X> , , , , , % % - - %  X X X X X X X X X X X X X X X X X X X X X X X",
" X X X X X X X X X X X X X X X X X X X X X X X X X= , , , , , , , , , , -  X X X X X X X X X X X X X X X X X X X X X X X",
" X X X X X X X X X X X X X X X X X X X X X X X X= , , , , , , , , , , , -  X X X X X X X X X X X X X X X X X X X X X X X",
" X X X X X X X X X X X X X X X X X X X X X X X X, , , , , , , , , , , , =  X X X X X X X X X X X X X X X X X X X X X X X",
" X X X X X X X X X X X X X X X X X X X X X X X, , , , : ; 2 5 2 ; ; , , , %  X X X X X X X X X X X X X X X X X X X X X X",
" X X X X X X X X X X X X X X X X X X X X- - # - , , , j L ] >.@.~ K s , , ,  X X X X X X X X X X X X X X X X X X X X X X",
" X X X X X X X X X X X X X X X X X X X X, , , , : f ) 3.S.P.F.l.g.f.;.l : , %  X X X X X X X X X X X X X X X X X X X X X",
" X X X X X X X X X X X X X X X X X X X= , , , , 4 [ z.E.[.}./.L.C.f.l.-.8 , , %  X X X X X X X X X X X X X X X X X X X X",
" X X X X X X X X X X X X X X Xo  X X X% , , , ; V t.H.`.}.}.}.|.W.h.f.f.! , , =  X X X+  X X X X X X X X X X X X X X X X",
" X X X X X X X X X X X X X X X X X X X X, , , 6 =.K.].}.}.}.}.|.^.j.f.h.2.j : , #  X X%  X X X X X X X X X X X X X X X X",
" X X X X X X X X X X X X X X X X X X X X, , , L n._.}.}.}.}.}.|.R.f.f.h.f.V ; , , , , -  X X X X X X X X X X X X X X X X",
" X X X X X X X X X X X X X X X X X X X X, , 7 ,.Y.}.}.}.}.}.}.{.G.s.s.1.,.C ; , , , , -  X X X X X X X X X X X X X X X X",
" X X X X X X X X X X X X X X X X X X% - , ; m r.~.|.}.}.}.}.).Q.m.t./ g b b ; , , , , %  X X X X X X X X X X X X X X X X",
" X X X X X X X X X X X X X X X X X X, , , ; C d.!.|.}.}.}.|.).D.j._ 3 ; < 1 , , , , ,  X X X X X X X X X X X X X X X X X",
" X X X X X X X X X X X X X X X X X X- , , ; V d.!.|.}.}.}.].T.h.' 5 , , , , , , , , ,  X X X X X X X X X X X X X X X X X",
" X X X X X X X X X X X X X X X X X X% , , ; C a.I.{.}.[.Q.F.v.#.8 : , , , , , , , , ,  X X X X X X X X X X X X X X X X X",
" X X X X X X X X X X X X X X X X X X= , , ; b 0.k.T.}.'.A.s.f.J ; , , , , , , , , , $  X X X X X X X X X X X X X X X X X",
" X X X X X X X X X X X X X X X X X X X- , , 2 { l.c.J.U.V.a.d.=.6 , ; 6 5 , , , , %  X X X X X X X X X X X X X X X X X X",
" X X X X X X X X X X X X X X X X X X X X X X% D 4.a.f.*.W i r U n ; k B 2 , , % #  X X X X X X X X X X X X X X X X X X X",
" X X X X X X X X X X X X X X X X X X X X X X Xe 0 R a.y .   . p ^ N :.A ; , %  X X X X X X X X X X X X X X X X X X X X X",
" X X X X X X X X X X X X X X X X X X X X X X Xd Q %.e.$.q w I x.N.b.,.g : , =  X X X X X X X X X X X X X X X X X X X X X",
" X X X X X X X X X X X X X X X X X X X X X X Xh 6.p.t  .4.q.B.Y.(.9.) 9 , , -  X X X X X X X X X X X X X X X X X X X X X",
" X X X X X X X X X X X X X X X X X X X X X X% , 8 O.u X.l.f.f.u.8.` +.6 , , , &  X X X X X X X X X X X X X X X X X X X X",
" X X X X X X X X X X X X X X X X X X X X X X- , ; Z e.f.f.g.w.T G &.P : , , , %  X X X X X X X X X X X X X X X X X X X X",
" X X X X X X X X X X X X X X X X X X X X X X, , ; M y.y.r.7.E ..i.( , , , , -  X X X X X X X X X X X X X X X X X X X X X",
" X X X X X X X X X X X X X X X X X X X X% = , , , 4 } H H Y | M.Z.c ; , , , %  X X X X X X X X X X X X X X X X X X X X X",
" X X X X X X X X X X X X X X X X X X X X% - , , , , a o.<.5.1.F x < , , , - +  X X X X X X X X X X X X X X X X X X X X X",
" X X X X X X X X X X X X X X X X X X X X X X- , , , , z S S v * * , , , %  X X X X X X X X X X X X X X X X X X X X X X X",
" X X X X X X X X X X X X X X X X X X X X X X% , , , , * @ O  X X X% = #  X X X X X X X X X X X X X X X X X X X X X X X X",
" X X X X X X X X X X X X X X X X X X X X X X X$ - , , %  X X X X X X X X X X X X X X X X X X X X X X X X X X X X X X X X",
" X X X X X X X X X X X X X X X X X X X X X X X X X% - %  X X X X X X X X X X X X X X X X X X X X X X X X X X X X X X X X",
" X X X X X X X X X X X X X X X X X X X X X X X X X X X X X X X X X X X X X X X X X X X X X X X X X X X X X X X X X X X X",
" X X X X X X X X X X X X X X X X X X X X X X X X X X X X X X X X X X X X X X X X X X X X X X X X X X X X X X X X X X X X",
" X X X X X X X X X X X X X X X X X X X X X X X X X X X X X X X X X X X X X X X X X X X X X X X X X X X X X X X X X X X X",
" X X X X X X X X X X X X X X X X X X X X X X X X X X X X X X X X X X X X X X X X X X X X X X X X X X X X X X X X X X X X",
" X X X X X X X X X X X X X X X X X X X X X X X X X X X X X X X X X X X X X X X X X X X X X X X X X X X X X X X X X X X X",
" X X X X X X X X X X X X X X X X X X X X X X X X X X X X X X X X X X X X X X X X X X X X X X X X X X X X X X X X X X X X",
" X X X X X X X X X X X X X X X X X X X X X X X X X X X X X X X X X X X X X X X X X X X X X X X X X X X X X X X X X X X X",
" X X X X X X X X X X X X X X X X X X X X X X X X X X X X X X X X X X X X X X X X X X X X X X X X X X X X X X X X X X X X",
" X X X X X X X X X X X X X X X X X X X X X X X X X X X X X X X X X X X X X X X X X X X X X X X X X X X X X X X X X X X X",
" X X X X X X X X X X X X X X X X X X X X X X X X X X X X X X X X X X X X X X X X X X X X X X X X X X X X X X X X X X X X",
" X X X X X X X X X X X X X X X X X X X X X X X X X X X X X X X X X X X X X X X X X X X X X X X X X X X X X X X X X X X X",
" X X X X X X X X X X X X X X X X X X X X X X X X X X X X X X X X X X X X X X X X X X X X X X X X X X X X X X X X X X X X",
" X X X X X X X X X X X X X X X X X X X X X X X X X X X X X X X X X X X X X X X X X X X X X X X X X X X X X X X X X X X X",
" X X X X X X X X X X X X X X X X X X X X X X X X X X X X X X X X X X X X X X X X X X X X X X X X X X X X X X X X X X X X"
};
