/* XPM */
static char *result[] = {
/* columns rows colors chars-per-pixel */
"60 60 102 2 ",
"   c #991610",
".  c #9A1812",
"X  c #9C1C16",
"o  c #9D1E18",
"O  c #9D1F18",
"+  c #9D1F19",
"@  c #9D2019",
"#  c #9D201A",
"$  c #9D211B",
"%  c #9E201A",
"&  c #9E211A",
"*  c #9E211B",
"=  c #9E221B",
"-  c #9E221C",
";  c #9E231C",
":  c #9E231D",
">  c #9F231D",
",  c #9E231E",
"<  c #9F231E",
"1  c #9F241D",
"2  c #9F241E",
"3  c #9F251E",
"4  c #A0251E",
"5  c #A0261E",
"6  c #A1261E",
"7  c #A1261F",
"8  c #A1271F",
"9  c #A2281F",
"0  c #A2291F",
"q  c #A3291F",
"w  c #A32A1F",
"e  c #A42B1F",
"r  c #A42B20",
"t  c #A52C20",
"y  c #A62D20",
"u  c #A62E20",
"i  c #A72F20",
"p  c #A83021",
"a  c #A83121",
"s  c #A93221",
"d  c #A93321",
"f  c #AA3321",
"g  c #AA3421",
"h  c #AB3522",
"j  c #AC3622",
"k  c #AC3722",
"l  c #AD3722",
"z  c #AD3822",
"x  c #AE3A23",
"c  c #AF3A23",
"v  c #AF3B23",
"b  c #B03C23",
"n  c #B13D23",
"m  c #B23E24",
"M  c #B34024",
"N  c #B44124",
"B  c #B44224",
"V  c #B54325",
"C  c #B54425",
"Z  c #B64425",
"A  c #B64525",
"S  c #B74525",
"D  c #B74625",
"F  c #B84726",
"G  c #B94826",
"H  c #BA4A26",
"J  c #BA4B26",
"K  c #BB4B26",
"L  c #BC4D27",
"P  c #BC4E27",
"I  c #BD4F27",
"U  c #BE4F27",
"Y  c #BE5027",
"T  c #BF5128",
"R  c #C05228",
"E  c #C05328",
"W  c #C15428",
"Q  c #C15528",
"!  c #C25529",
"~  c #C25629",
"^  c #C35629",
"/  c #C35729",
"(  c #C45829",
")  c #C55A2A",
"_  c #C65B2A",
"`  c #C65C2A",
"'  c #C75C2A",
"]  c #C75D2A",
"[  c #C85E2A",
"{  c #C85E2B",
"}  c #C95F2B",
"|  c #CA602B",
" . c #CB622B",
".. c #CB632C",
"X. c #CC632C",
"o. c #CC642C",
"O. c #CD642C",
"+. c #CD652C",
"@. c #CD662C",
"#. c #CE662C",
"$. c #CE672C",
"%. c None",
/* pixels */
"%.%.%.%.%.%.%.%.%.%.%.%.%.%.%.%.%.%.%.%.%.%.%.%.%.%.%.%.%.%.%.%.%.%.%.%.%.%.%.%.%.%.%.%.%.%.%.%.%.%.%.%.%.%.%.%.%.%.%.%.",
"%.%.%.%.%.%.%.%.%.%.%.%.%.%.%.%.%.%.%.%.%.%.%.%.%.%.%.%.%.%.%.%.%.%.%.%.%.%.%.%.%.%.%.%.%.%.%.%.%.%.%.%.%.%.%.%.%.%.%.%.",
"%.%.%.%.%.%.%.%.%.%.%.%.%.%.%.%.%.%.%.%.%.%.%.%.%.%.%.%.%.%.%.%.%.%.%.%.%.%.%.%.%.%.%.%.%.%.%.%.%.%.%.%.%.%.%.%.%.%.%.%.",
"%.%.%.%.%.%.%.%.%.%.%.%.%.%.%.%.%.%.%.%.%.%.%.%.%.%.%.%.%.%.%.%.%.%.%.%.%.%.%.%.%.%.%.%.%.%.%.%.%.%.%.%.%.%.%.%.%.%.%.%.",
"%.%.%.%.%.%.%.%.%.%.%.%.%.%.%.%.%.%.%.%.%.%.%.%.%.%.%.%.%.%.%.%.%.%.%.%.%.%.%.%.%.%.%.%.%.%.%.%.%.%.%.%.%.%.%.%.%.%.%.%.",
"%.%.%.%.%.%.%.%.%.%.%.%.%.%.%.%.%.%.%.%.%.%.%.%.%.%.%.%.%.%.%.%.%.%.%.%.%.%.%.%.%.%.%.%.%.%.%.%.%.%.%.%.%.%.%.%.%.%.%.%.",
"%.%.%.%.%.%.%.%.%.%.%.%.%.%.%.%.%.%.%.%.%.%.%.%.%.%.%.%.%.%.%.%.%.%.%.%.%.%.%.%.%.%.%.%.%.%.%.%.%.%.%.%.%.%.%.%.%.%.%.%.",
"%.%.%.%.%.%.%.%.%.%.%.%.%.%.%.%.%.%.%.%.%.%.%.%.%.%.%.%.%.%.%.%.%.%.%.%.%.%.%.%.%.%.%.%.%.%.%.%.%.%.%.%.%.%.%.%.%.%.%.%.",
"%.%.%.%.%.%.%.%.%.%.%.%.%.%.%.%.%.%.%.%.%.%.%.%.%.%.%.* - = # %.%.%.%.%.%.%.%.%.%.- * %.%.%.%.%.%.%.%.%.%.%.%.%.%.%.%.%.",
"%.%.%.%.%.%.%.%.%.%.%.%.%.%.%.%.%.%.%.%.%.%.o %.%.%.- 2 2 2 2 * %.%.%.%.%.%.%.- > 2 > * %.%.%.%.%.%.%.%.%.%.%.%.%.%.%.%.",
"%.%.%.%.%.%.%.%.%.%.%.%.%.%.%.%.%.%.%.%.%.* : %.%.: 2 2 2 2 2 2 - %.%.%.%.- > 2 2 2 $ %.%.%.%.%.%.%.%.%.%.%.%.%.%.%.%.%.",
"%.%.%.%.%.%.%.%.%.%.%.%.%.%.%.%.%.%.%.%.* > 2 + - 2 2 2 2 2 2 2 2 > : 2 2 2 2 2 2 * %.%.%.%.%.%.%.%.%.%.%.%.%.%.%.%.%.%.",
"%.%.%.%.%.%.%.%.%.%.%.%.%.%.%.%.%.%.%.+ > 2 2 1 2 2 2 2 2 2 2 2 2 2 2 2 2 2 2 2 : %.%.%.%.%.%.%.%.%.%.%.%.%.%.%.%.%.%.%.",
"%.%.%.%.%.%.%.%.%.%.%.%.%.%.%.%.%.%.%.: 2 2 2 2 2 2 2 < , 6 e e e e w 4 < 2 2 2 > %.%.%.%.%.%.%.%.%.%.%.%.%.%.%.%.%.%.%.",
"%.%.%.%.%.%.%.%.%.%.%.%.%.%.%.%.%.%.* 2 2 2 2 2 2 < 8 t b I ' ' ' ' ` G u 2 2 2 > %.%.%.%.%.%.%.%.%.%.%.%.%.%.%.%.%.%.%.",
"%.%.%.%.%.%.%.%.%.%.%.%.%.%.%.%.%.%.> 2 2 2 2 2 < f T [ X.#.@.@.@.@.@.+.` k 2 2 2 * %.%.%.%.%.%.%.%.%.%.%.%.%.%.%.%.%.%.",
"%.%.%.%.%.%.%.%.%.%.%.%.%.%.%.%.%.%.2 2 2 2 2 < a _ #.+.+.+.+.+.+.+.+.+.#.^ 0 2 2 > * %.%.%.%.%.%.%.%.%.%.%.%.%.%.%.%.%.",
"%.%.%.%.%.%.%.%.%.%.%.%.%.%.%.%.%.%.2 2 2 2 2 w ~ #.+.+.+.+.+.+.+.+.+.+.#.O.M 2 2 2 : %.%.%.%.%.%.%.%.%.%.%.%.%.%.%.%.%.",
"%.%.%.%.%.%.%.%.%.%.%.%.%.%.%.%.%.%.> 2 2 2 , n o.+.+.+.+.+.+.+.+.+.+.o._ R i 2 2 2 > * * %.%.%.%.%.%.%.%.%.%.%.%.%.%.%.",
"%.%.%.%.%.%.%.%.%.%.%.%.%.%.%.%.%.%.> 2 2 2 9 W #.+.+.+.+.+.+.+.+.+.o.A e 7 2 2 2 2 2 2 2 * %.%.X %.%.%.%.%.%.%.%.%.%.%.",
"%.%.%.%.%.%.%.%.%.%.%.%.%.%.%.%.%.%.> 2 2 , l  .+.+.+.+.+.+.+.+.+. .A 9 , 2 2 2 2 2 2 2 2 * %.%.%.# %.%.%.%.%.%.%.%.%.%.",
"%.%.%.%.%.%.%.%.%.%.%.%.%.%.%.%.%.%.> 2 2 2 A @.+.+.+.+.+.+.+.+.@.) 0 < 2 2 2 2 2 2 2 2 > %.%.%.%.%.%.%.%.%.%.%.%.%.%.%.",
"%.%.%.%.%.%.%.%.%.%.%.%.%.%.%.%.%.%.: 2 2 8 ~ #.+.+.+.+.+.+.+.+.#.) 0 2 2 2 2 2 2 2 2 2 > %.%.%.%.%.%.%.%.%.%.%.%.%.%.%.",
"%.%.%.%.%.%.%.%.%.%.%.%.%.%.%.%.%.%.* 2 2 8 ^ #.+.+.+.+.+.+.+.+.@.) q 2 2 2 2 2 2 2 2 2 * %.%.%.%.%.%.%.%.%.%.%.%.%.%.%.",
"%.%.%.%.%.%.%.%.%.%.%.%.%.%.%.%.%.%.%.> 2 8 ^ #.+.+.+.+.+. . .o.#.) 0 2 2 2 3 4 2 2 2 : # %.%.%.%.%.%.%.%.%.%.%.%.%.%.%.",
"%.%.%.%.%.%.%.%.%.%.%.%.%.%.%.%.%.%.%.%.> 8 / $.+.+.+.[ A s d Q #.{ a 2 9 9 j w 2 2 2 %.%.%.%.%.%.%.%.%.%.%.%.%.%.%.%.%.",
"%.%.%.%.%.%.%.%.%.%.%.%.%.%.%.%.%.%.%.%.: 5 B U  .#.! p 2 , , D +.+.~ G ( ( N 2 2 2 2 - %.%.%.%.%.%.  %.%.%.%.%.%.%.%.%.",
"%.%.%.%.%.%.%.%.%.%.%.%.%.%.%.%.%.%.%.%.> 2 2 5 I O.v , 2 2 , k o.+.+.@.#.P 9 2 2 2 2 2 > * %.%.%.%.%.%.%.%.%.%.%.%.%.%.",
"%.%.%.%.%.%.%.%.%.%.%.%.%.%.%.%.%.%.%.%.2 2 2 < s _ b , , , , B +.+.+.$.W w < 2 2 2 2 2 2 2 * + . %.%.%.%.%.%.%.%.%.%.%.",
"%.%.%.%.%.%.%.%.%.%.%.%.%.%.%.%.%.%.%.- 2 2 2 4 9 T / V C C Z ) @.#.) F z , 2 2 2 2 2 2 2 > %.%.%.%.%.%.%.%.%.%.%.%.%.%.",
"%.%.%.%.%.%.%.%.%.%.%.%.%.%.%.%.%.%.- 2 2 2 2 9 u N y K #.#.#.+.@.] g 8 y 2 2 2 2 2 2 2 2 > %.%.%.%.%.%.%.%.%.%.%.%.%.%.",
"%.%.%.%.%.%.%.%.%.%.%.%.%.%.%.%.* > 2 2 2 2 2 < r R m b X.+.+.+.} z , z u < 2 2 2 2 2 2 2 > %.%.%.%.%.%.%.%.%.%.%.%.%.%.",
"%.%.%.%.%.%.%.%.%.%.%.%.%.%.%.- 2 2 2 2 2 2 2 2 3 M ..| +.+.+.#.L < u / f , 2 2 2 2 2 2 2 > %.%.%.%.%.%.%.%.%.%.%.%.%.%.",
"%.%.%.%.%.%.%.%.%.%.%.%.%.%.%.> 2 2 2 2 2 2 2 2 , z X.+.+.+.+. .K 7 h o.Z , 2 2 2 2 2 2 2 * %.%.%.%.%.%.%.%.%.%.%.%.%.%.",
"%.%.%.%.%.%.%.%.%.%.%.%.%.%.%.= 2 2 > - > 2 2 2 2 8 z Q #.+.#.E 0 2 Z #.D , 2 2 2 2 2 2 > %.%.%.%.%.%.%.%.%.%.%.%.%.%.%.",
"%.%.%.%.%.%.%.%.%.%.%.%.%.%.%.%.> > %.%.%.: 2 2 2 2 , J $.R C j 0 x } $.S , 2 2 2 2 2 > # %.%.%.%.%.%.%.%.%.%.%.%.%.%.%.",
"%.%.%.%.%.%.%.%.%.%.%.%.%.%.%.%.- : %.%.%.; 2 2 2 2 2 M I k 8 w s Y _ H i 2 2 2 - - - O %.%.%.%.%.%.%.%.%.%.%.%.%.%.%.%.",
"%.%.%.%.%.%.%.%.%.%.%.%.%.%.%.%.%.# %.%.%.%.> 2 2 2 2 M ~ a N ( ~ U u 2 < 2 > # %.%.%.%.%.%.%.%.%.%.%.%.%.%.%.%.%.%.%.%.",
"%.%.%.%.%.%.%.%.%.%.%.%.%.%.%.%.%.%.%.%.%.%.* 2 2 2 < h ' ! _ ^ c 8 2 2 2 > # %.%.%.%.%.%.%.%.%.%.%.%.%.%.%.%.%.%.%.%.%.",
"%.%.%.%.%.%.%.%.%.%.%.%.%.%.%.%.%.%.%.%.%.%.%.2 2 2 2 2 i h g w , 2 2 2 2 : %.%.%.%.%.%.%.%.%.%.%.%.%.%.%.%.%.%.%.%.%.%.",
"%.%.%.%.%.%.%.%.%.%.%.%.%.%.%.%.%.%.%.%.%.%.%.2 2 2 2 2 < , , 2 2 2 2 2 2 > %.%.%.%.%.%.%.%.%.%.%.%.%.%.%.%.%.%.%.%.%.%.",
"%.%.%.%.%.%.%.%.%.%.%.%.%.%.%.%.%.%.%.%.%.%.%.: 2 2 2 2 2 2 2 2 : 2 2 2 2 & %.%.%.@ > - %.%.%.%.%.%.%.%.%.%.%.%.%.%.%.%.",
"%.%.%.%.%.%.%.%.%.%.%.%.%.%.%.%.%.%.%.%.%.%.%.%.= > 2 2 2 2 2 > %.- 2 2 1 %.%.%.%.%.* + %.%.%.%.%.%.%.%.%.%.%.%.%.%.%.%.",
"%.%.%.%.%.%.%.%.%.%.%.%.%.%.%.%.%.%.%.%.%.%.%.%.%.%.* : 2 2 2 1 %.%.> : % %.%.%.%.%.%.%.%.%.%.%.%.%.%.%.%.%.%.%.%.%.%.%.",
"%.%.%.%.%.%.%.%.%.%.%.%.%.%.%.%.%.%.%.%.%.%.%.%.%.%.%.%.- > > - & %.%.%.%.%.%.%.%.%.%.%.%.%.%.%.%.%.%.%.%.%.%.%.%.%.%.%.",
"%.%.%.%.%.%.%.%.%.%.%.%.%.%.%.%.%.%.%.%.%.%.%.%.%.%.%.%.%.%.%.%.%.%.%.%.%.%.%.%.%.%.%.%.%.%.%.%.%.%.%.%.%.%.%.%.%.%.%.%.",
"%.%.%.%.%.%.%.%.%.%.%.%.%.%.%.%.%.%.%.%.%.%.%.%.%.%.%.%.%.%.%.%.%.%.%.%.%.%.%.%.%.%.%.%.%.%.%.%.%.%.%.%.%.%.%.%.%.%.%.%.",
"%.%.%.%.%.%.%.%.%.%.%.%.%.%.%.%.%.%.%.%.%.%.%.%.%.%.%.%.%.%.%.%.%.%.%.%.%.%.%.%.%.%.%.%.%.%.%.%.%.%.%.%.%.%.%.%.%.%.%.%.",
"%.%.%.%.%.%.%.%.%.%.%.%.%.%.%.%.%.%.%.%.%.%.%.%.%.%.%.%.%.%.%.%.%.%.%.%.%.%.%.%.%.%.%.%.%.%.%.%.%.%.%.%.%.%.%.%.%.%.%.%.",
"%.%.%.%.%.%.%.%.%.%.%.%.%.%.%.%.%.%.%.%.%.%.%.%.%.%.%.%.%.%.%.%.%.%.%.%.%.%.%.%.%.%.%.%.%.%.%.%.%.%.%.%.%.%.%.%.%.%.%.%.",
"%.%.%.%.%.%.%.%.%.%.%.%.%.%.%.%.%.%.%.%.%.%.%.%.%.%.%.%.%.%.%.%.%.%.%.%.%.%.%.%.%.%.%.%.%.%.%.%.%.%.%.%.%.%.%.%.%.%.%.%.",
"%.%.%.%.%.%.%.%.%.%.%.%.%.%.%.%.%.%.%.%.%.%.%.%.%.%.%.%.%.%.%.%.%.%.%.%.%.%.%.%.%.%.%.%.%.%.%.%.%.%.%.%.%.%.%.%.%.%.%.%.",
"%.%.%.%.%.%.%.%.%.%.%.%.%.%.%.%.%.%.%.%.%.%.%.%.%.%.%.%.%.%.%.%.%.%.%.%.%.%.%.%.%.%.%.%.%.%.%.%.%.%.%.%.%.%.%.%.%.%.%.%.",
"%.%.%.%.%.%.%.%.%.%.%.%.%.%.%.%.%.%.%.%.%.%.%.%.%.%.%.%.%.%.%.%.%.%.%.%.%.%.%.%.%.%.%.%.%.%.%.%.%.%.%.%.%.%.%.%.%.%.%.%.",
"%.%.%.%.%.%.%.%.%.%.%.%.%.%.%.%.%.%.%.%.%.%.%.%.%.%.%.%.%.%.%.%.%.%.%.%.%.%.%.%.%.%.%.%.%.%.%.%.%.%.%.%.%.%.%.%.%.%.%.%.",
"%.%.%.%.%.%.%.%.%.%.%.%.%.%.%.%.%.%.%.%.%.%.%.%.%.%.%.%.%.%.%.%.%.%.%.%.%.%.%.%.%.%.%.%.%.%.%.%.%.%.%.%.%.%.%.%.%.%.%.%.",
"%.%.%.%.%.%.%.%.%.%.%.%.%.%.%.%.%.%.%.%.%.%.%.%.%.%.%.%.%.%.%.%.%.%.%.%.%.%.%.%.%.%.%.%.%.%.%.%.%.%.%.%.%.%.%.%.%.%.%.%.",
"%.%.%.%.%.%.%.%.%.%.%.%.%.%.%.%.%.%.%.%.%.%.%.%.%.%.%.%.%.%.%.%.%.%.%.%.%.%.%.%.%.%.%.%.%.%.%.%.%.%.%.%.%.%.%.%.%.%.%.%.",
"%.%.%.%.%.%.%.%.%.%.%.%.%.%.%.%.%.%.%.%.%.%.%.%.%.%.%.%.%.%.%.%.%.%.%.%.%.%.%.%.%.%.%.%.%.%.%.%.%.%.%.%.%.%.%.%.%.%.%.%.",
"%.%.%.%.%.%.%.%.%.%.%.%.%.%.%.%.%.%.%.%.%.%.%.%.%.%.%.%.%.%.%.%.%.%.%.%.%.%.%.%.%.%.%.%.%.%.%.%.%.%.%.%.%.%.%.%.%.%.%.%."
};
