/* XPM */
static char *result[] = {
/* columns rows colors chars-per-pixel */
"60 60 93 2 ",
"   c #9E221E",
".  c #9E231E",
"X  c #9F231E",
"o  c #9F241E",
"O  c #9F251E",
"+  c #9F251F",
"@  c #A0251E",
"#  c #A0261E",
"$  c #A1261F",
"%  c #A1271F",
"&  c #A2281F",
"*  c #A2291F",
"=  c #A3291F",
"-  c #A42A1F",
";  c #A02620",
":  c #A42B20",
">  c #A52C20",
",  c #A52D20",
"<  c #A62D20",
"1  c #A62E20",
"2  c #A72F20",
"3  c #A73021",
"4  c #A83021",
"5  c #A83121",
"6  c #A93221",
"7  c #A93321",
"8  c #AA3321",
"9  c #AA3421",
"0  c #AB3522",
"q  c #AC3622",
"w  c #AD3822",
"e  c #AE3922",
"r  c #AE3923",
"t  c #AE3A23",
"y  c #AF3A23",
"u  c #B03C23",
"i  c #B03D23",
"p  c #B13D23",
"a  c #B23F24",
"s  c #B24024",
"d  c #B34124",
"f  c #B44225",
"g  c #B54325",
"h  c #B54425",
"j  c #B64425",
"k  c #B64525",
"l  c #B74625",
"z  c #B84726",
"x  c #B84826",
"c  c #B94826",
"v  c #B94926",
"b  c #BA4A26",
"n  c #BA4B26",
"m  c #BB4B26",
"M  c #BB4C27",
"N  c #BC4C27",
"B  c #BC4D27",
"V  c #BC4E27",
"C  c #BD4E27",
"Z  c #BE5027",
"A  c #BF5128",
"S  c #BF5228",
"D  c #C05228",
"F  c #C05328",
"G  c #C15428",
"H  c #C25529",
"J  c #C35629",
"K  c #C35729",
"L  c #C45829",
"P  c #C45929",
"I  c #C55929",
"U  c #C55A2A",
"Y  c #C65B2A",
"T  c #C65C2A",
"R  c #C75C2A",
"E  c #C75D2A",
"W  c #C85E2B",
"Q  c #C95F2B",
"!  c #C9602B",
"~  c #CA602B",
"^  c #CA612B",
"/  c #CB612B",
"(  c #CB622B",
")  c #CB632B",
"_  c #CB632C",
"`  c #CC632C",
"'  c #CC642C",
"]  c #CD642C",
"[  c #CD652C",
"{  c #CD662C",
"}  c #CE662C",
"|  c #CE672C",
" . c None",
/* pixels */
" . . . . . . . . . . . . . . . . . . . . . . . . . . . . . . . . . . . . . . . . . . . . . . . . . . . . . . . . . . . .",
" . . . . . . . . . . . . . . . . . . . . . . . . . . . . . . . . . . . . . . . . . . . . . . . . . . . . . . . . . . . .",
" . . . . . . . . . . . . . . . . . . . . . . . . . . . . . . . . . . . . . . . . . . . . . . . . . . . . . . . . . . . .",
" . . . . . . . . . . . . . . . . . . . . . . . . . . . . . . . . . . . . . . . . . . . . . . . . . . . . . . . . . . . .",
" . . . . . . . . . . . . . . . . . . . . . . . . . . . . . . . . . . . . . . . . . . . . . . . . . . . . . . . . . . . .",
" . . . . . . . . . . . . . . . . . . . . . . . . . . . . . . . . . . . . . . . . . . . . . . . . . . . . . . . . . . . .",
" . . . . . . . . . . . . . . . . . . . . . . . . . . . . . . . . . . . . . . . . . . . . . . . . . . . . . . . . . . . .",
" . . . . . . . . . . . . . . . . . . . . . . . . . . . . . . . . . . . . . . . . . . . . . . . . . . . . . . . . . . . .",
" . . . . . . . . . . . . . . . . . . . . . . . . . . . . . . . . . . . . . . . . . . . . . . . . . . . . . . . . . . . .",
" . . . . . . . . . . . . . . . . . . . . . . . . . . . . . . . . . . . . . . . . . . . . . . . . . . . . . . . . . . . .",
" . . . . . . . . . . . . . . . . . . . . . . . . . . . . . . . . . . . . . . . . . . . . . . . . . . . . . . . . . . . .",
" . . . . . . . . . . . . . . . . . . . . . . . . . . . . . . . . . . . . . . . . . . . . . . . . . . . . . . . . . . . .",
" . . . . . . . . . . . . . . . . . . . . . . . . . . . . . . . . . . . . . . . . . . . . . . . . . . . . . . . . . . . .",
" . . . . . . . . . . . . . . . . . . . . .; ; + +  . . . . . . . . . . . . . . . . . . . . . . . . . . . . . . . . . . .",
" . . . . . . . . . . . . . . . . . . . . . . .+ o o +  . . . . . . . . . .+  . . . . . . . . . . . . . . . . . . . . . .",
" . . . . . . . . . . . . . . . . . . . . . . .+ o o o o o +  . . . . . . .o o  . . . . . . . . . . . . . . . . . . . . .",
" . . . . . . . . . . . . . . . . . . . . . . .+ o o o o o o + o o o o  . .o o  . . . . . . . . . . . . . . . . . . . . .",
" . . . . . . . . . . . . . . . . . . . . . .+ o o o o X . . . . . o o o o o o  . . . . . . . . . . . . . . . . . . . . .",
" . . . . . . . . . . . . . . . . . . . . .+ o o o . o , i a a s e % X o o o o o  . . . . . . . . . . . . . . . . . . . .",
" . . . . . . . . . . . . . . . . . . . . .o o o % u M R ] { { { _ Z 2 o o o o o  . . . . . . . . . . . . . . . . . . . .",
" . . . . . . . . . . . . . . . . . . . .+ o o # x ' } { [ [ [ [ [ } S % o o o o  . . . . . . . . . . . . . . . . . . . .",
" . . . . . . . . . . . . . . . . . . . .o o X a ` [ [ [ [ [ [ [ [ [ K : o o o o  . . . . . . . . . . . . . . . . . . . .",
" . . . . . . . . . . . . . . . . . . . .o o = K } [ [ [ [ [ [ [ [ Q 6 o o o o o  . . . . . . . . . . . . . . . . . . . .",
" . . . . . . . . . . . . . . . . . . . .o . t ` [ [ [ [ [ [ [ [ } M @ o o o o +  . . . . . . . . . . . . . . . . . . . .",
" . . . . . . . . . . . . . . . . . . .+ o O C } [ [ [ [ [ [ [ _ H > o o o o o +  . . . . . . . . . . . . . . . . . . . .",
" . . . . . . . . . . . . . . . . . . .o o : Y { [ [ [ [ [ [ ^ k 3 . o o o o o +  . . . . . . . . . . . . . . . . . . . .",
" . . . . . . . . . . . . . . . . . . .o . 2 ~ [ [ [ [ [ [ } U = X o o o o o o  . . . . . . . . . . . . . . . . . . . . .",
" . . . . . . . . . . . . . . . . . . .o X 2 ! [ [ [ [ { [ } I & o o o o o o o  . . . . . . . . . . . . . . . . . . . . .",
" . . . . . . . . . . . . . . . . . . .o . 2 ~ [ [ [ ` G u m R , X o $ o o o o  . . . . . . . . . . . . . . . . . . . . .",
" . . . . . . . . . . . . . . . . . . .o o - K } [ J w *   8 ( a . p M % o o o  . . . . . . . . . . . . . . . . . . . . .",
" . . . . . . . . . . . . . . . . . . . .o o 4 M } v X X . 7 _ U n ~ B @ o o o  . . . . . . . . . . . . . . . . . . . . .",
" . . . . . . . . . . . . . . . . . . . .+ o . 6 ~ ! 9 & % u ` } [ Y 6 X o o o o  . . . . . . . . . . . . . . . . . . . .",
" . . . . . . . . . . . . . . . . . . . . .o o @ g L E P P Q [ [ v w @ o o o o o  . . . . . . . . . . . . . . . . . . . .",
" . . . . . . . . . . . . . . . . . . . . .o o # t a ^ } } { ` b u C $ o o o o o  . . . . . . . . . . . . . . . . . . . .",
" . . . . . . . . . . . . . . . . . . . .o o o @ 7 < V } [ } F & C Q 1 X o o o o  . . . . . . . . . . . . . . . . . . . .",
" . . . . . . . . . . . . . . . . . . . .o o o . 5 F ~ [ [ | z   h ( 5 . o o o o  . . . . . . . . . . . . . . . . . . . .",
" . . . . . . . . . . . . . . . . . . .+ o o o o # N | [ Q L j $ M / 5 . o o o  . . . . . . . . . . . . . . . . . . . . .",
" . . . . . . . . . . . . . . . . . . .o o o o o . f T v q = y A ) M % o o o +  . . . . . . . . . . . . . . . . . . . . .",
" . . . . . . . . . . . . . . . . . . .+ + o o o o , 0 @ , r K W p % o o o o  . . . . . . . . . . . . . . . . . . . . . .",
" . . . . . . . . . . . . . . . . . . . . .o o o o o u d D ( Z 8 X o o o +  . . . . . . . . . . . . . . . . . . . . . . .",
" . . . . . . . . . . . . . . . . . . . . . .o o o o 1 l c u % . o o o o  . . . . . . . . . . . . . . . . . . . . . . . .",
" . . . . . . . . . . . . . . . . . . . . . . .o o o o X X . o o o o o o  . . . . . . . . . . . . . . . . . . . . . . . .",
" . . . . . . . . . . . . . . . . . . . . . . . . .+ o o o o o o o o o  . . . . . . . . . . . . . . . . . . . . . . . . .",
" . . . . . . . . . . . . . . . . . . . . . . . . . .+ o o o +  .o  . . . . . . . . . . . . . . . . . . . . . . . . . . .",
" . . . . . . . . . . . . . . . . . . . . . . . . . . . . .+ +  . . . . . . . . . . . . . . . . . . . . . . . . . . . . .",
" . . . . . . . . . . . . . . . . . . . . . . . . . . . . . . .;  . . . . . . . . . . . . . . . . . . . . . . . . . . . .",
" . . . . . . . . . . . . . . . . . . . . . . . . . . . . . . . . . . . . . . . . . . . . . . . . . . . . . . . . . . . .",
" . . . . . . . . . . . . . . . . . . . . . . . . . . . . . . . . . . . . . . . . . . . . . . . . . . . . . . . . . . . .",
" . . . . . . . . . . . . . . . . . . . . . . . . . . . . . . . . . . . . . . . . . . . . . . . . . . . . . . . . . . . .",
" . . . . . . . . . . . . . . . . . . . . . . . . . . . . . . . . . . . . . . . . . . . . . . . . . . . . . . . . . . . .",
" . . . . . . . . . . . . . . . . . . . . . . . . . . . . . . . . . . . . . . . . . . . . . . . . . . . . . . . . . . . .",
" . . . . . . . . . . . . . . . . . . . . . . . . . . . . . . . . . . . . . . . . . . . . . . . . . . . . . . . . . . . .",
" . . . . . . . . . . . . . . . . . . . . . . . . . . . . . . . . . . . . . . . . . . . . . . . . . . . . . . . . . . . .",
" . . . . . . . . . . . . . . . . . . . . . . . . . . . . . . . . . . . . . . . . . . . . . . . . . . . . . . . . . . . .",
" . . . . . . . . . . . . . . . . . . . . . . . . . . . . . . . . . . . . . . . . . . . . . . . . . . . . . . . . . . . .",
" . . . . . . . . . . . . . . . . . . . . . . . . . . . . . . . . . . . . . . . . . . . . . . . . . . . . . . . . . . . .",
" . . . . . . . . . . . . . . . . . . . . . . . . . . . . . . . . . . . . . . . . . . . . . . . . . . . . . . . . . . . .",
" . . . . . . . . . . . . . . . . . . . . . . . . . . . . . . . . . . . . . . . . . . . . . . . . . . . . . . . . . . . .",
" . . . . . . . . . . . . . . . . . . . . . . . . . . . . . . . . . . . . . . . . . . . . . . . . . . . . . . . . . . . .",
" . . . . . . . . . . . . . . . . . . . . . . . . . . . . . . . . . . . . . . . . . . . . . . . . . . . . . . . . . . . ."
};
