/* XPM */
static char *result[] = {
/* columns rows colors chars-per-pixel */
"60 60 177 2 ",
"   c #781730",
".  c #791830",
"X  c #7F1D30",
"o  c #7F1E30",
"O  c #9E231E",
"+  c #9F231E",
"@  c #9F241E",
"#  c #9F251E",
"$  c #9F251F",
"%  c #A0241E",
"&  c #A0251E",
"*  c #A0251F",
"=  c #A0261E",
"-  c #A1271F",
";  c #A2291F",
":  c #A42A1F",
">  c #A42B1F",
",  c #8A222B",
"<  c #8A282F",
"1  c #962121",
"2  c #932225",
"3  c #9B2723",
"4  c #992B27",
"5  c #93302F",
"6  c #96302D",
"7  c #94312F",
"8  c #95322F",
"9  c #98342F",
"0  c #9D362C",
"q  c #9D382E",
"w  c #9F3B2E",
"e  c #832130",
"r  c #842230",
"t  c #A02620",
"y  c #A42C20",
"u  c #A52C20",
"i  c #A52D20",
"p  c #A62E20",
"a  c #A72F20",
"s  c #A63021",
"d  c #A73021",
"f  c #A83021",
"g  c #A83121",
"h  c #A93221",
"j  c #AA3321",
"k  c #AB3421",
"l  c #AC3622",
"z  c #AD3722",
"x  c #AD3822",
"c  c #AF3A22",
"v  c #AF3B23",
"b  c #AB3824",
"n  c #AC3924",
"m  c #AC3B25",
"M  c #A03C2E",
"N  c #A13D2E",
"B  c #A23D2E",
"V  c #A33F2E",
"C  c #B03B23",
"Z  c #B13D23",
"A  c #B23F24",
"S  c #A5402E",
"D  c #A6412E",
"F  c #AF4128",
"G  c #A8432E",
"H  c #AB452D",
"J  c #AA452E",
"K  c #AE462C",
"L  c #AC462E",
"P  c #B34024",
"I  c #B54225",
"U  c #B64425",
"Y  c #B74625",
"T  c #B84726",
"R  c #B84826",
"E  c #B94826",
"W  c #B94926",
"Q  c #BB4B26",
"!  c #BC4C27",
"~  c #BC4E27",
"^  c #BD4E27",
"/  c #BD4F27",
"(  c #B2492B",
")  c #B34B2B",
"_  c #B64A29",
"`  c #B24B2D",
"'  c #B14C2D",
"]  c #B34D2D",
"[  c #B14D2E",
"{  c #B44E2D",
"}  c #B8522D",
"|  c #BA542D",
" . c #BC552C",
".. c #BD572D",
"X. c #BE582D",
"o. c #BF582D",
"O. c #C05228",
"+. c #C15328",
"@. c #C15629",
"#. c #C0552A",
"$. c #C55929",
"%. c #C5592A",
"&. c #C55A2A",
"*. c #C65A2A",
"=. c #C65B2A",
"-. c #C15A2D",
";. c #C25B2D",
":. c #C35C2C",
">. c #C25C2D",
",. c #C55D2C",
"<. c #C65E2C",
"1. c #C75F2C",
"2. c #C85E2B",
"3. c #C7602C",
"4. c #C9602B",
"5. c #CA602B",
"6. c #CA612B",
"7. c #CB622B",
"8. c #CB632B",
"9. c #C8602C",
"0. c #C8612C",
"q. c #C9612C",
"w. c #CA622C",
"e. c #CB632C",
"r. c #CC632C",
"t. c #CD642C",
"y. c #CD652C",
"u. c #CD662C",
"i. c #CD672C",
"p. c #CD672D",
"a. c #CE662C",
"s. c #CF672C",
"d. c #CD682D",
"f. c #CE682D",
"g. c #CE6A2D",
"h. c #CC6B2E",
"j. c #CE6B2E",
"k. c #CE6C2E",
"l. c #CE6D2E",
"z. c #CE6E2E",
"x. c #CE6F2F",
"c. c #CC702F",
"v. c #CD702F",
"b. c #CF712F",
"n. c #CF722F",
"m. c #CF7330",
"M. c #CF7430",
"N. c #CF7730",
"B. c #CF7731",
"V. c #CE7831",
"C. c #CF7A31",
"Z. c #D17530",
"A. c #D07931",
"S. c #D07A31",
"D. c #D07B31",
"F. c #D07B32",
"G. c #D17B32",
"H. c #D07C32",
"J. c #D07E32",
"K. c #D18233",
"L. c #D18334",
"P. c #D18434",
"I. c #D18534",
"U. c #D28434",
"Y. c #D28534",
"T. c #D18634",
"R. c #D28634",
"E. c #D28A35",
"W. c #D28C36",
"Q. c #D28D36",
"!. c #D38F37",
"~. c #D39037",
"^. c #D39238",
"/. c #D39338",
"(. c #D39438",
"). c #D39538",
"_. c None",
/* pixels */
"_._._._._._._._._._._._._._._._._._._._._._._._._._._._._._._._._._._._._._._._._._._._._._._._._._._._._._._._._._._._.",
"_._._._._._._._._._._._._._._._._._._._._._._._._._._._._._._._._._._._._._._._._._._._._._._._._._._._._._._._._._._._.",
"_._._._._._._._._._._._._._._._._._._._._._._._._._._._._._._._._._._._._._._._._._._._._._._._._._._._._._._._._._._._.",
"_._._._._._._._._._._._._._._._._._._._._._._._._._._._._._._._._._._._._._._._._._._._._._._._._._._._._._._._._._._._.",
"_._._._._._._._._._._._._._._._._._._._._._._._._._._._._._._._._._._._._._._._._._._._._._._._._._._._._._._._._._._._.",
"_._._._._._._._._._._._._._._._._._._._._._._._._._._._._._._._._._._._._._._._._._._._._._._._._._._._._._._._._._._._.",
"_._._._._._._._._._._._._._._._._._._._._._._._._._._._._._._._._._._._._._._._._._._._._._._._._._._._._._._._._._._._.",
"_._._._._._._._._._._._._._._._._._._._._._._._._._._._._._._._._._._._._._._._._._._._._._._._._._._._._._._._._._._._.",
"_._._._._._._._._._._._._._._._._._._._._._._._._._._._._._._._._._._._._._._._._._._._._._._._._._._._._._._._._._._._.",
"_._._._._._._._._._._._._._._._._._._._._._._._._._._._._._.$ _._._._._._._._._._._._._._._._._._._._._._._._._._._._._.",
"_._._._._._._._._._._._._._._._._._._._._._._._._._._._._._._.$ _._._._._._._._._._._._._._._._._._._._._._._._._._._._.",
"_._._._._._._._._._._._._._._._._._._._._._._._._._._._._._.$ @ @ _._._._._._._._._._._._._._._._._._._._._._._._._._._.",
"_._._._._._._._._._._._._._._._._._._._._._._._._._._._.$ @ @ @ @ @ $ _._._._._._._._._._._._._._._._._._._._._._._._._.",
"_._._._._._._._._._._._._._._._._._._._._._._._._._._.$ @ @ O + @ @ @ $ _._._._._._._._._._._._._._._._._._._._._._._._.",
"_._._._._._._._._._._._._._._._._._._._._._._._._.@ @ + @ > f i @ @ + @ _._._._._._._._._._._._._._._._._._._._._._._._.",
"_._._._._._._._._._._._._._._._._._._._._._._._.$ @ - z ! &.6.=./ ! l # @ @ _._._._._._._._._._._._._._._._._._._._._._.",
"_._._._._._._._._._._._._._._._._._._._._._._.$ + k @.c.S.R.F.l.a.a.5.v @ @ @ @ $ _._._._._._._._._._._._._._._._._._._.",
"_._._._._._._._._._._._._._._._._._._._._._.$ + i $.G./.(.).).I.i.y.u.2.j O @ @ @ _._._.$ _._._._._._._._._._._._._._._.",
"_._._._._._._._._._._._._._._._._._._._.* @ @ O I l.W.).(.(.(.^.N.t.y.a.^ - @ @ @ _._._.$ _._._._._._._._._._._._._._._.",
"_._._._._._._._._._._._._._._._._._._._.@ @ + a *.D.).(.(.(.(.(.A.t.y.y.r.x O @ @ @ _._.@ _._._._._._._._._._._._._._._.",
"_._._._._._._._._._._._._._._._._._._.$ @ @ & W y.S.).(.(.(.(.~.z.t.y.y.a.T O @ @ * _._.$ _._._._._._._._._._._._._._._.",
"_._._._._._._._._._._._._._._._._._.* @ @ O g 5.u.L.).(.(.(.).I.i.y.y.y.a.T O @ @ $ $ @ $ _._._._._._._._._._._._._._._.",
"_._._._._._._._._._._._._._._._._._.@ @ @ O P y.i.T.).(.(.(.^.M.t.y.y.y.a.T O @ @ @ @ $ _._._._._._._._._._._._._._._._.",
"_._._._._._._._._._._._._._._._._.$ @ @ @ O R a.t.S.).).).(.K.u.y.y.y.y.a.Y O @ @ @ $ _._._._._._._._._._._._._._._._._.",
"_._._._._._._._._._._._._._._._._.@ @ @ @ O T a.y.j.H.J.J.S.g.y.y.y.y.y.8.l O @ @ @ @ _._._._._._._._._._._._._._._._._.",
"_._._._._._._._._._._._._._._._._.@ @ @ @ O T a.y.t.t.t.t.t.y.y.a.a.y.y.7.h O @ @ @ _._._._._._._._._._._._._._._._._._.",
"_._._._._._._._._._._._._._._._.$ @ @ @ @ O Y f.A.m.d.p.d.g.u.1.#.O.7.r.Q ; @ @ @ @ _._._._._._._._._._._._._._._._._._.",
"_._._._._._._._._._._._._._._._.t $ @ @ @ @ y ! C.Q.E.E.P.n.s.o.4 & Z A = @ @ @ @ @ _._._._._._._._._._._._._._._._._._.",
"_._._._._._._._._._._._._._._._._._.@ @ @ @ O p 6.k.N.A.h.-.X.-.0 1 O @ @ @ @ @ @ _._._._._._._._._._._._._._._._._._._.",
"_._._._._._._._._._._._._._._._._._.$ @ @ @ @ 3 ` 9.r.H 8 r o 9 V , F U - @ @ @ @ _._._._._._._._._._._._._._._._._._._.",
"_._._._._._._._._._._._._._._._._._._.@ @ @ % 2 e L e.7   . X D ] { 9.b @ @ @ @ $ _._._._._._._._._._._._._._._._._._._.",
"_._._._._._._._._._._._._._._._._._._.@ @ @ O n o.:.,...5 q [ V.b.w. .d + @ @ @ _._._._._._._._._._._._._._._._._._._._.",
"_._._._._._._._._._._._._._._._._._._.$ @ @ + a +.;.< ' q.x.U.!.Z.-.K h O @ @ $ _._._._._._._._._._._._._._._._._._._._.",
"_._._._._._._._._._._._._._._._._._._._.@ @ @ O : m 6 | a.B.Y.v.} G ( u @ @ @ _._._._._._._._._._._._._._._._._._._._._.",
"_._._._._._._._._._._._._._._._._._._._._.$ @ @ @ @ ~ a.y.a.3.S 8 ` v @ @ @ @ $ _._._._._._._._._._._._._._._._._._._._.",
"_._._._._._._._._._._._._._._._._._._._._._.$ @ + f %.y.y.0.N V <.U & @ @ @ @ @ _._._._._._._._._._._._._._._._._._._._.",
"_._._._._._._._._._._._._._._._._._._._._._._.@ @ : _ M B w J e.E = @ @ @ @ @ @ _._._._._._._._._._._._._._._._._._._._.",
"_._._._._._._._._._._._._._._._._._._._._._._.@ @ @ s ) ..>.4.P - @ @ @ @ @ @ $ _._._._._._._._._._._._._._._._._._._._.",
"_._._._._._._._._._._._._._._._._._._._._._._.@ @ @ @ c E E C @ @ @ @ @ @ @ @ _._._._._._._._._._._._._._._._._._._._._.",
"_._._._._._._._._._._._._._._._._._._._._._._.@ @ @ $ @ O O + @ @ @ @ @ @ @ $ _._._._._._._._._._._._._._._._._._._._._.",
"_._._._._._._._._._._._._._._._._._._._._._._._.@ _._._.$ @ @ @ @ @ @ @ @ $ _._._._._._._._._._._._._._._._._._._._._._.",
"_._._._._._._._._._._._._._._._._._._._._._._._.$ _._._._.$ @ @ @ @ $ $ _._._._._._._._._._._._._._._._._._._._._._._._.",
"_._._._._._._._._._._._._._._._._._._._._._._._._._._._._._._.$ $ _._._._._._._._._._._._._._._._._._._._._._._._._._._.",
"_._._._._._._._._._._._._._._._._._._._._._._._._._._._._._._._._._._._._._._._._._._._._._._._._._._._._._._._._._._._.",
"_._._._._._._._._._._._._._._._._._._._._._._._._._._._._._._._._._._._._._._._._._._._._._._._._._._._._._._._._._._._.",
"_._._._._._._._._._._._._._._._._._._._._._._._._._._._._._._._._._._._._._._._._._._._._._._._._._._._._._._._._._._._.",
"_._._._._._._._._._._._._._._._._._._._._._._._._._._._._._._._._._._._._._._._._._._._._._._._._._._._._._._._._._._._.",
"_._._._._._._._._._._._._._._._._._._._._._._._._._._._._._._._._._._._._._._._._._._._._._._._._._._._._._._._._._._._.",
"_._._._._._._._._._._._._._._._._._._._._._._._._._._._._._._._._._._._._._._._._._._._._._._._._._._._._._._._._._._._.",
"_._._._._._._._._._._._._._._._._._._._._._._._._._._._._._._._._._._._._._._._._._._._._._._._._._._._._._._._._._._._.",
"_._._._._._._._._._._._._._._._._._._._._._._._._._._._._._._._._._._._._._._._._._._._._._._._._._._._._._._._._._._._.",
"_._._._._._._._._._._._._._._._._._._._._._._._._._._._._._._._._._._._._._._._._._._._._._._._._._._._._._._._._._._._.",
"_._._._._._._._._._._._._._._._._._._._._._._._._._._._._._._._._._._._._._._._._._._._._._._._._._._._._._._._._._._._.",
"_._._._._._._._._._._._._._._._._._._._._._._._._._._._._._._._._._._._._._._._._._._._._._._._._._._._._._._._._._._._.",
"_._._._._._._._._._._._._._._._._._._._._._._._._._._._._._._._._._._._._._._._._._._._._._._._._._._._._._._._._._._._.",
"_._._._._._._._._._._._._._._._._._._._._._._._._._._._._._._._._._._._._._._._._._._._._._._._._._._._._._._._._._._._.",
"_._._._._._._._._._._._._._._._._._._._._._._._._._._._._._._._._._._._._._._._._._._._._._._._._._._._._._._._._._._._.",
"_._._._._._._._._._._._._._._._._._._._._._._._._._._._._._._._._._._._._._._._._._._._._._._._._._._._._._._._._._._._.",
"_._._._._._._._._._._._._._._._._._._._._._._._._._._._._._._._._._._._._._._._._._._._._._._._._._._._._._._._._._._._.",
"_._._._._._._._._._._._._._._._._._._._._._._._._._._._._._._._._._._._._._._._._._._._._._._._._._._._._._._._._._._._."
};
