/* XPM */
static char *result[] = {
/* columns rows colors chars-per-pixel */
"62 60 217 2 ",
"   c #79162F",
".  c #7B182E",
"X  c #791730",
"o  c #7A1930",
"O  c #9E211D",
"+  c #9E221D",
"@  c #9E221E",
"#  c #9E231E",
"$  c #9F231E",
"%  c #9F241E",
"&  c #9F251F",
"*  c #A0251E",
"=  c #A0251F",
"-  c #A0261E",
";  c #A1261E",
":  c #A1281F",
">  c #A3291F",
",  c #A22A1F",
"<  c #A22B1F",
"1  c #A42A1F",
"2  c #8E1E26",
"3  c #951F22",
"4  c #972122",
"5  c #9D2A24",
"6  c #9D2F25",
"7  c #932729",
"8  c #9B3028",
"9  c #842731",
"0  c #A02620",
"q  c #A22B20",
"w  c #A32C20",
"e  c #A32D20",
"r  c #A52C20",
"t  c #A62D20",
"y  c #A53121",
"u  c #A63321",
"i  c #A73622",
"p  c #AA3321",
"a  c #AB3421",
"s  c #AB3522",
"d  c #A83822",
"f  c #A93923",
"g  c #AB3822",
"h  c #AC3822",
"j  c #AD3822",
"k  c #AC3C23",
"l  c #AD3E26",
"z  c #9B402F",
"x  c #9F442F",
"c  c #974132",
"v  c #994433",
"b  c #9A4633",
"n  c #9E4633",
"m  c #AE4425",
"M  c #AF4526",
"N  c #A84129",
"B  c #A9482B",
"V  c #AB4D2C",
"C  c #B14A27",
"Z  c #B84926",
"A  c #B84E27",
"S  c #B04928",
"D  c #B0492A",
"F  c #BB4F28",
"G  c #B55028",
"H  c #B45129",
"J  c #B6562A",
"K  c #B7572A",
"L  c #B5522F",
"P  c #B95128",
"I  c #BA5228",
"U  c #B7582A",
"Y  c #B75E2D",
"T  c #B8582A",
"R  c #B8592A",
"E  c #BA5E2B",
"W  c #BD5C2B",
"Q  c #BA5E2E",
"!  c #A85030",
"~  c #A95733",
"^  c #AD5F34",
"/  c #A45338",
"(  c #B65430",
")  c #BA5E31",
"_  c #BB602C",
"`  c #BD642D",
"'  c #BF662D",
"]  c #BB6231",
"[  c #B86E35",
"{  c #BE7133",
"}  c #C15428",
"|  c #C05B2A",
" . c #C45D2B",
".. c #C5632C",
"X. c #C1652D",
"o. c #CD652C",
"O. c #CD662C",
"+. c #CE672C",
"@. c #C66A2E",
"#. c #C9682D",
"$. c #CB6D2E",
"%. c #CE6E2E",
"&. c #CE702F",
"*. c #C06B30",
"=. c #C47330",
"-. c #CC7430",
";. c #CE7731",
":. c #C77B32",
">. c #C77C33",
",. c #C37A34",
"<. c #C77936",
"1. c #C77A37",
"2. c #C17C36",
"3. c #CF7931",
"4. c #CC7A31",
"5. c #CF7A31",
"6. c #CA7D32",
"7. c #CB7E33",
"8. c #CD7D32",
"9. c #CD7E32",
"0. c #C87C35",
"q. c #C3713D",
"w. c #D07C32",
"e. c #D07F33",
"r. c #D17C34",
"t. c #C48037",
"y. c #CF8033",
"u. c #CB8334",
"i. c #CC8434",
"p. c #CF8D37",
"a. c #CB833A",
"s. c #CC803F",
"d. c #CC8B3D",
"f. c #D18133",
"g. c #D18634",
"h. c #D28835",
"j. c #D28935",
"k. c #D28C36",
"l. c #D28D36",
"z. c #D2863A",
"x. c #D38F38",
"c. c #D39037",
"v. c #D29137",
"b. c #D39137",
"n. c #D29237",
"m. c #D39237",
"M. c #D39337",
"N. c #D29238",
"B. c #D39338",
"V. c #D39438",
"C. c #D39538",
"Z. c #D39539",
"A. c #D49438",
"S. c #D49538",
"D. c #D49539",
"F. c #D49638",
"G. c #D49739",
"H. c #D5973B",
"J. c #D1933D",
"K. c #D2923C",
"L. c #D0923E",
"P. c #D3943D",
"I. c #D5983B",
"U. c #D5983C",
"Y. c #D6993C",
"T. c #D79B3D",
"R. c #D18B40",
"E. c #D18D49",
"W. c #D59841",
"Q. c #D69940",
"!. c #D79A41",
"~. c #D89D41",
"^. c #D89E40",
"/. c #DA9D44",
"(. c #DA9E44",
"). c #D89C48",
"_. c #DBA345",
"`. c #DBA447",
"'. c #DAA14A",
"]. c #DCA648",
"[. c #DDA54A",
"{. c #DDA74A",
"}. c #DDA74B",
"|. c #DEA94B",
" X c #DDA84C",
".X c #DEA94C",
"XX c #DFAB4C",
"oX c #DEAA4D",
"OX c #DEA84E",
"+X c #DDAA55",
"@X c #E1AF51",
"#X c #E3B356",
"$X c #E4B457",
"%X c #E4B559",
"&X c #E5B659",
"*X c #E5B759",
"=X c #E6BA5B",
"-X c #E6BA5D",
";X c #E7BB5E",
":X c #E8BE60",
">X c #E9BF60",
",X c #E9BF61",
"<X c #E9C062",
"1X c #E9C063",
"2X c #EAC163",
"3X c #EBC264",
"4X c #ECC566",
"5X c #EDC667",
"6X c #EDC769",
"7X c #EDC869",
"8X c #EECA6C",
"9X c #EFCA6C",
"0X c #EFCB6D",
"qX c #EFCC6D",
"wX c #EFCC6E",
"eX c #F0CC6E",
"rX c None",
/* pixels */
"rXrXrXrXrXrXrXrXrXrXrXrXrXrXrXrXrXrXrXrXrXrXrXrXrXrXrXrXrXrXrXrXrXrXrXrXrXrXrXrXrXrXrXrXrXrXrXrXrXrXrXrXrXrXrXrXrXrXrXrXrXrX",
"rXrXrXrXrXrXrXrXrXrXrXrXrXrXrXrXrXrXrXrXrXrXrXrXrXrXrXrXrXrXrXrXrXrXrXrXrXrXrXrXrXrXrXrXrXrXrXrXrXrXrXrXrXrXrXrXrXrXrXrXrXrX",
"rXrXrXrXrXrXrXrXrXrXrXrXrXrXrXrXrXrXrXrXrXrXrXrXrXrXrXrXrXrXrXrXrXrXrXrXrXrXrXrXrXrXrXrXrXrXrXrXrXrXrXrXrXrXrXrXrXrXrXrXrXrX",
"rXrXrXrXrXrXrXrXrXrXrXrXrXrXrXrXrXrXrXrXrXrXrXrXrXrXrXrXrXrXrXrXrXrXrXrXrXrXrXrXrXrXrXrXrXrXrXrXrXrXrXrXrXrXrXrXrXrXrXrXrXrX",
"rXrXrXrXrXrXrXrXrXrXrXrXrXrXrXrXrXrXrXrXrXrXrXrXrXrXrXrXrXrXrXrXrXrXrXrXrXrXrXrXrXrXrXrXrXrXrXrXrXrXrXrXrXrXrXrXrXrXrXrXrXrX",
"rXrXrXrXrXrXrXrXrXrXrXrXrXrXrXrXrXrXrXrXrXrXrXrXrXrXrXrXrXrXrXrXrXrXrXrXrXrXrXrXrXrXrXrXrXrXrXrXrXrXrXrXrXrXrXrXrXrXrXrXrXrX",
"rXrXrXrXrXrXrXrXrXrXrXrXrXrXrXrXrXrXrXrXrXrXrXrXrXrXrXrXrXrXrXrXrXrXrXrXrXrXrXrXrXrXrXrXrXrXrXrXrXrXrXrXrXrXrXrXrXrXrXrXrXrX",
"rXrXrXrXrXrXrXrXrXrXrXrXrXrXrXrXrXrXrXrXrXrXrXrXrXrXrXrXrXrXrXrXrXrXrXrXrXrXrXrXrXrXrXrXrXrXrXrXrXrXrXrXrXrXrXrXrXrXrXrXrXrX",
"rXrXrXrXrXrXrXrXrXrXrXrXrXrXrXrXrXrXrXrXrXrXrXrXrXrXrXrXrXrXrXrXrXrXrXrXrXrXrXrXrXrXrXrXrXrXrXrXrXrXrXrXrXrXrXrXrXrXrXrXrXrX",
"rXrXrXrXrXrXrXrXrXrXrXrXrXrXrXrXrXrXrXrXrXrXrXrXrXrXrXrXrXrXrXrXrXrXrXrXrXrXrXrXrXrXrXrXrXrXrXrXrXrXrXrXrXrXrXrXrXrXrXrXrXrX",
"rXrXrXrXrXrXrXrXrXrXrXrXrXrXrXrXrXrXrXrXrXrXrXrXrXrXrXrXrXrXrXrXrXrXrXrXrXrXrXrXrXrXrXrXrXrXrXrXrXrXrXrXrXrXrXrXrXrXrXrXrXrX",
"rXrXrXrXrXrXrXrXrXrXrXrXrXrXrXrXrXrXrXrXrXrXrXrXrXrXrXrXrXrXrXrXrXrXrXrXrXrXrXrXrXrXrXrXrXrXrXrXrXrXrXrXrXrXrXrXrXrXrXrXrXrX",
"rXrXrXrXrXrXrXrXrXrXrXrXrXrXrXrXrXrXrXrXrXrXrXrXrXrXrXrXrXrXrXrXrXrXrXrXrXrXrXrXrXrXrXrXrXrXrXrXrXrXrXrXrXrXrXrXrXrXrXrXrXrX",
"rXrXrXrXrXrXrXrXrXrXrXrXrXrXrXrXrXrXrXrXrXrXrXrXrXrXrXrXrXrXrXrXrXrXrXrXrXrXrXrXrXrXrXrXrXrXrXrXrXrXrXrXrXrXrXrXrXrXrXrXrXrX",
"rXrXrXrXrXrXrXrXrXrXrXrXrXrXrXrXrXrXrXrXrXrXrXrXrXrXrXrXrXrXrXrXrXrXrXrXrXrXrXrXrXrXrXrXrXrXrXrXrXrXrXrXrXrXrXrXrXrXrXrXrXrX",
"rXrXrXrXrXrXrXrXrXrXrXrXrXrXrXrXrXrXrXrXrXrXrXrXrXrXrXrXrXrXrXrXrXrXrXrXrXrXrXrXrXrXrXrXrXrXrXrXrXrXrXrXrXrXrXrXrXrXrXrXrXrX",
"rXrXrXrXrXrXrXrXrXrXrXrXrXrXrXrXrXrXrXrXrXrXrXrXrXrXrXrXrXrXrXrXrXrXrXrXrXrXrXrXrXrXrXrXrXrXrXrXrXrXrXrXrXrXrXrXrXrXrXrXrXrX",
"rXrXrXrXrXrXrXrXrXrXrXrXrXrXrXrXrXrXrXrXrXrXrXrXrXrXrXrXrXrXrXrXrXrXrXrX& & rXrXrXrXrXrXrXrXrXrXrXrXrXrXrXrXrXrXrXrXrXrXrXrX",
"rXrXrXrXrXrXrXrXrXrXrXrXrXrXrXrXrXrXrXrXrXrXrXrXrXrXrXrXrXrXrXrXrXrXrX% % % % & rXrXrXrXrXrXrXrXrXrXrXrXrXrXrXrXrXrXrXrXrXrX",
"rXrXrXrXrXrXrXrXrXrXrXrXrXrXrXrXrXrXrXrXrXrXrXrXrXrXrX& % % % rXrXrX& % % % % % rXrXrXrXrXrXrXrXrXrXrXrXrXrXrXrXrXrXrXrXrXrX",
"rXrXrXrXrXrXrXrXrXrXrXrXrXrXrXrXrXrXrXrXrXrXrX% % % % % % % % # $ $ # $ % % % % & rXrXrXrXrXrXrXrXrXrXrXrXrXrXrXrXrXrXrXrXrX",
"rXrXrXrXrXrXrXrXrXrXrXrXrXrXrXrXrXrXrXrXrXrX% % % % % % + # , d d d f u % $ % % % rXrXrXrXrXrXrXrXrXrXrXrXrXrXrXrXrXrXrXrXrX",
"rXrXrXrXrXrXrXrXrXrXrXrXrXrXrXrXrXrXrXrXrX& % % % % $ < S Q 0.K.W.'.P.i.E y $ % % rXrXrXrXrXrXrXrXrXrXrXrXrXrXrXrXrXrXrXrXrX",
"rXrXrXrXrXrXrXrXrXrXrXrXrXrXrXrXrXrXrXrXrX% % % % $ u <.%X<X>X4X6X7X`.V.F.=.q $ % rXrXrXrXrXrXrXrXrXrXrXrXrXrXrXrXrXrXrXrXrX",
"rXrXrXrXrXrXrXrXrXrXrXrXrXrXrXrXrXrXrXrXrX% % % $ w 1.:X0XwXwX0XeX&XZ.V.V.N.K % % & rXrXrXrXrXrXrXrXrXrXrXrXrXrXrXrXrXrXrXrX",
"rXrXrXrXrXrXrXrXrXrXrXrXrXrXrXrXrXrXrXrXrX% % % # H #XqX0X0X0X0X9X{.M.V.V.S.u.y $ % rXrXrXrXrXrXrXrXrXrXrXrXrXrXrXrXrXrXrXrX",
"rXrXrXrXrXrXrXrXrXrXrXrXrXrXrXrXrXrXrXrXrX% % $ e a.5X0X0X0X0X0X-XH.B.V.V.V.v.C @ % rXrXrXrXrXrXrXrXrXrXrXrXrXrXrXrXrXrXrXrX",
"rXrXrXrXrXrXrXrXrXrXrXrXrXrXrXrXrXrXrXrXrX& % @ m Q.6X0X0X0XwX0X}.g.l.V.V.V.S.U @ % % rXrXrXrXrXrXrXrXrXrXrXrXrXrXrXrXrXrXrX",
"rXrXrXrXrXrXrXrXrXrXrXrXrXrXrXrXrXrXrXrXrXrX% $ _ I..X,XwX8X,X1X(.5.b.V.V.C.F.X.* % & rXrXrXrXrXrXrXrXrXrXrXrXrXrXrXrXrXrXrX",
"rXrXrXrXrXrXrXrXrXrXrXrXrXrXrXrXrXrXrXrXrXrX% $ ` F.U.2X3X XY.T.A.e.m.V.l.j.c.@.; % rXrXrXrXrXrXrXrXrXrXrXrXrXrXrXrXrXrXrXrX",
"rXrXrXrXrXrXrXrXrXrXrXrXrXrXrXrXrXrXrXrXrXrX% $ ` F.H.oX^.n.2.^ 2.h.l.k.%.O.&.F * & rXrXrXrXrXrXrXrXrXrXrXrXrXrXrXrXrXrXrXrX",
"rXrXrXrXrXrXrXrXrXrXrXrXrXrXrXrXrXrXrXrXrXrX& # J B.C.n.[ v 9 X b x.e.f.o.+.} > % rXrXrXrXrXrXrXrXrXrXrXrXrXrXrXrXrXrXrXrXrX",
"rXrXrXrXrXrXrXrXrXrXrXrXrXrXrXrXrXrXrXrXrXrX& % , V t.N.c   o . n OXr.w.f.#.j # % rXrXrXrXrXrXrXrXrXrXrXrXrXrXrXrXrXrXrXrXrX",
"rXrXrXrXrXrXrXrXrXrXrXrXrXrXrXrXrXrXrXrXrXrX% % % 2 ~ S.,.8 7 5 ] ;X/.p.>.k % % % = rXrXrXrXrXrXrXrXrXrXrXrXrXrXrXrXrXrXrXrX",
"rXrXrXrXrXrXrXrXrXrXrXrXrXrXrXrXrXrXrXrXrXrX% % % 4 6 { L.z.$.4.!.*XJ.! l ; % % % % rXrXrX0 rXrXrXrXrXrXrXrXrXrXrXrXrXrXrXrX",
"rXrXrXrXrXrXrXrXrXrXrXrXrXrXrXrXrXrXrXrXrX= % % % $ i z / +X$X@X|.d.x D  .> % % % % % % & = rXrXrXrXrXrXrXrXrXrXrXrXrXrXrXrX",
"rXrXrXrXrXrXrXrXrXrXrXrXrXrXrXrXrXrXrXrX= % % % % % - B N R.=X.XG.Y 3 W ;.p # % % % % % & rXrXrXrXrXrXrXrXrXrXrXrXrXrXrXrXrX",
"rXrXrXrXrXrXrXrXrXrXrXrXrXrXrXrXrXrXrXrXrX& % % % % # M 9.[.~.D._.) O R 3.a # % % % % rXrXrXrXrXrXrXrXrXrXrXrXrXrXrXrXrXrXrX",
"rXrXrXrXrXrXrXrXrXrXrXrXrXrXrXrXrXrXrXrXrXrX% % % % % : :.XX].).E.( T 8...r $ % % % rXrXrXrXrXrXrXrXrXrXrXrXrXrXrXrXrXrXrXrX",
"rXrXrXrXrXrXrXrXrXrXrXrXrXrXrXrXrXrXrXrXrXrX& % % % % % G s.q.L *.7.-.Z t % % % % & rXrXrXrXrXrXrXrXrXrXrXrXrXrXrXrXrXrXrXrX",
"rXrXrXrXrXrXrXrXrXrXrXrXrXrXrXrXrXrXrX0 rXrXrX& & % % $ 1 I ' 6.y.| s % $ % % % & rXrXrXrXrXrXrXrXrXrXrXrXrXrXrXrXrXrXrXrXrX",
"rXrXrXrXrXrXrXrXrXrXrXrXrXrXrXrXrXrXrXrXrXrXrXrXrXrX& % % g P A h ; # % % % & rXrXrXrXrXrXrXrXrXrXrXrXrXrXrXrXrXrXrXrXrXrXrX",
"rXrXrXrXrXrXrXrXrXrXrXrXrXrXrXrXrXrXrXrXrXrXrXrXrXrXrXrX& $ @ # # % % % & rXrXrXrXrXrXrXrXrXrXrXrXrXrXrXrXrXrXrXrXrXrXrXrXrX",
"rXrXrXrXrXrXrXrXrXrXrXrXrXrXrXrXrXrXrXrXrXrXrXrXrXrXrXrXrX& % % % % % rXrXrXrXrXrXrXrXrXrXrXrXrXrXrXrXrXrXrXrXrXrXrXrXrXrXrX",
"rXrXrXrXrXrXrXrXrXrXrXrXrXrXrXrXrXrXrXrXrXrXrXrXrXrXrXrXrXrXrX& & rXrXrXrXrXrXrXrXrXrXrXrXrXrXrXrXrXrXrXrXrXrXrXrXrXrXrXrXrX",
"rXrXrXrXrXrXrXrXrXrXrXrXrXrXrXrXrXrXrXrXrXrXrXrXrXrXrXrXrXrXrXrXrXrXrXrXrXrXrXrXrXrXrXrXrXrXrXrXrXrXrXrXrXrXrXrXrXrXrXrXrXrX",
"rXrXrXrXrXrXrXrXrXrXrXrXrXrXrXrXrXrXrXrXrXrXrXrXrXrXrXrXrXrXrXrXrXrXrXrXrXrXrXrXrXrXrXrXrXrXrXrXrXrXrXrXrXrXrXrXrXrXrXrXrXrX",
"rXrXrXrXrXrXrXrXrXrXrXrXrXrXrXrXrXrXrXrXrXrXrXrXrXrXrXrXrXrXrXrXrXrXrXrXrXrXrXrXrXrXrXrXrXrXrXrXrXrXrXrXrXrXrXrXrXrXrXrXrXrX",
"rXrXrXrXrXrXrXrXrXrXrXrXrXrXrXrXrXrXrXrXrXrXrXrXrXrXrXrXrXrXrXrXrXrXrXrXrXrXrXrXrXrXrXrXrXrXrXrXrXrXrXrXrXrXrXrXrXrXrXrXrXrX",
"rXrXrXrXrXrXrXrXrXrXrXrXrXrXrXrXrXrXrXrXrXrXrXrXrXrXrXrXrXrXrXrXrXrXrXrXrXrXrXrXrXrXrXrXrXrXrXrXrXrXrXrXrXrXrXrXrXrXrXrXrXrX",
"rXrXrXrXrXrXrXrXrXrXrXrXrXrXrXrXrXrXrXrXrXrXrXrXrXrXrXrXrXrXrXrXrXrXrXrXrXrXrXrXrXrXrXrXrXrXrXrXrXrXrXrXrXrXrXrXrXrXrXrXrXrX",
"rXrXrXrXrXrXrXrXrXrXrXrXrXrXrXrXrXrXrXrXrXrXrXrXrXrXrXrXrXrXrXrXrXrXrXrXrXrXrXrXrXrXrXrXrXrXrXrXrXrXrXrXrXrXrXrXrXrXrXrXrXrX",
"rXrXrXrXrXrXrXrXrXrXrXrXrXrXrXrXrXrXrXrXrXrXrXrXrXrXrXrXrXrXrXrXrXrXrXrXrXrXrXrXrXrXrXrXrXrXrXrXrXrXrXrXrXrXrXrXrXrXrXrXrXrX",
"rXrXrXrXrXrXrXrXrXrXrXrXrXrXrXrXrXrXrXrXrXrXrXrXrXrXrXrXrXrXrXrXrXrXrXrXrXrXrXrXrXrXrXrXrXrXrXrXrXrXrXrXrXrXrXrXrXrXrXrXrXrX",
"rXrXrXrXrXrXrXrXrXrXrXrXrXrXrXrXrXrXrXrXrXrXrXrXrXrXrXrXrXrXrXrXrXrXrXrXrXrXrXrXrXrXrXrXrXrXrXrXrXrXrXrXrXrXrXrXrXrXrXrXrXrX",
"rXrXrXrXrXrXrXrXrXrXrXrXrXrXrXrXrXrXrXrXrXrXrXrXrXrXrXrXrXrXrXrXrXrXrXrXrXrXrXrXrXrXrXrXrXrXrXrXrXrXrXrXrXrXrXrXrXrXrXrXrXrX",
"rXrXrXrXrXrXrXrXrXrXrXrXrXrXrXrXrXrXrXrXrXrXrXrXrXrXrXrXrXrXrXrXrXrXrXrXrXrXrXrXrXrXrXrXrXrXrXrXrXrXrXrXrXrXrXrXrXrXrXrXrXrX",
"rXrXrXrXrXrXrXrXrXrXrXrXrXrXrXrXrXrXrXrXrXrXrXrXrXrXrXrXrXrXrXrXrXrXrXrXrXrXrXrXrXrXrXrXrXrXrXrXrXrXrXrXrXrXrXrXrXrXrXrXrXrX",
"rXrXrXrXrXrXrXrXrXrXrXrXrXrXrXrXrXrXrXrXrXrXrXrXrXrXrXrXrXrXrXrXrXrXrXrXrXrXrXrXrXrXrXrXrXrXrXrXrXrXrXrXrXrXrXrXrXrXrXrXrXrX",
"rXrXrXrXrXrXrXrXrXrXrXrXrXrXrXrXrXrXrXrXrXrXrXrXrXrXrXrXrXrXrXrXrXrXrXrXrXrXrXrXrXrXrXrXrXrXrXrXrXrXrXrXrXrXrXrXrXrXrXrXrXrX"
};
