/* XPM */
static char *_e6a098a660144a2923afbfb613f0ce59KTFEpP59W35Hvip[] = {
/* columns rows colors chars-per-pixel */
"50 50 103 2 ",
"   c #351519",
".  c #3A191E",
"X  c #661313",
"o  c #650D0C",
"O  c #301E24",
"+  c #471C21",
"@  c #410E0F",
"#  c #3C1317",
"$  c #4C1619",
"%  c #3E181C",
"&  c #7F0F0C",
"*  c #4E1012",
"=  c #44181C",
"-  c #521518",
";  c #3A1012",
":  c #342026",
">  c #481114",
",  c #600C0D",
"<  c #2C181D",
"1  c #4C1C21",
"2  c #341013",
"3  c #361C21",
"4  c #3A1E24",
"5  c #590F10",
"6  c #2D1317",
"7  c #511B1F",
"8  c #3F1B21",
"9  c #531012",
"0  c #27161B",
"q  c #6C1311",
"w  c #591314",
"e  c #490C0E",
"r  c #33272E",
"t  c #72130F",
"y  c #411316",
"u  c #78110D",
"i  c #601518",
"p  c #412026",
"a  c #540C0C",
"s  c #6B0E0D",
"d  c #34191F",
"f  c #451518",
"g  c #34232A",
"h  c #591719",
"j  c #30181D",
"k  c #851A0E",
"l  c #5F1112",
"z  c #340A0C",
"x  c #3A242B",
"c  c #2C2229",
"v  c #7E1911",
"b  c #3B2B33",
"n  c #771713",
"m  c #270F12",
"M  c #720C0B",
"N  c #591A1E",
"B  c #8C2A0D",
"V  c #5A0B0B",
"C  c #81230E",
"Z  c #291D23",
"A  c #8E170C",
"S  c #492228",
"D  c #92230D",
"F  c #671A18",
"G  c #41282F",
"H  c #621C1B",
"J  c #95190D",
"K  c #572022",
"L  c #75210B",
"P  c #A1320C",
"I  c #721C15",
"U  c #512228",
"Y  c #4E0C0C",
"T  c #342D36",
"R  c #94330F",
"E  c #9A250C",
"W  c #5F1A14",
"Q  c #682921",
"!  c #6E1A19",
"~  c #8B1E0F",
"^  c #920F0A",
"/  c #890F0A",
"(  c #69200D",
")  c #AD360A",
"_  c #9C140A",
"`  c #76251A",
"'  c #9B420D",
"]  c #49272E",
"[  c #611F23",
"{  c #A7250B",
"}  c #5E160A",
"|  c #863819",
" . c #AF4F08",
".. c #A93F0A",
"X. c #B83909",
"o. c #3F353F",
"O. c #512A31",
"+. c #5B2A30",
"@. c #531B11",
"#. c #B6450C",
"$. c #CC7109",
"%. c #C95609",
"&. c #822F13",
/* pixels */
"o.[ ^ _ J * d w D ..~ A / ; < - a $ P } S Q R & < Z G l 6 8 @ G + k   x 1 q w e < d Z f y H ; 4 - 8 ",
"] % X ^ & @.O G h @.# & / 9 0 + o p |  .L H F u e . G 1 6 1 u | &.n } 4 ! y x $ w > S n = O.5 = t X ",
"% 4 . l D &.6 O d < 4 X A } Z 4 t = S n z < # o a ; r 3 % i , I C * | ' o   : 4 ! ^ u & n ` A t A _ ",
"r : S C J L < O g O b + A L 0 6 F = r l # d $ , 3 -   b w % 1 > @ f F ( d x 4   8 M @ s A a 5 w / _ ",
"  p + K h o g g b : O $ k B 0 6 e 6 4 t 5 $ 5 q = N u H 9 c ] * 2 K s 2 b r : 8 [ q 6 > & e > d h n ",
"X 9 6 g p } g b r O < , s J y % , - q o 2 = z G $ 0 Q k 2 Z g 7 9 I E B v n ! X q M 2 O w u @ 4   d ",
"F   O r ] q 6 o.O c c M & J L f y h f e j - > x = 0 ] k } O g 8 - I ..@.w t s 2 4 h V 2 % C , 7 a   ",
"+.> c G +.P a x O.O.+ M ^ / A , 6 O = o h 5 8 i @ O + l v - ` h w &  .@ Z H ^ ; 4 * ; % . 7 a 1 & s ",
"U > r j . | X.v q v n / & , - M @ 6 h - [ w 6 p f 4 w * 7 1 ` s i J X.( b 7 ~ @.4 9 # 4 8 H o + $ # ",
"N e : Z $ B ..E @ O x 7 q 2 0 + Y 0 @ O c 7 9 1 9 j 9 . : r U q 7 J { D 8 3 Q W + * > y 8 & & . 8 0 ",
"# 5 . j * N ; @ 6 < b +.,   < : o * w 1 S h   4 i 5 @ Z r ] 9 ( ] ! J & , . K q . 2   i & M i l 4 6 ",
"- q n l @ 3 d > 4 4 U q z O . + s k A H K o 6 c N { o d O.$ Y } c b K l ; = K B l > = i s # U M y $ ",
"X X 5 N * . < 1 3 x + , z r G q 2 3 8 % r i @ 3 > H E v 5 3 H u j 4 + 7 . g Q $.R @ : G 5 : G o * X ",
"- h 9 = e y # # d b b w z r Q { ; r 4 *   N V - @ O U n i * X M > [ * 4 8 . '  .; p + - q y 4 , ; $ ",
"1 $ > % $ 9 $ 2 : : g h s w q J u j 8 9 9 w E E V d [ ; . ; d q A w q y 1 k #.B 0 b p f 1 @ . C @ 6 ",
"f . f % = - a < b c T Q X.o   N M s a j S & W U X - V m y < G i 5 d p ! k { P ' 3 O.H 1 + * F P C z ",
"* j %   . . n N O.+.Q #.P z d 8 5 M z T p & f b 7 ! k ; 2 : g 5 y : < I D X / ) f b S $ i , # ! #.B ",
"a 6 x .     B %.%.$.) { t m O + , ~ z c b i # T < p k ( ; c T , X Q W k > ; o D C ; G = = o * i _ X.",
", # x % m Z K X.%.%.B e + 2 < p y I t z O X @ c c j H t # O O.v J ....M p + % N t v l 6 y ; x   F _ ",
"> % % ` o y x X / E o j : p % 8 y # h o @ ` D 2 g : $ & C h ! q n & s a b +   3 # S ~ } 2 r o.8 i t ",
"y * ! P X._ , - o I E 2 O G # 6 y % d ; l 7 ) A v v E { P J u X = n & s : 1 @ O # < Q ) L | ' R B - ",
"B F I I ) X.B C X.{ ) ; r b 3 O 8 # d 6 X 1 Q J 5 n & u & l t t 5 N ^ J # # @ c p j b R $.$.' v ..X ",
"P #.I - ` #.%.~ { E ) @.: ] K + H & 9 O 7 > U V m = f $ 5 % 8 + , = f k 9 2 > T g 6 0 X L y p U ` E ",
"/ B $   $ E A w 5 > B W m p ` / a h v W 7 l I @ <   3 3 $ 8 d . Y   6 l t 1 w Z T < < X o Z b g g K ",
"M f   j % W 1 p U * Q C m T x v } . F ..R P o 6 . = # < $ 5 e # Y G   f ~ k ..( Z T 4 &.} 4 x j 0 g ",
"v C * F I @ c o.+.i F E @ g 3 n B % F 5 y | ( d 9 M V O 1 # %   a x p 7 L $ 7 A @ r 1 E @.U N f 2 8 ",
"E t X & k z < b N $ = C & v u w B n n e 4 K L j = 9 A h ; r ] K & z p i . c 8 D ( S t M - . 4 . w 9 ",
"l > h X o j * j 3 %   = & _ _ @ f U $ * = l D @ 3 9 u / e N X i u Y O i   x [ R ' v X.( g - [ $ - z ",
"9 7 y 9 & O ] # 3 j # d + n { u X : . @ y - D L 1 n W _ a m r x W B . > 6 S @ $ P M n ' ; g U N t 2 ",
"; 1 > 7 s m c - H 3 1 . + f ~ ^ X e p $ < O N ~ ~ & w w s a r r w ' @.0 T + m * & e + Q C $ 8 : i # ",
"* 2 * $ u L [ l X % + 2 : r F s 2 % # 7   g h B C * 0 : % l 2 < # R L 0 G z c S 9 8 y   , 2   < * y ",
"! t X q D &.R z . # + z r S a :   T . . = + X X t e 0 r 3 1 9 0 < H ) @ 7 m r G $ o.3 = ( 6 j O > 5 ",
"t o h * + 8 9 2 4   4 6 +.v o = 7 N 5 x Q D & X M z S U y g H 2 : ` $. . .L = 1 . r <   V 0 O . I A ",
"; < % < G % # O f * $ $ - + & M l t M D P R l F D 2 G + a % - t n I R %.%...{ k   T G K Y d S v u e ",
"6 0 ; O T j # : m     X y d t V # = - u , $ l - v f 3 d $   S v Y Z 9 o s o ^ #.( K n J ) R k n q m ",
"0 p i g T x ; O 0 m 0 - j < *   . 1 w e w = X X s s X X 9 0 b N Y g 9 d 3 3 [ E ..L a > k C u K ' 2 ",
"k J D   r + 6 + h n F > % f q 6 c < $ w N N 9 s V 3 + l X # p B u i e r g : K v o g % 3 o Y 9   | @.",
"A J J a Z $ h l h ! ~ Y d - X # T b i i   7 s o V . f 4 7 s M ( k u > < x 7 # 8 5 c 4 g h 9 8 m H 9 ",
"U n J C $ i e j : 8 w ,     N V 0 U l 8 < 1 l w , > 9 p S & e 0 % e < O S   c % o m O b 4 $ 8   | R ",
"Z > I P B > c Z b 8 x H X l 9 F B l , j : p * 5 o f w : S M 2 < % a 0 g p z Z 7 ' @ 8 . : U I ! ~ ) ",
": > $ P } c o.c ] # g 7 7 H q ~ B , l 2 < : % = X y 1 < 4 q 3 x N D 2 Z 3   < +  . .k u I I W H w & ",
"O # # l } c o.x 3 y f * c p A _ , u s z . 3 8 - D R k q 8 w 8 3 a A L f 3 = % N C ` u t n v j 4 p = ",
"e > % Q ' ` | C W F k s O O K A M t X a % 2 p t W k s ~ q e 6 % q A C E k l : 1 9 : K - W  .$ x S 7 ",
"4 q q | #.X.P } W u A ) z O O.! u ,   8     7 e x q 9 X L ; c $ ; h 5 K v & H n o 4 1 o M ) ( d F l ",
"# i ~ E u ! t > $ 2 7 k A Y + 4 - o   % #   9 6 x * @ $ B @.8 % 3 S 9 % h / V n , $ > * & D R ! J I ",
"s % % [ C   w @ 0 O < V & # T 6 1 n u 9 - - @ O . $ m 1 R C e r x + * + y i u o a 4 - 9 q _ k & ^ 9 ",
"@ 6 O g H # q z < S = f K h p < - & M t # N @ 3 8 K @ # &...> T r S X l % K k & V   1 y 1 t f i n 9 ",
"y 2 c r ( (  .} Z b p # o.$ m r e # 9 o s h 5 * H { _ * N ..| S +.e 6 h I ` h - V ; $ # 8 $ 3 7 R C ",
"; % d O w L $...e G [ = o.+ m b 9 6 g 1 $ = 5 V X F s , q B  .P A V O 1 9 c p $ t Y - , ; . f + F R ",
"z b p   X $ ' $. .v I ~ D C y 7 y p . 8 8 c 1 V 2 x ; % v ] +.f N / l [ v f b K u o W k , w $ 8 j 1 "
};
