/* XPM */
static char *result[] = {
/* columns rows colors chars-per-pixel */
"80 80 202 2 ",
"   c #020202",
".  c #0A0505",
"X  c #0C0906",
"o  c #050408",
"O  c #09050A",
"+  c #060909",
"@  c #0B0B0B",
"#  c #120406",
"$  c #140E06",
"%  c #130C0B",
"&  c #1D0D0D",
"*  c #1C0806",
"=  c #171007",
"-  c #1B1105",
";  c #13110D",
":  c #1C130B",
">  c #0E0E11",
",  c #110D10",
"<  c #0E1012",
"1  c #131313",
"2  c #1B1513",
"3  c #1A1916",
"4  c #13161A",
"5  c #181718",
"6  c #16181B",
"7  c #1A1A1A",
"8  c #230406",
"9  c #2D0A09",
"0  c #3A0908",
"q  c #22150A",
"w  c #251B0E",
"e  c #2A1D0D",
"r  c #221612",
"t  c #231B15",
"y  c #291D12",
"u  c #221A1B",
"i  c #2E1415",
"p  c #311716",
"a  c #2E210C",
"s  c #33230E",
"d  c #3D260D",
"f  c #2F2111",
"g  c #25231D",
"h  c #332312",
"j  c #3A2513",
"k  c #362913",
"l  c #3C2B14",
"z  c #352A19",
"x  c #3A301A",
"c  c #201F21",
"v  c #1F2020",
"b  c #242423",
"n  c #292925",
"m  c #2B2B2A",
"M  c #282826",
"N  c #32342E",
"B  c #343532",
"V  c #373833",
"C  c #383A35",
"Z  c #3C3C3C",
"A  c #400203",
"S  c #490A0C",
"D  c #5C0202",
"F  c #560A0A",
"G  c #570507",
"H  c #670507",
"J  c #7B0302",
"K  c #750F12",
"L  c #641214",
"P  c #452C0D",
"I  c #522F0B",
"U  c #432C15",
"Y  c #4B2E11",
"T  c #443115",
"R  c #4D3314",
"E  c #4C3718",
"W  c #543513",
"Q  c #5D3C14",
"!  c #543B1A",
"~  c #5C3E1A",
"^  c #573712",
"/  c #633D13",
"(  c #623B18",
")  c #65380D",
"_  c #473B2F",
"`  c #593E20",
"'  c #5A4018",
"]  c #63451C",
"[  c #6A451C",
"{  c #6A4C1E",
"}  c #674517",
"|  c #744916",
" . c #734B1B",
".. c #7B4E1A",
"X. c #754813",
"o. c #6F511F",
"O. c #73521D",
"+. c #7C571E",
"@. c #644620",
"#. c #6B4C21",
"$. c #754D21",
"%. c #745321",
"&. c #7A5423",
"*. c #775823",
"=. c #66523D",
"-. c #71583C",
";. c #413E41",
":. c #454445",
">. c #4E4E4D",
",. c #544440",
"<. c #545454",
"1. c #5B5B5B",
"2. c #655C57",
"3. c #72655D",
"4. c #69696C",
"5. c #656466",
"6. c #7F7262",
"7. c #767675",
"8. c #910207",
"9. c #884D0E",
"0. c #834D14",
"q. c #814F1C",
"w. c #845115",
"e. c #85541C",
"r. c #88551B",
"t. c #925915",
"y. c #945D1A",
"u. c #9A5E1B",
"i. c #9D5A10",
"p. c #A55C13",
"a. c #9D621F",
"s. c #A66115",
"d. c #A4651A",
"f. c #AB6B1E",
"g. c #AD6614",
"h. c #BE6C17",
"j. c #B46817",
"k. c #BE761E",
"l. c #BB761B",
"z. c #825B25",
"x. c #885A22",
"c. c #8A6323",
"v. c #8C6529",
"b. c #956B2A",
"n. c #986A24",
"m. c #96712A",
"M. c #A56725",
"N. c #B26C21",
"B. c #B86F20",
"V. c #A7772B",
"C. c #B67322",
"Z. c #A06B30",
"A. c #A77435",
"S. c #B37E33",
"D. c #C16E19",
"F. c #C47215",
"G. c #C9771A",
"H. c #D27715",
"J. c #D77C16",
"K. c #D87E14",
"L. c #DD7F1A",
"P. c #D57E1C",
"I. c #C97C23",
"U. c #D27E24",
"Y. c #806B58",
"T. c #967751",
"R. c #8A7F6B",
"E. c #BE882D",
"W. c #BB8836",
"Q. c #DB831C",
"!. c #D1801D",
"~. c #E4861A",
"^. c #EC8A1A",
"/. c #CF8121",
"(. c #D38222",
"). c #DB8623",
"_. c #DC8923",
"`. c #C38D37",
"'. c #CB9637",
"]. c #E48C23",
"[. c #EB8F24",
"{. c #E28622",
"}. c #EC9125",
"|. c #E89225",
" X c #F39524",
".X c #F59925",
"XX c #F99926",
"oX c #E49632",
"OX c #E99A39",
"+X c #BC8643",
"@X c #B39065",
"#X c #B89B73",
"$X c #CC9752",
"%X c #CC8F46",
"&X c #F3A142",
"*X c #E8A751",
"=X c #CFA173",
"-X c #E2AA62",
";X c #838383",
":X c #928A86",
">X c #A0A0A0",
",X c None",
/* pixels */
",X,X,X,X,X,X,X,X,X,X,X,X,X,X,X,X,X,X,X,X,X,X,X,X,X,X,X,X,X,X,X,X,X,X,X,X,X,X,X,X,X,X,X,X,X,X,X,X,X,X,X,X,X,X,X,X,X,X,X,X,X,X,X,X,X,X,X,X,X,X,X,X,X,X,X,X,X,X,X,X",
",X,X,X,X,X,X,X,X,X,X,X,X,X,X,X,X,X,X,X,X,X,X,X,X,X,X,X,X,X,X,X,X,X,X,X,X,X,X,X,X,X,X,X,X,X,X,X,X,X,X,X,X,X,X,X,X,X,X,X,X,X,X,X,X,X,X,X,X,X,X,X,X,X,X,X,X,X,X,X,X",
",X,X,X,X,X,X,X,X,X,X,X,X,X,X,X,X,X,X,X,X,X,X,X,X,X,X,X,X,X,X,X,X,X,X,X,X,X,X,X,X,X,X,X,X,X,X,X,X,X,X,X,X,X,X,X,X,X,X,X,X,X,X,X,X,X,X,X,X,X,X,X,X,X,X,X,X,X,X,X,X",
",X,X,X,X,X,X,X,X,X,X,X,X,X,X,X,X,X,X,X,X,X,X,X,X,X,X,X,X,X,X,X,X,X,X,X,X,X,X,X,X,X,X,X,X,X,X,X,X,X,X,X,X,X,X,X,X,X,X,X,X,X,X,X,X,X,X,X,X,X,X,X,X,X,X,X,X,X,X,X,X",
",X,X,X,X,X,X,X,X,X,X,X,X,X,X,X,X,X,X,X,X,X,X,X,X,X,X,X,X,X,X,X,X,X,X,X,X,X,X,X,X,X,X,X,X,X,X,X,X,X,X,X,X,X,X,X,X,X,X,X,X,X,X,X,X,X,X,X,X,X,X,X,X,X,X,X,X,X,X,X,X",
",X,X,X,X,X,X,X,X,X,X,X,X,X,X,X,X,X,X,X,X,X,X,X,X,X,X,X,X,X,X,X,X,X,X,X,X,X,X,X,X,X,X,X,X,X,X,X,X,X,X,X,X,X,X,X,X,X,X,X,X,X,X,X,X,X,X,X,X,X,X,X,X,X,X,X,X,X,X,X,X",
",X,X,X,X,X,X,X,X,X,X,X,X,X,X,X,X,X,X,X,X,X,X,X,X,X,X,X,X,X,X,X,X,X,X,X,X,X,X,X,X,X,X,X,X,X,X,X,X,X,X,X,X,X,X,X,X,X,X,X,X,X,X,X,X,X,X,X,X,X,X,X,X,X,X,X,X,X,X,X,X",
",X,X,X,X,X,X,X,X,X,X,X,X,X,X,X,X,X,X,X,X,X,X,X,X,X,X,X,X,X,X,X,X,X,X,X,X,X,X,X,X,X,X,X,X,X,X,X,X`.n.v.@.V.,X,X,X,X,X,X,X,X,X,X,X,X,X,X,X,X,X,X,X,X,X,X,X,X,X,X,X",
",X,X,X,X,X,X,X,X,X,X,X,X,X,X,X,X,X,X,X,X,X,X,X,X,X,X,X,X,X,X,X,X,X,X,X,X,X,X,X,X,X,X,X,X,X,X,XV.W % h w k W.,X,X,X,X,X,X,X,X,X,X,X,X,X,X,X,X,X,X,X,X,X,X,X,X,X,X",
",X,X,X,X,X,X,X,X,X,X,X,X,X,X,X,X,X,X,X,X,X,X,X,X,X,X,X,X,X,X,X,X,X,X,X,X,X,X,X,X,X,X,X,X,X,Xm.y     X l O #.,X,X,X,X,X,X,X,X,X,X,X,X,X,X,X,X,X,X,X,X,X,X,X,X,X,X",
",X,X,X,X,X,X,X,X,X,X,X,X,X,X,X,X,X,X,X,X,X,X,X,X,X,X,X,X,X,X,X,X,X,X,X,X,X,X,X,X,X,X,X,X,XS.] e       d % y `.,X,X,X,X,X,X,X,X,X,X,X,X,X,X,X,X,X,X,X,X,X,X,X,X,X",
",X,X,X,X,X,X,X,X,X,X,X,X,X,X,X,X,X,X,X,X,X,X,X,X,X,X,X,X,X,X,X,X,X,X,X,X,X,X,X,X,X,X,X,XW.U % l y     s R %.,X,X,X,X,X,X,X,X,X,X,X,X,X,X,X,X,X,X,X,X,X,X,X,X,X,X",
",X,X,X,X,X,X,X,X,X,X,X,X,X,X,X,X,X,X,X,X,X,X,X,X,X,X,X,X,X,X,X,X,X,X,X,X,X,X,X,X,X,X,X,X%.    . T % w z.A.'.,X,X,X,X,X,X,X,X,X,X,X,X,X,X,X,X,X,X,X,X,X,X,X,X,X,X",
",X,X,X,X,X,X,X,X,X,X,X,X,X,X,X,X,X,X,X,X,X,X,X,X,X,X,X,X,X,X,X,X,X,X>.6.@X$X_._.k.r.R *.w       r $.n.%.: %.,X,X,X,X,X,X,X,X,X,X,X,X,X,X,X,X,X,X,X,X,X,X,X,X,X,X",
",X,X,X,X,X,X,X,X,X,X,X,X,X,X,X,X,X,X,X,X,X,X,X,X,X,X,X,X,X,X,X,X@X#X-X&XXX X(.f.a.e.' 3 O     $ { x.y l : y `.,X,X,X,X,X,X,X,X,X,X,X,X,X,X,X,X,X,X,X,X,X,X,X,X,X",
",X,X,X,X,X,X,X,X,X,X,X,X,X,X,X,X,X,X,X,X,X,X,X,X,X,X,X,X,X,X3.=X*XoX}.].f.#.z v 7 3 7 6 1 o @ %.%.@ o : T #.`.n.b.%.z.,X,X,X,X,X,X,X,X,X,X,X,X,X,X,X,X,X,X,X,X,X",
",X,X,X,X,X,X,X,X,X,X,X,X,X,X,X,X,X,X,X,X,X,X,X,X,X,X,X,X,X3.$XoX(.!.N.! u 6 6 7 7 7 7 7 7 , U [ @   = ] V.*.j @ y h X +.,X,X,X,X,X,X,X,X,X,X,X,X,X,X,X,X,X,X,X,X",
",X,X,X,X,X,X,X,X,X,X,X,X,X,X,X,X,X,X,X,X,X,X,X,X,X,X,X,X4.T.oXU.!.f.g 5 3 7 7 7 7 7 7 7 7 7 1 O . T v.&.' =   o X U . j ,X,X,X,X,X,X,X,X,X,X,X,X,X,X,X,X,X,X,X,X",
",X,X,X,X,X,X,X,X,X,X,X,X,X,X,X,X,X,X,X,X,X,X,X,X,X,X,X5.2.%XoXU./.( 1 5 7 7 7 7 7 7 7 7 7 7 4 : &.&.h   : s   o   k & % V.,X,X,X,X,X,X,X,X,X,X,X,X,X,X,X,X,X,X,X",
",X,X,X,X,X,X,X,X,X,X,X,X,X,X,X,X,X,X,X,X,X,X,X,X,X,X,X4.,.A.M.U.M.f 5 1 5 7 7 7 7 7 7 3 7 7 7 u j X     = k       l = @ b.,X,X,X,X,X,X,X,X,X,X,X,X,X,X,X,X,X,X,X",
",X,X,X,X,X,X,X,X,X,X,X,X,X,X,X,X,X,X,X,X,X,X,X,X,X,X7.B 2 @ & y.[ 4 6 6 5 6 7 7 7 7 7 6 1 r u 6 o       X s       k = $ Z.,X,X,X,X,X,X,X,X,X,X,X,X,X,X,X,X,X,X,X",
",X,X,X,X,X,X,X,X,X,X,X,X,X,X,X,X,X,X,X,X,X,X,X,X,X,X:.o       - w 1 3 1 5 5 7 7 7 7 5 t Q x...j ; e T ~ { z.{ o.] *.Q O.,X,X,X,X,X,X,X,X,X,X,X,X,X,X,X,X,X,X,X,X",
",X,X,X,X,X,X,X,X,X,X,X,X,X,X,X,X,X,X,X,X,X,X,X,X,XM 1           o 1 1 6 1 5 7 7 7 7 5 } k.].[.M.U %.O.{ } | } O.'.,X,X,X,X,X,X,X,X,X,X,X,X,X,X,X,X,X,X,X,X,X,X,X",
",X,X,X,X,X,X,X,X,X,X,X,X,X,X,X,X,X,X,X,X,X,X,X,X,X                X 1 1 5 5 7 7 7 6 j N. X X X}.e.O       = f X v.,X,X,X,X,X,X,X,X,X,X,X,X,X,X,X,X,X,X,X,X,X,X,X",
",X,X,X,X,X,X,X,X,X,X,X,X,X,X,X,X,X,X,X,X,X,X,X,X,X8 #               @ 2 1 1 7 7 7 1 / Q. X X X Xl.= o     : f   { ,X,X,X,X,X,X,X,X,X,X,X,X,X,X,X,X,X,X,X,X,X,X,X",
",X,X,X,X,X,X,X,X,X,X,XD.F.,X,X,X,X,X,X,X,X,X,X,X,XS H #           . * 1 5 1 5 7 3 2 e.]. X X X X_.O.! s q h w   #.,X,X,X,X,X,X,X,X,X,X,X,X,X,X,X,X,X,X,X,X,X,X,X",
",X,X,X,X,X,X,X,X,X,X,Xj.K.L.h.,X,X,X,X,X,X,X,X,X, * H 8.J H D H 8.J D # 1 1 5 7 3 5 x.}. X X X X_.O.o.x.a.V.z.' V.,X,X,X,X,X,X,X,X,X,X,X,X,X,X,X,X,X,X,X,X,X,X,X",
",X,X,X,X,X,X,X,X,X,X,X,X,XD.~.J.g.,X,X,X,X,X,X,X, @ O 8 0 D D G 0 *     , 7 1 7 7 5 | ]. X X X XQ.p   + a E E c.W.,X,X,X,X,X,X,X,X,X,X,X,X,X,X,X,X,X,X,X,X,X,X,X",
",X,X,X,X,X,X,X,X,X,X,X,X,X,X,XH.~.~.F.,X,X,X,X,X, >                     + 1 1 7 7 1 ( (. X X X Xl.=     $ e   : l U b.,X,X,X,X,X,X,X,X,X,X,X,X,X,X,X,X,X,X,X,X,X",
",X,X,X,X,X,X,X,X,X,X,X,X,X,X,X,Xj.J.^.J.g.,X,X,X> X                       1 1 6 7 5 z d.[. X X].| O   o y w   : a   l ,X,X,X,X,X,X,X,X,X,X,X,X,X,X,X,X,X,X,X,X,X",
",X,X,X,X,X,X,X,X,X,X,X,X,X,X,X,X,X,XF.~.^.G.p.,X> h / r 1 1 1     . - - $ % 3 3 7 5 5 ( N.).).u.j &.l @ x %   w s   s ,X,X,X,X,X,X,X,X,X,X,X,X,X,X,X,X,X,X,X,X,X",
",X,X,X,X,X,X,X,X,X,X,X,X,X,X,X,X,X,X,X,XH.^.~.i., 2 ! n 7 1 1 1 @ - T X.} : 5 1 7 7 5 u R  .@.h % ,X`.c.l o o l :   E ,X,X,X,X,X,X,X,X,X,X,X,X,X,X,X,X,X,X,X,X,X",
",X,X,X,X,X,X,X,X,X,X,X,X,X,X,X,X,X,X,X,X,X,XJ.p.; < 1 1 1 @ + @ @ @ @ % = + 1 5 7 7 7 7 3 7 7 1 ,X,X,X,XS.@.k l o @ c.,X,X,X,X,X,X,X,X,X,X,X,X,X,X,X,X,X,X,X,X,X",
",X,X,X,X,X,X,X,X,X,X,X,X,X,X,X,X,X,X,X,X,X,X,X9.r , < 1 > @ + o @ @ < @ X + 1 7 7 7 7 1 7 7 1 1 ,X,X,X,X,X,XE.&.E %.,X,X,X,X,X,X,X,X,X,X,X,X,X,X,X,X,X,X,X,X,X,X",
",X,X,X,X,X,X,X,X,X,X,X,X,X,X,X,X,X,X,X,X,X,X,X0.r < < 1 1 @ @ X @ @ @ @ X . > 6 7 7 7 7 7 7 1 ,X,X,X,X,X,X,X,X,X,X,X,X,X,X,X,X,X,X,X,X,X,X,X,X,X,X,X,X,X,X,X,X,X",
",X,X,X,X,X,X,X,X,X,X,X,X,X,X,X,X,X,X,X,X,X,X,X,X; 1 % 7 1 @ @ ; @ @ @ @ X o 1 5 7 7 7 7 7 1 ,X,X,X,X,X,X,X,X,X,X,X,X,X,X,X,X,X,X,X,X,X,X,X,X,X,X,X,X,X,X,X,X,X,X",
",X,X,X,X,X,X,X,X,X,X,X,X,X,X,X,X,X,X,X,X,X,X,X) 2 1 @ 7 6 @ @ @ @ @ @ @ + + 1 7 7 7 7 7 @ @ ,X,X,X,X,X,X,X,X,X,X,X,X,X,X,X,X,X,X,X,X,X,X,X,X,X,X,X,X,X,X,X,X,X,X",
",X,X,X,X,X,X,X,X,X,X,X,X,X,X,X,X,X,X,X,X,X,X,Xi.y 1 X < 1 > @ @ @ @ @ @ @ + 1 5 6 7 1 1 6 @ 1 ,X,X,X,X,X,X,X,X,X,X,X,X,X,X,X,X,X,X,X,X,X,X,X,X,X,X,X,X,X,X,X,X,X",
",X,X,X,X,X,X,X,X,X,X,X,X,X,X,X,X,X,X,X,X,X,X,XD.y < v M 1 X @ @ @ @ @ @ X X 1 6 7 1 @ B g 6 @ m ,X,X,X,X,X,X,X,X,X,X,X,X,X,X,X,X,X,X,X,X,X,X,X,X,X,X,X,X,X,X,X,X",
",X,X,X,X,X,X,X,X,X,X,X,X,X,X,X,X,X,X,X,X,X,XD.J.Q _ ;.C n 6 1 X + @ X + o   1 1 >   X B 3 6 ; 4 4.,X,X,X,X,X,X,X,X,X,X,X,X,X,X,X,X,X,X,X,X,X,X,X,X,X,X,X,X,X,X,X",
",X,X,X,X,X,X,X,X,X,X,X,X,X,X,X,X,X,X,X,X,X,Xs.G.G.$._ B m v 1 o             X o     o C v 3 @ @ 2.:X,X,X,X,X,X,X,X,X,X,X,X,X,X,X,X,X,X,X,X,X,X,X,X,X,X,X,X,X,X,X",
",X,X,X,X,X,X,X,X,X,X,X,X,X,X,X,X,X,X,X,X,X,X,X,Xs.,X,XB M c ,               o         7 b 1 ; n ~ +X,.X ,X,X,X,X,X,X,X,X,X,X,X,X,X,X,X,X,X,X,X,X,X,X,X,X,X,X,X,X",
",X,X,X,X,X,X,X,X,X,X,X,X,X,X,X,X,X,X,X,X,X,X,X,X,X,X,X,XM 6 4 7             o           @ v M V n I q   + ,X,X,X,X,X,X,X,X,X,X,X,X,X,X,X,X,X,X,X,X,X,X,X,X,X,X,X",
",X,X,X,X,X,X,X,X,X,X,X,X,X,X,X,X,X,X,X,X,X,X,X,X,X,X,X,X,X4 b N 1 > O       +           + b V V V @         . ,X,X,X,X,X,X,X,X,X,X,X,X,X,X,X,X,X,X,X,X,X,X,X,X,X",
",X,X,X,X,X,X,X,X,X,X,X,X,X,X,X,X,X,X,X,X,X,X,X,X,X,X,X,X,X7 V C N g k % @ @ 1 1     o   + 1 N V V 5             ; ,X,X,X,X,X,X,X,X,X,X,X,X,X,X,X,X,X,X,X,X,X,X,X",
",X,X,X,X,X,X,X,X,X,X,X,X,X,X,X,X,X,X,X,X,X,X,X,X,X,X,X,X,Xv V C N v ,X1 1 7 7 7 1 o o o   . g V N n o             o 1 ,X,X,X,X,X,X,X,X,X,X,X,X,X,X,X,X,X,X,X,X,X",
",X,X,X,X,X,X,X,X,X,X,X,X,X,X,X,X,X,X,X,X,X,X,X,X,X,X,X,Xv n V V M ,X,XF 2 7 7 7 3 @ ; X 0 & ; n V C 3     o         @ 1 M ,X,X,X,X,X,X,X,X,X,X,X,X,X,X,X,X,X,X,X",
",X,X,X,X,X,X,X,X,X,X,X,X,X,X,X,X,X,X,X,X,X,X,X,X,X,X,X,Xg V N n ; ,X,XH 2 7 7 7 7 1 1 3 F 2 + 7 V V N ; X         + @ 1 X < b ,X,X,X,X,X,X,X,X,X,X,X,X,X,X,X,X,X",
",X,X,X,X,X,X,X,X,X,X,X,X,X,X,X,X,X,X,X,X,X,X,X,X,X,X,X7 B V B g ,X,X,XF 2 7 7 7 7 5 1 u i @   + m C C M V m @   o X > X       1 ,X,X,X,X,X,X,X,X,X,X,X,X,X,X,X,X",
",X,X,X,X,X,X,X,X,X,X,X,X,X,X,X,X,X,X,X,X,X,X,X,X,X,X,Xm V V m ,X,X,X,XX 1 7 7 7 7 7 @ u p +   o 3 V V B M >.:.b o + o         o b ,X,X,X,X,X,X,X,X,X,X,X,X,X,X,X",
",X,X,X,X,X,X,X,X,X,X,X,X,X,X,X,X,X,X,X,X,X,X,X,X,X,XM B V V v ,X,X,X,XX 1 7 7 7 7 7 @ 7 1 . X 1 X n C C g b <.1.Z 7             @ ,X,X,X,X,X,X,X,X,X,X,X,X,X,X,X",
",X,X,X,X,X,X,X,X,X,X,X,X,X,X,X,X,X,X,X,X,X,X,X,X,X> M V V n ,X,X,X,X,XX 1 7 7 7 7 7 < 5 1 @ 1 1 o 1 n 3     b >.1.<.N @           1 ,X,X,X,X,X,X,X,X,X,X,X,X,X,X",
",X,X,X,X,X,X,X,X,X,X,X,X,X,X,X,X,X,X,X,X,X,X,X,X,Xo @ v m v ,X,X,X,X,X, 1 7 7 7 7 7 1 7 3 1 @ @   @ @       @ 2 M >.1.:.X         o ,X,X,X,X,X,X,X,X,X,X,X,X,X,X",
",X,X,X,X,X,X,X,X,X,X,X,X,X,X,X,X,X,X,X,X,X,X,X,X@       1 ,X,X,X,X,X,X1 + @ @ > @ @ X @ @ @ @ @ o @ b +   o .   o < C ;.+           @ ,X,X,X,X,X,X,X,X,X,X,X,X,X",
",X,X,X,X,X,X,X,X,X,X,X,X,X,X,X,X,X,X,X,X,X,X,X,X.     o ,X,X,X,X,X,X,X7 @ X .   o + @ > 1 1 1 @ @ + 7 7   9 F +       X             1 ,X,X,X,X,X,X,X,X,X,X,X,X,X",
",X,X,X,X,X,X,X,X,X,X,X,X,X,X,X,X,X,X,X,X,X,X,X& F 8   @ ,X,X,X,X,X,X,X> ; ..t...| Y X @ @ @ @ @ @ ,X,Xb + 0 L #                   o ,X,X,X,X,X,X,X,X,X,X,X,X,X,X",
",X,X,X,X,X,X,X,X,X,X,X,X,X,X,X,X,X,X,X,X,X,X,X& K q + 6 ,X,X,X,X,X,Xm O U [. X.X.Xr..     o o o @ ,X,Xr % > % % .                 > ,X,X,X,X,X,X,X,X,X,X,X,X,X,X",
",X,X,X,X,X,X,X,X,X,X,X,X,X,X,X,X,X,X,X,X,X,X,X% * $ X ,X,X,X,X,X,XZ 7 . y. X X X|.Y         X @ % @ ,X,Xu & % #                 X ,X,X,X,X,X,X,X,X,X,X,X,X,X,X,X",
",X,X,X,X,X,X,X,X,X,X,X,X,X,X,X,X,X,X,X,X,X,X,X; % @ 2 ,X,X,X,X,X,XZ < e l.I.Q.].I.:       o 1 1 1 1 @ ,X,X` E 7 o               % ,X,X,X,X,X,X,X,X,X,X,X,X,X,X,X",
",X,X,X,X,X,X,X,X,X,X,X,X,X,X,X,X,X,X,X,X,X,X,X,Xx ! ,X,X,X,X,X,X5.7 1 ^ U.^ P e.d..       X 1 1 1 6 1 @ ,X,X,X,X,X; o + + @ . o ,X,X,X,X,X,X,X,X,X,X,X,X,X,X,X,X",
",X,X,X,X,X,X,X,X,X,X,X,X,X,X,X,X,X,X,X,X,X,X,X,X,X,X,X,X,X,X,X4.:.1 1 w.}.| d G.w.      o + 1 3 7 6 7 1 @ ,X,X,X,X,X,X,X,X,X,X,X,X,X,X,X,X,X,X,X,X,X,X,X,X,X,X,X",
",X,X,X,X,X,X,X,X,X,X,X,X,X,X,X,X,X,X,X,X,X,X,X,X,X,X,X,X,X,X,X;XM 6 : f.XXl.a.].Q o     o X @ 6 7 7 7 7 % ,X,X,X,X,X,X,X,X,X,X,X,X,X,X,X,X,X,X,X,X,X,X,X,X,X,X,X",
",X,X,X,X,X,X,X,X,X,X,X,X,X,X,X,X,X,X,X,X,X,X,X,X,X,X,X,X,X,X,X>Xn 7 : w.G._.[.}.P ,X@ + . @ 1 1 7 7 g 7 1 ,X,X,X,X,X,X,X,X,X,X,X,X,X,X,X,X,X,X,X,X,X,X,X,X,X,X,X",
",X,X,X,X,X,X,X,X,X,X,X,X,X,X,X,X,X,X,X,X,X,X,X,X,X,X,X,X,X,X,X;Xm 7 6 1 f d / w.d ,X,X@ + @ @ 5 7 v 7 5 1 ,X,X,X,X,X,X,X,X,X,X,X,X,X,X,X,X,X,X,X,X,X,X,X,X,X,X,X",
",X,X,X,X,X,X,X,X,X,X,X,X,X,X,X,X,X,X,X,X,X,X,X,X,X,X,X,X,X,X,X,Xb 6 c 7 1 > + ; ,X,X,X,X,XX > 1 1 7 7 > ,X,X,X,X,X,X,X,X,X,X,X,X,X,X,X,X,X,X,X,X,X,X,X,X,X,X,X,X",
",X,X,X,X,X,X,X,X,X,X,X,X,X,X,X,X,X,X,X,X,X,X,X,X,X,X,X,X,X,X,X,Xu , 4 5 1 , 1 ,X,X,X,X,X,X1 < 1 1 4 f Q ,X,X,X,X,X,X,X,X,X,X,X,X,X,X,X,X,X,X,X,X,X,X,X,X,X,X,X,X",
",X,X,X,X,X,X,X,X,X,X,X,X,X,X,X,X,X,X,X,X,X,X,X,X,X,X,X,X,X,X,X,XA.| a 1 1 1 ,X,X,X,X,X,X,X,X% < 1 Y D.g.,X,X,X,X,X,X,X,X,X,X,X,X,X,X,X,X,X,X,X,X,X,X,X,X,X,X,X,X",
",X,X,X,X,X,X,X,X,X,X,X,X,X,X,X,X,X,X,X,X,X,X,X,X,X,X,X,X,X,X,X,X$X{.d.,X,X,X,X,X,X,X,X,X,X,X,X,X,Xn.].y.,X,X,X,X,X,X,X,X,X,X,X,X,X,X,X,X,X,X,X,X,X,X,X,X,X,X,X,X",
",X,X,X,X,X,X,X,X,X,X,X,X,X,X,X,X,X,X,X,X,X,X,X,X,X,X,X,X,X,X,X,X-.e.| ,X,X,X,X,X,X,X,X,X,X,X,X,X,Xe h q ,X,X,X,X,X,X,X,X,X,X,X,X,X,X,X,X,X,X,X,X,X,X,X,X,X,X,X,X",
",X,X,X,X,X,X,X,X,X,X,X,X,X,X,X,X,X,X,X,X,X,X,X,X,X,X,X,X,X,X,X,X@ @ O ,X,X,X,X,X,X,X,X,X,X,X,X,X,X. O   X ,X,X,X,X,X,X,X,X,X,X,X,X,X,X,X,X,X,X,X,X,X,X,X,X,X,X,X",
",X,X,X,X,X,X,X,X,X,X,X,X,X,X,X,X,X,X,X,X,X,X,X,X,X,X,X,X,X,X,X@ X + O ,X,X,X,X,X,X,X,X,X,X,X,X,X,X,X,X1 > ,X,X,X,X,X,X,X,X,X,X,X,X,X,X,X,X,X,X,X,X,X,X,X,X,X,X,X",
",X,X,X,X,X,X,X,X,X,X,X,X,X,X,X,X,X,X,X,X,X,X,X,X,X,X,X,X,X,X,X,X,X,X,X,X,X,X,X,X,X,X,X,X,X,X,X,X,X,X,X,X,X,X,X,X,X,X,X,X,X,X,X,X,X,X,X,X,X,X,X,X,X,X,X,X,X,X,X,X",
",X,X,X,X,X,X,X,X,X,X,X,X,X,X,X,X,X,X,X,X,X,X,X,X,X,X,X,X,X,X,X,X,X,X,X,X,X,X,X,X,X,X,X,X,X,X,X,X,X,X,X,X,X,X,X,X,X,X,X,X,X,X,X,X,X,X,X,X,X,X,X,X,X,X,X,X,X,X,X,X",
",X,X,X,X,X,X,X,X,X,X,X,X,X,X,X,X,X,X,X,X,X,X,X,X,X,X,X,X,X,X,X,X,X,X,X,X,X,X,X,X,X,X,X,X,X,X,X,X,X,X,X,X,X,X,X,X,X,X,X,X,X,X,X,X,X,X,X,X,X,X,X,X,X,X,X,X,X,X,X,X",
",X,X,X,X,X,X,X,X,X,X,X,X,X,X,X,X,X,X,X,X,X,X,X,X,X,X,X,X,X,X,X,X,X,X,X,X,X,X,X,X,X,X,X,X,X,X,X,X,X,X,X,X,X,X,X,X,X,X,X,X,X,X,X,X,X,X,X,X,X,X,X,X,X,X,X,X,X,X,X,X",
",X,X,X,X,X,X,X,X,X,X,X,X,X,X,X,X,X,X,X,X,X,X,X,X,X,X,X,X,X,X,X,X,X,X,X,X,X,X,X,X,X,X,X,X,X,X,X,X,X,X,X,X,X,X,X,X,X,X,X,X,X,X,X,X,X,X,X,X,X,X,X,X,X,X,X,X,X,X,X,X",
",X,X,X,X,X,X,X,X,X,X,X,X,X,X,X,X,X,X,X,X,X,X,X,X,X,X,X,X,X,X,X,X,X,X,X,X,X,X,X,X,X,X,X,X,X,X,X,X,X,X,X,X,X,X,X,X,X,X,X,X,X,X,X,X,X,X,X,X,X,X,X,X,X,X,X,X,X,X,X,X",
",X,X,X,X,X,X,X,X,X,X,X,X,X,X,X,X,X,X,X,X,X,X,X,X,X,X,X,X,X,X,X,X,X,X,X,X,X,X,X,X,X,X,X,X,X,X,X,X,X,X,X,X,X,X,X,X,X,X,X,X,X,X,X,X,X,X,X,X,X,X,X,X,X,X,X,X,X,X,X,X",
",X,X,X,X,X,X,X,X,X,X,X,X,X,X,X,X,X,X,X,X,X,X,X,X,X,X,X,X,X,X,X,X,X,X,X,X,X,X,X,X,X,X,X,X,X,X,X,X,X,X,X,X,X,X,X,X,X,X,X,X,X,X,X,X,X,X,X,X,X,X,X,X,X,X,X,X,X,X,X,X",
",X,X,X,X,X,X,X,X,X,X,X,X,X,X,X,X,X,X,X,X,X,X,X,X,X,X,X,X,X,X,X,X,X,X,X,X,X,X,X,X,X,X,X,X,X,X,X,X,X,X,X,X,X,X,X,X,X,X,X,X,X,X,X,X,X,X,X,X,X,X,X,X,X,X,X,X,X,X,X,X"
};
