/* XPM */
static char *result[] = {
/* columns rows colors chars-per-pixel */
"80 80 202 2 ",
"   c #020202",
".  c #0A0505",
"X  c #0C0906",
"o  c #050408",
"O  c #09050A",
"+  c #060909",
"@  c #0B0B0B",
"#  c #120406",
"$  c #140E06",
"%  c #130C0B",
"&  c #1D0D0D",
"*  c #1C0806",
"=  c #171007",
"-  c #1B1105",
";  c #13110D",
":  c #1C130B",
">  c #0E0E11",
",  c #110D10",
"<  c #0E1012",
"1  c #131313",
"2  c #1B1513",
"3  c #1A1916",
"4  c #13161A",
"5  c #181718",
"6  c #16181B",
"7  c #1A1A1A",
"8  c #230406",
"9  c #2D0A09",
"0  c #3A0908",
"q  c #22150A",
"w  c #251B0E",
"e  c #2A1D0D",
"r  c #221612",
"t  c #231B15",
"y  c #291D12",
"u  c #221A1B",
"i  c #2E1415",
"p  c #311716",
"a  c #2E210C",
"s  c #33230E",
"d  c #3D260D",
"f  c #2F2111",
"g  c #25231D",
"h  c #332312",
"j  c #3A2513",
"k  c #362913",
"l  c #3C2B14",
"z  c #352A19",
"x  c #3A301A",
"c  c #201F21",
"v  c #1F2020",
"b  c #242423",
"n  c #292925",
"m  c #2B2B2A",
"M  c #282826",
"N  c #32342E",
"B  c #343532",
"V  c #373833",
"C  c #383A35",
"Z  c #3C3C3C",
"A  c #400203",
"S  c #490A0C",
"D  c #5C0202",
"F  c #560A0A",
"G  c #570507",
"H  c #670507",
"J  c #7B0302",
"K  c #750F12",
"L  c #641214",
"P  c #452C0D",
"I  c #522F0B",
"U  c #432C15",
"Y  c #4B2E11",
"T  c #443115",
"R  c #4D3314",
"E  c #4C3718",
"W  c #543513",
"Q  c #5D3C14",
"!  c #543B1A",
"~  c #5C3E1A",
"^  c #573712",
"/  c #633D13",
"(  c #623B18",
")  c #65380D",
"_  c #473B2F",
"`  c #593E20",
"'  c #5A4018",
"]  c #63451C",
"[  c #6A451C",
"{  c #6A4C1E",
"}  c #674517",
"|  c #744916",
" . c #734B1B",
".. c #7B4E1A",
"X. c #754813",
"o. c #6F511F",
"O. c #73521D",
"+. c #7C571E",
"@. c #644620",
"#. c #6B4C21",
"$. c #754D21",
"%. c #745321",
"&. c #7A5423",
"*. c #775823",
"=. c #66523D",
"-. c #71583C",
";. c #413E41",
":. c #454445",
">. c #4E4E4D",
",. c #544440",
"<. c #545454",
"1. c #5B5B5B",
"2. c #655C57",
"3. c #72655D",
"4. c #69696C",
"5. c #656466",
"6. c #7F7262",
"7. c #767675",
"8. c #910207",
"9. c #884D0E",
"0. c #834D14",
"q. c #814F1C",
"w. c #845115",
"e. c #85541C",
"r. c #88551B",
"t. c #925915",
"y. c #945D1A",
"u. c #9A5E1B",
"i. c #9D5A10",
"p. c #A55C13",
"a. c #9D621F",
"s. c #A66115",
"d. c #A4651A",
"f. c #AB6B1E",
"g. c #AD6614",
"h. c #BE6C17",
"j. c #B46817",
"k. c #BE761E",
"l. c #BB761B",
"z. c #825B25",
"x. c #885A22",
"c. c #8A6323",
"v. c #8C6529",
"b. c #956B2A",
"n. c #986A24",
"m. c #96712A",
"M. c #A56725",
"N. c #B26C21",
"B. c #B86F20",
"V. c #A7772B",
"C. c #B67322",
"Z. c #A06B30",
"A. c #A77435",
"S. c #B37E33",
"D. c #C16E19",
"F. c #C47215",
"G. c #C9771A",
"H. c #D27715",
"J. c #D77C16",
"K. c #D87E14",
"L. c #DD7F1A",
"P. c #D57E1C",
"I. c #C97C23",
"U. c #D27E24",
"Y. c #806B58",
"T. c #967751",
"R. c #8A7F6B",
"E. c #BE882D",
"W. c #BB8836",
"Q. c #DB831C",
"!. c #D1801D",
"~. c #E4861A",
"^. c #EC8A1A",
"/. c #CF8121",
"(. c #D38222",
"). c #DB8623",
"_. c #DC8923",
"`. c #C38D37",
"'. c #CB9637",
"]. c #E48C23",
"[. c #EB8F24",
"{. c #E28622",
"}. c #EC9125",
"|. c #E89225",
" X c #F39524",
".X c #F59925",
"XX c #F99926",
"oX c #E49632",
"OX c #E99A39",
"+X c #BC8643",
"@X c #B39065",
"#X c #B89B73",
"$X c #CC9752",
"%X c #CC8F46",
"&X c #F3A142",
"*X c #E8A751",
"=X c #CFA173",
"-X c #E2AA62",
";X c #838383",
":X c #928A86",
">X c #A0A0A0",
",X c None",
/* pixels */
",X,X,X,X,X,X,X,X,X,X,X,X,X,X,X,X,X,X,X,X,X,X,X,X,X,X,X,X,X,X,X,X,X,X,X,X,X,X,X,X,X,X,X,X,X,X,X,X,X,X,X,X,X,X,X,X,X,X,X,X,X,X,X,X,X,X,X,X,X,X,X,X,X,X,X,X,X,X,X,X",
",X,X,X,X,X,X,X,X,X,X,X,X,X,X,X,X,X,X,X,X,X,X,X,X,X,X,X,X,X,X,X,X,X,X,X,X,X,X,X,X,X,X,X,X,X,X,X,X,X,X,X,X,X,X,X,X,X,X,X,X,X,X,X,X,X,X,X,X,X,X,X,X,X,X,X,X,X,X,X,X",
",X,X,X,X,X,X,X,X,X,X,X,X,X,X,X,X,X,X,X,X,X,X,X,X,X,X,X,X,X,X,X,X,X,X,X,X,X,X,X,X,X,X,X,X,X,X,X,X,X,X,X,X,X,X,X,X,X,X,X,X,X,X,X,X,X,X,X,X,X,X,X,X,X,X,X,X,X,X,X,X",
",X,X,X,X,X,X,X,X,X,X,X,X,X,X,X,X,X,X,X,X,X,X,X,X,X,X,X,X,X,X,X,X,X,X,X,X,X,X,X,X,X,X,X,X,X,X,X,X,X,X,X,X,X,X,X,X,X,X,X,X,X,X,X,X,X,X,X,X,X,X,X,X,X,X,X,X,X,X,X,X",
",X,X,X,X,X,X,X,X,X,X,X,X,X,X,X,X,X,X,X,X,X,X,X,X,X,X,X,X,X,X,X,X,X,X,X,X,X,X,X,X,X,X,X,X,X,X,X,X,X,X,X,X,X,X,X,X,X,X,X,X,X,X,X,X,X,X,X,X,X,X,X,X,X,X,X,X,X,X,X,X",
",X,X,X,X,X,X,X,X,X,X,X,X,X,X,X,X,X,X,X,X,X,X,X,X,X,X,X,X,X,X,X,X,X,X,X,X,X,X,X,X,X,X,X,X,X,X,X,X,X,X,X,X,X,X,X,X,X,X,X,X,X,X,X,X,X,X,X,X,X,X,X,X,X,X,X,X,X,X,X,X",
",X,X,X,X,X,X,X,X,X,X,X,X,X,X,X,X,X,X,X,X,X,X,X,X,X,X,X,X,X,X,X,X,X,X,X,X,X,X,X,X,X,X,X,X,X,X,X,X,X,X,X,X,X,X,X,X,X,X,X,X,X,X,X,X,X,X,X,X,X,X,X,X,X,X,X,X,X,X,X,X",
",X,X,X,X,X,X,X,X,X,X,X,X,X,X,X,X,X,X,X,X,X,X,X,X,X,X,XV.{ v.n.`.,X,X,X,X,X,X,X,X,X,X,X,X,X,X,X,X,X,X,X,X,X,X,X,X,X,X,X,X,X,X,X,X,X,X,X,X,X,X,X,X,X,X,X,X,X,X,X,X",
",X,X,X,X,X,X,X,X,X,X,X,X,X,X,X,X,X,X,X,X,X,X,X,X,X,XW.l y f % R V.,X,X,X,X,X,X,X,X,X,X,X,X,X,X,X,X,X,X,X,X,X,X,X,X,X,X,X,X,X,X,X,X,X,X,X,X,X,X,X,X,X,X,X,X,X,X,X",
",X,X,X,X,X,X,X,X,X,X,X,X,X,X,X,X,X,X,X,X,X,X,X,X,X,X@.O l #     t m.,X,X,X,X,X,X,X,X,X,X,X,X,X,X,X,X,X,X,X,X,X,X,X,X,X,X,X,X,X,X,X,X,X,X,X,X,X,X,X,X,X,X,X,X,X,X",
",X,X,X,X,X,X,X,X,X,X,X,X,X,X,X,X,X,X,X,X,X,X,X,X,XE.y % j       y ] S.,X,X,X,X,X,X,X,X,X,X,X,X,X,X,X,X,X,X,X,X,X,X,X,X,X,X,X,X,X,X,X,X,X,X,X,X,X,X,X,X,X,X,X,X,X",
",X,X,X,X,X,X,X,X,X,X,X,X,X,X,X,X,X,X,X,X,X,X,X,X,X,XO.R s     h l % U `.,X,X,X,X,X,X,X,X,X,X,X,X,X,X,X,X,X,X,X,X,X,X,X,X,X,X,X,X,X,X,X,X,X,X,X,X,X,X,X,X,X,X,X,X",
",X,X,X,X,X,X,X,X,X,X,X,X,X,X,X,X,X,X,X,X,X,X,X,X,X,X'.S.z.w % U .     O.,X,X,X,X,X,X,X,X,X,X,X,X,X,X,X,X,X,X,X,X,X,X,X,X,X,X,X,X,X,X,X,X,X,X,X,X,X,X,X,X,X,X,X,X",
",X,X,X,X,X,X,X,X,X,X,X,X,X,X,X,X,X,X,X,X,X,X,X,X,X,XO.: ..m.o.2       w &.R e.F._._.$X@XR.>.,X,X,X,X,X,X,X,X,X,X,X,X,X,X,X,X,X,X,X,X,X,X,X,X,X,X,X,X,X,X,X,X,X,X",
",X,X,X,X,X,X,X,X,X,X,X,X,X,X,X,X,X,X,X,X,X,X,X,X,X`.y - U t x.{ X   o o 2 ~ e.n.N./.}.XXOX-X#X@X,X,X,X,X,X,X,X,X,X,X,X,X,X,X,X,X,X,X,X,X,X,X,X,X,X,X,X,X,X,X,X,X",
",X,X,X,X,X,X,X,X,X,X,X,X,X,X,X,X,X,X,X,X,Xz.$.b.m.`.@.T ;   % %.%.% o 1 7 7 6 7 7 x #.f.^..XOX*X=XY.,X,X,X,X,X,X,X,X,X,X,X,X,X,X,X,X,X,X,X,X,X,X,X,X,X,X,X,X,X,X",
",X,X,X,X,X,X,X,X,X,X,X,X,X,X,X,X,X,X,X,X+.X h w X h &.A.] =   % { U > 7 7 7 7 7 7 7 7 u ! N.!.(.oX$X3.,X,X,X,X,X,X,X,X,X,X,X,X,X,X,X,X,X,X,X,X,X,X,X,X,X,X,X,X,X",
",X,X,X,X,X,X,X,X,X,X,X,X,X,X,X,X,X,X,X,Xj O U X +   ; ' &.v.T + O 1 7 7 7 7 7 7 7 7 7 3 4 z f.!.U.OXT.4.,X,X,X,X,X,X,X,X,X,X,X,X,X,X,X,X,X,X,X,X,X,X,X,X,X,X,X,X",
",X,X,X,X,X,X,X,X,X,X,X,X,X,X,X,X,X,X,XV.% : d       a : . f e.%.: 4 7 7 7 7 7 7 7 7 7 4 4 1 ' /.U.OX%X1.5.,X,X,X,X,X,X,X,X,X,X,X,X,X,X,X,X,X,X,X,X,X,X,X,X,X,X,X",
",X,X,X,X,X,X,X,X,X,X,X,X,X,X,X,X,X,X,Xb.+ : l       l =     . k r 7 7 2 u 7 7 7 7 7 7 5 5 5 t N.I.M.A.,.4.,X,X,X,X,X,X,X,X,X,X,X,X,X,X,X,X,X,X,X,X,X,X,X,X,X,X,X",
",X,X,X,X,X,X,X,X,X,X,X,X,X,X,X,X,X,X,XA.= = k       k X       . 6 7 u 2 6 7 7 7 7 7 4 5 1 5 4 } y.& @ 2 B 7.,X,X,X,X,X,X,X,X,X,X,X,X,X,X,X,X,X,X,X,X,X,X,X,X,X,X",
",X,X,X,X,X,X,X,X,X,X,X,X,X,X,X,X,X,X,X,XO.Q *.] o.{ c.] ~ T e , j ..e.( t 4 7 7 7 7 5 5 4 5 1 q -       o :.,X,X,X,X,X,X,X,X,X,X,X,X,X,X,X,X,X,X,X,X,X,X,X,X,X,X",
",X,X,X,X,X,X,X,X,X,X,X,X,X,X,X,X,X,X,X,X,X,X,X'.O.} } } { O.&.U f.].].B.} 2 7 7 6 3 3 5 1 5 1             1 b ,X,X,X,X,X,X,X,X,X,X,X,X,X,X,X,X,X,X,X,X,X,X,X,X,X",
",X,X,X,X,X,X,X,X,X,X,X,X,X,X,X,X,X,X,X,X,X,X,Xv.X s :       O e.}. X.X XN.z 6 7 7 3 5 4 5 5 .               . ,X,X,X,X,X,X,X,X,X,X,X,X,X,X,X,X,X,X,X,X,X,X,X,X,X",
",X,X,X,X,X,X,X,X,X,X,X,X,X,X,X,X,X,X,X,X,X,X,Xo.  h :       - C..X X}.XXU.( 2 5 6 3 4 1 5 +             o # 9 ,X,X,X,X,X,X,X,X,X,X,X,X,X,X,X,X,X,X,X,X,X,X,X,X,X",
",X,X,X,X,X,X,X,X,X,X,X,X,X,X,X,X,X,X,X,X,X,X,X#.  r h q s !  ._..X X X X[.0.2 7 3 3 5 5 ; * #           # H A ,X,X,X,X,X,X,X,X,X,X,X,XF.D.,X,X,X,X,X,X,X,X,X,X,X",
",X,X,X,X,X,X,X,X,X,X,X,X,X,X,X,X,X,X,X,X,X,X,XV.' e.V.c.x.%...]. X X X X}.e.5 5 7 5 3 1 # D J J H D H J 8.H , , ,X,X,X,X,X,X,X,X,Xh.~.K.j.,X,X,X,X,X,X,X,X,X,X,X",
",X,X,X,X,X,X,X,X,X,X,X,X,X,X,X,X,X,X,X,X,X,X,XE.c.E ! a . o y (..X.X X X]...5 3 6 5 3 @   . 8 0 D D D A 8 O @ % ,X,X,X,X,X,X,Xg.H.~.D.,X,X,X,X,X,X,X,X,X,X,X,X,X",
",X,X,X,X,X,X,X,X,X,X,X,X,X,X,X,X,X,X,X,X,Xb.U l :   a = o   $ B. X X X X(.~ 1 7 6 5 1 +                     @ > ,X,X,X,X,Xh.~.~.H.,X,X,X,X,X,X,X,X,X,X,X,X,X,X,X",
",X,X,X,X,X,X,X,X,X,X,X,X,X,X,X,X,X,X,X,X,Xl   e :   w t o   X | ]. XXX}.d.k 5 7 3 5 >                       X > ,X,X,Xg.K.^.K.j.,X,X,X,X,X,X,X,X,X,X,X,X,X,X,X,X",
",X,X,X,X,X,X,X,X,X,X,X,X,X,X,X,X,X,X,X,X,Xa   h w   X x + U &.j u.(._.N.( 7 7 7 3 4 % $ - - X     > 5 5 : } h > ,Xs.H.^.~.F.,X,X,X,X,X,X,X,X,X,X,X,X,X,X,X,X,X,X",
",X,X,X,X,X,X,X,X,X,X,X,X,X,X,X,X,X,X,X,X,XT   q l +   T v.W.,X% h [ [ R t 5 7 7 3 1 : / X.Y - @ 1 1 > 7 n ! 2 = t.~.^.H.,X,X,X,X,X,X,X,X,X,X,X,X,X,X,X,X,X,X,X,X",
",X,X,X,X,X,X,X,X,X,X,X,X,X,X,X,X,X,X,X,X,Xv.>   l l ' W.,X,X,X,X1 7 7 2 7 7 7 7 3 1 + % % X @ < + X @ 1 3 1 > ; p.P.,X,X,X,X,X,X,X,X,X,X,X,X,X,X,X,X,X,X,X,X,X,X",
",X,X,X,X,X,X,X,X,X,X,X,X,X,X,X,X,X,X,X,X,X,X%.E &.E.,X,X,X,X,X,X1 1 7 7 7 7 7 7 7 ; + + @ > @ @ + + @ , > < > r 9.,X,X,X,X,X,X,X,X,X,X,X,X,X,X,X,X,X,X,X,X,X,X,X",
",X,X,X,X,X,X,X,X,X,X,X,X,X,X,X,X,X,X,X,X,X,X,X,X,X,X,X,X,X,X,X,X,X1 7 7 7 7 7 7 5 1 . @ @ @ @ @ + @ @ 1 1 ; > r 0.,X,X,X,X,X,X,X,X,X,X,X,X,X,X,X,X,X,X,X,X,X,X,X",
",X,X,X,X,X,X,X,X,X,X,X,X,X,X,X,X,X,X,X,X,X,X,X,X,X,X,X,X,X,X,X,X,X,X1 7 7 7 7 7 5 1 + + @ @ @ @ % @ + 5 7 @ 1 2 ,X,X,X,X,X,X,X,X,X,X,X,X,X,X,X,X,X,X,X,X,X,X,X,X",
",X,X,X,X,X,X,X,X,X,X,X,X,X,X,X,X,X,X,X,X,X,X,X,X,X,X,X,X,X,X,X,X,X,X@ @ 4 7 7 7 7 1 + + + @ @ @ @ @ @ 7 3 @ 1 : ) ,X,X,X,X,X,X,X,X,X,X,X,X,X,X,X,X,X,X,X,X,X,X,X",
",X,X,X,X,X,X,X,X,X,X,X,X,X,X,X,X,X,X,X,X,X,X,X,X,X,X,X,X,X,X,X,X,X1 @ 1 5 1 7 5 3 1 . + > % @ @ @ @ @ 5 1 + 4 t i.,X,X,X,X,X,X,X,X,X,X,X,X,X,X,X,X,X,X,X,X,X,X,X",
",X,X,X,X,X,X,X,X,X,X,X,X,X,X,X,X,X,X,X,X,X,X,X,X,X,X,X,X,X,X,X,Xm @ 5 b V @ 1 7 5 1 + + % + + > > @ @ 1 b c < w F.,X,X,X,X,X,X,X,X,X,X,X,X,X,X,X,X,X,X,X,X,X,X,X",
",X,X,X,X,X,X,X,X,X,X,X,X,X,X,X,X,X,X,X,X,X,X,X,X,X,X,X,X,X,X,X4.4 1 7 5 B +   @ 5 1   + X + . o + 1 5 n C ;._ ( J.D.,X,X,X,X,X,X,X,X,X,X,X,X,X,X,X,X,X,X,X,X,X,X",
",X,X,X,X,X,X,X,X,X,X,X,X,X,X,X,X,X,X,X,X,X,X,X,X,X,X,X,X,X,X:X2.. < 7 7 Z +     o @             o 1 c m Z _ $.G.G.s.,X,X,X,X,X,X,X,X,X,X,X,X,X,X,X,X,X,X,X,X,X,X",
",X,X,X,X,X,X,X,X,X,X,X,X,X,X,X,X,X,X,X,X,X,X,X,X,X,X,X,X@ ,.+X( M ; 3 b 7                         1 c b B ,X,Xp.,X,X,X,X,X,X,X,X,X,X,X,X,X,X,X,X,X,X,X,X,X,X,X,X",
",X,X,X,X,X,X,X,X,X,X,X,X,X,X,X,X,X,X,X,X,X,X,X,X,X,X,Xo   q I n C g 7 >           +             7 5 5 M ,X,X,X,X,X,X,X,X,X,X,X,X,X,X,X,X,X,X,X,X,X,X,X,X,X,X,X,X",
",X,X,X,X,X,X,X,X,X,X,X,X,X,X,X,X,X,X,X,X,X,X,X,X,X.         + V C V M +           o       + < < N b 4 ,X,X,X,X,X,X,X,X,X,X,X,X,X,X,X,X,X,X,X,X,X,X,X,X,X,X,X,X,X",
",X,X,X,X,X,X,X,X,X,X,X,X,X,X,X,X,X,X,X,X,X,X,X@             3 C V N 1 +         ; 5 < + % j z B V B 7 ,X,X,X,X,X,X,X,X,X,X,X,X,X,X,X,X,X,X,X,X,X,X,X,X,X,X,X,X,X",
",X,X,X,X,X,X,X,X,X,X,X,X,X,X,X,X,X,X,X,X,X1 + o           . n N B g +   + . + 1 7 7 2 > 1 ,X7 N V V b ,X,X,X,X,X,X,X,X,X,X,X,X,X,X,X,X,X,X,X,X,X,X,X,X,X,X,X,X,X",
",X,X,X,X,X,X,X,X,X,X,X,X,X,X,X,X,X,X,Xm 1 +               3 C N n < & 0 X % > 3 7 7 7 2 F ,X,Xb V V n v ,X,X,X,X,X,X,X,X,X,X,X,X,X,X,X,X,X,X,X,X,X,X,X,X,X,X,X,X",
",X,X,X,X,X,X,X,X,X,X,X,X,X,X,X,X,Xb ; + 1 @ .         @ < N C C 7 + 2 F 5 1 1 7 7 7 7 2 H ,X,X4 n N V g ,X,X,X,X,X,X,X,X,X,X,X,X,X,X,X,X,X,X,X,X,X,X,X,X,X,X,X,X",
",X,X,X,X,X,X,X,X,X,X,X,X,X,X,X,X1       . < + +   @ m B n C C m .   @ i u 1 7 7 7 7 7 2 H ,X,X,Xg N V N 7 ,X,X,X,X,X,X,X,X,X,X,X,X,X,X,X,X,X,X,X,X,X,X,X,X,X,X,X",
",X,X,X,X,X,X,X,X,X,X,X,X,X,X,Xb           o . + g :.<.m N C C 5 .   + p t > 7 7 7 7 7 5 X ,X,X,X,XN C V m ,X,X,X,X,X,X,X,X,X,X,X,X,X,X,X,X,X,X,X,X,X,X,X,X,X,X,X",
",X,X,X,X,X,X,X,X,X,X,X,X,X,X,X@             5 Z 1.<.b 7 C C n + 1 + o 1 4 % 7 7 7 7 7 1 + ,X,X,X,Xv C B B b ,X,X,X,X,X,X,X,X,X,X,X,X,X,X,X,X,X,X,X,X,X,X,X,X,X,X",
",X,X,X,X,X,X,X,X,X,X,X,X,X,X1           @ N <.1.>.b   o 5 n 1   @ 5 @ < 5 1 7 7 7 7 7 1 @ ,X,X,X,X,Xn C C b 1 ,X,X,X,X,X,X,X,X,X,X,X,X,X,X,X,X,X,X,X,X,X,X,X,X,X",
",X,X,X,X,X,X,X,X,X,X,X,X,X,Xo         @ :.1.>.b 1 X       @ @ o @ < 1 1 7 > 7 7 7 7 5 1 + ,X,X,X,X,X7 N b + + ,X,X,X,X,X,X,X,X,X,X,X,X,X,X,X,X,X,X,X,X,X,X,X,X,X",
",X,X,X,X,X,X,X,X,X,X,X,X,X@           o :.B 1     X     + b <   + % @ ; < + @ @ > @ @ + 5 ,X,X,X,X,X,X1       @ ,X,X,X,X,X,X,X,X,X,X,X,X,X,X,X,X,X,X,X,X,X,X,X,X",
",X,X,X,X,X,X,X,X,X,X,X,X,X1             @ o     O F 9   7 7 + @ ; 4 1 < % @ .   o . + @ 7 ,X,X,X,X,X,X,X      o ,X,X,X,X,X,X,X,X,X,X,X,X,X,X,X,X,X,X,X,X,X,X,X,X",
",X,X,X,X,X,X,X,X,X,X,X,X,X,X.                   # L 0 + b ,X,X% + @ % + X + R X...y...% @ ,X,X,X,X,X,X,X@   8 F : ,X,X,X,X,X,X,X,X,X,X,X,X,X,X,X,X,X,X,X,X,X,X,X",
",X,X,X,X,X,X,X,X,X,X,X,X,X,X>                 . % % > @ r ,X,X+ o o   +   o r..X.X X|.U   m ,X,X,X,X,X,X1 + 9 K & ,X,X,X,X,X,X,X,X,X,X,X,X,X,X,X,X,X,X,X,X,X,X,X",
",X,X,X,X,X,X,X,X,X,X,X,X,X,X,X.                 % % & t ,X,X; @ > .         Y }..X X Xy.. v Z ,X,X,X,X,X,XX > * % ,X,X,X,X,X,X,X,X,X,X,X,X,X,X,X,X,X,X,X,X,X,X,X",
",X,X,X,X,X,X,X,X,X,X,X,X,X,X,X>               . 2 T ` ,X,X@ < 4 1 > +       = I.{.Q.I.k.e > Z ,X,X,X,X,X,X3 @ % % ,X,X,X,X,X,X,X,X,X,X,X,X,X,X,X,X,X,X,X,X,X,X,X",
",X,X,X,X,X,X,X,X,X,X,X,X,X,X,X,XX + + + o o > ,X,X,X,X,X% 1 3 5 3 1 .       X d.w.P W /.^ > 7 5.,X,X,X,X,X,X! x ,X,X,X,X,X,X,X,X,X,X,X,X,X,X,X,X,X,X,X,X,X,X,X,X",
",X,X,X,X,X,X,X,X,X,X,X,X,X,X,X,X,X,X,X,X,X,X,X,X,X,X,X, 1 7 5 3 3 1 .         0.G.d | .Xw.1 4 :.4.,X,X,X,X,X,X,X,X,X,X,X,X,X,X,X,X,X,X,X,X,X,X,X,X,X,X,X,X,X,X,X",
",X,X,X,X,X,X,X,X,X,X,X,X,X,X,X,X,X,X,X,X,X,X,X,X,X,X,X% 7 v 7 7 5 1 + o     + Q ^.a.l..Xf.; 3 M ;X,X,X,X,X,X,X,X,X,X,X,X,X,X,X,X,X,X,X,X,X,X,X,X,X,X,X,X,X,X,X,X",
",X,X,X,X,X,X,X,X,X,X,X,X,X,X,X,X,X,X,X,X,X,X,X,X,X,X,X5 7 7 7 7 5 @ @ O + X ,XP ].}._.G.w.: 7 n >X,X,X,X,X,X,X,X,X,X,X,X,X,X,X,X,X,X,X,X,X,X,X,X,X,X,X,X,X,X,X,X",
",X,X,X,X,X,X,X,X,X,X,X,X,X,X,X,X,X,X,X,X,X,X,X,X,X,X,X1 3 v v 7 1 > @ + @ ,X,Xd w.} l y 1 7 7 m ;X,X,X,X,X,X,X,X,X,X,X,X,X,X,X,X,X,X,X,X,X,X,X,X,X,X,X,X,X,X,X,X",
",X,X,X,X,X,X,X,X,X,X,X,X,X,X,X,X,X,X,X,X,X,X,X,X,X,X,X,X; 6 7 7 1 @ + ,X,X,X,X,X; + @ 4 7 c 5 b ,X,X,X,X,X,X,X,X,X,X,X,X,X,X,X,X,X,X,X,X,X,X,X,X,X,X,X,X,X,X,X,X",
",X,X,X,X,X,X,X,X,X,X,X,X,X,X,X,X,X,X,X,X,X,X,X,X,X,X,X,XQ f 4 4 1 1 1 ,X,X,X,X,X,X1 1 1 2 1 1 7 ,X,X,X,X,X,X,X,X,X,X,X,X,X,X,X,X,X,X,X,X,X,X,X,X,X,X,X,X,X,X,X,X",
",X,X,X,X,X,X,X,X,X,X,X,X,X,X,X,X,X,X,X,X,X,X,X,X,X,X,X,Xf.G.Y > 1 @ ,X,X,X,X,X,X,X,X1 1 1 s  .A.,X,X,X,X,X,X,X,X,X,X,X,X,X,X,X,X,X,X,X,X,X,X,X,X,X,X,X,X,X,X,X,X",
",X,X,X,X,X,X,X,X,X,X,X,X,X,X,X,X,X,X,X,X,X,X,X,X,X,X,X,Xy._.a.,X,X,X,X,X,X,X,X,X,X,X,X,X,XM.L.$X,X,X,X,X,X,X,X,X,X,X,X,X,X,X,X,X,X,X,X,X,X,X,X,X,X,X,X,X,X,X,X,X",
",X,X,X,X,X,X,X,X,X,X,X,X,X,X,X,X,X,X,X,X,X,X,X,X,X,X,X,Xq s e ,X,X,X,X,X,X,X,X,X,X,X,X,X,XX.r.-.,X,X,X,X,X,X,X,X,X,X,X,X,X,X,X,X,X,X,X,X,X,X,X,X,X,X,X,X,X,X,X,X",
",X,X,X,X,X,X,X,X,X,X,X,X,X,X,X,X,X,X,X,X,X,X,X,X,X,X,X+ o + . ,X,X,X,X,X,X,X,X,X,X,X,X,X,XO @ @ ,X,X,X,X,X,X,X,X,X,X,X,X,X,X,X,X,X,X,X,X,X,X,X,X,X,X,X,X,X,X,X,X",
",X,X,X,X,X,X,X,X,X,X,X,X,X,X,X,X,X,X,X,X,X,X,X,X,X,X,XO 1 ,X,X,X,X,X,X,X,X,X,X,X,X,X,X,X,XO + + @ ,X,X,X,X,X,X,X,X,X,X,X,X,X,X,X,X,X,X,X,X,X,X,X,X,X,X,X,X,X,X,X",
",X,X,X,X,X,X,X,X,X,X,X,X,X,X,X,X,X,X,X,X,X,X,X,X,X,X,X,X,X,X,X,X,X,X,X,X,X,X,X,X,X,X,X,X,X,X,X,X,X,X,X,X,X,X,X,X,X,X,X,X,X,X,X,X,X,X,X,X,X,X,X,X,X,X,X,X,X,X,X,X",
",X,X,X,X,X,X,X,X,X,X,X,X,X,X,X,X,X,X,X,X,X,X,X,X,X,X,X,X,X,X,X,X,X,X,X,X,X,X,X,X,X,X,X,X,X,X,X,X,X,X,X,X,X,X,X,X,X,X,X,X,X,X,X,X,X,X,X,X,X,X,X,X,X,X,X,X,X,X,X,X",
",X,X,X,X,X,X,X,X,X,X,X,X,X,X,X,X,X,X,X,X,X,X,X,X,X,X,X,X,X,X,X,X,X,X,X,X,X,X,X,X,X,X,X,X,X,X,X,X,X,X,X,X,X,X,X,X,X,X,X,X,X,X,X,X,X,X,X,X,X,X,X,X,X,X,X,X,X,X,X,X",
",X,X,X,X,X,X,X,X,X,X,X,X,X,X,X,X,X,X,X,X,X,X,X,X,X,X,X,X,X,X,X,X,X,X,X,X,X,X,X,X,X,X,X,X,X,X,X,X,X,X,X,X,X,X,X,X,X,X,X,X,X,X,X,X,X,X,X,X,X,X,X,X,X,X,X,X,X,X,X,X",
",X,X,X,X,X,X,X,X,X,X,X,X,X,X,X,X,X,X,X,X,X,X,X,X,X,X,X,X,X,X,X,X,X,X,X,X,X,X,X,X,X,X,X,X,X,X,X,X,X,X,X,X,X,X,X,X,X,X,X,X,X,X,X,X,X,X,X,X,X,X,X,X,X,X,X,X,X,X,X,X",
",X,X,X,X,X,X,X,X,X,X,X,X,X,X,X,X,X,X,X,X,X,X,X,X,X,X,X,X,X,X,X,X,X,X,X,X,X,X,X,X,X,X,X,X,X,X,X,X,X,X,X,X,X,X,X,X,X,X,X,X,X,X,X,X,X,X,X,X,X,X,X,X,X,X,X,X,X,X,X,X",
",X,X,X,X,X,X,X,X,X,X,X,X,X,X,X,X,X,X,X,X,X,X,X,X,X,X,X,X,X,X,X,X,X,X,X,X,X,X,X,X,X,X,X,X,X,X,X,X,X,X,X,X,X,X,X,X,X,X,X,X,X,X,X,X,X,X,X,X,X,X,X,X,X,X,X,X,X,X,X,X",
",X,X,X,X,X,X,X,X,X,X,X,X,X,X,X,X,X,X,X,X,X,X,X,X,X,X,X,X,X,X,X,X,X,X,X,X,X,X,X,X,X,X,X,X,X,X,X,X,X,X,X,X,X,X,X,X,X,X,X,X,X,X,X,X,X,X,X,X,X,X,X,X,X,X,X,X,X,X,X,X",
",X,X,X,X,X,X,X,X,X,X,X,X,X,X,X,X,X,X,X,X,X,X,X,X,X,X,X,X,X,X,X,X,X,X,X,X,X,X,X,X,X,X,X,X,X,X,X,X,X,X,X,X,X,X,X,X,X,X,X,X,X,X,X,X,X,X,X,X,X,X,X,X,X,X,X,X,X,X,X,X"
};
