/* XPM */
static char *result[] = {
/* columns rows colors chars-per-pixel */
"60 60 182 2 ",
"   c #060803",
".  c #1B230E",
"X  c #1D280C",
"o  c #23300E",
"O  c #2A3A13",
"+  c #272828",
"@  c #2B2C2D",
"#  c #38352E",
"$  c #3B3C3D",
"%  c #333631",
"&  c #324417",
"*  c #354818",
"=  c #3A4E1B",
"-  c #36441D",
";  c #3D531B",
":  c #3F4B25",
">  c #3F462A",
",  c #3F5421",
"<  c #41571D",
"1  c #435B1D",
"2  c #434D2B",
"3  c #435424",
"4  c #465C22",
"5  c #485F27",
"6  c #4A5D2E",
"7  c #464137",
"8  c #4B463D",
"9  c #4D4B3D",
"0  c #464D30",
"q  c #4C5E33",
"w  c #495638",
"e  c #52533D",
"r  c #476020",
"t  c #4A6322",
"y  c #4E6A23",
"u  c #4E672A",
"i  c #4F6928",
"p  c #516C25",
"a  c #526A2D",
"s  c #52642F",
"d  c #557426",
"f  c #587627",
"g  c #597927",
"h  c #5B7B29",
"j  c #4E603E",
"k  c #4E6231",
"l  c #526533",
"z  c #54653C",
"x  c #58613B",
"c  c #424445",
"v  c #474B47",
"b  c #464749",
"n  c #464849",
"m  c #4A4C4D",
"M  c #554F44",
"N  c #4F5845",
"B  c #4D534D",
"V  c #595346",
"C  c #575941",
"Z  c #5C564B",
"A  c #535C4B",
"S  c #5E594E",
"D  c #575246",
"F  c #4A4F56",
"G  c #4D5053",
"H  c #525456",
"J  c #575959",
"K  c #5A5C5E",
"L  c #555759",
"P  c #625B4D",
"I  c #645E51",
"U  c #58634C",
"Y  c #5B6552",
"T  c #5B695B",
"R  c #646B46",
"E  c #62654A",
"W  c #6A724B",
"Q  c #666052",
"!  c #6C6556",
"~  c #6A6C51",
"^  c #60665E",
"/  c #6D6659",
"(  c #6F685A",
")  c #626C59",
"_  c #736C5D",
"`  c #727655",
"'  c #79705E",
"]  c #7A7A5E",
"[  c #747658",
"{  c #5D5F61",
"}  c #575E68",
"|  c #5C636C",
" . c #5E6062",
".. c #626465",
"X. c #666B64",
"o. c #646769",
"O. c #66696B",
"+. c #686B6D",
"@. c #686D66",
"#. c #756E60",
"$. c #6C726C",
"%. c #777062",
"&. c #7C7463",
"*. c #7D7A64",
"=. c #7F7869",
"-. c #6C6F71",
";. c #6B7572",
":. c #69727D",
">. c #717475",
",. c #747976",
"<. c #75777A",
"1. c #767979",
"2. c #797B7E",
"3. c #807765",
"4. c #837966",
"5. c #857C6B",
"6. c #887D69",
"7. c #88816F",
"8. c #89866E",
"9. c #8C8473",
"0. c #908776",
"q. c #918876",
"w. c #958C7A",
"e. c #988F7D",
"r. c #9A917E",
"t. c #6F7884",
"y. c #717A87",
"u. c #7B7E81",
"i. c #747E89",
"p. c #78838F",
"a. c #7A8189",
"s. c #7C8693",
"d. c #7E8996",
"f. c #7F8A98",
"g. c #838589",
"h. c #86898C",
"j. c #898C8F",
"k. c #808286",
"l. c #9D9481",
"z. c #9F9980",
"x. c #9E9788",
"c. c #9F9888",
"v. c #969082",
"b. c #8A8D91",
"n. c #818C9A",
"m. c #A09784",
"M. c #A39986",
"N. c #A69C89",
"B. c #A99E8A",
"V. c #ACA28D",
"C. c #AFA590",
"Z. c #B1A691",
"A. c #B5AA95",
"S. c #B8AD97",
"D. c #B9AE99",
"F. c #BDB29C",
"G. c #8792A1",
"H. c #8995A4",
"J. c #8D99A9",
"K. c #909DAE",
"L. c #939FB0",
"P. c #95A2B2",
"I. c #98A6B7",
"U. c #9DABBC",
"Y. c #C1B69F",
"T. c #C2B7A0",
"R. c #C5BAA2",
"E. c #CABEA6",
"W. c #CDC1A9",
"Q. c #D1C5AC",
"!. c #D4C8AF",
"~. c #D6C9B0",
"^. c #DCCFB5",
"/. c #DED0B6",
"(. c #DFD2B8",
"). c #E0D3B9",
"_. c #9FADC0",
"`. c #A1AFC1",
"'. c #A4B2C5",
"]. c #A6B5C9",
"[. c #A8B7CB",
"{. c None",
/* pixels */
"{.{.{.{.{.{.{.{.{.{.{.{.{.{.{.{.{.{.{.{.{.{.{.{.{.{.{.{.{.{.{.{.{.{.{.{.{.{.{.{.{.{.{.{.{.{.{.{.{.{.{.{.{.{.{.{.{.{.{.{.",
"{.{.{.{.{.{.{.{.{.{.{.{.{.{.{.{.{.{.{.{.{.{.{.{.{.{.{.{.{.{.{.{.{.{.{.{.{.{.{.{.{.{.{.{.{.{.{.{.{.{.{.{.{.{.{.{.{.{.{.{.",
"{.{.{.{.{.{.{.{.{.{.{.{.{.{.{.{.{.{.{.{.{.{.{.{.{.{.{.{.{.{.{.{.{.{.{.{.{.{.{.{.{.{.{.{.{.{.{.{.{.{.{.{.{.{.{.{.{.{.{.{.",
"{.{.{.{.{.{.{.{.{.{.{.{.{.{.{.{.{.{.{.{.{.{.{.{.{.{.{.{.{.{.{.{.{.{.{.{.{.{.{.{.{.{.{.{.{.{.{.{.{.{.{.{.{.{.{.{.{.{.{.{.",
"{.{.{.{.{.{.{.{.{.{.{.{.{.{.{.{.{.{.{.{.{.{.{.{.{.{.{.{.{.{.{.{.{.{.{.{.{.{.{.{.{.{.{.{.{.{.{.{.{.{.{.{.{.{.{.{.{.{.{.{.",
"{.{.{.{.{.{.{.{.{.{.{.{.{.{.{.{.{.{.{.{.{.{.7 V P P P Q _ #.%./ S {.{.{.{.{.{.{.{.{.{.{.{.{.{.{.{.{.{.{.{.{.{.{.{.{.{.{.",
"{.{.{.{.{.{.{.{.{.{.{.{.{.{.{.{.{.{.{.v Z / / Z _ l.D.E.~.^.^.^.Q.B.M {.{.{.{.{.{.{.{.{.{.{.{.{.{.{.{.{.{.{.{.{.{.{.{.{.",
"{.{.{.{.{.{.{.{.{.{.{.{.{.{.{.{.{.I w.Z.A.e.7.V.~.).^.^.^.^.^.^./.W.4.I ! {.{.{.{.{.{.{.{.{.{.{.{.{.{.{.{.{.{.{.{.{.{.{.",
"{.{.{.{.{.{.{.{.{.{.{.{.{.{.{.{.4.Z.A.V.9.m.!.E.M.R.F.B.^.^.^.^.^.~.5.w.!.9.{.{.{.{.{.{.{.{.{.{.{.{.{.{.{.{.{.{.{.{.{.{.",
"{.{.{.{.{.{.{.{.{.{.{.{.{.{.{.5.B.9.4./ Z.^.^.e.' 9.E.Q.^.^.^.^.^.E._ B.^.^.9.{.{.{.{.{.{.{.{.{.{.{.{.{.{.{.{.{.{.{.{.{.",
"{.{.{.{.{.{.{.{.{.{.{.{.{.{._ Z.9.3./ C././.^.~.W.E.^.^.^./.^.^./.F.=.E.^./.!.#.{.{.{.{.{.{.{.{.{.{.{.{.{.{.{.{.{.{.{.{.",
"{.{.{.{.{.{.{.{.{.{.{.{.{.{.5.q.3._ l./.^.^.^.^.^./.^.^.^.^.^.^./.S.M./.^.^.^.S.{.{.{.{.{.{.{.{.{.{.{.{.{.{.{.{.{.{.{.{.",
"{.{.{.{.{.{.{.{.{.{.{.{.{.I 3.3.&.4.!.^.^.^.^././.^.^.^.^.^./.^./.S.A.^.^.^.^.^.w.#.{.{.{.{.{.{.{.{.{.{.{.{.{.{.{.{.{.{.",
"{.{.{.{.{.{.{.{.{.{.{.{.8 4.9.q._ M.).^.^./.^.^.^.^.^.^.^.^.^.^./.W.!.^.^.^.^.^.W.^.Z.{.{.{.{.{.{.{.{.{.{.{.{.{.{.{.{.{.",
"{.{.{.{.{.{.{.{.{.{.{.{.w.A.Z.Z.9.C./.^.^.^.^./.^.^./.^.^.^.^.^.^./.^.^.^.^./.Z.w./.Z.{.{.{.{.{.{.{.{.{.{.{.{.{.{.{.{.{.",
"{.{.{.{.{.{.{.{.{.{.{.# &.=.#.#.5.F./.^.^.^.^.^.^.^.^.^.^.^./.^.^.^.^.^.^.^.^.!.E./.V.{.{.{.{.{.{.{.{.{.{.{.{.{.{.{.{.{.",
"{.{.{.{.{.{.{.{.{.{._ 7.r.B.B.Y.^.R.~./.^.^.^.^.^./.^.^./.^.^.^.^.^.^.^.^.^./././.^.B.{.{.{.{.{.{.{.{.{.{.{.{.{.{.{.{.{.",
"{.{.{.{.{.{.{.{.{.{.q.r.9.4.&.m./.E.W./.^.^.^.^.^.^.^.^.^.^./.^.^.^.^././.^.^.^.^.^.M.{.{.{.{.{.{.{.{.{.{.{.{.{.{.{.{.{.",
"{.{.{.{.{.{.{.{.{.{.P 4.4.3.3.9./.W.S.^.^.^.^././.^.^.^.^.~.~.~.~.^.!.E.Q.^./.^.^.^.m.{.{.{.{.{.{.{.{.{.{.{.{.{.{.{.{.{.",
"{.{.{.{.{.{.{.{.{.{.V 4.6.6.4.4.!.~.F.W.C.l.m.C.W././.D.l.e.e.e.w.Z.r.r.w.m.W./.^.^.l.{.{.{.{.{.{.{.{.{.{.{.{.{.{.{.{.{.",
"{.{.{.{.{.{.{.{.{.{.{.' 4.6.6.' Y./.^.F.m.Z.V.M.w.D.^.B.C.A.A.S.M.M.M.A.V.N.w.E./.^.v.{.{.{.{.{.{.{.{.{.{.{.{.{.{.{.{.{.",
"{.{.{.{.{.{.{.{.{.{.{.4.3.3.4.' C././.W.N.A.e.M.Z.w.R.B.m.Z.S.N.7.A.B.V.5.l.B.l.^./.l.{.{.{.{.{.{.{.{.{.{.{.{.{.{.{.{.{.",
"{.{.{.{.{.{.{.{.{.{.{.9.m.9.0.&.l./.^.~.N.B.M.e.V.V.M.F.m.9.A.r.F./.V.V.v.q.A.e.~./.l.{.{.{.{.{.{.{.{.{.{.{.{.{.{.{.{.{.",
"{.{.{.{.{.{.{.{.{.{.{.%.A.A.S.V.v.^./.^.M.M.N.e.V.Z.e.^.).M.B.r.Y.).Z.B.r.B.V.l.^./.l.{.{.{.{.{.{.{.{.{.{.{.{.{.{.{.{.{.",
"{.{.{.{.{.{.{.{.{.{.{.{.V.S.S.A.w.!.^.^.N.N.9.m.D.l.V././.V.M.e.F.).D.M.A.m.9.R././.N.{.{.{.{.{.{.{.{.{.{.{.{.{.{.{.{.{.",
"{.{.{.{.{.{.{.{.{.{.{.{.M.S.S.S.w.E.~.^.V.M.S.V.w.l.~.^./.C.M.r.D.).Y.l.r.M.Q./.~.~.V.{.{.{.{.{.{.{.{.{.{.{.{.{.{.{.{.{.",
"{.{.{.{.{.{.{.{.{.{.{.{.( 5.7.9._ D.^.^.A.l.D.9.9.^./.^.).Z.l.l.V.).E.r.l.Y.).^.~.W.Z.{.{.{.{.{.{.{.{.{.{.{.{.{.{.{.{.{.",
"{.{.{.{.{.{.{.{.{.{.{.{.P 3.' &._ B././.S.r.B.e.9.V.^.^.^.M.r.V.9.R.W.r.e.A././.!.W.D.{.{.{.{.{.{.{.{.{.{.{.{.{.{.{.{.{.",
"{.{.{.{.{.{.{.{.{.{.{.{.M q.B.Z.M.l.^./.F.e.e.5.l.9.S.).A.7.C.A.N.9.E.v.v.V./.^.W.W.F.{.{.{.{.{.{.{.{.{.{.{.{.{.{.{.{.{.",
"{.{.{.{.{.{.{.{.{.{.{.{.I Z.D.S.Z.e.^./.T.w.v.A.e.M.9.W.Z.w.Z.Z.C.5.R.9.9.M./.~.F.R.R.{.{.{.y.U.t.{.{.{.{.{.{.{.{.{.{.{.",
"{.{.{.{.{.{.{.{.{.{.{.{.{.B.S.S.Z.w.~.^.E.9.l.C.E.9.e.M.W.e.e.e.m.V.!.l.w.R././.T.B.R.{.{.{.n.].i.{.{.{.{.{.{.{.{.{.{.{.",
"{.{.{.{.{.{.{.{.{.{.{.{.{.M.D.A.S.w.W./.R.&.9.D./.F.v.S.^.^.^.^.^./.^././.^.^.^./.D.F.{.:.U.`.].i.{.{.{.{.{.{.{.{.{.{.{.",
"{.{.{.{.{.{.{.{.{.{.{.{.{.e.D.S.S.w.Y./.^.!.!./.^././.^./.^.^.^.^.^.^.^.^.^./.^.^.!.V.S } H.'.].'.I.| {.{.{.{.{.{.{.{.{.",
"{.{.{.{.{.{.{.{.{.{.{.{.{.5.Z.A.S.r.C.).^.^.^.^.^./.^.^.^.^.^.^.^./.^.^.^.^.^.^.^./.A.Z {.{.I.U.s.H.} {.{.{.{.{.{.{.{.{.",
"{.{.{.{.{.{.{.{.{.{.{.{.{.D 5.B.S.M.m./.^./.^.^.^.^.^.^.^.^.^.^.^.^.^./.^.^.^.^.^./.W.Z {.{.U.K.F {.{.{.{.{.{.{.{.{.{.{.",
"{.{.{.{.{.{.{.{.{.{.{.{.{.P B.S.S.V.w.^.^.S.W./.^.^./.^.^.^./.^.^.^.^.^./.^.^.^.^.^.^.=.{.{.'.H.G {.{.{.{.{.{.{.{.{.{.{.",
"{.{.{.{.{.{.{.{.{.{.{.{.{.S Z.S.A.A.9.^./.l.R./.^.!.^.^.^.^.^.^./.^.^.^.^.^.^.^.^.^.^.9.{.y.'.f.{.{.{.{.{.{.{.{.{.{.{.{.",
"{.{.{.{.{.{.{.{.{.{.{.{.{.{.B.D.A.C.5.!.R.R.^././.!.W./.^.^.^.^.^.^.^.^.^./.^.^.^././.9.{.:.G.p.| {.{.{.{.{.{.{.{.{.{.{.",
"{.{.{.{.{.{.{.{.{.{.{.{.{.{.l.l.7.4.( F.4._ S./.^.^.^.~.^.^.^.^.^./.^.^././.^.^.!.!./.v.n.I.`.].H.{.{.{.{.{.{.{.{.{.{.{.",
"{.{.{.{.{.{.{.{.{.{.{.{.{.{.&._ 4.4._ F.A.l.E././.^.^.E.Q.^.^.^.^.^.^.^.R.!./.).A.A.).x.K.[.U.G.d.{.{.{.{.{.{.{.{.{.{.{.",
"{.{.{.{.{.{.{.{.{.{.{.{.{.{.I _ 6.6._ V.)././.^.^.^./.T.C.^.^.^./././.~.r.V.q.M.!.^./.c.J.[.J.J.U.I.J.J.{.{.{.{.{.{.{.{.",
"{.{.{.{.{.{.{.{.{.{.{.{.{.{.9 4.6.3./ e.).^././.).^.^.W.5.!.^.^.~./././.W.5.&.%.R.^./.c.H.].J.U.].].P._.t.{.{.{.{.{.{.{.",
"{.{.{.{.{.{.{.{.{.{.{.{.{.{.7 3.=.5.w.w.^.^.^.F.D.^.^.^.9.S.^.^./././././.F.R.E.^.^./.C.G.].G.`.].'.'.'.p.{.{.{.{.{.{.{.",
"{.{.{.{.{.{.{.{.{.{.{.{.{.{.8 m.B.A.C.9.^.^./.7.3 W A.^.w.v.).^./.F.W./././././.^.^.R.w.s.'.H.].'.'.P.'.s.{.{.{.{.{.{.{.",
"{.{.{.{.{.{.{.{.{.{.{.{.{.{.{.N.B.A.A.5.!.^.^.F.s d l F.B.Q l.T./.V.F././././.^././.*.3 j ;.H.].'.U.d.'.n.{.{.{.{.{.{.{.",
"{.{.{.{.{.{.{.{.{.{.O y 4 O {.w.C R N.9.E.m.=.Q.[ d d ] ] 3 2 C.W.7.V.!./././.^.R.z.*.: 1 t T ;.B :.a.I.s.{.{.{.{.{.{.{.",
"{.{.{.{.{.{.{.{.{.{.{.& h d O e e = R &.~ 4 2 ` E t g 3 p 1 2 R [ w ; W V.W.~.8.l y y ; r h p ; . {.{.{.{.{.{.{.{.{.{.{.",
"{.{.{.{.{.{.{.{.  O 4 * < h y O 4 ; p 0 y f d d p d h h h d g d d r r f - x ~ i h f & & ; ; d g < o {.{.{.{.{.{.{.{.{.{.",
"{.{.{.{.{.{.{.{.{.{.& f p h h 4 d h f y g h h h h h h h h h h h p l a p t d r h h d t i r ; y h y O {.{.{.{.{.{.{.{.{.{.",
"{.{.{.{.{.{.{.{.X < t d h h h d i p d g h h h g g d 6 q q i d z $.a.,.$.Y p g h h l X.X.U z u a 6 X {.{.{.{.{.{.{.{.{.{.",
"{.{.{.{.{.{.{.+ m >.,.U u l q Y >.X.A w u h a z 6 A 2.h.k.X.w >.j.j.j.g.2.A ) l k 1.b.h.2.g. .K +.% {.{.{.{.{.{.{.{.{.{.",
"{.{.{.{.{.{.{ K j.b.b.k.B <.<.-.b.j.j.k.N 5 @.j.+.2.j.j.j.j.-...j.j.g.2.-.>.j.u.J u.h.j.g.h.O.{.{.{.{.{.G $ {.{.{.{.{.{.",
"{.{.{.{.{.{.{.c +.o.K n { g.u.L 2.h.j.u.v ^ O.{ G u.j.h.h.g.>.$ H ..H m <.b.h.u.{ ....+.o.H {.{.{.{.{.{.{.{.{.{.{.{.{.{.",
"{.{.{.{.{.{.{.{.{.{.{.{.{.{.{.{.{.m H {.b h.j.+.{.G K H L { {.$ O.n {.{.G +.o.c n m {.{.{.{.{.{.{.@ {.{.{.{.{.{.{.{.{.{.",
"{.{.{.{.{.{.{.{.{.{.{.{.{.{.{.{ {.{.{.{.{.K 2.O.{.{.{.{.{.{.{.{.{ G {.{.{.{.{.{.{.{.{.{.{.{.{.{.{.{.{.{.{.{.{.{.{.{.{.{.",
"{.{.{.{.{.{.{.{.{.{.{.{.{.{.{.{.{.{.{.{.{.{.{.{.{.{.{.{.{.{.{.{.{.{.{.{.{.{.{.{.{.{.{.{.{.{.{.{.{.{.{.{.{.{.{.{.{.{.{.{.",
"{.{.{.{.{.{.{.{.{.{.{.{.{.{.{.{.{.{.{.{.{.{.{.{.{.{.{.{.{.{.{.{.{.{.{.{.{.{.{.{.{.{.{.{.{.{.{.{.{.{.{.{.{.{.{.{.{.{.{.{.",
"{.{.{.{.{.{.{.{.{.{.{.{.{.{.{.{.{.{.{.{.{.{.{.{.{.{.{.{.{.{.{.{.{.{.{.{.{.{.{.{.{.{.{.{.{.{.{.{.{.{.{.{.{.{.{.{.{.{.{.{.",
"{.{.{.{.{.{.{.{.{.{.{.{.{.{.{.{.{.{.{.{.{.{.{.{.{.{.{.{.{.{.{.{.{.{.{.{.{.{.{.{.{.{.{.{.{.{.{.{.{.{.{.{.{.{.{.{.{.{.{.{.",
"{.{.{.{.{.{.{.{.{.{.{.{.{.{.{.{.{.{.{.{.{.{.{.{.{.{.{.{.{.{.{.{.{.{.{.{.{.{.{.{.{.{.{.{.{.{.{.{.{.{.{.{.{.{.{.{.{.{.{.{."
};
