/* XPM */
static char *_a6d41a62f2b4a7ff347ebf3c85dc2a4ja8h7uHmwXdCtzTd[] = {
/* columns rows colors chars-per-pixel */
"50 28 245 2 ",
"   c #020102",
".  c #0A0202",
"X  c #030902",
"o  c #0A0B02",
"O  c #0C0A0A",
"+  c #03040B",
"@  c #130200",
"#  c #160604",
"$  c #1B1B03",
"%  c #1A1A0B",
"&  c #161509",
"*  c #1D1C14",
"=  c #161213",
"-  c #0F1702",
";  c #271B17",
":  c #2B1203",
">  c #1C210B",
",  c #272A1B",
"<  c #372614",
"1  c #33361A",
"2  c #27270F",
"3  c #361F24",
"4  c #2A2224",
"5  c #3C2126",
"6  c #392628",
"7  c #38352A",
"8  c #3A3B33",
"9  c #530901",
"0  c #441306",
"q  c #65150B",
"w  c #73021A",
"e  c #7B031C",
"r  c #790719",
"t  c #79181A",
"y  c #6B0F1A",
"u  c #5B330F",
"i  c #48261B",
"p  c #522819",
"a  c #46391A",
"s  c #543315",
"d  c #6E2717",
"f  c #792617",
"g  c #69381A",
"h  c #78341B",
"j  c #461F27",
"k  c #521F2A",
"l  c #5F1D39",
"z  c #6C0A27",
"x  c #750724",
"c  c #69192B",
"v  c #781625",
"b  c #651631",
"n  c #691B34",
"m  c #741332",
"M  c #4D252B",
"N  c #492525",
"B  c #52262B",
"V  c #53292D",
"C  c #562A24",
"Z  c #453724",
"A  c #54342B",
"S  c #583826",
"D  c #582A33",
"F  c #593433",
"G  c #473930",
"H  c #782924",
"J  c #673A28",
"K  c #743421",
"L  c #743C22",
"P  c #7D3C2A",
"I  c #7B3826",
"U  c #6D2338",
"Y  c #712334",
"T  c #653C37",
"R  c #39432B",
"E  c #3F4835",
"W  c #74431C",
"Q  c #5A442D",
"!  c #494935",
"~  c #584835",
"^  c #5A5639",
"/  c #464329",
"(  c #69482C",
")  c #734424",
"_  c #7A4424",
"`  c #7B452B",
"'  c #7C4B2D",
"]  c #774929",
"[  c #795628",
"{  c #684637",
"}  c #794932",
"|  c #68543E",
" . c #7B5635",
".. c #6A6238",
"X. c #683944",
"o. c #4D4C42",
"O. c #565646",
"+. c #6B4B42",
"@. c #695B42",
"#. c #75584A",
"$. c #775856",
"%. c #774750",
"&. c #786447",
"*. c #79775A",
"=. c #72684C",
"-. c #787270",
";. c #7E736F",
":. c #8B011B",
">. c #860619",
",. c #86111C",
"<. c #8D2E1B",
"1. c #862A1A",
"2. c #85331E",
"3. c #860720",
"4. c #841A22",
"5. c #8B1824",
"6. c #921C2C",
"7. c #8B2C2C",
"8. c #8A2827",
"9. c #93282A",
"0. c #833324",
"q. c #8C3426",
"w. c #8C342B",
"e. c #863A2C",
"r. c #8B3D2D",
"t. c #853926",
"y. c #91332D",
"u. c #9B332C",
"i. c #943B2B",
"p. c #953925",
"a. c #882C37",
"s. c #942C31",
"d. c #9B2B36",
"f. c #8C3A32",
"g. c #8A3734",
"h. c #953334",
"j. c #9A3433",
"k. c #943B34",
"l. c #9B3C33",
"z. c #9B3D39",
"x. c #973B39",
"c. c #A2332D",
"v. c #A33D34",
"b. c #AB3C34",
"n. c #A13B39",
"m. c #AA3A35",
"M. c #B33C34",
"N. c #B73D39",
"B. c #8B422C",
"V. c #87482B",
"C. c #94452E",
"Z. c #85522B",
"A. c #8B582F",
"S. c #834432",
"D. c #8B4432",
"F. c #834B34",
"G. c #8B4B39",
"H. c #8A4A37",
"J. c #954433",
"K. c #924B34",
"L. c #9C4C34",
"P. c #9C413B",
"I. c #944C3B",
"U. c #994B3A",
"Y. c #964438",
"T. c #8B5234",
"R. c #84553D",
"E. c #8D5439",
"W. c #8C5A3B",
"Q. c #855333",
"!. c #935335",
"~. c #94543C",
"^. c #965B3D",
"/. c #9D5C3E",
"(. c #995539",
"). c #95502F",
"_. c #A44435",
"`. c #A3423C",
"'. c #AC443B",
"]. c #A44C3B",
"[. c #AB4838",
"{. c #B34C3B",
"}. c #B2463C",
"|. c #A2543E",
" X c #A9553A",
".X c #B4523C",
"XX c #BA543F",
"oX c #8A643C",
"OX c #99643D",
"+X c #893C43",
"@X c #8C4D42",
"#X c #8B5B45",
"$X c #9C5541",
"%X c #9C5B45",
"&X c #965848",
"*X c #9A4E52",
"=X c #A84A43",
"-X c #B44E40",
";X c #A45444",
":X c #AA5C44",
">X c #A75A45",
",X c #B45441",
"<X c #B35B41",
"1X c #BC5A44",
"2X c #B95645",
"3X c #AC5A56",
"4X c #B15D5B",
"5X c #896749",
"6X c #996648",
"7X c #916C52",
"8X c #877555",
"9X c #967658",
"0X c #857053",
"qX c #AA624C",
"wX c #A2664B",
"eX c #B8664A",
"rX c #A86B56",
"tX c #B46657",
"yX c #A6725A",
"uX c #B77458",
"iX c #8C7666",
"pX c #B06B64",
"aX c #C15B46",
"sX c #C3654B",
"dX c #C3765A",
"fX c #CA6F54",
"gX c #CC7571",
"hX c #788057",
"jX c #978853",
"kX c #A8955D",
"lX c #8A8666",
"zX c #978B6A",
"xX c #939A66",
"cX c #888A76",
"vX c #9B977B",
"bX c #928370",
"nX c #A88868",
"mX c #A59C7E",
"MX c #BA957A",
"NX c #9DA471",
"BX c #ABAA72",
"VX c #C58D73",
"CX c #A49580",
"ZX c #A5A98B",
"AX c #96968C",
/* pixels */
"Y Y m n U U n l l z z w x 6.d.j.u.9.<.c.'.[.'._.[.1X1XXXaXXX.XXX_.i.B.F.F.F.@XG.@X@XT i D M D k D D ",
"c Y Y b n b l n b z w w r ,.6.s.m.j.s.c.m.'._._.[.XXXX.XaXaX1XXX{.L.J.S.P F.@X@X4X@XT T 7X$.%.X.D D ",
"c Y Y n b c b m x x r r r 4.s.n.=Xv.u.u.v._.'.}.{.XX{..XsXfXsXaX,XP.D.S.P } G.S.&XI C J #.X.X.D D D ",
"G.+Xg.@Xa.z x x x e e x 4.9.n.=X`.z.u.j.u.v.'.-X2X2X{.XXsXfXsX1X{._.Y.I.@Xe.g.S.P K J S A N V j M B ",
"4XpXpX*Xa.v w >.:.:.3.4.9.x.z.=XP.k.k.i.l.v.=X-XXX.X.X<XeXdXeX<X=X,X;X;XI.S.r.G.G.P J J ~ A F M M V ",
"4XpX4Xg.H x e e :.:.,.6.s.z.z.P.=XP.Y.z.n._.b.-X{.[..X.X<XsXeX X,X,X;X$XI.f.D.~.G.} ) { +.F F B V M ",
"4X4Xf.H t ,.>.>.:.:.,.6.h.+XP.=Xz.z.z.`.`.b.N.N.}.M.{..X.X<X<X X;X;XU.K.I.B.V./.E.^.R.{ { C A B D V ",
"gX3Xa.8.h.s.5.,.>.>.,.9.d.n.x.P.k.k.z.P.`.b.N.N.M.M.{. X X X<X).;XI.D.r.K.J.C.wXE.9X#XJ { F F N V V ",
"gX=Xa.s.s.7.s.s.d.5.,.8.j.h.g.f.w.g.e.e.Y.`.}.b.M.M..XL.t.). X).V.` d I D.>X|.^.F.) ] J J T F k V B ",
"*Xh.7.s.h.h.a.7.7.v ,.,.d.x.x.f.e.e.P I D.Y.v.b.[.p.L.V.V.W OXA.K g L I.qXK.).A._ Z.Q.} J C V B B B ",
"w.7.7.h.h.k.g.H d t t 8.y.l.w.I 0.K K J e.r.l.l._.p.B.V.] g OXT.) J F.$XuXC.!.^.W ^.W.R.J k B M B B ",
"w.w.y.y.7.g.0.d 9 q t 1.9.y.0.H 0.H h P S.B.i.u.p.p.t.W ` _ !.V.] ] ~.(.qXC.|.A.' oX` ' J k B j j j ",
"w.w.y.0.1.0.t.f f f 1.q.q.0.0.e.k.y.J.I.$X`.m.m.c.9.t.I I !.k.B.] ] E.U.<XL.OXZ.[ A.g ( C N N 3 5 5 ",
"k.k.k.0.f 0.q.1.1.<.p. X|.C.C.J.].=X;XqXtX:X'.m.c.q.2.d g /.q.t.R.] S.(. XL.(.A.[ oX[ J C i 5 6 3 3 ",
"k.U.U.r.h 2.p.<.1.<.c.<XeXqXqX>X>X3XwX6X6X6XP.i.p.2.g J J R.P P W.' K.:XL.p.).Z.W 7X5X{ A 6 3 6 3 4 ",
"i.L.(.K.t.q.p.p.1.<.p.L.eXuXdXdX>X%X6X6X^.E.B.h 2.I L ) [ Q.' ` Q.' %XqX|.2.W u u  .7XQ S 6 6 6 6 G ",
"J.C.L.K.B.B.r.i.i.i.i.C. XeXdXVXqX$XqX6X!.%XV.V.!.h Z.W W Z.W V.A.E.F.%X&XJ Q a ( 9XJ S / / G G ~ $.",
"t.B.B.D.K.D.D.I r.r.r.B.|.:XuXuXrX%X>X~.rX%X/.~.V.OXW.h W Z.A.OXZ.W F.#XpX#X( /  .MX5X9X~ O.F +.~ +.",
"K.).~.H.H.I.G.$XI.I.I.>X/.uXuXyXuX@XyXyXyX&X_ ' T.' Z.Z.Z.g g A.A.wXOXg #X5X) s oX6XF.R.F F T B +.~ ",
"_ L ` ] } ] J } &X` Q.F.Q.yX6XyX} C &XCX5X5X0 p 5X( nX9XoXMXkX9X9X) Q. .] [ oX[ [ 6X_ R.$.0X%.%.#.@.",
"5X9X( 0X8X&.9X#.S S s 7X9XnXlX&.# @ Z iXCX@.# @ =.| lX^ a =.../ ~ < < Q &.zXhXjXjXkXjXjX*.=.$.$.| 8X",
"zXzXzXlXlXZXvXlX. # . =.mXzXmX| % %   - vX% -   ^ Z $       . o     #   $ BXNXxXxXBX..$ 1     # . 1 ",
"lXvX/ ^ ! E ZXhXo   . $ *.1 ZXO.7 7 X * AX* %   ! ! -   o   .     O o   1 *.lXxX*.lX$ X   X +     ! ",
"1 2   > - + o., % % o X o   R , o O   , o.O     * * ; % .           . o.7 o , X X R X   X X + +   R ",
".     .     o   O . . .                         X   = 7 =   . .     + + o X             O O =     & ",
"; G @ . * o     . . . . . .                         + = O                     +       . @ @ @ # @ . ",
"; iX-.;.-.4   +   +       .   +       +     +   +                     +     . O   . @ @ 0 9 9 9 q 9 ",
"@ ; # = * O     + + . +                           +       +     +   + . + . O # . @ @ : x.3X2XaXaXu."
};
