/* XPM */
static char *result[] = {
/* columns rows colors chars-per-pixel */
"80 80 158 2 ",
"   c #040202",
".  c #0A0505",
"X  c #0D0807",
"o  c #0D0909",
"O  c #120605",
"+  c #130807",
"@  c #190907",
"#  c #140B0B",
"$  c #1B0D0C",
"%  c #13100F",
"&  c #1D100F",
"*  c #161111",
"=  c #1D1211",
"-  c #220E0C",
";  c #280F0D",
":  c #23110F",
">  c #2A110E",
",  c #31120E",
"<  c #39150F",
"1  c #241412",
"2  c #2B1513",
"3  c #251816",
"4  c #2C1916",
"5  c #271A19",
"6  c #2D1B19",
"7  c #321613",
"8  c #3C1712",
"9  c #331916",
"0  c #3B1B16",
"q  c #341C19",
"w  c #3B1D1A",
"e  c #35201D",
"r  c #3C211C",
"t  c #352321",
"y  c #3C2421",
"u  c #431C16",
"i  c #4A1D16",
"p  c #431E1A",
"a  c #4A1F19",
"s  c #501E16",
"d  c #521F19",
"f  c #442017",
"g  c #4C2117",
"h  c #44221C",
"j  c #4C231C",
"k  c #442A1F",
"l  c #4C291D",
"z  c #522017",
"x  c #53241D",
"c  c #5A251D",
"v  c #54291E",
"b  c #5C2A1E",
"n  c #5F311F",
"m  c #63261D",
"M  c #6D271D",
"N  c #622B1E",
"B  c #6B2B1E",
"V  c #61311E",
"C  c #452521",
"Z  c #4C2621",
"A  c #452822",
"S  c #4D2921",
"D  c #532620",
"F  c #5B2720",
"G  c #542A21",
"H  c #5C2B22",
"J  c #553024",
"K  c #5C3123",
"L  c #5A3229",
"P  c #632C22",
"I  c #6B2E22",
"U  c #722E22",
"Y  c #7B2F22",
"T  c #643223",
"R  c #6C3324",
"E  c #623A24",
"W  c #6C3925",
"Q  c #643429",
"!  c #6B3429",
"~  c #6C3B2A",
"^  c #743425",
"/  c #7B3425",
"(  c #743926",
")  c #7C3A26",
"_  c #753629",
"`  c #7D3729",
"'  c #733C29",
"]  c #7C3B29",
"[  c #6E4129",
"{  c #714025",
"}  c #7C4027",
"|  c #7D422A",
" . c #823526",
".. c #8B3626",
"X. c #833B27",
"o. c #8A3A27",
"O. c #843728",
"+. c #843C29",
"@. c #8B3C29",
"#. c #943726",
"$. c #913B27",
"%. c #933D2A",
"&. c #9B3E2B",
"*. c #A43E2A",
"=. c #814227",
"-. c #84432A",
";. c #8C432B",
":. c #854A2D",
">. c #8C4A2E",
",. c #93442C",
"<. c #9B442C",
"1. c #944A2D",
"2. c #9C4B2E",
"3. c #8E512F",
"4. c #97522F",
"5. c #9E512F",
"6. c #814330",
"7. c #8C4530",
"8. c #904531",
"9. c #9B4530",
"0. c #944A31",
"q. c #9C4C31",
"w. c #965132",
"e. c #9B5231",
"r. c #A4442C",
"t. c #A34C2F",
"y. c #A94A2E",
"u. c #B2492E",
"i. c #A6512F",
"p. c #A34C31",
"a. c #AB4D30",
"s. c #B34E31",
"d. c #BC4C31",
"f. c #A55432",
"g. c #AB5432",
"h. c #A45A34",
"j. c #AC5B34",
"k. c #B35533",
"l. c #BC5634",
"z. c #B35933",
"x. c #BB5B36",
"c. c #B25D38",
"v. c #BC5B39",
"b. c #B46135",
"n. c #BB6236",
"m. c #BF6639",
"M. c #C35233",
"N. c #C25E37",
"B. c #C66237",
"V. c #C66539",
"C. c #CD643A",
"Z. c #C46C39",
"A. c #CC683A",
"S. c #D4633B",
"D. c #DD643A",
"F. c #D46A3D",
"G. c #CD723B",
"H. c #E16A3C",
/* pixels */
"f.p.: X 0 Y _ = p H ( . . # 0 k h.R r.w 8 ^ $ . $ a & $ H ^ 4 $ O O 4 4 H } R x w 1 z.+.* # a ..H & p ' x   X : > E w.^ r.- b c . . > p # > ^ v e $ O & 3 0 W } ",
"] P $ p x j H F 2 P N . . # w b b 2 ^ g u ,.b g $ i & 1 ] =.9 $ O . $ f 9 N R  .+.H +.j 1 j j D P D 2 / u   . 1 w ' j 1 +.7 b ;.x w : i # 9 ;.Q q + O . : j , ) ",
"H 0 0 p 1 = p j P I j + . # 0 H j 2 -.1.b e b W ^ ;.R +.A j r @ X     # v V 7 $ / ^ P 7 p 0 & 1 p G P I 0 . . 1 C R 0 9 f.( x w P ( ^ ;.N / y D q O .     1 v ^ ",
"P q p 4 X . 1 q 4 ] 2 0 2 $ 0 j x w ( K ( X 1 > w q.Q H 9 > b &       + : N u . 2 @.x q w 1 . X q 1 j W 2 q 4 6 q b p j ' W H . 4 > v q.G x 1 f g O       & : X.",
"h d w $   . * q # v f O 0 9 > V / x R : b $ 2 a ( Q * $ w 2 ] 2   . . 2 $ g v j  .U h x 9 O .   1 q # T 2 - p w : =.N P j 2 x . 0 a -.f + $ 0 0 ] #   . . 9 # B ",
"2 0 w + + . o 6 1 4 ^ & O j 2 ^ ^ g R + m 2 j 9 -.T O   $ 2 b ) 1 : 2 j > n t.i.F a 2 u 9 . O   # q = p R # 1 x 2 X.c N l ; P 1 c 9 q.w O   1 1 ) H & > 7 x & | ",
"# , q o .     # 6 t D P 9 j N I ] b v $ / 2 j p g.z.>   $ 7 $ X.g + + $ T -.b ^ 7 0 # 0 4 . .     * 6 q F v 4 b N ^ R R 9 < / > D j V.;.+   2 - 2 ;.> + O , ( } ",
"# 1 6 .         % t w T 1.P 2 . j R j > X.- U / ^ A.b   # w q v o.0 . $ w.~ r B $ 9 + 6 1           # r q ;.=.x $ + b R q u ^ - @.R ;.B.4   1 w r V X.>   w i.v ",
"o * q o     o o # q c p j 1 - # h _ I a ^ x ..2 Z ;.T   O 9 & w +.i.j l Z e = ] b q X 4 5 o         $ w j x < 9 + = S ] P x R N / 6 H q.w   - 4 & j 2.>.f j r 4 ",
"# o 4 3     o o X 4 P F m u $ 2 - I ;.x Q z.j $ F P %.$ . 2 &   > ' >.r = 2   f 1.H o o 6 =         # q I N g u + 0 > @.^ d ] f.q 4 G +.R   O 9 # O 0 +.-.& 1 > ",
"K $ & 6 & o   o   4 x _ <.c 8 i O 2 +.1 _ ] # X j 9 I / 8 - 4 $ > _ -.1 > 1   9 H @.l X 1 6 #   . . . q P X.%.i 8 u   g R 1 -.Q o $ j 0 / I 7 $ 9 X w X.^ O 9 # ",
"1.2 # r 6 o   o   4 0 P C.m i 8 1 j L q o.q X   1 0 # P O.b v h H q x p 0 2   0 9 ( ( $ = q 1 o o o . q 0 ;.x.s a > 7 x j a +.1 X   9 2 -  .^ c z w F 6 T , r & ",
"T 9 $ h 6     . + q 1 z ;.# . $ 1 G q.9.c +   X 7 4 X w c / z.w.D 9 h b ^ 9 . u 2 7 H : > r = .   . & q $ ( R . . & 1 ! q.8.p .   # q - # j P @.b.-.w w j P R > ",
"R G = C p $ o o & q > ) U < m g p ! C.q.1 .   $ p #   a 2 2 W e.S w 1 f i.v   < v K R w 1 S p # o O 1 q 2 <.g i P u p +.F.' # .   2 w X + g & 9 :.>.h 9 3 b g.9 ",
"o H A = w D h 2 9 I N T x.u.k.R ~ Z ,.P h o   2 0 .   : w * o p 5.] & # T 1.0 n -.2 # T 4 5 h D w 1 p ^ D +.M.k.y.H ~ L ,.F q .   0 2     7 w o # K j.b # & | >.",
"% q ] G w x ^ e.q.P r ( x.w Z +._ h D 6 j 3 . 7 q .     4 A * O u i.^ r l m.2.) r & % b | y h x  .h.;.D q t.q.4 F O.! Z S 6 Z # X 0 2 .   o 9 q o $ N f.P q R A.",
"q 4 } :.e h ^ h.g.P h >.f.= 4 Z p x H 4 2 j & 2 p @     X 0 2   + j P X.F I 0 a h e y q 4.~ q j +.b.1.G h j.) . q G h c G & u w $ w 9 O     $ k #   $ D ^ ` P P ",
"& q & K ( & X > r.*.F ,.c.C = 6 9 ; e.l - f q q 0 @       - q o 4 ' +.9 1 a $ O = * 6 4 1 W K + o u d...P f.2.2 * q 1 u h.2 7 h q r 4 O . . + 9 6 + r ;.P 1 7 j ",
"# q $ o ^ ) O g U ; 0 q ] ! 4 7 p $ R T $ w 1 & q $ . .   @ q 9 D W j o $ 0 $   . % = r X & ;.b O N c - p w +.G 2 w 9 & ;.r - w $ 1 q O o %   - q q H W q . - p ",
"o 1 r 1 2 R -.( $ 2 a g ! ' W $ 1 w S T . 1 q o 4 q > * .   - P h q T #   2 7 O o   o 2 w : 0 ] -.P O 8 p c Q +.x $ 7 q R h   4 4 o q r 3 =   X 9 P q x D . . 6 ",
".   > h > 0 j.f ; P I c 1 r 3.p 7 h | 4.# # k # = 2 a x x # # | l # -.w     4 2 $ .   o 7 w ; G j.> 7 R I g 1 D >.2 w f 4.W . = r o = w j c p o 4 1.2 2 -.:   X ",
"  . $ j 4 j 1.2 ( L c 9   4 R O.I P ;.) q r :.Q L x , $ p F S %.F # h T % o * 4 q =   X 2 j 2 I ] 2 | L H $ . q X./ P R 1.T 6 J -.b D j ; & D x H ,.w # T l X % ",
"  o 2 c h 2.l.I P h j o X p P @.` 1 $ d - 2 | ] G G X.N | / 9 1 ^ ` G 1.h a w 4 p 1   # 0 x j v.<.^ G G h . $ h ^ @.I # , s @ r ;.R Z P O.K -.P 2 9 @.K T -.h Z ",
"o 4 v ] I 2.q.R y w q + , p G ^ F . > c F h y j x z c ,.z.K X   $ h.x.,._ F 0 0 j 2 # q P ] ^ g.;.H y y 4 + 0 p P ` w . 8 N z 9 w j x g I r.g.w     w m.k.@.! J ",
"4 I %.' q G L ! w 4 3 2 u p x h r % j q r y * + o . . > x R g $ 1 @.L h H P P & p q q  .;.T 9 D ! L y = 6 2 p p j S 1 1 j 6 w 4 # # + . + u F ! 0 @ 0 ..Z Z Q P ",
"x ^ 0 w H y ~ T w * : p 0 q Z D 2 4 4 o % q 9 q w 4 . - h u &.#.../ q . D U @.^ ^ P c I 2 j D q 7.Z w # 7 a 0 w G j 1 q 1 o 5 q 4 q q &   2 p d *.....I 1 * ^ I ",
"b P $ 4 @.5 W P 9 + 7 a + 2 x ^ A 6 % o . # : - 1 w 6 = 9 $ c S.s.D 2 . a h I 4 2.| P d o f ` 3 +.Z 2 # 0 p X 0 P R w 1   o o = & ; 4 w 2 = q $ ` H.o.a = $ j r ",
"$ w # q +.# f v 2 X q C 1 # b ,.y = o       .   . # 1 q q q 1 8.p.0 $ O q 1 H P x # 1 9 + S ~ * F C & # h w # ; W +.6 # o o     .   . * 4 q q 6 9 k. .w X $ 0 1 ",
"4 9 1 H D + x f * $ w q w # ^ R h 6 O   . X   . .     = q y y _ u.j O   7 - ( ^ $ 1 4 : 4 Q k $ F q + 1 q q 9 $ o.b r 3 o     o   . .   . 1 w t w 9.9.w   O 9 $ ",
"= q & P 2 $ R > . 4 6 : a , @.P = r 2     O .     # # # 3 Z Z O.r.9 .   $ 2 R > ; & 1 2 6 I # , I $ o q 1 7 u u ,.0 1 r 1     $       $ % # q h Z r.+.:     1 - ",
"1 6 p k.I w R & + q * @ a d F F h & 6 > . O $ . ; q q q q 6 = ! ( 9 $   : 3 H : q + & 6 R g.c f H O & 6 # ; j N v T r & q # . $ @ . 2 e q 6 q 4 6 7.F 6 O   4 = ",
"1 6 ;.f.N ] ) > + q # . , I H Z <.} 1 r 9 # # > w q q w w q = ! u X 2 $ 9 2 i.^ 7 . & w g.,.T -.T $ # q . O u ! S P p.b 2 w 2 O # 7 w q q 0 4 6 4 / - # 2 $ 9 2 ",
"q D P O   0 ( T $ 1 w X . m ^ j v 1.] r h a 0 f p p C D F x P r.7   9 c s N 4.-.j o w P j     v ( l # 6 4   $ ` ! j T 2.T r h a 0 p p p p x D D / %.$   a c a ^ ",
"U @.b 2   : ,.<.R F I Z * ^ /   + p ,.;.U a d 9 7 P %.@.I I / O.I 7 9 0 U @.: 4 9.W /  .x :   p r.@.P P I h 1 8.j   & x 2.X.P a d 2 8 ^ %. .P I  . .c 7 0 f / @.",
" .R 2 a @ 0 / 8 7 a 9.N.X.O.f . 4 1 d b X.+.9 j @./ I Z w 6 9 h c <./ 1.b / - 2 4 / ` v 4 0 $ g / > 8 x k.k._ +.1 # 4 2 x P ,.V 2 T @./ P p w 4 w w ^ &./ >.x / ",
"` w   2 u x R N   w H F ^ ^ 4 4 1   > 2 j @.G ^ Z 6 # . .     : p y.P j q P u 7 + 0 W 1 . 0 i x X.8 . x x P / T 1 q $ . 7 > N @.D ( w 6 +   .   . , F k.f v 7 / ",
"_ h o . . i I ^ 2 +.4 7 w X.f 2 .   @ 7 X p W v $ q @     . $ . $ ` x 4 w F G 1 & T R q . . O x X.g g B & 0 j X.q -     ; > $ j _ w 1 6 O     + #   2 o.0 9 w P ",
"# 4 - . . u c +.;.] : # q / p .       1 = 2 t.x # j 2 $ - 2 6 w x o.7 w h S k 6 W ) + q # . . x b / <.b $ : w X.>       . 2 # a g.q 4 h - - 1 4 q p B ^ 9 w h u ",
". # 9 $ X u 9 x x.x -   1 b P $ .     $ 4 1 H ^ F c 9 1 - $ $ f X.a.O._ +.8 $ k g.+.  1 , O # x > U g.u @ . 2 ^ f O .     1 = q T ' b j 4 1 $ $ & x <.<./ ^ / - ",
";   7 0 $ 0 F 2 U m - O # 4 h F g $ . 2 3 h j H W j x N Y  .( -.j $ p a v c 2 _ P ,.$ X 0 9 # g j w / z + . 1 2 l F 0 + X 7 = G Z W P j v m Y  .+._ w & j < I i ",
"N O . 2 p 5 q x N 0 - O O 4 1 W ,.v 0 C * ,.<.> o 0 &.6.0 D | ( . o 3 7 k i.^ u.9 b z . O 9 w 1 h b x 0 + X $ : 9 -.+.j 9 q 4 g.^ # # c a.T u D 1.v   o q > { q.",
"2.b 7 $ h 4 # N ,.2 - + . & f 9 b ] +.( Z @.N # 0 x F P a : ^ c o * & 9 N K 2 X.< g ,.g > # j = 1 X.U 4 $ O . 1 j 2 ( ^ o.T G <.u & a x F F 9 2 +.9 . o 6 9 ( v ",
"h P ] ' ( x I F x w - X     # x b r 4 @.) b 9 0 u 2 4 j H D I j # o $ 0 I p 2 1.( D j T ] ^ ' x ^ v x 9 @ O     2 v P 2 h q.T F ; a 0 1 q Z P x I 9 o * 2 p I 8 ",
"+ 3 e r t.-.I 9 2 v $ .     X 1 Q v . - +.P 9 p 4 X . 6 6 x ] e q & $ 0 v g w -.' R o 9 4 D g.W P 1 w g # .     $ 1 ( q # q ,.j q w 1 . + q 4 R T q q # 2 9 b 0 ",
"o & h N ( 1 = p > ( 9       & 4 h b > I  .j j q $ .   1 9 = ! 2 - 0 4 2 R N x H 4 b o 4 Z ' H & 1 0 7 ( $       1 $ b k 0 / ^ p g q O . . 6 3 5 Q = 2 w 9 2 -.x ",
": p f ( R #   # 2 v ( : $ 2 h 2 j <.t.R c 9 i q X O . # q * w I X ; j > ( B b N $ P 1 G r 1.g .   1 2 ) v $ - > g : ' ,.2.P x 9 a 4   O   = e = H z . , p 2 X.c ",
"2 g 9 ;.j.>   O 4 $ -.j : 3 6 v ( R ..8 p # 9 7 . X     = q q P a = x c o.^ b j - / 9 D 7 z.;.$   : > 2 ;.7 & & 9 x ] ^ / 8 q @ 0 1 . .   o 6 t r B 9 1 c P @.P ",
"# x  .) F.T   + w 9 g X.9 + . ;.:.r P - 9 # 4 4 o         # q q ] -.P 9 # H W w 9 -.1 ^ / 1.A.0   & w 9 N ^ -   : f.Q h m $ 9 + q = .     o o 1 w r >.) F ; 1 Q ",
"2 ..f h ,.]   . 9 1 f X.t.u w b r 1 ^ l 4 # 3 4 .         O q j x g 7 @ + C ^ P j ' u @.9 F p.D   @ 9 1 v <.-., j H q 4 X.q 2 O q 1     o o   $ C p P 9 7 . & F ",
"k.R # x T %.+ . 2 = . 7 | ;.l $ q   h 1.H X # 6 = .       + q P D d 0 $ 4 4 X./ c R g.g $ G ] I   . 9 # O h -.-.q & 3 . V >.h . $ 6 #     o   $ r P b 8 p + 0 2 ",
"2.4 O j u / U 2 $ 4 # @ P ,.> - 2   2 P X.h O 3 t #     . . 6 P ^ @.i ; i . f -.1 ^ X.# $ x p o.b - $ q # 2 ] +.# > & . 0 ^ ( 4 X 6 4 X     . o w I  ./ u , 0   ",
"f o   1 q # I #.x w 0 j g v u 2 9   9 w ( -.> = y 1     X   4 p ] N.m d 8 $ p G > o.q o   q 7 :  ./ h h w F 0 H , 0 & . w r 1.R O 1 q $     o . w p 2.k.d d > 1 ",
"&   . 1 q X q ! R 5.-.P : w P c h . 9 2 4 Q q 1 r =     . + q 1 N 1.$ X 1 2 P @.O.P +   X 7 4 X j I ] h.| j > g b b > . i $ f H # 2 w #   .   $ w : ;.R X # 1 w ",
".   + p & . p q f } b.f 0 4 h 2.b . > i l ' h $ f 9 X X X $ q $ X.v - i 7 4 I S.,.$ .   & p + X a q D w.e.7 w 4 v i.0 . u w K ^ 2 1 f 1   . O 4 4 2 ,.7 , u 6 q ",
"o   $ w +   5 k # . f 1.( # $ T 1.> h :.S 1 b 1 4 h x q - 7 F F ] g.g.k.P _ F a.R q .   4 9     q w # + H 2.v o : :.) : n | e q H $ 9 Z j 4 $ w N G <.y.k.p.T ] ",
"= . 2 w # o o 4 w o O g z.( 2 q b.5.+.L = o j R q w j I | -._ w +.v.G I ^ T r H q D *   9 q .   * q q . @ R z.b 1 v Z.-.X.r & % P H q p D ^ :.+.F w g.2.j ( ^ H ",
"p * 1 h 1 .   . 0 1   O j P @.P ] x H G t q 4 1.| r G @.Z.e.C r 0.0.+ 4 F x F S : w w # 9 w $ . X O 0 $   $ F R +.I / x F A y 6 h h.K r N 2.G.) C r c.! % p P x ",
"j w q Z $       - q X * H -.j 4 D 1 1 1 * 1 4 q [ b # $ u d.&.P j.f.> $ q 1 q q.9 > f q q w $ .   . 2 7 X 1 W / w 4 j * 3 4 # q 1 h } r # & N M. .I m.| & $ q * ",
"p 6 5 y $ . .   O 9 2 j ] T # @ h 4     . * q + & -.c . u  .w Z h ;.H 4 q p $ ;.l - r 1 q y $ . .   - 9 2 F -.k X - p $     . 1 9 . 9 2.9 . m M 7 Z H 7.h 4 h 7 ",
"4 y # 4 q $ # . . ; x j q H $   2 7       # 7 q & u ) K / 1 4 p p T ' j $ 2 9 n v . 4 6 * y 4 # #   . 4 b r j S X O q 2       * q 4 $ c ( T B # q C G P ] 7 : 9 ",
"* A % % 7 a x p # o W K # | h   . 4 ; @     . 4 w - j n.h 1 P I x w K 1.2 7 p | { . # r o = 0 j j 0 . & -.w 2 -.1 o = 4 ; X .   O q 0 - W j.1 7 ! I j 0 ' | $ w ",
"q [ j C p > $ j j r @.K # h R + . * 4 q 1   . ; j 2 j 3.6 ' T F 7   4 ] I b P f.] 6 r [ h j 0 - 1 D p C 8.y + T J % X $ q 6 #   X 7 p 2 ^ ^ 2 ] H P # . r @.N F ",
"7 ;.-.F G / g K O.j w ^ R w -.r w q 1 0 4   X 7 x w q.f.P Q h j o O p ! @./ 4 0 d - f 1.] x P ^ r R ^ p p O.G Z | e w 6 4 p $   # u j f z.] I G D w   : h +.@.R ",
"2 q x P G I <.n.W +   1 e.c.r.] F p w C 7 . 4 j ^ I x.q.I r p 9 X 7 p P X.x . $ m i 2 h F F v / y.n.j X   w c.c.9.^ D p 0 Z $ # 4 b ^ / V.@.P y w 1 + 8 p I @.q ",
"w 1 # O @ + 9 m ! p $ * +.] D H H c - 0 0 4 I ,.] w H T H w 3 6 : p h D D 9 = Z h j q * # O @ + i I I 7 . > ,.R D H P f & j 4 q  .<.T w H ^ j e 1 6 > a h D G : ",
"q 4 4 7 1   $ p p @./ I  .8 . a _ ` ^ D F j U p f j r ' F e $ 2 u 0 w G Z 1 q t . * q 4 4 4 &   1 p x $.M U Y 1 O I R @.P F x D R 0 S D e -.h q # q u 0 h D j * ",
"1 4 2 2 w 2 * q 4 H S.M.c u   u D ^ w 1.1.P P # w / 1 +.F 4 + 7 j # 9 D R A t o     1 2 > 7 q 1 * q -  .D.r.x ; O j v R f j.( R a # H I 3 ,.h 2 + u q + w P F q ",
"  .   . & 6 q q e 1 ;.d.8 : . 0 4 H f I 4 4 p o w ` + G j 4 + w r # ; T 7.y #         X . X 1 q q q 2 9 k.#.9 O O w 4 P j H : 9 q * L P # P h $ & p w X 7 _ ] 6 ",
"X   . .     1 y y q P s.x # . 7 : K -.> * q q $ F v # x r $ $ r w q # ^ R r # .     .   X .   . 1 C y q X.r.p . X 9 - -.R $ * e 4 q R w $ F 9 # 1 w w 2 > X.b 9 ",
"O X     . * * 5 h h I u.a .   # > N g 1 6 3 2 $ P > - I : o 6 4 1 p 4 9.g > w :     O .     X o * t C a ..r.9     : > ^ > > 1 4 1 7 c + 8 P # # q 1 q 9 u q.2 7 ",
"+ $   + q y t 6 q 1 P ,.0 $   $ 3 v 4 q 1 $ 4 w <.g 7 T $ # q * - D G T b 2 & e O   $ @   $ q t t q 6 1 X.^ 4 X   1 2 H # w $ 4 = N ;.7 f v X & 6 # 7 j P L x = ",
"# + & w y t 9 > 1 $ G c # 1 @ 2 1 -.T f . $ 4 ,.n.( ) W $ # q + $ j R z j ,.j 1 w 1 O # - w y y 9 : 1 * ^ 0 $ 2 O 9 9 1.x e o 1 w z.g.( -.v O 1 4 . - D _ f N ,.",
"u - w Z C p a F d D %.u   : d a f h.0.j   2 D I -   v ( h X 9 6 o $ I I b ) f.H q h 0 2 h C h h d F a F %.;   0 d i b j.8.q X w P c O # R R 2 + q = o 9 / P c ;.",
"d P a 7 a ^ / I P / &.I ; 7 0 P 7.k 9 1.H P O.x $   9 <.,.v S H q # / I . $ x 2.] F d c w q F / / P I o.%.x $ 0 p I -.4 J 8.j U / w X   x y.-.j x D 3 = <.u . = ",
"R 2 4 U @...I h w p a G @.I | ' ] 2 1 p +.%.R q p O 8  .u i P a.z.N o.w . 6 9 m I @.H 4 A X.....F C w a h I  .I -.R _ = 7 j ,.@.v p 7 O x ^ 9 c _ l.2.F ,.$ + q ",
"t.P R ' q 1 o + . . > a y.-.L h c i 2 $ 2 T 9 . p u x ( i   0 I /  .R 1 4 = . 7 7 ^ q.G | H q $ # o . o 7 c l.N T 7 U 2 9 X h P & # p i v X.> # D R ) O.F * 6 $ ",
"x H T & 4 $       o . @ ^ I q r x x & & g +.0 . O @ z ) b > ^ > 9 j X.w 2 .   ; 1 - G Q z & 6 O     . X . ; @.j 9 w N w > # R ^ 2 . + > x ;.r j P 1 0 P ^ q >   ",
"2 ,.V o h > @ $ 3 q 9 0  .q 9 q a x 9 h | 1 q #   . g N ^ / R : : w X.7 .     . 4 = p f.w $ h - + $ 4 q 7 a Y 2 4 w j j 2 K W & 9 .   O c ` T <.j # 4 g / - .   ",
"$ R ^ f c w 4 1 $ # 0 _ k./ U ` u : r 1.1.. & 7 + # g 9 U l.j - . 2 ^ j .       - 1 4 ^ T p c 9 4 - # $ h %.a.^ ^ / 7 1 h z.T   4 ; X $ x 9 ,.i.0 O + q ) 7 .   ",
"1 w b ,.x 4 2 i I d I I p d d b x + S ] 2.$ X w 2 = j 8 > $.c @   & w D u - +   2 $ 9 9 ] +.f 1 2 c m x ^ Q w c u B < $ Q -.=.. $ u $ $ x ; u $.u @   2 f Z 0 $ "
};
