/* XPM */
static char *result[] = {
/* columns rows colors chars-per-pixel */
"50 50 4 1 ",
"  c #333536",
". c #2D2F2E",
"X c #262725",
"o c #1F1F1E",
/* pixels */
"oooooooooooooooooooooooXoooooXoooooooooooooooooooo",
"oXoXoXXXXoXoXoXooXooXoXoooXXoooXooXoXoXXXoXoXoXoXo",
"XXXXXXXXXXXXXXXXXXXXXXXXXXXXXXXXXXXXXXXXXXXXXXXXXX",
".X.X.XXXXXXXXXXXXXXXXXXX.X.X.X.XXXXXXXXXXXXXXXXXXX",
".X..............X.......X..X....X................X",
"..................................................",
".. . ... ..  ......  .. .. .  . .. .. ... ... .. .",
". .        .   ..  .  .    .  . ..  .   . .    .  ",
"        .       .                .                ",
"                .                .                ",
"                .                .                ",
".... . .. .....XX..... ..  .....XXX..... ........X",
"oooooooooooooooooooooooooooooooooooooooooooooooooo",
"ooooooooooooooooooooooooooooooooooXXXXoooooooooooo",
"XXoXXoXoXoXoXoXooXooXoXoXXXXoXXoXXXXXXoXXoXXoXXoXX",
"XXXXXXXXXXXXXXXXXXXXXXXXXXXXXXXX...XXXXXXXXXXXXXXX",
"X.X.XXXX..X.X.XXX.X.X.X.XX.XX.......XX.XXXXX.X.XX.",
"........X...............X..... . .................",
"...... ...........  ..  ..... .  ........... ... .",
".  . ..... ... . . . . ....       . . . ......  ..",
"  .  . .           .   ...         .     .   .  . ",
"       ..               .                .        ",
"        .                                .        ",
"       .                                 .        ",
"XXXXXXXooXXXXXXXXXX.XXXXoXX..XX.X.X.XXXXXooXXXXXXX",
"oooooooooooooooooooooooooooooooooooooooooooooooooo",
"oXoooooooooooooooooooooooooooooooooooooooooooooooo",
"oXXXXXXXXXXXXXXXoXoXXXXXXXXXXXXXXXoXXoXXXXXXXXXXXX",
"X.XXXXXXXXXXXXXXXXXXXXXXXXXXXXXXXXXXXXXXXXXXXXXXXX",
"X.XX..X.X...X.X.X....X.XX.X.X..XXX...X..X.X...X..X",
"................X....X............................",
".. . ... ........... .. ..... ....... ....... ....",
". . .. .. ..  .... . ..  . .. . ..  .   . . .  .  ",
"                .                .                ",
"                .          .     .     .          ",
"                .                                 ",
"                .                .                ",
"ooooooXooooooooooooooooXoXooooooooooooooooooooooXo",
"oooooooooooooooooooooooooooooooooooooooooooooooooo",
"oXooXooooXoXooXooXooXoooooXXoXooooooXooXXooooXXooo",
"XXXXXXXXXXXXXXXXXXXXXXXXXXXXXXXXXXXXXXXXXoXXXXXXXX",
"XXXXXXXXXXXXXXXXXXXXX.XXXX.XXXXXX.XXXXXXXXXXXXXXXX",
"...X..XX..........X..X..XX.X....X........X...X...X",
"..................................................",
". .... ..........  . . .... ... ... ....... . . . ",
"  .  . . .    .   . .  ... .  ..   .     ... .  . ",
"       ..               ..        .      .        ",
"                        .                .        ",
"       .                                 .        ",
"       .                .                ..       "
};
