/* XPM */
static char *result[] = {
/* columns rows colors chars-per-pixel */
"80 80 37 1 ",
"  c #7F390A",
". c #7F3F12",
"X c #7E4014",
"o c #823B0B",
"O c #8B3E0B",
"+ c #803E11",
"@ c #8E400C",
"# c #93420C",
"$ c #9B450D",
"% c #9F480D",
"& c #A0470D",
"* c #A44A0E",
"= c #AB4E0E",
"- c #B04F0F",
"; c #AF500F",
": c #B3510F",
"> c #BA550F",
", c #AB4F10",
"< c #AE5110",
"1 c #B35311",
"2 c #BD5610",
"3 c #BF5811",
"4 c #BF5C18",
"5 c #C15A14",
"6 c #C55E19",
"7 c #C6601C",
"8 c #C9631E",
"9 c #CC6622",
"0 c #CE6925",
"q c #CF6A28",
"w c #D06A27",
"e c #D26D2A",
"r c #D5702E",
"t c #D67231",
"y c #D97635",
"u c #DB7837",
"i c None",
/* pixels */
"io  oo oo   o   ooooiOoooooooooo oooooooioooooooooooooo oo iX            o    Xi",
"iO%=*==**===*;==--*OoO==****=-*==*==**&Oo#$$$#$##$$$#$$$$$@ @@$$$$$$#$$$$#$$$#o@",
" %580qwwww0ww88w965*O-5688888876568855>$#>5689090888888873:@=23355755555555555%o",
"o;euuuuuyyrrtrrrw55=$5etuuuuyyyerturr63&=5euuuuuuuttytytr8>#17rtyyryyytttttt85*o",
"o<tuyw967553553555>-O6uute98765555755>5&*6turw9575555555332#>ruutrr00998988853=o",
"o<ru933323333333>55*&6yt65>555555522533&*6ut855>33333333332#>rur75333333333333;o",
"o<tt533333333333555-O9ue55>>5>55553333>&=6uw555533333333332#1ru733333333333333;o",
"o<rr333333333333555>O8y05555555>5233533&*6t055>533333333331#2rt333333333333335*o",
"o;re333533525252>55=O6y955555>552>55>5>&*6uw>5555>>5333333:#2rt3333333335>>555=o",
"o=w9333>3325252555>&&5t65555555555>555>$*5e655>55555333333=#>er33333333355555>&o",
"o%>>>>>>>>>>>>>>5>=&O=15=-5:--5>:>::::*#$=1-===,=-===<<=;;%@;662>33>>3>3>>>>>-$o",
"io#$#$$$$#$###$#&OOOoOOO#OOO&OOOOO$$###oo$$%$%%$$$%$$%$$$$# @$%%%%%%&&&&&&&%%%Oo",
"ioooooOooo o#$#$&O&&O&&&&&$OOOooOOOOOOOOOOOO@@OOOooO@@@@@O@oO@@@@@@@ooo@OOO#OOo ",
"o@12>::>>* %55576866755655555&o=5555553333234322-OO-13343434233>33:3&o*2552>5>$o",
" *69w0885:@;7rtyyuyyyyyyyytw5=O58rtyyurytttrttq6>#*6qttyytttttttty85:@3rutrr05&o",
"o=eurrrw7:#:wuutew98876666655-*6tyutrwww99999983>$-wuuyttqq999998875:@7tw77755=o",
" ,e93333>:#;wue633>>5>5>55>5>*&6yt6555>55>>5>555>$=wur85555>55>5>5>>-O6e55>5>5*o",
" ,e533333-@1eu8333335555>5555=&7yw5>>>5>555>55>>>$=eu8555>5>>5>55555:$6955>555*O",
" ,0533333:O:eu63333355>5>5>55=O8yw>555>5>5555>55>$=eu65555555>55>555-O59>5555>*o",
"o=0333333:#-et533333>>5555555&&5y85>5>55>55>55>52$=er5>5>5>5555>55>>:O5855>555=o",
"o=6333335-O-0e55555555>5>5555*$6y855555>5:555>552#=wr55>5>5555>53335,#255>55>5*o",
" *>>22>1:*O=55>3>>>5>55>5>>>-$$5855555555555555>-O=565555555>5>5333>*#13>5555:$o",
".O%%&&%%%#oO%&**&&&&&&&&&&&&$Oo*-----===-=&=--==&OO==-=-&==-::*-===*#o$&&**=&&Oo",
"ioO@#O@@#OOOOOOOOOOoooOOOoOOOOoOOOOOOOOOOOOOOOOOOoOOOOOOOOOOOOOO####OOOOOOOOOOoi",
"o$22555555335535555OO*>2:211>>>>5-5>->=oO->>24411212>>>5>-$o&>>5554234323335>:Oo",
"o16qttutuyyytttte05*O56werterewww9ee955O-6ettyyyyyyrrttr85-O55wetuuyyyyryttt9>$o",
"o:0uuurwq0998886555&&6tuuuytwww8w9w9855$-euuyteqq988885555=O5ryytrw9999898866>$o",
"O:qur6553223>55>555&*6uue665555>5555555$:eut655255>5555>55=O5ryr5555232232>55>$o",
"o:wu9>>533333325555&&5ur5555>55555:555>O-eu8555>55>5>55555>O>ey655>>33333333>>$O",
"o>0u655533333352555&&6u0>35>>5>55555555&>et5>>55>5>555>555=O>ry5>555333333335>$o",
"o1wu5>5>3333333355>&&8y955555555>555555O-ww55555>555>555>5=O2rt5>533333333335>%o",
"O:9t5555333333335>>&&5y8>5>55>5>>55:555&-ww55>>555>555>>55-O>ee555>333333333>>$o",
"o:56>5553335333333;%$505333552535>5555-O-55555555555555555*O555555>5>55>555>>-$o",
"o$=====-===,,=;;==&@o;;;:;:;;:;;-=-:--&O$>>:>--5-::--5---&Oo&=--=-=-==-======&Oo",
"ioOOOOOOOOoO@@@@@#@###@#@@@@@@@@OOOOOOOOOOOOOOOOOOOOOOOOOOOooOOOO@OOOOOOOOOOOOoo",
"oO->:::::& $223544466311111;;$ %---::--55--5----=OO--->>>->5>>>5>>>>$o&:>>>5>>Oo",
"o*6898886:O:8ryyuuuyyyyttyy03;@39rrrertteererr855O=5wertttreweterr95-$5rrteew5*O",
"o,euterr6-#:wuyyrq98777777753*$7yuuyrrew96ww99755$-wuyyttew8w9ww9885-O5ue97565*o",
"o=rw55>55:O:ryr5333333>333333=$7yy655555>>5555>5-#-wut95555>>5555>5>=#6w555555*o",
"o<e5>555>-#:ry73333333333333>;$7ue5555555555555>5O=wu85555>555555>55-#6955>555*O",
"o=0533333:@:ey55335>5>5533333=$7uw555>5:555-5-555O-ee55555555:555555=O685>5>55*o",
"o=0333333:@:wy53335>555>33332=#8u9555>5555555>555&-er55555:55555>5>5-O55>55555*o",
"o=8335333;@;wr553335555>33332*$8e55555555>555555-O-wr5555555>55->555-O5555>55>*o",
" *3>>>3>:&@;563>>3>5>5>52332:$$365555555>55>5555-&-665555>>5555555>5*O555>555:%o",
" @&&&&&&%#o@*&*&****&&&&****$@O=>-------------:-&OO---------=--->--=OO&**=*=*&Oo",
"X @@#O@#@@@@@#####OoOO#O@@#@@@O#OOOOOOOOOOOOOOOOOooOOOOOOOOOOOOOOOOOOooOOooOOOoi",
"o$133554443433552>>$o=5>3433>>525>>>5>-OO--55-->---->--5--Oo$5---1->-->-::--:=O ",
"o18rytyututtttttt85=$50wtttryrrreertw55O&5699wwwwwwww99955=O5599rrrteerwweww8># ",
"o1yuuyrw00888878555=$8uyyyrr9999w808733#:euuuyterrrr8www65:O5wyytyttee8ww00055&o",
"o2tuw633>35>5223555=&9uy87355>555>5>35>$:rutw7555555555555:O59yt85555555555555$o",
"o>yt5333533355525>5=%wuw>52555525233333$1yt855>55>555-5555=$5ry9>55555>>55>55>O ",
"@2yr33533333>>555>5;$8u75252>525>55333>$:tw555555555555:55-O5ey65>5>5555>>5555&o",
" >yr33335>5>5555525=$0t7>5252552555>33>$1tr55>5>>5>55>5555-O5wr5>5555>555555>5&o",
"@1rq333355555>5>252=$0t75552>5255>5533>#1yw55>55>555555555-&59r555>555225>>55>$O",
" ;75333>>5555>5>522$#47>>>>>>>>>>>>>>>=#:08355555555555555=O5695>55>>52555>55-Oo",
"X$*=*====*=*====*=%@ $%%&&&&&&&*&&&&&&$o$::::-------=-=--&OO=-->::::::::-:::=&OO",
"ioOOOOOOOoOOOOOO@@@@@@@@@@@#@@OOO@@O@@OoOOOOO&##&OOO$OOOOOOoOOO&######@#O$O$OOoo",
"oO=>-->->*o&::>5222332>>>>2>:$ *::>>::>:>>----=-=OO=-->-->-5:---::==$o%;------Oo",
" *8eeeww5:O-50eryttttrrrrrr82=#>50weeewewww90ew65O*550erwrrree0weew6=#>8ereew8=o",
"o,euew085>O>wuuuyreww00000872=%5tyuuuttrrew6wew65&-5euuyttrreewwwew5=#2ruw9985=o",
"o=e8>5>>3>O:eut97232232322322=$5yye8755555>5555>5*-5ryt85555555555>>=$5e65>5>5=o",
"o,w555553>$1eu953333333333335=$5yy5>5552>5555>555O-5ty8555>5555>>555-O5w555555=o",
"o,055>333:$-et553333333333332=%7ye55>525>5>5>5>55&-5rt5>555>555>>5>5=#>955>5>5=o",
"o,9533333>O>et553333333333335=$5yw>552525555>555>$=5e9555>5>5>555555=#5655>555=o",
"o=53333331O:wt333333555>55>55*$5u0>>5555555>>555>$=5we55>555>5555>55=O555>5555=o",
"o*2222222*O168333333>5>55>55:$$5w7555>555>55555>:$=587>555>555555555&O55555>>>&o",
"oO&%&%%%&$oO&*****&*****&=*&&Oo===:=->--->==---=&o$---------=:-:=--=Oo&=*====&OO",
"i O@@@O@OOOO@@#@#@@OOo#OOOO$OOOO#@##OOOOOOOOOO##OooOO#O#O#O@OOOOOOOOOooOOOOOoOoi",
"oO-222415322>5>5222% %12>>>>5>>>::::::;Oo*----::;;;:-::;-=%oO=,,-----:--------Oo",
"o,6etttutttrrtere93=@269eeew9wwwwwwe053%&58weetrrrrewweew6:O:56699996686886855*o",
"o-ruuutrw0099958963,#5uuuuyyrerrrwee05>&*5ruuutrreww0www062#29yytuyyuyttttrr85*o",
"o1rue853>55>555>233=#8uue97555553333353%*5yue86533252252>51#2euyrw966565555555=o",
"o,tu6>5555>55555333=#7yt53>5555>3333333%=5ut55553333>55555>O2ruq5>5555-555>555&o",
"o,tt535>>555>5>5333,#7uq3333>5553333333%*6ue5>5>3333555>>55O1ry6555>55555>>5>5=o",
"o<et5333>5>5>555333=$7u9333355>53333333&*6tw>55533335>5555>O2et55>55:555>55>55=o",
"o1ee333355>555>5353=#6y9>533>5>5333533>%=5t9>5>533335>5>555O2et5555>55555>5555*o",
"o=86555355555>5>35>*#3q55>5>55>5333335-$*5852323222222555>*O>005>55555555>>5>>&O",
"o#=,-=--==------==*#o%,==*==*==***=***&@O=**,****=*=*=***&&O*>12>->>---5>->>--OO",
"ioOOOOOOOOOOOOOOOOOOooO@OO@OOOOO@@o@OOOooO$O#####@#@#@#@OOOoO##OOOOOOOOOOO#O#OOO",
"ii+ooooooooooooooooiiio@oooOOoooo.@@oOoiiooo  ooo ooooooooOiooooooOoooOoooOooooi"
};
